<svg id="Layer_1" data-name="Layer 1" xmlns="http://www.w3.org/2000/svg" viewBox="0 0 237.6 237.6"><defs><style>.cls-1{fill:#0db5e6;}.cls-2{fill:#fff;fill-rule:evenodd;}</style></defs><title>daylight</title><rect class="cls-1" width="237.6" height="237.6" rx="51.84" ry="51.84"/><path class="cls-2" d="M-27.65,985.8l-80.74-80.74a8.75,8.75,0,0,1-1.5-2C-51.54,908.37-32,931.92-27.65,985.8Z" transform="translate(129 -780.06)"/><path class="cls-2" d="M89.74,901.86a8.69,8.69,0,0,1-2,3.21l-91.8,91.8a8.8,8.8,0,0,1-12.41,0l-3.73-3.73C-17.61,917,2.14,902.14,89.74,901.86Z" transform="translate(129 -780.06)"/><path class="cls-2" d="M-20.06,804.32l3.47-3.47a8.8,8.8,0,0,1,12.41,0l91.8,91.8a8.68,8.68,0,0,1,2,3.21C14.37,895.48-15.62,878.26-20.06,804.32Z" transform="translate(129 -780.06)"/><path class="cls-2" d="M-108.39,892.65l81.13-81.13c-3.21,62.09-20.17,80.12-82.88,83.64A8.71,8.71,0,0,1-108.39,892.65Z" transform="translate(129 -780.06)"/><path class="cls-2" d="M-22.51,913.18a15,15,0,0,0,15-15,15,15,0,0,0-15-15,15,15,0,0,0-15,15A15,15,0,0,0-22.51,913.18Z" transform="translate(129 -780.06)"/></svg>