<?xml version="1.0" encoding="UTF-8" standalone="no"?>
<svg width="512px" height="512px" viewBox="0 0 512 512" version="1.1" xmlns="http://www.w3.org/2000/svg" xmlns:xlink="http://www.w3.org/1999/xlink" xmlns:sketch="http://www.bohemiancoding.com/sketch/ns">
    <!-- Generator: Sketch 3.1 (8751) - http://www.bohemiancoding.com/sketch -->
    <title>Artboard 1</title>
    <desc>Created with Sketch.</desc>
    <defs/>
    <g id="Page-1" stroke="none" stroke-width="1" fill="none" fill-rule="evenodd" sketch:type="MSPage">
        <g id="Artboard-1" sketch:type="MSArtboardGroup">
            <rect id="Rectangle-1" fill="#D8D8D8" sketch:type="MSShapeGroup" x="0" y="0" width="512" height="512"/>
            <path d="M436.534123,356.352741 C430.608272,345.724016 411.77207,341.291091 396.789608,335.648602 C388.236501,332.428459 379.270262,328.642136 370.668741,324.881549 C357.855218,319.28088 343.760342,312.364488 331.485826,308.317595 C325.831093,306.451777 320.350649,306.49038 316.793847,304.17741 C312.959473,301.684292 311.219803,295.884174 309.447857,292.583607 C309.63183,292.66403 302.786116,280.343202 303.735027,280.989804 C303.125013,280.571603 302.227744,280.220958 301.207826,279.912134 C299.852239,273.504016 299.910336,263.428602 301.61773,262.621154 C308.279471,259.481433 313.350011,237.808999 314.001984,230.628819 C314.001984,230.628819 320.686318,240.076933 323.933271,229.956482 C327.180224,219.836031 326.027975,211.089208 329.22006,201.142471 C332.450875,191.079925 336.617691,177.7715 329.70097,180.502671 C324.104333,182.712699 325.640665,180.502671 326.344279,177.739331 C327.38679,173.640966 335.675235,140.892655 322.739063,117.010192 C328.658459,117.64071 332.686489,117.544202 332.686489,117.544202 C330.162515,117.302933 327.444886,116.711018 324.640113,115.887485 C336.201332,117.354403 345.161115,116.074067 345.161115,116.074067 C339.041609,116.02903 331.689164,113.905858 324.407726,110.972021 C331.085605,111.953184 335.985083,111.830941 335.985083,111.830941 C327.922569,111.055661 317.516827,106.120896 309.580188,101.700839 C285.899378,82.0293334 256.389543,77.0334466 239.970805,79.4783107 C239.970805,79.4783107 256.205571,75.392814 277.310767,78.9056978 C277.310767,78.9056978 235.74912,71.3169682 217.890877,80.1313468 C217.890877,80.1313468 228.280482,70.9920586 252.635859,70.3390225 C252.635859,70.3390225 209.124749,65.4428604 202.630842,92.8639419 C202.630842,92.8639419 188.668298,93.2789254 181.19966,105.030358 C181.19966,105.030358 189.64303,98.0882305 192.889983,100.697158 C192.889983,100.697158 176.742362,109.511537 177.391107,135.301636 C178.039852,161.091736 180.873674,181.004511 183.471882,183.616656 C183.471882,183.616656 170.048345,179.579413 175.338361,193.737106 C180.973729,208.827709 181.66766,210.387918 182.119523,217.954129 C182.629481,226.507937 187.696794,239.439981 192.889983,234.543819 C192.889983,234.543819 199.057903,259.027847 205.555037,262.293027 C209.560473,264.306823 209.521742,272.831678 208.524418,279.908917 L206.187644,279.908917 C205.968168,280.179138 205.819699,280.52335 205.790651,280.986587 C204.089712,284.518772 202.840636,290.257769 199.261241,292.58039 C197.089074,293.989404 195.568881,297.695303 194.36499,299.207259 C187.987277,307.198104 184.3046,306.709131 173.956953,309.974312 C152.854985,316.636567 134.454507,327.303895 116.002389,334.818635 C107.475102,338.289699 98.2506563,340.068659 91.5146808,343.928971 C86.7410785,346.663359 74.0534313,354.374331 73.1335688,358.009458 C71.2099265,365.601405 72.3169891,368.059137 72.3169891,377.153388 L72.3169891,400 C72,416 192.889517,448 254,448 C315.117188,448 439,418 439,400 L439,387.093691 C436.998896,376.365241 439.138786,365.360135 437.350703,357.182708 C435.611033,357.719935 436.414702,356.140424 436.534123,356.352741 Z" id="Shape" fill="#747A80" sketch:type="MSShapeGroup"/>
        </g>
    </g>
</svg>