<svg id="Layer_1" data-name="Layer 1" xmlns="http://www.w3.org/2000/svg" viewBox="0 0 705.52 709.93"><defs><style>.cls-1{fill:#fff;fill-rule:evenodd;}</style></defs><title>logo_null</title><path class="cls-1" d="M2923.51,290.34l-285-285a30.78,30.78,0,0,1-5.29-7.09C2839.2,17,2908.19,100.16,2923.51,290.34Z" transform="translate(-2632.35 371.5)"/><path class="cls-1" d="M3337.88-6a30.68,30.68,0,0,1-7.19,11.32l-324,324a31.07,31.07,0,0,1-43.81,0l-13.18-13.18C2958.95,47.33,3028.68-5,3337.88-6Z" transform="translate(-2632.35 371.5)"/><path class="cls-1" d="M2950.32-350.22l12.25-12.25a31.07,31.07,0,0,1,43.81,0l324,324a30.66,30.66,0,0,1,7.19,11.31C3071.84-28.47,2966-89.26,2950.32-350.22Z" transform="translate(-2632.35 371.5)"/><path class="cls-1" d="M2638.54-38.44l286.34-286.34c-11.33,219.15-71.2,282.8-292.53,295.2A30.71,30.71,0,0,1,2638.54-38.44Z" transform="translate(-2632.35 371.5)"/><path class="cls-1" d="M2941.67,34a52.93,52.93,0,0,0,52.83-52.83,52.93,52.93,0,0,0-52.83-52.83,52.93,52.93,0,0,0-52.83,52.83A52.93,52.93,0,0,0,2941.67,34Z" transform="translate(-2632.35 371.5)"/></svg>