<svg id="Layer_1" data-name="Layer 1" xmlns="http://www.w3.org/2000/svg" viewBox="0 0 705.52 709.93"><defs><style>.cls-1{fill:#9c9d9d;}.cls-1,.cls-2{fill-rule:evenodd;}.cls-2{fill:#00abdf;}</style></defs><title>logo_ok</title><path class="cls-1" d="M6519.38,282.43l-285-285a30.76,30.76,0,0,1-5.29-7.09C6435.07,9.13,6504.06,92.26,6519.38,282.43Z" transform="translate(-6228.23 379.41)"/><path class="cls-2" d="M6933.75-13.86a30.68,30.68,0,0,1-7.19,11.32l-324,324a31.07,31.07,0,0,1-43.81,0l-13.18-13.18C6554.82,39.43,6624.55-12.86,6933.75-13.86Z" transform="translate(-6228.23 379.41)"/><path class="cls-1" d="M6546.19-358.12l12.25-12.25a31.07,31.07,0,0,1,43.81,0l324,324A30.67,30.67,0,0,1,6933.46-35C6667.71-36.38,6561.86-97.17,6546.19-358.12Z" transform="translate(-6228.23 379.41)"/><path class="cls-2" d="M6234.41-46.34l286.34-286.34c-11.32,219.15-71.2,282.8-292.53,295.2A30.7,30.7,0,0,1,6234.41-46.34Z" transform="translate(-6228.23 379.41)"/><path class="cls-2" d="M6537.54,26.11a52.93,52.93,0,0,0,52.83-52.83,52.93,52.93,0,0,0-52.83-52.83,52.93,52.93,0,0,0-52.83,52.83A52.93,52.93,0,0,0,6537.54,26.11Z" transform="translate(-6228.23 379.41)"/></svg>