<svg id="Layer_1" data-name="Layer 1" xmlns="http://www.w3.org/2000/svg" viewBox="0 0 346.28 69.71"><defs><style>.cls-1,.cls-2{fill:#fff;}.cls-1{fill-rule:evenodd;}</style></defs><title>logo</title><path class="cls-1" d="M-682.72,267.82l-28-28a3,3,0,0,1-.52-0.7C-691,241-684.22,249.15-682.72,267.82Z" transform="translate(711.31 -202.83)"/><path class="cls-1" d="M-642,238.73a3,3,0,0,1-.71,1.11l-31.82,31.82a3,3,0,0,1-4.3,0l-1.29-1.29C-679.24,244-672.39,238.82-642,238.73Z" transform="translate(711.31 -202.83)"/><path class="cls-1" d="M-680.09,204.92l1.2-1.2a3,3,0,0,1,4.3,0l31.82,31.82a3,3,0,0,1,.71,1.11C-668.15,236.52-678.55,230.55-680.09,204.92Z" transform="translate(711.31 -202.83)"/><path class="cls-1" d="M-710.7,235.54l28.12-28.12c-1.11,21.52-7,27.77-28.72,29A3,3,0,0,1-710.7,235.54Z" transform="translate(711.31 -202.83)"/><circle class="cls-2" cx="30.37" cy="34.63" r="5.19"/><path class="cls-1" d="M-388.78,244V223.28H-401v-6.82h32.92v6.82h-12.26V244h-8.39ZM-518,244V216.46h8.39V237.2h19V244H-518Zm29.7,0V216.46h8.39V244h-8.39Zm46.76-18.26h-8.21q-0.12-3-3.41-3.06h-5.12c-0.89,0-2,0-3.27,0l-2.66,0a6,6,0,0,0-3.24.66,3.68,3.68,0,0,0-1.39,2.95c-0.08,1-.12,2.44-0.12,4.48q0,3.81.63,5c0.65,1.24,2.24,1.9,4.79,2,0.36,0,2.53,0,6.49,0,2.29,0,3.69,0,4.2-.08a4.08,4.08,0,0,0,2.45-.9,3.28,3.28,0,0,0,.74-2.41q0-.26,0-0.83h-10.64v-5.16h18.8v3.82a35.93,35.93,0,0,1-.43,6.62q-1.06,5.07-7.71,5.25-1.5,0-10.51,0-5.9,0-8.52-.2-6.27-.49-7.85-4.94-0.85-2.4-.85-8.45,0-6.73,1-9.34a6.88,6.88,0,0,1,5.06-4.21q3-.79,12.51-0.79,7.36,0,10,.21,5.84,0.55,6.92,4.84a19.14,19.14,0,0,1,.39,4.41h0ZM-439,244V216.46h8.39v10.2h19.09v-10.2h8.39V244h-8.39V233.48h-19.09V244H-439Z" transform="translate(711.31 -202.83)"/><path class="cls-1" d="M-543,244v-9.55l-15.74-18H-548l9.3,11.42,9.22-11.42H-519l-15.55,18V244H-543Zm-87,0V216.46h23.84a36.58,36.58,0,0,1,6.16.44,7.32,7.32,0,0,1,5.49,3.66c0.94,1.69,1.41,4.93,1.41,9.69a52.79,52.79,0,0,1-.22,6q-1,6.52-6.76,7.49a35.4,35.4,0,0,1-5,.24H-630Zm8.39-6.57h14.08a12.93,12.93,0,0,0,3.42-.32,3.47,3.47,0,0,0,2.36-2.84,22.63,22.63,0,0,0,.22-4q0-4.07-.91-5.36-1.15-1.63-5-1.63h-14.22v14.13h0Zm28.33,6.57h9.48l2.62-4.92h17.79l2.73,4.92h9.18l-15.07-27.56h-11.24L-593.23,244h0Zm15.14-10.66,5.86-11,6,11h-11.88Z" transform="translate(711.31 -202.83)"/><path class="cls-2" d="M-621.74,251l2.74,7h0.18l2.79-7h0.91l-3.22,7.88h-1.16l-2.72-7-2.7,7h-1.16L-629.3,251h0.91l2.79,7h0.18l2.74-7h0.93Z" transform="translate(711.31 -202.83)"/><path class="cls-2" d="M-605.07,256.2a2.87,2.87,0,0,1-.63,2.19,3.44,3.44,0,0,1-2.2.51h-3.45a3.38,3.38,0,0,1-2.27-.6,2.75,2.75,0,0,1-.66-2.1v-2.45a3,3,0,0,1,.64-2.17,3.2,3.2,0,0,1,2.29-.64h3.45a3.22,3.22,0,0,1,2.13.54,3,3,0,0,1,.7,2.27v2.45Zm-0.82-2.52a2.17,2.17,0,0,0-.41-1.56,2.42,2.42,0,0,0-1.62-.39h-3.45a2.48,2.48,0,0,0-1.62.41,2,2,0,0,0-.48,1.54v2.52a2,2,0,0,0,.45,1.51,2.57,2.57,0,0,0,1.64.39h3.45a2.5,2.5,0,0,0,1.63-.37,2.14,2.14,0,0,0,.4-1.53v-2.52Z" transform="translate(711.31 -202.83)"/><path class="cls-2" d="M-603,255.67v3.23h-0.82V251h5.67a3.05,3.05,0,0,1,2.12.63,2.08,2.08,0,0,1,.62,1.62,2.09,2.09,0,0,1-.35,1.27,2.38,2.38,0,0,1-.76.62,1,1,0,0,1,.68.53,2.58,2.58,0,0,1,.31,1.34v1.84h-0.82V257a1.4,1.4,0,0,0-.29-1,1.29,1.29,0,0,0-.94-0.29H-603Zm0-3.83v3h5.1a1.76,1.76,0,0,0,1.22-.37,1.76,1.76,0,0,0,.45-1.35,1.18,1.18,0,0,0-.44-0.95,1.78,1.78,0,0,0-1.19-.37H-603Z" transform="translate(711.31 -202.83)"/><path class="cls-2" d="M-594,258.9V251h0.82v7.09h5.93v0.79H-594Z" transform="translate(711.31 -202.83)"/><path class="cls-2" d="M-585.88,251h6.08a3.08,3.08,0,0,1,2.19.6,3.21,3.21,0,0,1,.6,2.26V256a3.35,3.35,0,0,1-.58,2.23,2.86,2.86,0,0,1-2.21.7h-6.08V251Zm0.82,7.09h5.33a2,2,0,0,0,1.58-.49,2.86,2.86,0,0,0,.33-1.65v-2.09a2.53,2.53,0,0,0-.39-1.64,2,2,0,0,0-1.53-.43h-5.32v6.29Z" transform="translate(711.31 -202.83)"/><path class="cls-2" d="M-568.78,251l2.74,7h0.18l2.79-7h0.91l-3.22,7.88h-1.16l-2.72-7-2.7,7h-1.16l-3.22-7.88h0.91l2.79,7h0.18l2.74-7h0.93Z" transform="translate(711.31 -202.83)"/><path class="cls-2" d="M-559.94,258.9h-0.82V251h0.82v7.88Z" transform="translate(711.31 -202.83)"/><path class="cls-2" d="M-557.94,251h6.08a3.08,3.08,0,0,1,2.19.6,3.21,3.21,0,0,1,.6,2.26V256a3.35,3.35,0,0,1-.58,2.23,2.86,2.86,0,0,1-2.21.7h-6.08V251Zm0.82,7.09h5.33a2,2,0,0,0,1.58-.49,2.86,2.86,0,0,0,.33-1.65v-2.09a2.53,2.53,0,0,0-.39-1.64,2,2,0,0,0-1.53-.43h-5.32v6.29Z" transform="translate(711.31 -202.83)"/><path class="cls-2" d="M-547.8,258.9V251h7v0.79H-547v2.62h6v0.79h-6v2.88h6.16v0.79h-7Z" transform="translate(711.31 -202.83)"/><path class="cls-2" d="M-535.8,258.9V251H-530q2.74,0,2.74,2a2,2,0,0,1-.35,1.26,1.21,1.21,0,0,1-.63.44,1.35,1.35,0,0,1,.49.23,1.85,1.85,0,0,1,.73,1.61,2.16,2.16,0,0,1-.7,1.81,3.39,3.39,0,0,1-2.06.5h-6.06Zm0.82-7.09v2.57h5.36a2.15,2.15,0,0,0,1.2-.25,1.15,1.15,0,0,0,.4-1,1.24,1.24,0,0,0-.35-1,1.86,1.86,0,0,0-1.25-.34H-535Zm0,3.37v2.93h5.56a1.8,1.8,0,0,0,1.23-.36,1.47,1.47,0,0,0,.41-1.16,1.27,1.27,0,0,0-.43-1.08,2.07,2.07,0,0,0-1.27-.33H-535Z" transform="translate(711.31 -202.83)"/><path class="cls-2" d="M-525.64,258.9V251h0.82v7.09h5.93v0.79h-6.75Z" transform="translate(711.31 -202.83)"/><path class="cls-2" d="M-508.5,256.2a2.87,2.87,0,0,1-.63,2.19,3.44,3.44,0,0,1-2.2.51h-3.45a3.38,3.38,0,0,1-2.27-.6,2.75,2.75,0,0,1-.66-2.1v-2.45a3,3,0,0,1,.64-2.17,3.2,3.2,0,0,1,2.29-.64h3.45a3.22,3.22,0,0,1,2.13.54,3,3,0,0,1,.7,2.27v2.45Zm-0.82-2.52a2.17,2.17,0,0,0-.41-1.56,2.42,2.42,0,0,0-1.62-.39h-3.45a2.48,2.48,0,0,0-1.62.41,2,2,0,0,0-.48,1.54v2.52a2,2,0,0,0,.45,1.51,2.57,2.57,0,0,0,1.64.39h3.45a2.5,2.5,0,0,0,1.63-.37,2.14,2.14,0,0,0,.4-1.53v-2.52Z" transform="translate(711.31 -202.83)"/><path class="cls-2" d="M-501.12,258.92h-3.45a3.21,3.21,0,0,1-2.25-.63,3,3,0,0,1-.65-2.18v-2.29a3.06,3.06,0,0,1,.66-2.22,3.1,3.1,0,0,1,2.24-.66h3.45q2.86,0,2.86,2.25h-0.82a1.28,1.28,0,0,0-.42-1.05,2.57,2.57,0,0,0-1.61-.4h-3.45a2.37,2.37,0,0,0-1.65.44,2.3,2.3,0,0,0-.45,1.65v2.29a2.18,2.18,0,0,0,.45,1.59,2.42,2.42,0,0,0,1.65.42h3.45a2.69,2.69,0,0,0,1.57-.35,1.29,1.29,0,0,0,.46-1.11h0.82a2.08,2.08,0,0,1-.66,1.69A3.42,3.42,0,0,1-501.12,258.92Z" transform="translate(711.31 -202.83)"/><path class="cls-2" d="M-497,258.9V251h0.82v3.38h1.32l5-3.38h1.43l-5.56,3.76,5.69,4.12h-1.43l-5.08-3.71h-1.35v3.71H-497Z" transform="translate(711.31 -202.83)"/><path class="cls-2" d="M-481.4,258.92h-3.45a3.21,3.21,0,0,1-2.25-.63,3,3,0,0,1-.65-2.18v-2.29a3.06,3.06,0,0,1,.66-2.22,3.1,3.1,0,0,1,2.24-.66h3.45q2.86,0,2.86,2.25h-0.82a1.28,1.28,0,0,0-.42-1.05,2.57,2.57,0,0,0-1.61-.4h-3.45a2.37,2.37,0,0,0-1.65.44,2.3,2.3,0,0,0-.45,1.65v2.29a2.18,2.18,0,0,0,.45,1.59,2.42,2.42,0,0,0,1.65.42h3.45a2.69,2.69,0,0,0,1.57-.35,1.29,1.29,0,0,0,.46-1.11h0.82a2.08,2.08,0,0,1-.66,1.69A3.42,3.42,0,0,1-481.4,258.92Z" transform="translate(711.31 -202.83)"/><path class="cls-2" d="M-477.12,258.9V251h0.82v3.41h7V251h0.82v7.88h-0.82v-3.65h-7v3.65h-0.82Z" transform="translate(711.31 -202.83)"/><path class="cls-2" d="M-466.91,258.9h-0.91l4.08-7.88h1.25l4.08,7.88h-1l-1-2h-5.53Zm1.45-2.77h4.67l-2.34-4.55Z" transform="translate(711.31 -202.83)"/><path class="cls-2" d="M-456.34,258.9h-0.82V251h0.82v7.88Z" transform="translate(711.31 -202.83)"/><path class="cls-2" d="M-454.46,258.9V251h1.81l6.06,7.07V251h0.82v7.88h-1.18l-6.24-7.27h-0.45v7.27h-0.82Z" transform="translate(711.31 -202.83)"/><path class="cls-2" d="M-440.82,258.9V251h5.31a3.24,3.24,0,0,1,2.12.56,2.36,2.36,0,0,1,.65,1.88,2,2,0,0,1-.62,1.74,3.73,3.73,0,0,1-2.14.46H-440v3.25h-0.82Zm0.82-4h4.74a2.39,2.39,0,0,0,1.33-.25,1.39,1.39,0,0,0,.37-1.15,1.77,1.77,0,0,0-.37-1.27,1.73,1.73,0,0,0-1.25-.37H-440v3Z" transform="translate(711.31 -202.83)"/><path class="cls-2" d="M-431.53,258.9V251h0.82v7.09h5.93v0.79h-6.75Z" transform="translate(711.31 -202.83)"/><path class="cls-2" d="M-423.18,258.9h-0.91L-420,251h1.25l4.08,7.88h-1l-1-2h-5.53Zm1.45-2.77h4.67l-2.34-4.55Z" transform="translate(711.31 -202.83)"/><path class="cls-2" d="M-414.33,251h8.48v0.79h-3.84v7.09h-0.82v-7.09h-3.82V251Z" transform="translate(711.31 -202.83)"/><path class="cls-2" d="M-404.92,258.9V251h7v0.79h-6.16v2.62h6v0.79h-6v3.67h-0.82Z" transform="translate(711.31 -202.83)"/><path class="cls-2" d="M-387.43,256.2a2.87,2.87,0,0,1-.63,2.19,3.44,3.44,0,0,1-2.2.51h-3.45a3.38,3.38,0,0,1-2.27-.6,2.75,2.75,0,0,1-.66-2.1v-2.45a3,3,0,0,1,.64-2.17,3.2,3.2,0,0,1,2.29-.64h3.45a3.22,3.22,0,0,1,2.13.54,3,3,0,0,1,.7,2.27v2.45Zm-0.82-2.52a2.17,2.17,0,0,0-.41-1.56,2.42,2.42,0,0,0-1.62-.39h-3.45a2.48,2.48,0,0,0-1.62.41,2,2,0,0,0-.48,1.54v2.52a2,2,0,0,0,.45,1.51,2.57,2.57,0,0,0,1.64.39h3.45a2.5,2.5,0,0,0,1.63-.37,2.14,2.14,0,0,0,.4-1.53v-2.52Z" transform="translate(711.31 -202.83)"/><path class="cls-2" d="M-385.35,255.67v3.23h-0.82V251h5.67a3.05,3.05,0,0,1,2.12.63,2.08,2.08,0,0,1,.62,1.62,2.09,2.09,0,0,1-.35,1.27,2.38,2.38,0,0,1-.76.62,1,1,0,0,1,.68.53,2.58,2.58,0,0,1,.31,1.34v1.84h-0.82V257a1.4,1.4,0,0,0-.29-1,1.29,1.29,0,0,0-.94-0.29h-5.42Zm0-3.83v3h5.1a1.76,1.76,0,0,0,1.22-.37,1.76,1.76,0,0,0,.45-1.35,1.18,1.18,0,0,0-.44-0.95,1.78,1.78,0,0,0-1.19-.37h-5.16Z" transform="translate(711.31 -202.83)"/><path class="cls-2" d="M-365,258.9h-0.82v-7.25h-0.45l-4.24,7.25H-371l-4.24-7.25h-0.47v7.25h-0.82V251h1.75l4,6.72,4-6.72H-365v7.88Z" transform="translate(711.31 -202.83)"/></svg>