<svg id="Layer_1" data-name="Layer 1" xmlns="http://www.w3.org/2000/svg" viewBox="0 0 698.69 154.12"><defs><style>.cls-1{fill:#fff;fill-rule:evenodd;}</style></defs><title>logo</title><path class="cls-1" d="M-719.15-394.73c0-.88,0-1.76.09-2.62v-0.07h0a41.11,41.11,0,0,1,36.71-38.18l-8.49,12.9a30.78,30.78,0,0,0-17.82,25q-1,15.34,21.47,28.06l-3.35,10.79C-706.6-364.06-719.15-377.07-719.15-394.73Z" transform="translate(728.48 460.59)"/><path class="cls-1" d="M-616.27-323.35A41,41,0,0,1-628.93-312a41.47,41.47,0,0,1-5.5,2.66h0a41.12,41.12,0,0,1-48.23-14h14.25a30.83,30.83,0,0,0,26.32,5.63q24.11-7.66,20.39-34l10.71-2.58q4.46,18.2-5.3,31h0Z" transform="translate(728.48 460.59)"/><path class="cls-1" d="M-660.73-431.88q30.61,24.31,44.13,59.62-6.15,1.3-12.29,2.11A169.89,169.89,0,0,0-666.54-423Z" transform="translate(728.48 460.59)"/><path class="cls-1" d="M-659.81-410.9q-23.57,28.34-30.42,67.44h10.49a173.44,173.44,0,0,1,28-57.76Q-655.59-406.2-659.81-410.9Z" transform="translate(728.48 460.59)"/><path class="cls-1" d="M-593.7-364.17q-39.39,16.41-78.77,9.65,2.1-5.95,4.61-11.71A163.53,163.53,0,0,0-599.51-373Z" transform="translate(728.48 460.59)"/><path class="cls-1" d="M-601.35-431.48q1.15,0.66,2.23,1.39l0.06,0h0a41.12,41.12,0,0,1,16.47,46.18l-8.57-13a30.75,30.75,0,0,0-12.87-24q-12.8-8.51-35,4.56l-7.67-8.29C-634.17-436-616.64-440.31-601.35-431.48Z" transform="translate(728.48 460.59)"/><path class="cls-1" d="M-722.58-365.61l5.53-8.91a41.79,41.79,0,0,0,8.7,10l-3.05,4.91-1.83,2.93-0.3.41a10.55,10.55,0,0,0-1,1.55,9.89,9.89,0,0,0-1.09,4.51,10.69,10.69,0,0,0,5.88,9.33l0.13,0.07a12.21,12.21,0,0,0,6.7,1.38l0.54,0h76.71a20.65,20.65,0,0,1-6.48,12h-69.68A25.87,25.87,0,0,1-716-330.47l-0.1-.05c-7.37-3.92-12.37-11.31-12.37-19.72a21.14,21.14,0,0,1,2.32-9.62h0a22.43,22.43,0,0,1,2-3.26l1.56-2.5h0Zm51.89-83.53,0-.05,0-.05,0,0q0.51-.82,1.1-1.6l0.32-.52,0.05,0a23.75,23.75,0,0,1,7.45-6.19c11.66-6.25,26.71-2.5,33.44,8.31h0l0.2,0.32,6,9.59a42.69,42.69,0,0,0-12.88,3.25l-4.27-6.86-0.15-.24-0.06-.1c-3.17-5.07-10.32-6.84-15.8-3.91a11.12,11.12,0,0,0-3.5,2.9l-0.09.12-0.08.11c-0.19.25-.36,0.5-0.52,0.77l-0.09.14-38.22,61.53c-3.62-3.52-6.45-7.67-7.18-12.43l34.22-55.09h0Zm60.53,28.95c-4.56-1.39-9.59-.77-14.43.76l39.66,63.72a10.09,10.09,0,0,1,.28,10.22c-0.1.19-.21,0.38-0.33,0.56s-0.23.36-.36,0.54a11.86,11.86,0,0,1-9.68,4.89h-10.87a35.75,35.75,0,0,1-3.29,12H-595a25,25,0,0,0,20.46-10.28q0.4-.56.76-1.14t0.69-1.18a21.3,21.3,0,0,0-.64-21.57Z" transform="translate(728.48 460.59)"/><path class="cls-1" d="M-529.67-410.56h65.27V-391h-65.27v12.53H-460V-359h-89.2v-51.6h19.53Zm170.1,51.6h-64.78a27.2,27.2,0,0,1-19.37-7.54,25,25,0,0,1-8-18.94v-30.71a25,25,0,0,1,8-18.94,27.2,27.2,0,0,1,19.37-7.54h64.78v19.53h-64.78c-5.21,0-7.81,2.33-7.81,7v30.66c0,4.64,2.6,7,7.81,7h45.25V-391h-26.53v-19.53h46.06V-359h0Zm110.85,0h-19.53v-26.53h-51.44V-405h51.44v-11.72q0-6.35-4.23-6.35h-55.34c-2.71,0-4.07,2.12-4.07,6.32V-359h-19.53V-416.8a27,27,0,0,1,6.59-18.2,21.48,21.48,0,0,1,17-7.62h55.34A21.66,21.66,0,0,1-255.32-435a27,27,0,0,1,6.59,18.2V-359h0Zm110.85,0h-19.53v-26.53h-51.44V-405h51.44v-11.72q0-6.35-4.23-6.35H-217c-2.71,0-4.07,2.12-4.07,6.32V-359h-19.53V-416.8A27,27,0,0,1-234-435a21.48,21.48,0,0,1,17-7.62h55.34A21.65,21.65,0,0,1-144.47-435a27,27,0,0,1,6.59,18.2V-359h0Zm108.08-25.8a26.91,26.91,0,0,1-6.35,18A22,22,0,0,1-53.4-359h-72.27v-19.53H-53.4q4.07,0,4.07-6.27T-53.4-391H-106a21.94,21.94,0,0,1-17.25-7.81,26,26,0,0,1-6.51-17.9A26.81,26.81,0,0,1-123.07-435,21.66,21.66,0,0,1-106-442.62H-33.7v19.53h-72.43q-4.07,0-4.07,6.35,0,6.19,4.07,6.19h52.68a22.12,22.12,0,0,1,17.31,7.79A26.86,26.86,0,0,1-29.8-384.76Z" transform="translate(728.48 460.59)"/><polygon class="cls-1" points="268.64 37.5 243.62 37.5 198.81 37.5 179.28 37.5 179.28 17.97 268.64 17.97 268.64 37.5"/><path class="cls-1" d="M-547.2-339.11h8.37v1.6h-8.37v6h8.72v1.65H-549v-16.44h10.58v1.62h-8.76v5.6h0Zm15.61-7.22v14.78h8.3v1.67h-10.14v-16.44h1.84Zm14.45,7.22h8.37v1.6h-8.37v6h8.72v1.65H-519v-16.44h10.58v1.62h-8.76v5.6h0Zm24.3,3.73h1.78a8.22,8.22,0,0,1-.56,3.4,3.35,3.35,0,0,1-2,1.74,11.81,11.81,0,0,1-4,.53,12,12,0,0,1-3.19-.34,3.88,3.88,0,0,1-2-1.23,5.61,5.61,0,0,1-1.08-2.51,21.89,21.89,0,0,1-.34-4.26,22.44,22.44,0,0,1,.33-4.27,5.78,5.78,0,0,1,1.08-2.55,3.93,3.93,0,0,1,2-1.27,11.52,11.52,0,0,1,3.18-.36,13,13,0,0,1,3.16.31,4,4,0,0,1,1.87,1,3.55,3.55,0,0,1,.92,1.62,12.14,12.14,0,0,1,.36,2.49l-1.77,0a9,9,0,0,0-.48-2.36,2,2,0,0,0-1.21-1.08,8.7,8.7,0,0,0-2.82-.34,7.92,7.92,0,0,0-2.35.29,2.71,2.71,0,0,0-1.41,1,4.92,4.92,0,0,0-.74,2.05,22.23,22.23,0,0,0-.22,3.49,22.24,22.24,0,0,0,.22,3.48,4.76,4.76,0,0,0,.73,2,2.63,2.63,0,0,0,1.41,1,8.46,8.46,0,0,0,2.36.27,12.42,12.42,0,0,0,2.4-.19,3,3,0,0,0,1.42-.63,2.35,2.35,0,0,0,.71-1.21,8.26,8.26,0,0,0,.2-2h0Zm10.33,5.49v-14.78h-5.38v-1.67h12.56v1.67h-5.33v14.78h-1.84Zm18.84-6.59h-5.58v6.59h-1.82v-16.44h7.82a5.06,5.06,0,0,1,3.62,1.13,5,5,0,0,1,1.19,3.68,11.48,11.48,0,0,1-.18,2.1,2.59,2.59,0,0,1-.77,1.4,3.64,3.64,0,0,1-1.88.82q2.59,0.19,2.59,3.14v4.17h-1.84v-3.73a3.54,3.54,0,0,0-.34-1.7,1.92,1.92,0,0,0-1-.89,4.9,4.9,0,0,0-1.76-.27h0Zm-5.58-1.56h5.38a6.74,6.74,0,0,0,2.07-.25,1.91,1.91,0,0,0,1.12-.92,4.05,4.05,0,0,0,.37-1.92,5.77,5.77,0,0,0-.3-2,2.16,2.16,0,0,0-1-1.16,3.42,3.42,0,0,0-1.69-.37h-6V-338h0Zm15.28-.07a23.46,23.46,0,0,0,.31,4.31,5.41,5.41,0,0,0,1.06,2.49,4,4,0,0,0,2.06,1.24,13.92,13.92,0,0,0,3.46.35,14.17,14.17,0,0,0,3.49-.35,4,4,0,0,0,2.06-1.23,5.43,5.43,0,0,0,1.06-2.5,23.59,23.59,0,0,0,.31-4.31,24.58,24.58,0,0,0-.3-4.33,5.38,5.38,0,0,0-1.06-2.5,3.93,3.93,0,0,0-2-1.23,13.92,13.92,0,0,0-3.47-.34,14.18,14.18,0,0,0-3.5.34,3.93,3.93,0,0,0-2.06,1.24,5.42,5.42,0,0,0-1.06,2.5,23.63,23.63,0,0,0-.31,4.33h0Zm1.84,0a30.19,30.19,0,0,1,.16-3.64,4.32,4.32,0,0,1,.67-2,2.52,2.52,0,0,1,1.47-1,11.57,11.57,0,0,1,2.76-.25,11.47,11.47,0,0,1,2.75.25,2.51,2.51,0,0,1,1.46,1,4.27,4.27,0,0,1,.67,2,29.16,29.16,0,0,1,.17,3.64,28.86,28.86,0,0,1-.17,3.62,4.35,4.35,0,0,1-.67,2,2.53,2.53,0,0,1-1.47,1,11,11,0,0,1-2.73.26,11,11,0,0,1-2.73-.26,2.55,2.55,0,0,1-1.48-1,4.38,4.38,0,0,1-.68-2,28.11,28.11,0,0,1-.18-3.6h0Zm30.83-8.23v16.44h-2.9l-9.27-14.86v14.86h-1.82v-16.44h2.9l9.27,15v-15h1.82Zm7.27,0v16.4h-1.87v-16.4H-414Zm16.07,10.93h1.78a8.22,8.22,0,0,1-.56,3.4,3.35,3.35,0,0,1-2,1.74,11.81,11.81,0,0,1-4,.53,12,12,0,0,1-3.19-.34,3.88,3.88,0,0,1-2-1.23,5.62,5.62,0,0,1-1.08-2.51,21.9,21.9,0,0,1-.34-4.26,22.45,22.45,0,0,1,.33-4.27,5.77,5.77,0,0,1,1.08-2.55,3.93,3.93,0,0,1,2-1.27,11.53,11.53,0,0,1,3.18-.36,13,13,0,0,1,3.16.31,4,4,0,0,1,1.87,1,3.55,3.55,0,0,1,.92,1.62,12.1,12.1,0,0,1,.36,2.49l-1.77,0a9,9,0,0,0-.48-2.36,2,2,0,0,0-1.21-1.08,8.7,8.7,0,0,0-2.82-.34,7.92,7.92,0,0,0-2.35.29,2.71,2.71,0,0,0-1.41,1,4.92,4.92,0,0,0-.74,2.05,22.24,22.24,0,0,0-.22,3.49,22.25,22.25,0,0,0,.22,3.48,4.76,4.76,0,0,0,.73,2,2.63,2.63,0,0,0,1.41,1,8.46,8.46,0,0,0,2.36.27,12.42,12.42,0,0,0,2.4-.19,3,3,0,0,0,1.42-.63,2.35,2.35,0,0,0,.71-1.21,8.26,8.26,0,0,0,.2-2h0Zm20.12-9.51a8.57,8.57,0,0,0-2.46.29,2.77,2.77,0,0,0-1.46,1,4.9,4.9,0,0,0-.77,2,21.11,21.11,0,0,0-.23,3.49,21.22,21.22,0,0,0,.23,3.47,4.68,4.68,0,0,0,.77,2,2.76,2.76,0,0,0,1.47,1,9,9,0,0,0,2.45.27,8,8,0,0,0,3.07-.45,2.6,2.6,0,0,0,1.45-1.52,9.13,9.13,0,0,0,.4-3.07V-337h-5.27v-1.58h7.11v1.91a14.88,14.88,0,0,1-.33,3.47,4.33,4.33,0,0,1-1.08,2.08,4.22,4.22,0,0,1-2,1.06,14.36,14.36,0,0,1-3.3.31,11.55,11.55,0,0,1-3.39-.41,4.09,4.09,0,0,1-2-1.35,5.84,5.84,0,0,1-1-2.52,22.32,22.32,0,0,1-.3-4.06,21.78,21.78,0,0,1,.31-4.07,5.91,5.91,0,0,1,1.06-2.55,4.14,4.14,0,0,1,2-1.38,11,11,0,0,1,3.34-.42,13,13,0,0,1,4.19.5,3.12,3.12,0,0,1,1.86,1.52,8.77,8.77,0,0,1,.64,3h-1.78a5.52,5.52,0,0,0-.48-2.13,2.1,2.1,0,0,0-1.36-1,12.34,12.34,0,0,0-3.08-.28h0Zm10.7,6.78a23.46,23.46,0,0,0,.31,4.31,5.41,5.41,0,0,0,1.06,2.49,4,4,0,0,0,2.06,1.24,13.91,13.91,0,0,0,3.46.35,14.17,14.17,0,0,0,3.49-.35,4,4,0,0,0,2.06-1.23,5.43,5.43,0,0,0,1.06-2.5,23.59,23.59,0,0,0,.31-4.31,24.62,24.62,0,0,0-.3-4.33,5.39,5.39,0,0,0-1.06-2.5,3.93,3.93,0,0,0-2-1.23,13.92,13.92,0,0,0-3.47-.34,14.18,14.18,0,0,0-3.5.34,3.93,3.93,0,0,0-2.06,1.24,5.43,5.43,0,0,0-1.06,2.5,23.63,23.63,0,0,0-.31,4.33h0Zm1.84,0a30.06,30.06,0,0,1,.17-3.64,4.31,4.31,0,0,1,.67-2,2.53,2.53,0,0,1,1.47-1,11.57,11.57,0,0,1,2.76-.25,11.47,11.47,0,0,1,2.75.25,2.51,2.51,0,0,1,1.46,1,4.27,4.27,0,0,1,.67,2,29.27,29.27,0,0,1,.17,3.64,28.84,28.84,0,0,1-.17,3.62,4.35,4.35,0,0,1-.67,2,2.53,2.53,0,0,1-1.47,1,11,11,0,0,1-2.73.26,11,11,0,0,1-2.73-.26,2.55,2.55,0,0,1-1.48-1,4.38,4.38,0,0,1-.68-2,28.11,28.11,0,0,1-.18-3.6h0Zm27.29-8.23h2l-5.82,16.44h-2.67l-5.86-16.44h2l5.25,15,5.14-15h0Zm7.69,7.22h8.37v1.6h-8.37v6h8.72v1.65h-10.54v-16.44h10.58v1.62h-8.76v5.6h0Zm21,2.63h-5.58v6.59h-1.82v-16.44h7.82a5.06,5.06,0,0,1,3.62,1.13,5,5,0,0,1,1.19,3.68,11.39,11.39,0,0,1-.18,2.1A2.59,2.59,0,0,1-305-338a3.65,3.65,0,0,1-1.88.82q2.59,0.19,2.59,3.14v4.17h-1.84v-3.73a3.54,3.54,0,0,0-.34-1.7,1.92,1.92,0,0,0-1-.89,4.91,4.91,0,0,0-1.76-.27h0Zm-5.58-1.56h5.38a6.75,6.75,0,0,0,2.08-.25,1.91,1.91,0,0,0,1.12-.92,4.05,4.05,0,0,0,.37-1.92,5.78,5.78,0,0,0-.3-2,2.16,2.16,0,0,0-1-1.16,3.42,3.42,0,0,0-1.69-.37h-6V-338h0Zm30-8.3v16.44h-2.89L-297-344.75v14.86h-1.82v-16.44h2.9l9.27,15v-15h1.82Zm8.63,0,5.79,14.12,5.84-14.12h3v16.47h-1.82V-345l-6.21,15.13h-1.58l-6.26-15v15h-1.82v-16.47h3.06Zm22.09,7.25h8.37v1.6h-8.37v6h8.72v1.65H-256v-16.44h10.58v1.62h-8.76v5.6h0Zm27.73-7.22v16.44h-2.9l-9.27-14.86v14.86h-1.82v-16.44h2.9l9.27,15v-15h1.82Zm9.51,16.44v-14.78h-5.38v-1.67h12.56v1.67h-5.33v14.78h-1.84Zm18.05,0,6-16.44h2.65l6.13,16.44h-2l-1.23-3.38h-8.3l-1.32,3.38h-2Zm11-5-3.64-10.1-3.62,10.1h7.27Zm7.35-.09h1.82a10.07,10.07,0,0,0,.15,2,1.82,1.82,0,0,0,.58,1,2.56,2.56,0,0,0,1.26.47,18.86,18.86,0,0,0,2.43.12,11.9,11.9,0,0,0,2.29-.18,2.83,2.83,0,0,0,1.29-.54,1.73,1.73,0,0,0,.57-0.92,6,6,0,0,0,.15-1.48,3.88,3.88,0,0,0-.31-1.75,1.82,1.82,0,0,0-1.2-.84,11.44,11.44,0,0,0-2.75-.29,19.58,19.58,0,0,1-2.71-.29,5.39,5.39,0,0,1-1.87-.7,3.06,3.06,0,0,1-1.16-1.35,5.46,5.46,0,0,1-.39-2.24A5.77,5.77,0,0,1-180-344a3.22,3.22,0,0,1,1.08-1.41,4.91,4.91,0,0,1,1.88-.79,13.18,13.18,0,0,1,2.8-.25,12.25,12.25,0,0,1,3.25.35,3.28,3.28,0,0,1,1.9,1.33,5,5,0,0,1,.66,2.8l0,0.24h-1.8a6,6,0,0,0-.16-1.53,1.79,1.79,0,0,0-.59-0.94,2.73,2.73,0,0,0-1.2-.5,11.18,11.18,0,0,0-2.08-.15,10.31,10.31,0,0,0-2.73.27,2,2,0,0,0-1.24.87,3.64,3.64,0,0,0-.34,1.73,3,3,0,0,0,.42,1.74,2.5,2.5,0,0,0,1.5.84,19.3,19.3,0,0,0,3.32.38,10.81,10.81,0,0,1,3,.49,3.15,3.15,0,0,1,1.69,1.33,5,5,0,0,1,.58,2.64,7.52,7.52,0,0,1-.32,2.41,3,3,0,0,1-1,1.48,4.42,4.42,0,0,1-1.87.76,15.76,15.76,0,0,1-2.92.23,17.59,17.59,0,0,1-3.52-.27,3.26,3.26,0,0,1-2-1.24,4.9,4.9,0,0,1-.72-2.95V-335h0Zm23.54,5.07,6-16.44h2.65l6.13,16.44h-2l-1.23-3.38h-8.3l-1.32,3.38h-2Zm11-5L-149.6-345l-3.62,10.1H-146ZM-131-335h1.82a10.07,10.07,0,0,0,.15,2,1.81,1.81,0,0,0,.58,1,2.56,2.56,0,0,0,1.26.47,18.86,18.86,0,0,0,2.43.12,11.9,11.9,0,0,0,2.29-.18,2.83,2.83,0,0,0,1.29-.54,1.73,1.73,0,0,0,.57-0.92,6,6,0,0,0,.15-1.48,3.88,3.88,0,0,0-.31-1.75A1.82,1.82,0,0,0-122-337a11.44,11.44,0,0,0-2.75-.29,19.58,19.58,0,0,1-2.72-.29,5.39,5.39,0,0,1-1.87-.7,3.06,3.06,0,0,1-1.16-1.35,5.46,5.46,0,0,1-.4-2.24,5.77,5.77,0,0,1,.35-2.13,3.22,3.22,0,0,1,1.08-1.41,4.91,4.91,0,0,1,1.88-.79,13.18,13.18,0,0,1,2.8-.25,12.26,12.26,0,0,1,3.25.35,3.28,3.28,0,0,1,1.9,1.33A5,5,0,0,1-119-342l0,0.24h-1.8a6,6,0,0,0-.16-1.53,1.79,1.79,0,0,0-.59-0.94,2.73,2.73,0,0,0-1.2-.5,11.18,11.18,0,0,0-2.08-.15,10.31,10.31,0,0,0-2.73.27,2,2,0,0,0-1.24.87,3.63,3.63,0,0,0-.34,1.73,3,3,0,0,0,.42,1.74,2.49,2.49,0,0,0,1.5.84,19.31,19.31,0,0,0,3.32.38,10.8,10.8,0,0,1,3,.49,3.14,3.14,0,0,1,1.69,1.33,5,5,0,0,1,.58,2.64,7.52,7.52,0,0,1-.32,2.41,3,3,0,0,1-1,1.48,4.42,4.42,0,0,1-1.87.76,15.76,15.76,0,0,1-2.92.23,17.58,17.58,0,0,1-3.52-.27,3.26,3.26,0,0,1-2-1.24,4.9,4.9,0,0,1-.72-2.95V-335h0Zm18.73-4.15h8.37v1.6h-8.37v6h8.72v1.65h-10.54v-16.44h10.58v1.62h-8.76v5.6h0Zm21,2.63h-5.58v6.59h-1.82v-16.44h7.82a5.06,5.06,0,0,1,3.62,1.13,5,5,0,0,1,1.19,3.68,11.43,11.43,0,0,1-.18,2.1A2.59,2.59,0,0,1-87-338a3.65,3.65,0,0,1-1.88.82q2.59,0.19,2.59,3.14v4.17h-1.84v-3.73a3.54,3.54,0,0,0-.34-1.7,1.92,1.92,0,0,0-1-.89,4.91,4.91,0,0,0-1.76-.27h0ZM-96.86-338h5.38a6.74,6.74,0,0,0,2.07-.25,1.91,1.91,0,0,0,1.12-.92,4.06,4.06,0,0,0,.37-1.92,5.78,5.78,0,0,0-.3-2,2.16,2.16,0,0,0-1-1.16,3.42,3.42,0,0,0-1.69-.37h-6V-338h0Zm26.46-8.3h2l-5.82,16.44H-76.9l-5.86-16.44h2l5.25,15,5.14-15h0Zm7.75,0v16.4h-1.87v-16.4h1.87Zm16.07,10.93h1.78a8.22,8.22,0,0,1-.56,3.4,3.35,3.35,0,0,1-2,1.74,11.81,11.81,0,0,1-4,.53,12,12,0,0,1-3.19-.34,3.88,3.88,0,0,1-2-1.23,5.61,5.61,0,0,1-1.08-2.51,21.9,21.9,0,0,1-.34-4.26,22.4,22.4,0,0,1,.33-4.27,5.77,5.77,0,0,1,1.08-2.55,3.93,3.93,0,0,1,2-1.27,11.53,11.53,0,0,1,3.18-.36,13,13,0,0,1,3.16.31,4,4,0,0,1,1.87,1,3.55,3.55,0,0,1,.92,1.62,12.13,12.13,0,0,1,.36,2.49l-1.78,0a9,9,0,0,0-.48-2.36,2,2,0,0,0-1.22-1.08,8.7,8.7,0,0,0-2.82-.34,7.91,7.91,0,0,0-2.35.29,2.71,2.71,0,0,0-1.41,1,4.92,4.92,0,0,0-.74,2.05,22.17,22.17,0,0,0-.22,3.49,22.27,22.27,0,0,0,.22,3.48,4.77,4.77,0,0,0,.73,2,2.63,2.63,0,0,0,1.41,1,8.46,8.46,0,0,0,2.36.27,12.43,12.43,0,0,0,2.4-.19,3,3,0,0,0,1.42-.63,2.35,2.35,0,0,0,.71-1.21,8.26,8.26,0,0,0,.2-2h0Zm8-3.73h8.37v1.6h-8.37v6h8.72v1.65H-40.38v-16.44H-29.8v1.62h-8.76v5.6Z" transform="translate(728.48 460.59)"/></svg>