<svg id="Layer_1" data-name="Layer 1" xmlns="http://www.w3.org/2000/svg" viewBox="0 0 91.15 91.72"><defs><style>.cls-1{fill:#fff;fill-rule:evenodd;}</style></defs><title>logo-single</title><path class="cls-1" d="M-530.31,380l-36.82-36.82a4,4,0,0,1-.68-0.92C-541.2,344.72-532.29,355.46-530.31,380Z" transform="translate(567.93 -294.52)"/><path class="cls-1" d="M-476.78,341.75a4,4,0,0,1-.93,1.46l-41.86,41.86a4,4,0,0,1-5.66,0l-1.7-1.7C-525.73,348.63-516.72,341.88-476.78,341.75Z" transform="translate(567.93 -294.52)"/><path class="cls-1" d="M-526.85,297.27l1.58-1.58a4,4,0,0,1,5.66,0l41.86,41.86a4,4,0,0,1,.93,1.46C-511.15,338.84-524.82,331-526.85,297.27Z" transform="translate(567.93 -294.52)"/><path class="cls-1" d="M-567.13,337.55l37-37c-1.46,28.31-9.2,36.54-37.79,38.14A4,4,0,0,1-567.13,337.55Z" transform="translate(567.93 -294.52)"/><path class="cls-1" d="M-528,346.91a6.84,6.84,0,0,0,6.83-6.83,6.84,6.84,0,0,0-6.83-6.83,6.84,6.84,0,0,0-6.83,6.83A6.84,6.84,0,0,0-528,346.91Z" transform="translate(567.93 -294.52)"/></svg>