<?xml version="1.0" encoding="utf-8"?>
<!-- Generator: Adobe Illustrator 20.0.0, SVG Export Plug-In . SVG Version: 6.00 Build 0)  -->
<svg version="1.1" id="Layer_1" xmlns="http://www.w3.org/2000/svg" xmlns:xlink="http://www.w3.org/1999/xlink" x="0px" y="0px"
	 viewBox="0 0 40.4 40.6" style="enable-background:new 0 0 40.4 40.6;" xml:space="preserve">
<style type="text/css">
	.st0{fill:#FFFFFF;}
</style>
<path class="st0" d="M16.7,37.9L0.4,21.6c-0.1-0.1-0.2-0.3-0.3-0.4C11.8,22.2,15.8,27,16.7,37.9z"/>
<path class="st0" d="M40.4,20.9c-0.1,0.2-0.2,0.5-0.4,0.6L21.4,40.1c-0.7,0.7-1.8,0.7-2.5,0l-0.8-0.8C18.7,24,22.7,21,40.4,20.9z"/>
<path class="st0" d="M18.2,1.2l0.7-0.7c0.7-0.7,1.8-0.7,2.5,0L39.9,19c0.2,0.2,0.3,0.4,0.4,0.6C25.1,19.6,19.1,16.2,18.2,1.2z"/>
<path class="st0" d="M0.4,19.1L16.7,2.7c-0.6,12.5-4,16.2-16.7,16.9C0.1,19.4,0.2,19.2,0.4,19.1z"/>
<circle class="st0" cx="17.7" cy="20.2" r="3"/>
</svg>
