<?xml version="1.0" encoding="utf-8"?>
<!-- Generator: Adobe Illustrator 20.0.0, SVG Export Plug-In . SVG Version: 6.00 Build 0)  -->
<svg version="1.1" id="Layer_1" xmlns="http://www.w3.org/2000/svg" xmlns:xlink="http://www.w3.org/1999/xlink" x="0px" y="0px"
	 viewBox="0 0 200 40.6" style="enable-background:new 0 0 200 40.6;" xml:space="preserve">
<style type="text/css">
	.st0{fill-rule:evenodd;clip-rule:evenodd;fill:#9B9B9B;}
	.st1{fill-rule:evenodd;clip-rule:evenodd;fill:#0CB4E5;}
</style>
<g>
	<path class="st0" d="M16.7,37.9L0.4,21.6c-0.1-0.1-0.2-0.3-0.3-0.4C11.8,22.2,15.8,27,16.7,37.9z"/>
	<path class="st1" d="M40.4,20.9c-0.1,0.2-0.2,0.5-0.4,0.6L21.4,40.1c-0.7,0.7-1.8,0.7-2.5,0l-0.8-0.8C18.7,24,22.7,21,40.4,20.9z"
		/>
	<path class="st0" d="M18.2,1.2l0.7-0.7c0.7-0.7,1.8-0.7,2.5,0l18.5,18.5c0.2,0.2,0.3,0.4,0.4,0.6C25.1,19.6,19.1,16.2,18.2,1.2z"/>
	<path class="st1" d="M0.4,19.1L16.7,2.7C16.1,15.2,12.7,18.9,0,19.6C0.1,19.4,0.2,19.2,0.4,19.1z"/>
	<circle class="st1" cx="17.7" cy="20.2" r="3"/>
	<path class="st0" d="M188,24V11.9h-7.2v-4H200v4h-7.1V24H188L188,24z M112.7,24V7.9h4.9V20h11.1v4H112.7L112.7,24z M130,24V7.9h4.9
		V24H130L130,24z M157.2,13.4h-4.8c0-1.2-0.7-1.8-2-1.8c-0.3,0-0.7,0-1.3,0h-1.7c-0.5,0-1.2,0-1.9,0l-1.6,0c-0.9,0-1.5,0.1-1.9,0.4
		c-0.5,0.3-0.7,0.9-0.8,1.7c0,0.6-0.1,1.4-0.1,2.6c0,1.5,0.1,2.5,0.4,2.9c0.4,0.7,1.3,1.1,2.8,1.2c0.2,0,1.5,0,3.8,0
		c1.3,0,2.2,0,2.4,0c0.7-0.1,1.1-0.2,1.4-0.5c0.3-0.3,0.4-0.7,0.4-1.4c0-0.1,0-0.3,0-0.5h-6.2v-3h11v2.2c0,1.8-0.1,3.1-0.2,3.9
		c-0.4,2-1.9,3-4.5,3.1c-0.6,0-2.6,0-6.1,0c-2.3,0-3.9,0-5-0.1c-2.4-0.2-4-1.1-4.6-2.9c-0.3-0.9-0.5-2.6-0.5-4.9
		c0-2.6,0.2-4.4,0.6-5.4c0.5-1.3,1.5-2.1,2.9-2.5c1.2-0.3,3.6-0.5,7.3-0.5c2.9,0,4.8,0,5.8,0.1c2.3,0.2,3.6,1.2,4,2.8
		C157.2,11.4,157.2,12.2,157.2,13.4L157.2,13.4z M158.7,24V7.9h4.9v5.9h11.1V7.9h4.9V24h-4.9v-6.1h-11.1V24H158.7z"/>
	<path class="st1" d="M98.1,24v-5.6L88.9,7.9h6.2l5.4,6.7l5.4-6.7h6.1L103,18.4V24H98.1L98.1,24z M47.4,24V7.9h13.9
		c1.4,0,2.6,0.1,3.6,0.3c1.5,0.3,2.6,1,3.2,2.1c0.6,1,0.8,2.9,0.8,5.6c0,1.7,0,2.9-0.1,3.5c-0.4,2.5-1.7,4-3.9,4.4
		C64.3,24,63.3,24,61.9,24H47.4L47.4,24z M52.3,20.2h8.2c0.9,0,1.6-0.1,2-0.2c0.7-0.2,1.2-0.8,1.4-1.7C64,17.9,64,17.2,64,16
		c0-1.6-0.2-2.6-0.5-3.1c-0.4-0.6-1.4-1-2.9-1h-8.3V20.2L52.3,20.2z M68.8,24h5.5l1.5-2.9h10.4l1.6,2.9h5.3L84.4,7.9h-6.5L68.8,24
		L68.8,24z M77.6,17.8l3.4-6.4l3.5,6.4H77.6z"/>
	<path class="st1" d="M47.9,32.5h-0.5v-4.6h0.5V32.5L47.9,32.5z M49,32.5v-4.6h1.1l3.5,4.1v-4.1h0.5v4.6h-0.7l-3.7-4.3h-0.3v4.3H49
		L49,32.5z M54.6,27.8h5v0.5h-2.3v4.2h-0.5v-4.2h-2.2V27.8L54.6,27.8z M60.1,32.5v-4.6h4.1v0.5h-3.6v1.5h3.5v0.5h-3.5V32h3.6v0.5
		H60.1L60.1,32.5z M65.5,28.3v1.8h3c0.3,0,0.6-0.1,0.7-0.2c0.2-0.2,0.3-0.4,0.3-0.8c0-0.2-0.1-0.4-0.3-0.6c-0.2-0.1-0.4-0.2-0.7-0.2
		H65.5L65.5,28.3z M65.5,30.6v1.9H65v-4.6h3.3c0.6,0,1,0.1,1.2,0.4c0.2,0.2,0.4,0.5,0.4,0.9c0,0.3-0.1,0.6-0.2,0.7
		c-0.1,0.1-0.2,0.2-0.4,0.4c0.2,0,0.3,0.1,0.4,0.3c0.1,0.2,0.2,0.5,0.2,0.8v1.1h-0.5v-1.1c0-0.3-0.1-0.5-0.2-0.6
		c-0.1-0.1-0.3-0.2-0.6-0.2H65.5L65.5,30.6z M70.7,29.1c0-0.5,0.1-0.8,0.4-1c0.2-0.2,0.6-0.3,1.1-0.3h2.3c1,0,1.6,0.4,1.6,1.3h-0.5
		c0-0.3-0.1-0.5-0.3-0.6c-0.2-0.2-0.5-0.2-0.9-0.2h-2.2c-0.4,0-0.7,0.1-0.8,0.2c-0.1,0.1-0.2,0.3-0.2,0.6c0,0.3,0.1,0.4,0.2,0.5
		c0.2,0.1,0.5,0.2,1,0.2h2.1c0.6,0,1,0.1,1.3,0.3c0.3,0.2,0.4,0.5,0.4,0.9v0.1c0,0.5-0.1,0.8-0.4,1c-0.2,0.2-0.6,0.3-1.2,0.3h-2.4
		c-0.5,0-0.8-0.1-1.1-0.3c-0.3-0.2-0.4-0.6-0.4-1h0.5c0,0.3,0.1,0.5,0.2,0.6c0.2,0.2,0.5,0.2,0.9,0.2h2.2c0.4,0,0.6-0.1,0.8-0.2
		c0.2-0.1,0.3-0.4,0.3-0.6c0-0.3-0.1-0.5-0.2-0.6c-0.2-0.1-0.4-0.2-0.9-0.2h-2.3c-0.6,0-1-0.1-1.2-0.3
		C70.8,29.9,70.7,29.6,70.7,29.1L70.7,29.1z M76.6,27.8h5v0.5h-2.3v4.2h-0.5v-4.2h-2.2V27.8L76.6,27.8z M82.3,32.5h-0.5l2.4-4.6h0.7
		l2.4,4.6h-0.6l-0.6-1.2h-3.2L82.3,32.5L82.3,32.5z M83.1,30.8h2.7l-1.4-2.7L83.1,30.8L83.1,30.8z M87.5,27.8h5v0.5h-2.3v4.2h-0.5
		v-4.2h-2.2V27.8L87.5,27.8z M93,32.5v-4.6h4.1v0.5h-3.6v1.5H97v0.5h-3.5V32h3.6v0.5H93L93,32.5z M100.5,28.3v1.5h3.1
		c0.3,0,0.6,0,0.7-0.1c0.2-0.1,0.2-0.3,0.2-0.6c0-0.3-0.1-0.5-0.2-0.6c-0.2-0.1-0.4-0.2-0.7-0.2H100.5L100.5,28.3z M100,32.5v-4.6
		h3.4c1.1,0,1.6,0.4,1.6,1.2c0,0.3-0.1,0.6-0.2,0.7c-0.1,0.1-0.2,0.2-0.4,0.3c0.1,0,0.2,0.1,0.3,0.1c0.3,0.2,0.4,0.5,0.4,0.9
		c0,0.5-0.1,0.8-0.4,1.1c-0.3,0.2-0.7,0.3-1.2,0.3H100L100,32.5z M100.5,30.3V32h3.3c0.3,0,0.6-0.1,0.7-0.2c0.2-0.1,0.2-0.4,0.2-0.7
		c0-0.3-0.1-0.5-0.3-0.6c-0.2-0.1-0.4-0.2-0.7-0.2H100.5L100.5,30.3z M106,32.5v-4.6h0.5V32h3.5v0.5H106L106,32.5z M115.5,29.4
		c0-0.5-0.1-0.8-0.2-0.9c-0.2-0.2-0.5-0.2-0.9-0.2h-2c-0.4,0-0.8,0.1-0.9,0.2c-0.2,0.2-0.3,0.5-0.3,0.9v1.5c0,0.4,0.1,0.7,0.3,0.9
		c0.2,0.2,0.5,0.2,1,0.2h2c0.5,0,0.8-0.1,1-0.2c0.2-0.1,0.2-0.4,0.2-0.9V29.4L115.5,29.4z M116,30.9c0,0.6-0.1,1.1-0.4,1.3
		c-0.2,0.2-0.7,0.3-1.3,0.3h-2c-0.6,0-1.1-0.1-1.3-0.3c-0.3-0.2-0.4-0.6-0.4-1.2v-1.4c0-0.6,0.1-1,0.4-1.3c0.3-0.3,0.7-0.4,1.3-0.4
		h2c0.6,0,1,0.1,1.2,0.3c0.3,0.2,0.4,0.7,0.4,1.3V30.9L116,30.9z M120.3,32.5h-2c-0.6,0-1.1-0.1-1.3-0.4c-0.3-0.2-0.4-0.7-0.4-1.3
		v-1.3c0-0.6,0.1-1,0.4-1.3c0.3-0.3,0.7-0.4,1.3-0.4h2c1.1,0,1.7,0.4,1.7,1.3h-0.5c0-0.3-0.1-0.5-0.2-0.6c-0.2-0.2-0.5-0.2-0.9-0.2
		h-2c-0.5,0-0.8,0.1-1,0.3c-0.2,0.2-0.3,0.5-0.3,1v1.3c0,0.5,0.1,0.8,0.3,0.9c0.2,0.2,0.5,0.2,1,0.2h2c0.4,0,0.7-0.1,0.9-0.2
		c0.2-0.1,0.3-0.4,0.3-0.6h0.5c0,0.4-0.1,0.8-0.4,1C121.3,32.4,120.9,32.5,120.3,32.5L120.3,32.5z M122.7,32.5v-4.6h0.5v2h0.8l2.9-2
		h0.8l-3.3,2.2l3.3,2.4h-0.8l-3-2.2h-0.8v2.2H122.7L122.7,32.5z M131.9,32.5h-2c-0.6,0-1.1-0.1-1.3-0.4c-0.3-0.2-0.4-0.7-0.4-1.3
		v-1.3c0-0.6,0.1-1,0.4-1.3c0.3-0.3,0.7-0.4,1.3-0.4h2c1.1,0,1.7,0.4,1.7,1.3h-0.5c0-0.3-0.1-0.5-0.2-0.6c-0.2-0.2-0.5-0.2-0.9-0.2
		h-2c-0.5,0-0.8,0.1-1,0.3c-0.2,0.2-0.3,0.5-0.3,1v1.3c0,0.5,0.1,0.8,0.3,0.9c0.2,0.2,0.5,0.2,1,0.2h2c0.4,0,0.7-0.1,0.9-0.2
		c0.2-0.1,0.3-0.4,0.3-0.6h0.5c0,0.4-0.1,0.8-0.4,1C132.9,32.4,132.5,32.5,131.9,32.5L131.9,32.5z M134.4,32.5v-4.6h0.5v2h4.1v-2
		h0.5v4.6h-0.5v-2.1h-4.1v2.1H134.4L134.4,32.5z M140.3,32.5h-0.5l2.4-4.6h0.7l2.4,4.6h-0.6l-0.6-1.2h-3.2L140.3,32.5L140.3,32.5z
		 M141.2,30.8h2.7l-1.4-2.7L141.2,30.8L141.2,30.8z M146.5,32.5h-0.5v-4.6h0.5V32.5L146.5,32.5z M147.6,32.5v-4.6h1.1l3.5,4.1v-4.1
		h0.5v4.6H152l-3.7-4.3h-0.3v4.3H147.6L147.6,32.5z M155.6,32.5v-4.6h3.1c0.6,0,1,0.1,1.2,0.3c0.3,0.2,0.4,0.6,0.4,1.1
		c0,0.5-0.1,0.8-0.4,1c-0.2,0.2-0.7,0.3-1.3,0.3h-2.6v1.9H155.6L155.6,32.5z M156.1,30.1h2.8c0.4,0,0.6,0,0.8-0.1
		c0.1-0.1,0.2-0.3,0.2-0.7c0-0.4-0.1-0.6-0.2-0.7c-0.1-0.1-0.4-0.2-0.7-0.2h-2.8V30.1L156.1,30.1z M161.1,32.5v-4.6h0.5V32h3.5v0.5
		H161.1L161.1,32.5z M165.9,32.5h-0.5l2.4-4.6h0.7l2.4,4.6h-0.6l-0.6-1.2h-3.2L165.9,32.5L165.9,32.5z M166.8,30.8h2.7l-1.4-2.7
		L166.8,30.8L166.8,30.8z M171.1,27.8h5v0.5h-2.3v4.2h-0.5v-4.2h-2.2V27.8L171.1,27.8z M176.6,32.5v-4.6h4.1v0.5h-3.6v1.5h3.5v0.5
		h-3.5v2.2H176.6L176.6,32.5z M186.4,29.4c0-0.5-0.1-0.8-0.2-0.9c-0.2-0.2-0.5-0.2-0.9-0.2h-2c-0.4,0-0.8,0.1-0.9,0.2
		c-0.2,0.2-0.3,0.5-0.3,0.9v1.5c0,0.4,0.1,0.7,0.3,0.9c0.2,0.2,0.5,0.2,1,0.2h2c0.5,0,0.8-0.1,1-0.2c0.2-0.1,0.2-0.4,0.2-0.9V29.4
		L186.4,29.4z M186.9,30.9c0,0.6-0.1,1.1-0.4,1.3c-0.2,0.2-0.7,0.3-1.3,0.3h-2c-0.6,0-1.1-0.1-1.3-0.3c-0.3-0.2-0.4-0.6-0.4-1.2
		v-1.4c0-0.6,0.1-1,0.4-1.3c0.3-0.3,0.7-0.4,1.3-0.4h2c0.6,0,1,0.1,1.2,0.3c0.3,0.2,0.4,0.7,0.4,1.3V30.9L186.9,30.9z M188.1,28.3
		v1.8h3c0.3,0,0.6-0.1,0.7-0.2c0.2-0.2,0.3-0.4,0.3-0.8c0-0.2-0.1-0.4-0.3-0.6c-0.2-0.1-0.4-0.2-0.7-0.2H188.1L188.1,28.3z
		 M188.1,30.6v1.9h-0.5v-4.6h3.3c0.6,0,1,0.1,1.2,0.4c0.2,0.2,0.4,0.5,0.4,0.9c0,0.3-0.1,0.6-0.2,0.7c-0.1,0.1-0.2,0.2-0.4,0.4
		c0.2,0,0.3,0.1,0.4,0.3c0.1,0.2,0.2,0.5,0.2,0.8v1.1H192v-1.1c0-0.3-0.1-0.5-0.2-0.6c-0.1-0.1-0.3-0.2-0.6-0.2H188.1L188.1,30.6z
		 M200,27.8h-1l-2.3,3.9l-2.3-3.9h-1v4.6h0.5v-4.2h0.3l2.5,4.2h0.2l2.5-4.2h0.3v4.2h0.5V27.8z"/>
</g>
</svg>
