<svg id="Layer_1" data-name="Layer 1" xmlns="http://www.w3.org/2000/svg" viewBox="0 0 343.18 69.71"><defs><style>.cls-1{fill:#fff;fill-rule:evenodd;}</style></defs><title>logo</title><path class="cls-1" d="M-699.89-439.12l-28-28a3,3,0,0,1-.52-0.7C-708.17-466-701.4-457.79-699.89-439.12Z" transform="translate(728.48 504.11)"/><path class="cls-1" d="M-659.21-468.21a3,3,0,0,1-.71,1.11l-31.82,31.82a3.05,3.05,0,0,1-4.3,0l-1.29-1.29C-696.41-463-689.57-468.12-659.21-468.21Z" transform="translate(728.48 504.11)"/><path class="cls-1" d="M-697.26-502l1.2-1.2a3.05,3.05,0,0,1,4.3,0l31.82,31.82a3,3,0,0,1,.71,1.11C-685.33-470.43-695.72-476.39-697.26-502Z" transform="translate(728.48 504.11)"/><path class="cls-1" d="M-727.87-471.4l28.12-28.12c-1.11,21.52-7,27.77-28.72,29A3,3,0,0,1-727.87-471.4Z" transform="translate(728.48 504.11)"/><path class="cls-1" d="M-698.11-464.29a5.2,5.2,0,0,0,5.19-5.19,5.2,5.2,0,0,0-5.19-5.19,5.2,5.2,0,0,0-5.19,5.19A5.2,5.2,0,0,0-698.11-464.29Z" transform="translate(728.48 504.11)"/><path class="cls-1" d="M-405.95-454.93v-20.74h-12.27v-6.82h32.92v6.82h-12.26v20.74h-8.39Zm-129.2,0v-27.56h8.39v20.74h19v6.82h-27.36Zm29.7,0v-27.56h8.39v27.56h-8.39Zm46.76-18.26h-8.21q-0.12-3-3.41-3.06h-5.12c-0.89,0-2,0-3.27,0l-2.67,0a6,6,0,0,0-3.24.66,3.68,3.68,0,0,0-1.39,2.95c-0.08,1-.12,2.44-0.12,4.48q0,3.81.63,5c0.65,1.24,2.24,1.9,4.79,2,0.36,0,2.53,0,6.49,0,2.29,0,3.69,0,4.2-.08a4.07,4.07,0,0,0,2.45-.9,3.28,3.28,0,0,0,.74-2.41q0-.26,0-0.83h-10.64v-5.16h18.8v3.82a35.88,35.88,0,0,1-.43,6.62q-1.06,5.07-7.71,5.25-1.5,0-10.51,0-5.9,0-8.52-.2-6.27-.49-7.85-4.94-0.85-2.4-.85-8.45,0-6.73,1-9.34a6.88,6.88,0,0,1,5.06-4.21q3-.79,12.51-0.79,7.36,0,10,.21,5.84,0.55,6.92,4.84a19.17,19.17,0,0,1,.39,4.41h0Zm2.48,18.26v-27.56h8.39v10.2h19.09v-10.2h8.39v27.56h-8.39v-10.54h-19.09v10.54h-8.39Z" transform="translate(728.48 504.11)"/><path class="cls-1" d="M-560.14-454.93v-9.55l-15.74-18h10.71l9.3,11.42,9.22-11.42h10.49l-15.55,18v9.55h-8.43Zm-87,0v-27.56h23.84a36.53,36.53,0,0,1,6.16.44,7.32,7.32,0,0,1,5.49,3.66c0.94,1.69,1.41,4.93,1.41,9.69a52.69,52.69,0,0,1-.22,6q-0.95,6.52-6.76,7.49a35.41,35.41,0,0,1-5,.24h-24.93Zm8.39-6.57h14.08a12.9,12.9,0,0,0,3.42-.32,3.47,3.47,0,0,0,2.36-2.84,22.62,22.62,0,0,0,.22-4q0-4.07-.91-5.36-1.15-1.63-5-1.63h-14.22v14.13h0Zm28.34,6.57h9.48l2.62-4.92h17.79l2.73,4.92h9.18l-15.07-27.56h-11.24l-15.49,27.56h0Zm15.14-10.66,5.86-11,6,11h-11.88Z" transform="translate(728.48 504.11)"/></svg>