<svg id="Layer_1" data-name="Layer 1" xmlns="http://www.w3.org/2000/svg" viewBox="0 0 158 154.12"><defs><style>.cls-1{fill:#fff;fill-rule:evenodd;}</style></defs><title>logo-single</title><path class="cls-1" d="M-719.15-394.73c0-.88,0-1.76.09-2.62v-0.07h0a41.11,41.11,0,0,1,36.71-38.18l-8.49,12.9a30.78,30.78,0,0,0-17.82,25q-1,15.34,21.47,28.06l-3.35,10.79C-706.6-364.06-719.15-377.07-719.15-394.73Z" transform="translate(728.48 460.59)"/><path class="cls-1" d="M-616.27-323.35A41,41,0,0,1-628.93-312a41.47,41.47,0,0,1-5.5,2.66h0a41.12,41.12,0,0,1-48.23-14h14.25a30.83,30.83,0,0,0,26.32,5.63q24.11-7.66,20.39-34l10.71-2.58q4.46,18.2-5.3,31h0Z" transform="translate(728.48 460.59)"/><path class="cls-1" d="M-660.73-431.88q30.61,24.31,44.13,59.62-6.15,1.3-12.29,2.11A169.89,169.89,0,0,0-666.54-423Z" transform="translate(728.48 460.59)"/><path class="cls-1" d="M-659.81-410.9q-23.57,28.34-30.42,67.44h10.49a173.44,173.44,0,0,1,28-57.76Q-655.59-406.2-659.81-410.9Z" transform="translate(728.48 460.59)"/><path class="cls-1" d="M-593.7-364.17q-39.39,16.41-78.77,9.65,2.1-5.95,4.61-11.71A163.53,163.53,0,0,0-599.51-373Z" transform="translate(728.48 460.59)"/><path class="cls-1" d="M-601.35-431.48q1.15,0.66,2.23,1.39l0.06,0h0a41.12,41.12,0,0,1,16.47,46.18l-8.57-13a30.75,30.75,0,0,0-12.87-24q-12.8-8.51-35,4.56l-7.67-8.29C-634.17-436-616.64-440.31-601.35-431.48Z" transform="translate(728.48 460.59)"/><path class="cls-1" d="M-722.58-365.61l5.53-8.91a41.79,41.79,0,0,0,8.7,10l-3.05,4.91-1.83,2.93-0.3.41a10.55,10.55,0,0,0-1,1.55,9.89,9.89,0,0,0-1.09,4.51,10.69,10.69,0,0,0,5.88,9.33l0.13,0.07a12.21,12.21,0,0,0,6.7,1.38l0.54,0h76.71a20.65,20.65,0,0,1-6.48,12h-69.68A25.87,25.87,0,0,1-716-330.47l-0.1-.05c-7.37-3.92-12.37-11.31-12.37-19.72a21.14,21.14,0,0,1,2.32-9.62h0a22.43,22.43,0,0,1,2-3.26l1.56-2.5h0Zm51.89-83.53,0-.05,0-.05,0,0q0.51-.82,1.1-1.6l0.32-.52,0.05,0a23.75,23.75,0,0,1,7.45-6.19c11.66-6.25,26.71-2.5,33.44,8.31h0l0.2,0.32,6,9.59a42.69,42.69,0,0,0-12.88,3.25l-4.27-6.86-0.15-.24-0.06-.1c-3.17-5.07-10.32-6.84-15.8-3.91a11.12,11.12,0,0,0-3.5,2.9l-0.09.12-0.08.11c-0.19.25-.36,0.5-0.52,0.77l-0.09.14-38.22,61.53c-3.62-3.52-6.45-7.67-7.18-12.43l34.22-55.09h0Zm60.53,28.95c-4.56-1.39-9.59-.77-14.43.76l39.66,63.72a10.09,10.09,0,0,1,.28,10.22c-0.1.19-.21,0.38-0.33,0.56s-0.23.36-.36,0.54a11.86,11.86,0,0,1-9.68,4.89h-10.87a35.75,35.75,0,0,1-3.29,12H-595a25,25,0,0,0,20.46-10.28q0.4-.56.76-1.14t0.69-1.18a21.3,21.3,0,0,0-.64-21.57Z" transform="translate(728.48 460.59)"/></svg>