<?xml version="1.0" standalone="no"?>
<!DOCTYPE svg PUBLIC "-//W3C//DTD SVG 1.1//EN" "http://www.w3.org/Graphics/SVG/1.1/DTD/svg11.dtd" >
<svg xmlns="http://www.w3.org/2000/svg" xmlns:xlink="http://www.w3.org/1999/xlink" version="1.1">
<metadata>
Created by FontForge 20160407 at Wed Jun  1 12:15:42 2016
 By Jimmy Wärting
Copyright (c) 2005 Parachute :, www.parachute.gr.  All rights reserved.
</metadata>
<defs>
<font id="PFSquareSansPro-Regular" horiz-adv-x="1818" >
  <font-face 
    font-family="PF Square Sans Pro"
    font-weight="400"
    font-stretch="normal"
    units-per-em="1000"
    panose-1="2 0 5 6 4 0 0 2 0 4"
    ascent="750"
    descent="-250"
    x-height="487"
    cap-height="663"
    bbox="-150.923 -265.8 1760 913"
    underline-thickness="45"
    underline-position="-110"
    unicode-range="U+0020-FB05"
  />
<missing-glyph horiz-adv-x="444" 
d="M0 700h444v-700h-444v700zM352 59l-130 237l-130 -237h260zM352 641h-260l130 -237zM59 117l128 233l-128 233v-466zM385 117v466l-129 -233z" />
    <glyph glyph-name="ff" unicode="ff" horiz-adv-x="632" 
d="M532 730q7 0 20 -1t29 -3.5t33 -6.5t32 -10q8 -3 9.5 -9t0.5 -12l-4 -23q-2 -8 -9.5 -10.5t-16.5 -0.5q-31 5 -52.5 6.5t-32.5 1.5q-51 0 -74 -22t-23 -74v-79h125q17 0 17 -17v-29q0 -17 -17 -17h-125v-407q0 -17 -16 -17h-41q-18 0 -18 17v407h-195v-407q0 -17 -16 -17
h-41q-18 0 -18 17v407h-49q-17 0 -17 17v28q0 18 17 18h49v61q0 79 42 120.5t136 41.5q12 0 28.5 -1t34.5 -3t36 -5.5t34 -9.5q39 39 122 39zM276 642q-51 0 -76.5 -22t-25.5 -74v-59h196v81q0 18 1.5 34.5t6.5 31.5q-35 5 -57.5 6.5t-44.5 1.5z" />
    <glyph glyph-name="fi" unicode="fi" horiz-adv-x="504" 
d="M277 710q15 0 33 -1t37 -3.5t38 -7t35 -11.5q13 -5 10 -21l-4 -23q-3 -14 -26 -11q-32 4 -66.5 7t-57.5 3q-51 0 -76.5 -22t-25.5 -74v-59h254q16 0 16 -17v-453q0 -17 -16 -17h-41q-18 0 -18 17v407h-195v-407q0 -17 -16 -17h-41q-18 0 -18 17v407h-49q-17 0 -17 17v28
q0 18 17 18h49v61q0 79 42 120.5t136 41.5z" />
    <glyph glyph-name="fl" unicode="fl" horiz-adv-x="487" 
d="M267 710q23 0 53 -2.5t59 -10.5l37 7q18 3 18 -17v-670q0 -17 -16 -17h-41q-18 0 -18 17v618q-26 3 -51 5t-42 2q-51 0 -76.5 -22t-25.5 -74v-59h120q17 0 17 -18v-28q0 -17 -17 -17h-120v-407q0 -17 -16 -17h-41q-18 0 -18 17v407h-49q-17 0 -17 17v28q0 18 17 18h49v61
q0 79 42 120.5t136 41.5z" />
    <glyph glyph-name="ffi" unicode="ffi" horiz-adv-x="774" 
d="M547 728q15 0 33 -1t37 -3.5t38 -7t35 -11.5q13 -5 10 -21l-4 -23q-3 -14 -26 -11q-32 4 -66.5 7t-57.5 3q-51 0 -76.5 -22t-25.5 -74v-77h254q16 0 16 -17v-453q0 -17 -16 -17h-41q-18 0 -18 17v407h-195v-407q0 -17 -16 -17h-41q-18 0 -18 17v407h-195v-407
q0 -17 -16 -17h-41q-18 0 -18 17v407h-49q-17 0 -17 17v28q0 18 17 18h49v61q0 79 42 120.5t136 41.5q12 0 29 -1t35.5 -3t37.5 -6t36 -10q44 38 132 38zM369 566q0 38 9 68q-33 5 -57 6.5t-45 1.5q-51 0 -76.5 -22t-25.5 -74v-59h195v79z" />
    <glyph glyph-name="ffl" unicode="ffl" horiz-adv-x="774" 
d="M547 728q23 0 53 -2.5t59 -10.5l37 7q18 3 18 -17v-688q0 -17 -16 -17h-41q-18 0 -18 17v636q-26 3 -51 5t-42 2q-51 0 -76.5 -22t-25.5 -74v-77h120q17 0 17 -18v-28q0 -17 -17 -17h-120v-407q0 -17 -16 -17h-41q-18 0 -18 17v407h-195v-407q0 -17 -16 -17h-41
q-18 0 -18 17v407h-49q-17 0 -17 17v28q0 18 17 18h49v61q0 79 42 120.5t136 41.5q12 0 29 -1t35.5 -3t37.5 -6t36 -10q44 38 132 38zM174 487h195v79q0 38 9 68q-33 5 -57 6.5t-45 1.5q-51 0 -76.5 -22t-25.5 -74v-59z" />
    <glyph glyph-name="ft" unicode="ft" horiz-adv-x="587" 
d="M262 716q7 0 20 -1t29 -3.5t33 -6.5t32 -10q8 -3 9.5 -9t0.5 -12l-4 -23q-2 -8 -9.5 -10.5t-16.5 -0.5q-31 5 -52.5 6.5t-32.5 1.5q-51 0 -74 -22t-23 -74v-65h187v88q0 9 4.5 13t12.5 6l40 11q17 5 17 -15v-103h111q11 0 14 -4.5t3 -12.5v-29q0 -9 -3 -13t-14 -4h-111
v-303q0 -20 3.5 -32.5t11.5 -18.5t22.5 -7.5t37.5 -0.5l54 4q12 1 16 -1.5t6 -10.5l4 -23q1 -13 -9 -19q-9 -5 -23.5 -8.5t-31 -6t-32 -4t-26.5 -1.5q-32 0 -53 7.5t-33 21.5t-17 33.5t-5 43.5v326h-186v-407q0 -17 -16 -17h-41q-18 0 -18 17v407h-49q-17 0 -17 17v28
q0 18 17 18h50v67q0 37 8.5 67t27.5 51t50 32.5t76 11.5z" />
    <glyph glyph-name="fj" unicode="fj" horiz-adv-x="504" 
d="M277 710q15 0 33 -1t37 -3.5t38 -7t35 -11.5q13 -5 10 -21l-4 -23q-3 -14 -26 -11q-32 4 -66.5 7t-57.5 3q-51 0 -76.5 -22t-25.5 -74v-59h253q18 0 18 -17v-504q0 -35 -6 -66.5t-26 -55.5t-57.5 -37t-100.5 -11q-5 0 -12 3t-8 14l-2 23q-1 10 3 13.5t11 5.5
q35 7 58.5 13.5t37.5 17.5t20 29.5t6 48.5v460h-195v-407q0 -17 -16 -17h-41q-18 0 -18 17v407h-49q-17 0 -17 17v28q0 18 17 18h49v61q0 79 42 120.5t136 41.5z" />
    <glyph glyph-name="ffj" unicode="ffj" horiz-adv-x="774" 
d="M547 728q15 0 33 -1t37 -3.5t38 -7t35 -11.5q13 -5 10 -21l-4 -23q-3 -14 -26 -11q-32 4 -66.5 7t-57.5 3q-51 0 -76.5 -22t-25.5 -74v-77h253q18 0 18 -17v-504q0 -35 -6 -66.5t-26 -55.5t-57.5 -37t-100.5 -11q-5 0 -12 3t-8 14l-2 23q-1 10 3 13.5t11 5.5
q35 7 58.5 13.5t37.5 17.5t20 29.5t6 48.5v460h-195v-407q0 -17 -16 -17h-41q-18 0 -18 17v407h-195v-407q0 -17 -16 -17h-41q-18 0 -18 17v407h-49q-17 0 -17 17v28q0 18 17 18h49v61q0 79 42 120.5t136 41.5q12 0 29 -1t35.5 -3t37.5 -6t36 -10q44 38 132 38zM276 642
q-51 0 -76.5 -22t-25.5 -74v-59h195v79q0 38 9 68q-33 5 -57 6.5t-45 1.5z" />
    <glyph glyph-name=".notdef" horiz-adv-x="444" 
d="M0 700h444v-700h-444v700zM352 59l-130 237l-130 -237h260zM352 641h-260l130 -237zM59 117l128 233l-128 233v-466zM385 117v466l-129 -233z" />
    <glyph glyph-name="quotedbl" unicode="&#x22;" horiz-adv-x="283" 
d="M215 483q-1 -5 -3 -7t-8 -2h-26q-9 0 -9 9l-10 169q0 11 12 11h43q7 0 8.5 -4t1.5 -7zM114 483q0 -9 -11 -9h-26q-8 0 -8 9l-10 169q0 11 12 11h42q8 0 9.5 -4t1.5 -7z" />
    <glyph glyph-name="numbersign" unicode="#" horiz-adv-x="556" 
d="M559 416q-3 -11 -14 -11h-130l-29 -117h127q16 0 13 -13l-7 -27q-3 -10 -14 -10h-131l-55 -226q-3 -12 -11 -12h-34q-14 0 -11 15l54 222h-109l-55 -225q-3 -12 -11 -12h-35q-13 0 -10 15l54 222h-121q-15 0 -12 10l8 29q3 12 16 12h121l28 117h-121q-7 0 -10.5 1t-1.5 9
l8 28q2 7 5 9.5t11 2.5h122l46 194q2 7 4.5 10t10.5 3h32q13 0 10 -15l-46 -192h109l47 194q3 13 14 13h33q5 0 9 -3t2 -10l-48 -194h126q16 0 13 -13zM248 405l-28 -117h109l29 117h-110z" />
    <glyph glyph-name="dollar" unicode="$" horiz-adv-x="556" 
d="M494 188q0 -48 -15 -82.5t-41 -56.5t-61.5 -34t-75.5 -15v-87q0 -7 -8 -7h-34q-9 0 -9 6v87q-22 1 -46 3t-47.5 5.5t-44.5 8t-36 10.5q-11 4 -13 9.5t0 12.5l5 27q3 12 18 10q21 -2 46 -4.5t49.5 -4.5t46.5 -3.5t37 -1.5q75 0 113 27t38 78q0 33 -6.5 55t-22 36
t-42.5 22.5t-67 15.5q-45 7 -84 17t-68 28.5t-45.5 49t-16.5 78.5q0 83 48 130t138 53v80q0 6 9 6h34q8 0 8 -8v-77q16 -1 36.5 -2.5t41.5 -4.5t41 -7.5t37 -11.5q11 -4 13 -9t0 -12l-6 -27q-2 -5 -5.5 -9t-13.5 -2q-33 4 -78 8.5t-90 4.5q-39 0 -65 -8t-41.5 -22t-22 -34
t-6.5 -45q0 -29 7.5 -46.5t24.5 -28.5t44 -17t65 -13q44 -7 82.5 -17t67 -30t45 -53.5t16.5 -87.5z" />
    <glyph glyph-name="ampersand" unicode="&#x26;" horiz-adv-x="691" 
d="M652 -42q-4 -5 -9.5 -7.5t-13.5 1.5q-15 7 -35 19t-41 27t-42 31.5t-38 32.5q-51 -35 -108 -54t-111 -19q-44 0 -83.5 10.5t-69 33t-47 57t-17.5 83.5q0 69 43.5 125t119.5 99q-24 35 -37.5 70.5t-13.5 60.5q0 30 10 56.5t28.5 46t45 31t60.5 11.5q31 0 57.5 -9.5t45 -27
t29 -41t10.5 -50.5q0 -56 -36.5 -95t-98.5 -76q38 -58 84.5 -115.5t95.5 -106.5q45 45 77 105.5t42 135.5q2 8 5 10.5t12 2.5l27 -1q10 -1 12.5 -6.5t2.5 -13.5q-3 -42 -16 -83.5t-32 -78.5t-40.5 -67.5t-42.5 -50.5q31 -28 66.5 -54.5t69.5 -45.5q6 -4 7.5 -7t-2.5 -11z
M364 541q0 30 -21 49.5t-51 19.5q-18 0 -31.5 -7.5t-21.5 -19t-12 -25t-4 -25.5q0 -23 11 -48.5t31 -54.5q42 22 70.5 47.5t28.5 63.5zM425 109q-25 24 -52 54.5t-52.5 62t-47.5 62.5t-38 55q-58 -32 -93 -74t-35 -94q0 -34 11 -57.5t30.5 -38t45.5 -21.5t55 -7
q42 0 86.5 14.5t89.5 43.5z" />
    <glyph glyph-name="quotesingle" unicode="'" horiz-adv-x="205" 
d="M122 483q0 -9 -11 -9h-26q-8 0 -8 9l-10 169q0 11 12 11h42q8 0 9.5 -4t1.5 -7z" />
    <glyph glyph-name="parenleft" unicode="(" horiz-adv-x="289" 
d="M237 -82q4 -5 2 -8.5t-8 -7.5l-18 -10q-12 -9 -19 2q-20 28 -43.5 67t-43 90t-32.5 115.5t-13 144.5q0 70 13.5 129t33 107t42.5 86t43 66q7 11 18 4l19 -11q6 -4 8 -7.5t-2 -8.5q-18 -27 -35.5 -62.5t-31.5 -80.5t-23 -100.5t-9 -121.5q0 -72 9 -133t23 -110t31.5 -86.5
t35.5 -63.5z" />
    <glyph glyph-name="parenright" unicode=")" horiz-adv-x="291" 
d="M240 311q0 -80 -13 -144.5t-32.5 -115.5t-42.5 -90t-43 -67q-8 -11 -20 -2l-18 10q-6 4 -8 7.5t2 8.5q18 26 35.5 63.5t31.5 86.5t23 110t9 133q0 66 -9 121.5t-23 100.5t-31.5 80.5t-35.5 62.5q-5 9 6 16l19 11q11 7 19 -4q19 -28 42 -66t42.5 -86t33 -107t13.5 -129z
" />
    <glyph glyph-name="asterisk" unicode="*" horiz-adv-x="343" 
d="M189 663q8 0 10 -2t2 -9l3 -81l74 37q5 3 8 2.5t8 -7.5l10 -16q5 -7 -2 -12l-74 -47l73 -48q5 -3 6 -6t-4 -10l-9 -15q-6 -9 -16 -4l-74 41l-3 -83q0 -6 -2 -8t-10 -2h-23q-7 0 -8.5 1.5t-2.5 8.5l-4 84l-76 -39q-10 -7 -15 4l-10 16q-5 9 4 14l71 47l-72 43q-4 3 -6 6.5
t3 10.5l9 14q4 7 7.5 8t10.5 -3l74 -38l3 83q0 6 2.5 8t10.5 2h22v0z" />
    <glyph glyph-name="plus" unicode="+" horiz-adv-x="556" 
d="M473 307q0 -12 -15 -12h-146v-153q0 -14 -12 -14h-41q-8 0 -10.5 3.5t-2.5 10.5v153h-150q-13 0 -13 12v35q0 8 3 10.5t10 2.5h150v145q0 7 2.5 10.5t10.5 3.5h41q12 0 12 -14v-145h146q8 0 11.5 -2.5t3.5 -10.5v-35v0z" />
    <glyph glyph-name="comma" unicode="," horiz-adv-x="195" 
d="M150 21q0 -60 -24.5 -97t-54.5 -56q-3 -2 -8 -4t-10 3l-12 11q-4 3 -2.5 7t5.5 8q18 16 25.5 34t7.5 37q0 18 -7 36.5t-18 31.5q-9 12 4 21l40 30q7 5 13.5 4.5t11.5 -5.5q15 -14 22 -30.5t7 -30.5z" />
    <glyph glyph-name="hyphen" unicode="-" horiz-adv-x="370" 
d="M335 307q0 -12 -14 -12h-272q-14 0 -14 12v31q0 8 3.5 10.5t10.5 2.5h272q7 0 10.5 -2.5t3.5 -10.5v-31v0z" />
    <glyph glyph-name="period" unicode="." horiz-adv-x="186" 
d="M137 39q0 -20 -8.5 -34t-37.5 -14q-30 0 -37.5 14t-7.5 34t8.5 33t36.5 13q29 0 37.5 -13t8.5 -33z" />
    <glyph glyph-name="slash" unicode="/" horiz-adv-x="256" 
d="M68 -52q-3 -12 -14 -12h-33q-13 0 -10 14l174 730q3 13 16 13h33q10 0 7 -15z" />
    <glyph glyph-name="zero" unicode="0" horiz-adv-x="556" 
d="M520 341q0 -33 -2 -71.5t-9.5 -77.5t-23 -75t-42 -64t-67 -45t-97.5 -17q-56 0 -95.5 15.5t-65 42.5t-40 62t-22 74t-9 79t-1.5 77q0 25 2 59.5t9 71t22 72.5t40.5 64t64.5 45.5t95 17.5q83 0 131 -30t72.5 -77.5t31 -106.5t6.5 -116zM441 331q0 63 -5 113t-22 85
t-49 53.5t-86 18.5q-51 0 -81 -21.5t-46.5 -58.5t-21.5 -86t-5 -104q0 -59 5 -108.5t21 -85t46.5 -55t81.5 -19.5q52 0 84 20.5t49 56.5t23 85t6 106z" />
    <glyph glyph-name="one" unicode="1" horiz-adv-x="556" 
d="M472 13q0 -13 -15 -13h-328q-15 0 -15 13v44q0 14 15 14h120v499h-112q-8 0 -11 2t-3 10v24q0 5 1.5 10t9.5 7l94 32q19 8 39 8h42q13 0 15 -4.5t2 -12.5v-575h131q15 0 15 -14v-44v0z" />
    <glyph glyph-name="two" unicode="2" horiz-adv-x="556" 
d="M488 13q0 -13 -14 -13h-410q-14 0 -14 14v46q0 16 11 27q36 35 68 66q27 26 53.5 52t39.5 39q15 14 37 35.5t63 63.5q33 33 53.5 65.5t20.5 74.5q0 30 -4.5 51.5t-19 35.5t-43 20.5t-76.5 6.5q-45 0 -90 -4.5t-78 -9.5q-10 -2 -13.5 2t-5.5 9l-6 28q-2 7 0 12t13 10
q20 8 45 13t50 8t47.5 4t37.5 1q64 0 107 -12t68.5 -34.5t36 -54.5t10.5 -73q0 -34 -5 -59.5t-16 -48t-28.5 -44t-41.5 -46.5q-28 -29 -52 -53t-50.5 -49t-57.5 -54.5t-73 -69.5l2 -1h320q15 0 15 -14v-44v0z" />
    <glyph glyph-name="three" unicode="3" horiz-adv-x="556" 
d="M494 235q0 -72 -18 -119t-51.5 -74.5t-81 -38.5t-105.5 -11q-14 0 -37 1.5t-48.5 4.5t-50.5 8t-43 13q-10 4 -11.5 9t0.5 13l5 26q2 5 5.5 9.5t14.5 2.5q36 -5 80 -10t90 -5q33 0 63.5 5.5t54.5 23t38 50t14 86.5q0 45 -25.5 65t-75.5 28l-120 20q-19 3 -19 21v30
q0 10 2.5 15.5t7.5 10.5l183 171v1h-295q-15 0 -15 15v43q0 13 14 13h379q9 0 13.5 -5t4.5 -10v-40q-1 -14 -5 -22.5t-15 -19.5l-170 -159v-1l80 -14q63 -11 100 -47t37 -109z" />
    <glyph glyph-name="four" unicode="4" horiz-adv-x="556" 
d="M534 193q0 -13 -14 -13h-80v-165q0 -15 -15 -15h-48q-14 0 -14 14l1 166h-331q-15 0 -15 13v40q0 15 10 28l330 388q6 8 11.5 10.5t16.5 2.5h41q13 0 13 -12v-399h80q14 0 14 -14v-44zM364 547l-2 1l-245 -295l-1 -2h248v296z" />
    <glyph glyph-name="five" unicode="5" horiz-adv-x="556" 
d="M492 235q0 -72 -17.5 -118.5t-50 -74.5t-78.5 -39t-102 -11q-15 0 -37.5 1.5t-48 4.5t-50 8t-42.5 13q-10 4 -11.5 9t0.5 13l5 26q2 5 5.5 9.5t14.5 2.5q35 -5 79 -10t90 -5q33 0 62.5 6t51.5 23.5t35 50t13 85.5q0 45 -27 65t-74 28l-219 36q-26 5 -22 32l40 258
q2 9 5.5 11.5t12.5 2.5h320q13 0 13 -12v-44q0 -14 -15 -14h-271l-26 -169l204 -31q63 -10 101.5 -47t38.5 -110z" />
    <glyph glyph-name="six" unicode="6" horiz-adv-x="556" 
d="M516 186q0 -54 -19 -91t-51.5 -60t-75.5 -33.5t-92 -10.5q-86 0 -133.5 23t-69.5 65t-26 100t-4 128q0 42 3 85.5t11.5 84t25.5 75.5t45.5 61.5t69.5 41.5t99 15q13 0 33.5 -1t44 -4t47 -8t43.5 -13q11 -5 13 -10t0 -12l-6 -28q-2 -5 -5.5 -9t-13.5 -2q-33 5 -73 9.5
t-85 4.5q-51 0 -83.5 -17t-51 -46t-26.5 -69t-10 -85q39 4 67.5 7t52 4.5t43.5 2.5t43 1q94 0 139 -50t45 -159zM436 184q0 34 -5 59.5t-18.5 42.5t-36.5 26t-58 9q-27 0 -76.5 -3t-117.5 -11v-52.5t2 -51.5t6.5 -46.5t13.5 -37.5q14 -26 45 -42t91 -16q27 0 54 4.5t49.5 18
t36.5 37.5t14 63z" />
    <glyph glyph-name="seven" unicode="7" horiz-adv-x="556" 
d="M200 -2q-6 -12 -19 -7l-51 14q-15 6 -7 20l289 567h-357q-14 0 -14 13v43q0 15 15 15h423q9 0 14 -5.5t5 -10.5v-36q0 -14 -3.5 -25.5t-8.5 -20.5l-286 -567v0z" />
    <glyph glyph-name="eight" unicode="8" horiz-adv-x="556" 
d="M148 353q-41 15 -66.5 50t-25.5 80q0 95 57.5 142t162.5 47q99 0 158 -44t59 -139q0 -20 -6.5 -40.5t-19 -39t-30.5 -33.5t-40 -23v-2q54 -17 86.5 -61t32.5 -112q0 -87 -65 -137t-178 -50q-114 0 -176 44t-62 141q0 66 28 110.5t85 64.5v2zM411 490q0 61 -38 87t-97 26
q-77 0 -107.5 -29t-30.5 -84q0 -26 10.5 -43.5t29 -29.5t43.5 -20t53 -14q76 12 106.5 37t30.5 70zM433 176q0 35 -13 59t-35.5 40t-52.5 26.5t-65 18.5q-26 -5 -52.5 -13t-48.5 -22.5t-35.5 -38.5t-13.5 -62q0 -36 13 -59.5t34.5 -37.5t49.5 -20t59 -6q29 0 58 6.5t51.5 21
t36.5 36t14 51.5z" />
    <glyph glyph-name="nine" unicode="9" horiz-adv-x="556" 
d="M43 475q0 53 18.5 90t51 60.5t75.5 34t92 10.5q84 0 131.5 -23t70 -65t27.5 -100t5 -128q0 -63 -7.5 -128t-33.5 -117t-76.5 -85t-137.5 -33q-13 0 -33.5 1t-43.5 4t-46.5 8t-43.5 13q-11 4 -13 9.5t0 12.5l6 27q2 6 5.5 9.5t12.5 2.5q34 -5 74 -9.5t84 -4.5
q51 0 83.5 17t51 46t26.5 68.5t10 84.5q-39 -4 -67.5 -7t-51.5 -4.5t-43.5 -2t-43.5 -0.5q-94 0 -138.5 50t-44.5 159zM123 476q0 -33 5 -59t18 -43t36 -26t58 -9q27 0 76.5 3.5t117.5 11.5q0 26 -1 53.5t-3 53t-6 46.5t-11 34q-14 27 -45 43t-91 16q-27 0 -54 -5
t-49.5 -18.5t-36.5 -37.5t-14 -63z" />
    <glyph glyph-name="colon" unicode=":" horiz-adv-x="195" 
d="M143 394q0 -20 -8.5 -34t-37.5 -14q-30 0 -37.5 14.5t-7.5 33.5q0 20 8.5 33t36.5 13q29 0 37.5 -12.5t8.5 -33.5zM143 39q0 -20 -8.5 -34t-37.5 -14q-30 0 -37.5 14t-7.5 34t8.5 33t36.5 13q29 0 37.5 -13t8.5 -33z" />
    <glyph glyph-name="semicolon" unicode=";" horiz-adv-x="195" 
d="M143 394q0 -20 -8.5 -34t-37.5 -14q-30 0 -37.5 14.5t-7.5 33.5q0 20 8.5 33t36.5 13q29 0 37.5 -12.5t8.5 -33.5zM145 21q0 -60 -24.5 -97t-54.5 -56q-3 -2 -8 -4t-10 3l-12 11q-4 3 -2.5 7t5.5 8q18 16 25.5 34t7.5 37q0 18 -7 36.5t-18 31.5q-9 12 4 21l40 30
q7 5 13.5 4.5t11.5 -5.5q15 -14 22 -30.5t7 -30.5z" />
    <glyph glyph-name="less" unicode="&#x3c;" horiz-adv-x="556" 
d="M472 101q0 -14 -11 -7l-366 197q-5 2 -8 5.5t-3 12.5v31q0 8 2.5 11t7.5 6l365 196q12 7 12 -8v-49q0 -8 -3.5 -11t-8.5 -6l-280 -152v-3l281 -153q6 -3 9 -6.5t3 -11.5v-52v0z" />
    <glyph glyph-name="equal" unicode="=" horiz-adv-x="556" 
d="M473 387q0 -12 -14 -12h-362q-6 0 -10 2t-4 10v36q0 13 14 13h362q14 0 14 -13v-36zM473 227q0 -12 -14 -12h-362q-14 0 -14 12v36q0 13 14 13h362q14 0 14 -13v-36z" />
    <glyph glyph-name="greater" unicode="&#x3e;" horiz-adv-x="556" 
d="M84 153q0 8 3 11.5t9 6.5l281 153v3l-280 152q-5 3 -8.5 6t-3.5 11v49q0 15 12 8l365 -196q5 -3 7.5 -6t2.5 -11v-31q0 -9 -3 -12.5t-8 -5.5l-366 -197q-11 -7 -11 7v52z" />
    <glyph glyph-name="question" unicode="?" horiz-adv-x="352" 
d="M333 520q0 -26 -7 -45.5t-18.5 -35t-26 -27.5t-28.5 -22q-21 -16 -38.5 -31t-30.5 -32.5t-20 -39t-7 -48.5v-27t1 -29q0 -8 -2 -12.5t-10 -4.5h-38q-14 0 -17 15q-3 19 -3.5 37.5t-0.5 30.5q0 34 10 61t27 50t39 42.5t46 39.5q22 17 36.5 32t14.5 41q0 47 -27.5 66
t-88.5 19q-25 0 -54 -2.5t-54 -4.5q-10 -1 -13.5 3t-5.5 9l-5 27q-2 8 0 13t13 9q31 12 62 15.5t60 3.5q94 0 140 -40t46 -113zM177 39q0 -20 -8.5 -34t-37.5 -14q-31 0 -38.5 14t-7.5 34t9 33t37 13q29 0 37.5 -13t8.5 -33z" />
    <glyph glyph-name="at" unicode="@" horiz-adv-x="813" 
d="M430 684q82 0 145.5 -25.5t107.5 -70.5t67 -106.5t23 -133.5q0 -51 -14.5 -89t-38 -64t-53 -39t-59.5 -13q-48 0 -75 16t-41 48q-30 -17 -64 -30.5t-75 -13.5q-53 0 -75.5 25.5t-22.5 73.5q0 63 32.5 92.5t101.5 29.5h96v25q0 39 -17.5 53.5t-64.5 14.5q-19 0 -48 -1.5
t-52 -4.5q-13 -2 -14 6l-4 20q-2 11 12 17q11 4 25.5 6.5t30.5 4t32 2.5t29 1q43 0 69 -9t39 -26t17 -40.5t4 -52.5v-149q0 -8 2 -18t9 -18.5t20 -14.5t36 -6q46 0 77 41.5t31 113.5q0 63 -20 115.5t-57.5 90t-90.5 58.5t-120 21q-68 0 -128 -23t-104.5 -63.5t-70.5 -95
t-26 -118.5q0 -67 23.5 -122.5t65.5 -95t100 -61.5t127 -22q15 0 48.5 4t70.5 15q5 2 8.5 1.5t5.5 -6.5l7 -21q4 -14 -8 -19q-34 -14 -68 -19.5t-69 -5.5q-79 0 -146 25.5t-115.5 72t-76 111t-27.5 142.5q0 76 30.5 140.5t83 111t122 73t147.5 26.5zM313 265q0 -29 11.5 -40
t41.5 -11q13 0 29 3.5t32 9.5t31.5 13t27.5 14v82h-103q-32 0 -51 -14.5t-19 -56.5z" />
    <glyph glyph-name="A" unicode="A" horiz-adv-x="548" 
d="M97 16q-3 -10 -8 -13t-13 -3h-52q-14 0 -8 16l209 631q4 15 19 15h56q10 0 13.5 -4t5.5 -11l209 -633q3 -14 -8 -14h-61q-8 0 -11.5 3t-5.5 10l-49 164h-244zM321 415l-48 162h-3l-47 -159l-51 -170h199z" />
    <glyph glyph-name="B" unicode="B" horiz-adv-x="557" 
d="M515 182q0 -42 -14.5 -75.5t-39.5 -57t-57.5 -36.5t-69.5 -13h-241q-12 0 -16.5 4t-4.5 13v629q0 16 18 16h211q97 0 145.5 -47t48.5 -123q0 -16 -3.5 -36t-13 -40t-26 -38t-42.5 -30l1 -1q30 -9 50 -28.5t32 -42.5t17 -48t5 -46zM413 486q0 46 -29 76t-93 30h-142v-213
h157q22 0 41.5 8.5t34 22.5t23 33.5t8.5 42.5zM433 189q0 23 -7 45t-22 38.5t-38.5 26.5t-56.5 10h-160v-238h160q37 0 61 9.5t38 26t19.5 37.5t5.5 45z" />
    <glyph glyph-name="C" unicode="C" horiz-adv-x="538" 
d="M319 670q15 0 37 -1t47 -4t50 -8t45 -13q11 -5 13 -10t0 -12l-6 -28q-2 -5 -5.5 -9t-13.5 -2q-33 5 -77.5 9.5t-89.5 4.5q-58 0 -92 -22t-52 -59.5t-23 -87t-5 -104.5q0 -50 6 -97t24.5 -83t52.5 -57.5t89 -21.5q46 0 88 4.5t78 9.5q11 2 14.5 -2.5t5.5 -9.5l5 -26
q2 -8 0.5 -13t-11.5 -9q-18 -8 -43 -13t-50.5 -8t-48.5 -4.5t-38 -1.5q-79 0 -128.5 27.5t-77.5 73.5t-38 106t-10 125q0 66 9.5 128.5t36.5 110.5t77 77.5t131 29.5z" />
    <glyph glyph-name="D" unicode="D" horiz-adv-x="617" 
d="M552 333q0 -69 -11.5 -129.5t-41.5 -106t-82 -71.5t-133 -26h-187q-12 0 -16.5 4t-4.5 13v629q0 16 18 16h190q80 0 132 -25.5t82 -70t42 -104.5t12 -129zM470 325q0 84 -15.5 136t-41.5 81t-59.5 39t-69.5 10h-130v-519h123q34 0 68 8.5t62 35t45.5 76.5t17.5 133z" />
    <glyph glyph-name="E" unicode="E" horiz-adv-x="505" 
d="M460 16q0 -10 -4 -13t-13 -3h-351q-18 0 -18 16v630q0 17 18 17h345q17 0 17 -16v-39q0 -17 -18 -17h-284v-211h255q17 0 17 -16v-39q0 -16 -17 -16h-255v-238h292q16 0 16 -17v-38v0z" />
    <glyph glyph-name="F" unicode="F" horiz-adv-x="479" 
d="M77 647q0 16 19 16h338q17 0 17 -16v-39q0 -17 -18 -17h-279v-211h247q17 0 17 -16v-39q0 -17 -18 -17h-245v-291q0 -17 -17 -17h-43q-18 0 -18 17v630v0z" />
    <glyph glyph-name="G" unicode="G" horiz-adv-x="604" 
d="M321 670q14 0 36.5 -1t47 -4t50 -8t45.5 -13q10 -4 12.5 -9t0.5 -13l-7 -28q-1 -5 -4.5 -9t-13.5 -2q-34 5 -78.5 9.5t-88.5 4.5q-57 0 -91 -22t-52 -59.5t-23.5 -87t-5.5 -104.5q0 -51 7 -98t26.5 -83t54 -58t90.5 -22q13 0 30 1t35 3t34 5t28 7v204h-91q-18 0 -18 17
v39q0 16 17 16h153q11 0 15 -6t4 -11v-286q0 -14 -6 -22t-21 -13q-41 -12 -86.5 -18.5t-88.5 -6.5q-74 0 -125 23.5t-82.5 67t-45 105t-13.5 137.5q0 66 10 128t37.5 110t77.5 77.5t130 29.5z" />
    <glyph glyph-name="H" unicode="H" horiz-adv-x="595" 
d="M523 17q0 -17 -16 -17h-43q-18 0 -18 17v298h-297v-298q0 -17 -16 -17h-43q-18 0 -18 17v628q0 11 4.5 14.5t13.5 3.5h43q8 0 12 -3.5t4 -14.5v-258h297v258q0 11 4.5 14.5t13.5 3.5h43q8 0 12 -3.5t4 -14.5v-628v0z" />
    <glyph glyph-name="I" unicode="I" horiz-adv-x="254" 
d="M165 17q0 -17 -17 -17h-44q-18 0 -18 17v628q0 11 4.5 14.5t13.5 3.5h44q8 0 12.5 -3.5t4.5 -14.5v-628v0z" />
    <glyph glyph-name="J" unicode="J" horiz-adv-x="418" 
d="M333 160q0 -80 -42.5 -124.5t-144.5 -44.5q-32 0 -62 4.5t-60 16.5q-12 5 -14.5 10.5t-0.5 13.5l7 28q2 7 5.5 9.5t12.5 0.5q22 -3 52.5 -6t51.5 -3q35 0 57.5 6.5t35.5 19.5t18 32t5 44v478q0 11 4.5 14.5t13.5 3.5h43q9 0 13.5 -3.5t4.5 -14.5v-485v0z" />
    <glyph glyph-name="K" unicode="K" horiz-adv-x="550" 
d="M533 14q3 -5 1 -9.5t-9 -4.5h-61q-9 0 -13.5 3t-9.5 11l-183 306l-111 -136v-167q0 -17 -16 -17h-43q-18 0 -18 17v628q0 11 4.5 14.5t13.5 3.5h43q8 0 12 -3.5t4 -14.5v-349l2 -1l79 101l208 256q5 6 9.5 8.5t13.5 2.5h61q7 0 9.5 -4.5t-2.5 -9.5l-218 -267l224 -368v0z
" />
    <glyph glyph-name="L" unicode="L" horiz-adv-x="484" 
d="M469 16q0 -16 -16 -16h-360q-18 0 -18 16v629q0 11 4.5 14.5t12.5 3.5h44q8 0 12 -3.5t4 -14.5v-574h300q17 0 17 -17v-38v0z" />
    <glyph glyph-name="M" unicode="M" horiz-adv-x="739" 
d="M666 17q0 -17 -17 -17h-43q-18 0 -18 17v474h-3l-35 -77l-146 -298q-6 -13 -20 -13h-29q-9 0 -13.5 3t-7.5 9l-152 310l-31 66h-2v-474q0 -17 -16 -17h-42q-17 0 -17 17v631q0 15 15 15h44q10 0 14 -3.5t8 -11.5l166 -345l48 -104h2l49 108l166 340q5 8 9.5 12t15.5 4h40
q15 0 15 -15v-631v0z" />
    <glyph glyph-name="N" unicode="N" horiz-adv-x="629" 
d="M151 523h-3v-506q0 -17 -17 -17h-41q-18 0 -18 17v631q0 15 16 15h41q11 0 15.5 -4.5t9.5 -11.5l271 -418l53 -84h3v500q0 11 4 14.5t13 3.5h42q8 0 12 -3.5t4 -14.5v-629q0 -16 -16 -16h-38q-11 0 -16 4t-10 12l-267 412z" />
    <glyph glyph-name="O" unicode="O" horiz-adv-x="638" 
d="M576 341q0 -59 -7 -121t-33.5 -113t-78.5 -83.5t-141 -32.5q-59 0 -100.5 15t-69.5 40.5t-44.5 60t-25.5 73.5t-11.5 80t-2.5 81q0 31 3 67.5t12 73t26.5 71t45.5 60.5t69.5 42t98.5 16q85 0 136.5 -29t78.5 -75.5t35.5 -105.5t8.5 -120zM498 331q0 65 -8.5 116
t-29.5 85.5t-56 52.5t-88 18q-50 0 -83.5 -19t-53.5 -54.5t-28.5 -85.5t-8.5 -113q0 -61 7.5 -110.5t27 -85t53 -55t86.5 -19.5q54 0 89 18.5t56 53t29 85t8 113.5z" />
    <glyph glyph-name="P" unicode="P" horiz-adv-x="515" 
d="M486 470q0 -34 -9.5 -69.5t-33 -65t-63 -48t-99.5 -18.5h-131v-252q0 -17 -17 -17h-43q-18 0 -18 17v630q0 16 18 16h190q44 0 82 -12t65.5 -36t43 -60.5t15.5 -84.5zM409 469q0 63 -37 93t-98 30h-124v-254h130q38 0 63 11t39.5 29.5t20.5 42t6 48.5z" />
    <glyph glyph-name="Q" unicode="Q" horiz-adv-x="641" 
d="M577 -71q-7 -19 -25 -12l-212 75q-6 -1 -11.5 -1h-11.5q-59 0 -100.5 15t-69.5 40.5t-44.5 60t-25.5 73.5t-11.5 80t-2.5 81q0 31 3 67.5t12 73t26 71t45.5 60.5t69.5 42t98 16q85 0 136.5 -29t79 -75.5t36 -105.5t8.5 -120q0 -45 -3.5 -91t-15.5 -88.5t-35.5 -78
t-63.5 -58.5l129 -36q8 -2 9 -8t-1 -11zM499 331q0 65 -8.5 116t-29.5 85.5t-56 52.5t-88 18q-50 0 -83.5 -19t-53.5 -54.5t-28.5 -85.5t-8.5 -113q0 -61 8 -110.5t28 -85t53.5 -55t84.5 -19.5t86 18.5t56 53t30.5 85t9.5 113.5z" />
    <glyph glyph-name="R" unicode="R" horiz-adv-x="526" 
d="M491 17q3 -7 0.5 -12t-9.5 -5h-57q-8 0 -13 2.5t-9 10.5l-128 266h-131v-261q0 -18 -17 -18h-43q-17 0 -17 17v630q0 16 17 16h204q37 0 72 -10.5t62 -33t43 -58.5t16 -86q0 -28 -7 -56.5t-22 -53.5t-39.5 -44.5t-58.5 -30.5zM400 476q0 35 -11 57.5t-29.5 35t-42 17.5
t-48.5 5h-125v-243h123q22 0 45.5 4.5t43 18t32 39t12.5 66.5z" />
    <glyph glyph-name="S" unicode="S" horiz-adv-x="526" 
d="M480 184q0 -54 -18 -91t-49.5 -59.5t-73 -32.5t-87.5 -10q-21 0 -47 2t-52 5.5t-50.5 8.5t-40.5 12q-11 5 -13 10t0 12l7 28q3 11 17 10q21 -3 46 -5.5t49.5 -4.5t46 -3t36.5 -1q75 0 113.5 28t38.5 79q0 34 -6.5 56.5t-22.5 37t-43 23t-67 15.5q-45 7 -84 17.5t-68 29
t-45.5 49.5t-16.5 81q0 92 55.5 140t158.5 48q15 0 37 -1t47 -4t50 -8t45 -13q11 -4 13 -9.5t0 -12.5l-6 -27q-2 -5 -5.5 -9t-13.5 -3q-33 5 -78 9.5t-89 4.5q-39 0 -65.5 -8t-42 -22.5t-22 -35.5t-6.5 -46q0 -30 7.5 -47.5t24.5 -28.5t44 -17.5t66 -13.5q43 -8 81.5 -18
t67 -30.5t45 -55t16.5 -89.5z" />
    <glyph glyph-name="T" unicode="T" horiz-adv-x="481" 
d="M465 608q0 -17 -18 -17h-168v-574q0 -17 -16 -17h-43q-18 0 -18 17v574h-167q-18 0 -18 17v39q0 16 17 16h414q17 0 17 -16v-39v0z" />
    <glyph glyph-name="U" unicode="U" horiz-adv-x="607" 
d="M304 64q77 0 118 42t41 131v408q0 11 4.5 14.5t13.5 3.5h43q8 0 12 -3.5t4 -14.5l-1 -405q0 -32 -3 -60.5t-14 -56.5q-29 -70 -86.5 -100t-131.5 -30q-169 0 -216 128q-11 27 -15 56.5t-4 62.5v405q0 11 4 14.5t13 3.5h44q8 0 12.5 -3.5t4.5 -14.5v-408q0 -84 39 -128.5
t118 -44.5z" />
    <glyph glyph-name="V" unicode="V" horiz-adv-x="558" 
d="M280 101h3l76 239l98 308q4 14 20 14h50q13 0 8 -16l-209 -632q-4 -14 -20 -14h-52q-9 0 -13 3t-6 10l-210 634q-5 15 9 15h51q9 0 13 -3t6 -11l100 -308z" />
    <glyph glyph-name="W" unicode="W" horiz-adv-x="815" 
d="M608 15q-4 -15 -19 -15h-52q-10 0 -14 3t-6 11l-94 322l-16 57l-2 -1l-16 -59l-93 -319q-4 -14 -18 -14h-55q-14 0 -17 14l-186 634q-3 15 10 15h52q9 0 12.5 -3t5.5 -11q30 -106 56 -195q11 -38 22 -75.5t20 -69.5t15.5 -55t9.5 -32l29 -102h2l28 98q1 6 7.5 29
t15.5 54.5t19 67.5t19.5 67.5t16 55t8.5 30.5l-36 125q-5 16 9 16h52q15 0 19 -14q30 -106 56 -195q11 -38 22 -75.5t20 -69.5t15.5 -55t9.5 -32l28 -102h3l26 98q3 9 9.5 32.5t15.5 55.5t19.5 70t21.5 76q26 89 56 197q2 8 6 11t13 3h50q13 0 8 -18z" />
    <glyph glyph-name="X" unicode="X" horiz-adv-x="522" 
d="M500 14q4 -5 1.5 -9.5t-9.5 -4.5h-57q-9 0 -13 3t-9 11l-88 149l-65 111l-60 -104l-93 -156q-5 -8 -8.5 -11t-14.5 -3h-57q-7 0 -9 4.5t2 10.5l199 326l-184 306q-4 6 -2 11t9 5h58q11 0 14 -3.5t7 -9.5l78 -136l61 -106l62 109l77 132q6 13 23 13h54q8 1 10 -4.5
t-1 -10.5l-184 -306l199 -327v0z" />
    <glyph glyph-name="Y" unicode="Y" horiz-adv-x="507" 
d="M257 372l59 107l93 171q4 7 8 9.5t13 2.5h52q16 0 9 -15l-199 -351v-279q0 -17 -16 -17h-42q-18 0 -18 17v279l-199 353q-2 5 0 9t8 4h59q9 0 12.5 -3t6.5 -9l93 -175l55 -103h6z" />
    <glyph glyph-name="Z" unicode="Z" horiz-adv-x="488" 
d="M454 17q0 -17 -16 -17h-386q-16 0 -16 16v35q0 17 8 30l318 510h-289q-17 0 -17 17v39q0 16 16 16h363q16 0 16 -14v-40q0 -13 -8 -26l-315 -512h309q17 0 17 -16v-38v0z" />
    <glyph glyph-name="bracketleft" unicode="[" horiz-adv-x="253" 
d="M202 -86q0 -14 -15 -14h-127q-18 0 -18 16v764q0 15 17 15h129q14 0 14 -13v-37q0 -14 -16 -14h-72v-667h73q15 0 15 -13v-37v0z" />
    <glyph glyph-name="backslash" unicode="\" horiz-adv-x="256" 
d="M11 678q-3 15 7 15h33q13 0 16 -13l174 -730q3 -14 -9 -14h-34q-11 0 -14 12z" />
    <glyph glyph-name="bracketright" unicode="]" horiz-adv-x="252" 
d="M213 -85q0 -15 -19 -15h-129q-15 0 -15 14v37q0 13 15 13h76v667h-75q-16 0 -16 14v37q0 13 14 13h131q18 0 18 -15v-765v0z" />
    <glyph glyph-name="asciicircum" unicode="^" horiz-adv-x="490" 
d="M448 376q-10 -8 -16 -1l-186 225l-187 -220q-9 -9 -19 -1l-18 14q-5 4 -4.5 6t3.5 7l178 244q5 7 10 9.5t16 2.5h42q14 0 19 -3t9 -9l171 -244q6 -11 1 -15z" />
    <glyph glyph-name="underscore" unicode="_" horiz-adv-x="500" 
d="M507 -119q0 -12 -14 -12h-486q-14 0 -14 11v24q0 14 14 14h485q15 0 15 -14v-23v0z" />
    <glyph glyph-name="grave" unicode="`" horiz-adv-x="498" 
d="M305 567q5 -11 -3 -14l-29 -13q-10 -4 -15 3l-89 135q-2 3 -3 7.5t6 7.5l46 20q13 6 17 -3l70 -143v0z" />
    <glyph glyph-name="a" unicode="a" horiz-adv-x="514" 
d="M367 54q-37 -22 -82.5 -42t-105.5 -20q-73 0 -104 35t-31 103q0 85 43 126.5t143 41.5h138v34q0 55 -25.5 76t-91.5 21q-14 0 -31.5 -0.5t-36.5 -2l-38 -3t-35 -3.5q-17 -3 -20 9l-6 26q-2 7 1.5 12t14.5 10q15 5 36 9t44 6.5t45.5 3.5t40.5 1q60 0 95.5 -13t54 -36
t23.5 -56t5 -73v-221q0 -15 1.5 -23t5 -12t10.5 -5.5t19 -2.5q17 -1 17 -13v-25q0 -7 -4 -11.5t-16 -6.5q-18 -3 -35 -3q-35 0 -51.5 13t-21.5 45h-2zM368 235h-147q-46 0 -73 -21t-27 -81q0 -42 16.5 -57t60.5 -15q19 0 41.5 5t45.5 13.5t44.5 18.5t38.5 20v117z" />
    <glyph glyph-name="b" unicode="b" horiz-adv-x="509" 
d="M465 247q0 -62 -9.5 -109.5t-33 -80t-63 -49.5t-99.5 -17q-23 0 -48.5 1.5t-50.5 4.5t-47 7.5t-39 10.5t-20.5 17.5t-3.5 22.5v631q0 11 3.5 14.5t13.5 3.5h42q11 0 14.5 -4t3.5 -14v-217l1 -2q45 17 80 23.5t62 6.5q58 0 96 -17.5t59.5 -50.5t30 -79t8.5 -103zM385 238
q0 52 -5.5 88.5t-18.5 59t-34 32.5t-52 10q-32 0 -70 -5.5t-76 -16.5v-333q29 -5 62.5 -7.5t65.5 -2.5q29 0 53 5.5t40.5 24t25.5 53t9 92.5z" />
    <glyph glyph-name="c" unicode="c" horiz-adv-x="425" 
d="M408 36q3 -14 -11 -21q-28 -13 -70.5 -18t-80.5 -5q-66 0 -105.5 20t-61 55t-28 81t-6.5 99q0 48 6.5 93t28 80t61 56t105.5 21q15 0 35 -1t40.5 -3.5t40.5 -7t36 -11.5q8 -3 9.5 -9t0.5 -12l-4 -23q-2 -8 -9.5 -10t-16.5 -1q-31 3 -68.5 6.5t-64.5 3.5q-34 0 -57 -9.5
t-36.5 -30.5t-19.5 -55.5t-6 -85.5q0 -55 6 -91t20 -57.5t37 -30.5t56 -9q12 0 29.5 1t36 2.5t37.5 3t34 3.5q9 1 14.5 -1t7.5 -12l4 -21v0z" />
    <glyph glyph-name="d" unicode="d" horiz-adv-x="510" 
d="M454 17q0 -17 -16 -17h-42q-8 0 -12.5 3t-4.5 14v37l-3 1q-11 -7 -29.5 -18t-41 -21t-48.5 -17t-51 -7q-47 0 -78.5 16.5t-50.5 48t-26.5 77.5t-7.5 105q0 63 9 111t31.5 80.5t60.5 49.5t96 17q27 0 61.5 -6t75.5 -22l2 1v216q0 10 3 14.5t14 4.5h42q10 0 13 -4t3 -15
v-669zM378 406q-41 12 -76.5 17t-67.5 5t-53.5 -9.5t-34.5 -32t-18.5 -59t-5.5 -90.5q0 -57 5.5 -91.5t17 -53.5t28.5 -25t40 -6q18 0 41.5 6.5t46.5 15.5t44 18.5t33 16.5v288z" />
    <glyph glyph-name="e" unicode="e" horiz-adv-x="489" 
d="M451 276q1 -24 -7.5 -40.5t-36.5 -16.5h-282q1 -45 8 -75.5t23 -49t40.5 -26t59.5 -7.5q15 0 34 1.5l38 3t36.5 3.5t30.5 4q10 1 15.5 -1t7.5 -12l4 -22q3 -14 -11 -20t-34 -11t-42 -8.5t-44 -5.5t-40 -2q-69 0 -109.5 21.5t-61.5 56.5t-27.5 80.5t-6.5 93.5q0 36 6 80.5
t27 83t61 64.5t109 26q64 0 103 -19t60.5 -50t29 -71t9.5 -81zM370 282q0 26 -4.5 52.5t-17.5 47.5t-37 34t-64 13q-33 0 -55.5 -10.5t-36.5 -29.5t-21 -46t-9 -61h245z" />
    <glyph glyph-name="f" unicode="f" horiz-adv-x="362" 
d="M262 706q7 0 20 -1t29 -3.5t33 -6.5t32 -10q8 -3 9.5 -9t0.5 -12l-4 -23q-2 -8 -9.5 -10.5t-16.5 -0.5q-31 5 -52.5 6.5t-32.5 1.5q-51 0 -74 -22t-23 -74v-55h125q17 0 17 -17v-29q0 -17 -17 -17h-125v-407q0 -17 -16 -17h-41q-18 0 -18 17v407h-49q-17 0 -17 17v28
q0 18 17 18h50v57q0 37 8.5 67t27.5 51t50 32.5t76 11.5z" />
    <glyph glyph-name="g" unicode="g" horiz-adv-x="511" 
d="M254 497q23 0 48 -2t49 -5t46 -7.5t40 -9.5q17 -5 21 -17t4 -23v-435q0 -40 -6 -73.5t-26 -58t-58 -38t-102 -13.5q-19 0 -41 1t-43.5 3.5t-42 7t-36.5 11.5q-10 4 -11.5 9.5t0.5 11.5l4 22q2 9 8 11t17 0q32 -5 71 -7t70 -2q35 0 57.5 5.5t36 17.5t19 30.5t5.5 44.5v40
q-46 -17 -80.5 -23.5t-61.5 -6.5q-58 0 -95.5 17.5t-59.5 50.5t-30.5 79t-8.5 103q0 61 10 108.5t34 80.5t63.5 50t98.5 17zM128 250q0 -53 6 -89t19.5 -59t34.5 -33t52 -10q28 0 67 6t77 17v333q-29 4 -62.5 7.5t-65.5 3.5q-27 0 -50.5 -6t-41 -24.5t-27 -53t-9.5 -92.5z
" />
    <glyph glyph-name="h" unicode="h" horiz-adv-x="512" 
d="M454 17q0 -17 -18 -17h-42q-17 0 -17 17l1 305q0 32 -4 52.5t-13.5 32.5t-25 16.5t-38.5 4.5q-18 0 -42 -7t-48 -16t-45 -18.5t-32 -15.5v-354q0 -17 -18 -17h-41q-16 0 -16 17v671q0 17 16 17h41q18 0 18 -17v-254l1 -1q12 8 31.5 19t43 21t50 17t53.5 7q49 0 77.5 -14
t43.5 -38.5t19.5 -58.5t4.5 -74v-295v0z" />
    <glyph glyph-name="i" unicode="i" horiz-adv-x="223" 
d="M155 617q0 -19 -7.5 -32t-35.5 -13q-29 0 -36 13.5t-7 31.5q0 19 8.5 31t34.5 12q27 0 35 -11.5t8 -31.5zM149 17q0 -17 -16 -17h-41q-18 0 -18 17v453q0 11 4.5 14t13.5 3h41q16 0 16 -17v-453z" />
    <glyph glyph-name="j" unicode="j" horiz-adv-x="240" 
d="M163 -34q0 -35 -6 -66.5t-26 -55.5t-57.5 -37t-100.5 -11q-5 0 -12 3t-8 14l-2 23q-1 10 3 13.5t11 5.5q35 7 58.5 13.5t37.5 17.5t20 29.5t6 48.5v506q0 11 4.5 14t13.5 3h40q18 0 18 -17v-504zM168 617q0 -19 -7.5 -32t-35.5 -13q-29 0 -36 13.5t-7 31.5q0 19 8.5 31
t34.5 12q27 0 35 -11.5t8 -31.5z" />
    <glyph glyph-name="k" unicode="k" horiz-adv-x="446" 
d="M332 475q5 7 9 10t13 3h52q8 0 11.5 -6t-2.5 -13l-149 -179l169 -272q4 -6 1 -12t-11 -6h-52q-9 0 -13.5 3.5t-9.5 10.5l-133 218l-80 -97v-118q0 -17 -18 -17h-41q-17 0 -17 17v671q0 17 17 17h41q18 0 18 -17v-448l2 -1l52 67z" />
    <glyph glyph-name="l" unicode="l" horiz-adv-x="237" 
d="M217 23q1 -12 -10 -17q-12 -5 -26.5 -8t-27.5 -3q-25 0 -41 6t-25 16.5t-12.5 26t-3.5 33.5v610q0 17 17 17h40q9 0 13.5 -3t4.5 -14v-585q0 -26 11 -31.5t39 -5.5q16 0 17 -10z" />
    <glyph glyph-name="m" unicode="m" horiz-adv-x="810" 
d="M752 17q0 -17 -17 -17h-42q-17 0 -17 17v301q0 31 -3.5 52t-12.5 34t-24 18.5t-38 5.5q-18 0 -39.5 -6.5t-43.5 -15.5t-42 -19t-33 -17q1 -6 1.5 -20t0.5 -34v-299q0 -17 -17 -17h-44q-15 0 -15 17l1 308q0 49 -15 76t-61 27q-17 0 -37 -5.5t-41.5 -14t-42.5 -18.5
t-38 -19v-354q0 -17 -17 -17h-42q-16 0 -16 17v453q0 17 16 17h41q18 0 18 -17v-34v-1h1q15 9 33.5 20t40 20.5t44.5 15.5t47 6q55 0 85.5 -18.5t43.5 -53.5q39 27 84.5 49.5t96.5 22.5q47 0 75.5 -13t43.5 -36.5t20 -56.5t5 -73v-301v0z" />
    <glyph glyph-name="n" unicode="n" horiz-adv-x="505" 
d="M452 17q0 -17 -18 -17h-42q-17 0 -17 17l1 296q0 34 -4 56.5t-13.5 35.5t-25 18t-38.5 5q-18 0 -42 -7t-48 -16t-45 -18.5t-32 -15.5v-354q0 -17 -18 -17h-41q-16 0 -16 17v453q0 17 16 17h41q9 0 13.5 -3t4.5 -14v-36l3 -1q12 8 31 19t42.5 21t49.5 17t53 7
q49 0 77.5 -14t43.5 -38.5t19.5 -58.5t4.5 -74v-295v0z" />
    <glyph glyph-name="o" unicode="o" horiz-adv-x="503" 
d="M457 252q0 -44 -5 -90t-25.5 -84t-62.5 -62t-116 -24q-72 0 -112.5 24t-60.5 61.5t-24.5 84t-4.5 90.5q0 36 6 79t26.5 80t60.5 61.5t109 24.5t110.5 -21.5t63.5 -56t28.5 -78.5t6.5 -89zM379 245q0 46 -5 80.5t-19.5 57t-40 34t-66.5 11.5q-39 0 -63 -11.5t-38 -34.5
t-19 -57t-5 -80t5 -80t19 -57t38 -34.5t63 -11.5q41 0 66.5 11t40 33.5t19.5 57t5 81.5z" />
    <glyph glyph-name="p" unicode="p" horiz-adv-x="498" 
d="M466 248q0 -62 -9 -110t-31.5 -80.5t-60 -49.5t-95.5 -17q-28 0 -63 6t-75 22l-1 -1v-175q0 -10 -3.5 -14.5t-14.5 -4.5h-41q-11 0 -14 4t-3 15v627q0 17 17 17h41q17 0 17 -17v-36l3 -2q11 7 29.5 18t41.5 21t48.5 17.5t50.5 7.5q47 0 78.5 -16.5t50 -48t26.5 -77.5
t8 -106zM387 251q0 57 -5.5 91.5t-17 53.5t-28.5 25t-40 6q-18 0 -41.5 -6t-46.5 -15t-43.5 -19t-33.5 -17v-288q42 -12 77 -17t67 -5t53.5 9.5t34.5 32t18.5 59t5.5 90.5z" />
    <glyph glyph-name="q" unicode="q" horiz-adv-x="511" 
d="M462 -157q0 -19 -17 -19h-42q-11 0 -14.5 4.5t-3.5 14.5v177l-1 1q-45 -17 -80 -23t-62 -6q-58 0 -95.5 15t-59.5 45.5t-30.5 77t-8.5 108.5q0 61 10.5 109t35 81.5t65 51t99.5 17.5q21 0 45 -1.5t48.5 -4.5t47 -7.5t39.5 -10.5q17 -5 20.5 -17t3.5 -23v-590zM385 415
q-30 5 -61.5 8t-63.5 3q-27 0 -51 -7t-42 -27.5t-28.5 -56.5t-10.5 -93q0 -53 6 -88t19.5 -56t34.5 -30t52 -9q28 0 67.5 6t77.5 17v333z" />
    <glyph glyph-name="r" unicode="r" horiz-adv-x="328" 
d="M329 438q3 -18 -13 -20q-20 -4 -44 -10.5t-46.5 -13t-41.5 -13t-28 -11.5v-353q0 -17 -17 -17h-43q-16 0 -16 17v453q0 17 16 17h42q18 0 18 -17v-41l2 -2q10 8 27.5 17.5t38.5 19t43 17t41 11.5q9 2 12 -0.5t5 -11.5l4 -42v0z" />
    <glyph glyph-name="s" unicode="s" horiz-adv-x="436" 
d="M395 140q0 -42 -15.5 -70t-42 -45.5t-60 -25t-69.5 -7.5q-19 0 -40 1t-41.5 4t-39 7.5t-32.5 10.5q-13 6 -11 21l4 21q2 10 7.5 12t14.5 1q15 -2 34.5 -4t39 -3.5t37 -2.5t30.5 -1q56 0 80.5 17.5t24.5 55.5q0 22 -4 36.5t-15 23.5t-30 14t-49 10q-34 5 -65.5 13
t-55.5 23t-38.5 39t-14.5 63q0 70 47 106.5t128 36.5q15 0 34 -1t39.5 -3.5t40.5 -7t36 -10.5q14 -7 10 -21l-4 -24q-2 -8 -8.5 -10t-17.5 -1q-31 3 -65 6.5t-66 3.5q-56 0 -76 -17t-20 -56q0 -19 5 -30t16.5 -18t31.5 -11.5t50 -9.5q33 -5 64 -12.5t54.5 -23.5t37.5 -42
t14 -69z" />
    <glyph glyph-name="t" unicode="t" horiz-adv-x="323" 
d="M326 31q1 -13 -9 -19q-9 -5 -23.5 -8.5t-31 -6t-32 -4t-26.5 -1.5q-32 0 -53 7.5t-33 21.5t-17 33.5t-5 43.5v326h-55q-17 0 -17 17v28q0 18 17 18h56v108q0 9 4.5 13t12.5 6l40 11q17 5 17 -15v-123h111q11 0 14 -4.5t3 -12.5v-29q0 -9 -3 -13t-14 -4h-111v-303
q0 -18 2.5 -29t10.5 -18t21.5 -9.5t36.5 -2.5q8 0 27.5 1.5t30.5 2.5q12 1 16 -1.5t6 -10.5z" />
    <glyph glyph-name="u" unicode="u" horiz-adv-x="512" 
d="M457 17q0 -17 -17 -17h-41q-18 0 -18 17v35l-2 2q-12 -8 -31.5 -19t-42.5 -21t-49 -17t-53 -7q-49 0 -78 14t-44.5 38.5t-20 58.5t-4.5 74v295q0 17 17 17h43q16 0 16 -17v-296q0 -35 4 -57t13.5 -35t25.5 -18t39 -5q18 0 42 7t48 16t45 19t33 16v353q0 17 17 17h41
q17 0 17 -17v-453v0z" />
    <glyph glyph-name="v" unicode="v" horiz-adv-x="463" 
d="M273 13q-5 -13 -17 -13h-46q-8 0 -11 3t-5 9l-175 459q-2 6 -0.5 11t8.5 5h55q8 0 10.5 -3.5t5.5 -10.5l100 -280l16 -48q6 -19 11.5 -35t7.5 -21h2q1 4 6.5 21.5t12.5 36.5q8 22 17 49l98 278q3 8 5.5 10.5t9.5 2.5h55q14 0 7 -15z" />
    <glyph glyph-name="w" unicode="w" horiz-adv-x="688" 
d="M429 249q11 -37 23 -74.5t23 -75.5h1h1l49 162l66 213q4 13 15 13h55q12 0 7 -15l-153 -459q-4 -13 -17 -13h-44q-8 0 -11.5 3t-5.5 9q-13 38 -26 76.5t-26 78.5q-9 29 -19.5 59t-20.5 61h-2l-39 -119l-51 -155q-4 -13 -16 -13h-44q-8 0 -11.5 3t-5.5 9l-158 459
q-2 6 -0.5 11t8.5 5h54q8 0 11.5 -3.5t5.5 -10.5q18 -58 36.5 -115t36.5 -116l44 -141h2l45 138q11 33 23 67.5t23 69.5l-28 95q-2 6 -0.5 11t8.5 5h53q8 0 11 -3.5t5 -10.5l72 -224v0z" />
    <glyph glyph-name="x" unicode="x" horiz-adv-x="433" 
d="M417 16q4 -6 1.5 -11t-9.5 -5h-61q-8 0 -12 3.5t-8 9.5l-114 176l-115 -176q-8 -13 -21 -13h-58q-7 0 -9 5t1 11l159 232l-151 223q-4 6 -1.5 11t9.5 5h60q8 0 10.5 -3.5t7.5 -9.5l109 -165l108 165q4 6 7 9.5t11 3.5h61q7 0 9.5 -5t-1.5 -11l-152 -222l159 -233v0z" />
    <glyph glyph-name="y" unicode="y" horiz-adv-x="466" 
d="M218 -162q-2 -7 -6 -10.5t-14 -3.5h-46q-14 0 -9 16l58 160l-176 471q-2 6 -0.5 11t8.5 5h53q8 0 11 -3.5t5 -10.5l82 -229l54 -153q2 6 11.5 31.5t19.5 54.5q11 33 25 74l76 223q4 13 16 13h54q12 0 7 -15z" />
    <glyph glyph-name="z" unicode="z" horiz-adv-x="433" 
d="M33 43q0 17 9 29l264 347h-242q-17 0 -17 17v36q0 15 17 15h311q8 0 13 -2t5 -12v-36q0 -16 -10 -28l-255 -338h251q18 0 18 -16v-38q0 -17 -17 -17h-332q-15 0 -15 14v29v0z" />
    <glyph glyph-name="braceleft" unicode="{" horiz-adv-x="266" 
d="M234 -92q0 -13 -14 -15q-15 -3 -29.5 -4t-22.5 -1q-24 0 -40 8t-25.5 21t-13.5 29.5t-4 34.5v198q0 17 -1 32.5t-6 28t-14.5 22t-27.5 14.5q-12 3 -12 13v21q0 9 11 12q35 11 42.5 37t7.5 61v189q0 18 4 34.5t13.5 30t25.5 21.5t40 8q8 0 22.5 -1.5t29.5 -3.5
q7 -2 10.5 -5t3.5 -11v-23q0 -9 -4 -11.5t-11 -3.5l-29 -2q-21 -2 -27 -10.5t-6 -28.5v-184q0 -16 -2 -34t-8 -34.5t-17 -30.5t-29 -21l1 -2q19 -10 29.5 -22.5t16 -27t7 -31.5t1.5 -36v-193q0 -20 6.5 -28.5t27.5 -10.5l29 -2q7 -1 11 -3.5t4 -10.5v-24v0z" />
    <glyph glyph-name="bar" unicode="|" horiz-adv-x="237" 
d="M148 -99q0 -17 -16 -17h-27q-9 0 -13.5 3t-4.5 14v778q0 11 4.5 14t13.5 3h27q16 0 16 -17v-778v0z" />
    <glyph glyph-name="braceright" unicode="}" horiz-adv-x="266" 
d="M24 -68q0 8 4 10.5t11 3.5l29 2q21 2 27.5 10.5t6.5 28.5v193q0 19 1.5 36t7 31.5t16 27t29.5 22.5l1 2q-18 7 -29 21t-17 30.5t-8 34.5t-2 34v184q0 20 -6 28.5t-27 10.5l-29 2q-7 1 -11 3.5t-4 11.5v23q0 8 3.5 11t10.5 5q15 2 29.5 3.5t22.5 1.5q24 0 40 -8
t25.5 -21.5t13.5 -30t4 -34.5v-189q0 -35 7.5 -61t42.5 -37q11 -3 11 -12v-21q0 -10 -12 -13q-18 -5 -27.5 -14.5t-14.5 -22t-6 -28t-1 -32.5v-198q0 -18 -4 -34.5t-13.5 -29.5t-25.5 -21t-40 -8q-8 0 -22.5 1t-29.5 4q-14 2 -14 15v24z" />
    <glyph glyph-name="asciitilde" unicode="~" horiz-adv-x="556" 
d="M373 233q-21 0 -45 9t-48 19.5t-46.5 19.5t-41.5 9t-32.5 -7t-35.5 -34q-3 -2 -6 -5t-12 2l-20 13q-9 5 -7.5 10t2.5 7q21 46 54 62t61 16q24 0 49 -8.5t49 -19t46 -19t40 -8.5q23 0 36.5 9t26.5 27q3 4 8 8t13 -1l20 -12q9 -5 8 -9.5t-2 -7.5q-41 -80 -117 -80z" />
    <glyph glyph-name="dieresistonos" unicode="&#x385;" horiz-adv-x="331" 
d="M334 610q0 -18 -7.5 -31t-33.5 -13q-28 0 -35 13.5t-7 30.5t8 29t34 12t33.5 -11.5t7.5 -29.5zM158 546q-4 -7 -14 -3l-29 10q-9 3 -3 14l69 143q5 9 17 3l47 -20q6 -3 5.5 -7.5t-2.5 -7.5zM95 610q0 -18 -7.5 -31t-33.5 -13q-28 0 -35 13.5t-7 30.5t8 29t34 12
t33.5 -11.5t7.5 -29.5z" />
    <glyph glyph-name="tonos" unicode="&#x384;" horiz-adv-x="497" 
d="M264 546q-5 -7 -15 -3l-29 10q-8 3 -3 14l70 143q4 9 17 3l46 -20q7 -3 6 -7.5t-3 -7.5z" />
    <glyph glyph-name="dieresis" unicode="&#xa8;" horiz-adv-x="498" 
d="M405 610q0 -18 -8 -31t-34 -13q-27 0 -34 13.5t-7 30.5t8 29t33 12q26 0 34 -11.5t8 -29.5zM221 610q0 -18 -7.5 -31t-33.5 -13q-28 0 -35 13.5t-7 30.5t8 29t34 12t33.5 -11.5t7.5 -29.5z" />
    <glyph glyph-name="sterling" unicode="&#xa3;" horiz-adv-x="556" 
d="M317 669q15 0 34 -1t40.5 -4t43.5 -8t42 -13q17 -8 12 -23l-6 -27q-1 -5 -5 -9t-13 -2q-34 4 -67.5 9t-77.5 5q-52 0 -81 -27t-28 -78l3 -133h181q17 0 17 -15v-33q0 -17 -17 -17h-181v-65q0 -21 -1.5 -44.5t-5 -45t-10.5 -39t-17 -27.5h39t75 -0.5t89.5 -0.5h83.5
q17 0 17 -17v-40q0 -9 -4 -11.5t-14 -2.5h-386q-16 0 -16 14v30q0 7 3.5 13.5t12.5 11.5q19 9 30.5 24.5t17 34.5t7 40t1.5 41q0 5 0.5 26.5t0.5 57.5h-46q-17 0 -17 17v33q0 15 16 15h47l-2 137q-1 40 12 72t37 54.5t58 35t75 12.5z" />
    <glyph glyph-name="trademark" unicode="&#x2122;" horiz-adv-x="665" 
d="M604 663q12 0 12 -11v-284q0 -14 -11 -14h-31q-3 0 -7.5 2.5t-4.5 11.5l1 195l-2 1l-39 -77l-41 -76q-6 -11 -16 -11h-17q-6 0 -9.5 2.5t-6.5 7.5l-39 75l-40 78h-1l1 -195q0 -15 -14 -15h-26q-8 0 -11.5 3t-3.5 12v284q0 11 13 11h30q8 0 11.5 -3.5t6.5 -8.5l99 -184h1
l4 8t11 21t16 29.5t18 33.5q22 40 49 92q3 5 6.5 8.5t11.5 3.5h29zM277 625q0 -15 -15 -15h-81v-242q0 -14 -14 -14h-26q-15 0 -15 14v242h-82q-14 0 -14 15v24q0 13 14 13h219q14 0 14 -13v-24z" />
    <glyph glyph-name="bullet" unicode="&#x2022;" horiz-adv-x="283" 
d="M233 253q0 -38 -26.5 -64t-63.5 -26t-63.5 26t-26.5 64q0 18 7 34.5t19.5 29t29 20t34.5 7.5t34.5 -7.5t29 -20t19.5 -29t7 -34.5z" />
    <glyph glyph-name="sfthyphen" unicode="&#xad;" horiz-adv-x="370" 
d="M335 307q0 -12 -14 -12h-272q-14 0 -14 12v31q0 8 3.5 10.5t10.5 2.5h272q7 0 10.5 -2.5t3.5 -10.5v-31v0z" />
    <glyph glyph-name="dagger" unicode="&#x2020;" horiz-adv-x="483" 
d="M460 440q0 -17 -18 -17h-164v-454q0 -17 -17 -17h-37q-9 0 -13.5 3t-4.5 14v454h-164q-18 0 -18 17v34q0 16 17 16h165v184q0 17 18 17h37q17 0 17 -17v-184h165q17 0 17 -16v-34v0z" />
    <glyph glyph-name="Gamma" unicode="&#x393;" horiz-adv-x="454" 
d="M451 608q0 -17 -18 -17h-279v-574q0 -17 -16 -17h-44q-18 0 -18 17v630q0 16 18 16h340q17 0 17 -16v-39v0z" />
    <glyph glyph-name="Delta" unicode="&#x394;" horiz-adv-x="548" 
d="M528 14q3 -14 -8 -14h-493q-14 0 -8 16l206 631q3 8 7 11.5t15 3.5h48q14 0 17.5 -4t6.5 -12zM426 71q-1 3 -8 26.5t-18.5 59t-25 80t-28 90t-27.5 88.5t-23 76q-6 18 -9.5 30.5t-6 21.5t-4 16.5t-3.5 15.5h-3q-2 -7 -4.5 -17.5t-6 -23l-7 -25t-6.5 -22.5
q-4 -10 -14 -42.5t-23.5 -76t-29 -92t-29 -91.5t-23.5 -74.5t-13 -39.5h312z" />
    <glyph glyph-name="Delta" unicode="&#x2206;" horiz-adv-x="548" 
d="M528 14q3 -14 -8 -14h-493q-14 0 -8 16l206 631q3 8 7 11.5t15 3.5h48q14 0 17.5 -4t6.5 -12zM426 71q-1 3 -8 26.5t-18.5 59t-25 80t-28 90t-27.5 88.5t-23 76q-6 18 -9.5 30.5t-6 21.5t-4 16.5t-3.5 15.5h-3q-2 -7 -4.5 -17.5t-6 -23l-7 -25t-6.5 -22.5
q-4 -10 -14 -42.5t-23.5 -76t-29 -92t-29 -91.5t-23.5 -74.5t-13 -39.5h312z" />
    <glyph glyph-name="Theta" unicode="&#x398;" horiz-adv-x="648" 
d="M586 341q0 -40 -3 -81t-12.5 -80t-27.5 -73.5t-47.5 -60t-72.5 -40.5t-103 -15q-89 0 -140 32.5t-77.5 83.5t-33.5 113t-7 121q0 31 3 67.5t12.5 73t27 71t46 60.5t70 42t99.5 16q87 0 139 -29t80.5 -75.5t37.5 -105.5t9 -120zM507 331q0 65 -9 116t-30.5 85.5
t-57.5 52.5t-90 18q-51 0 -85 -19t-55 -54.5t-30 -85.5t-9 -113q0 -61 8.5 -110.5t29.5 -85t55.5 -55t85.5 -19.5q52 0 87.5 18.5t57.5 53t32 85t10 113.5zM466 324q0 -8 -3 -11.5t-13 -3.5h-250q-10 0 -13 3.5t-3 11.5v43q0 13 16 13h250q16 0 16 -13v-43z" />
    <glyph glyph-name="Lambda" unicode="&#x39b;" horiz-adv-x="548" 
d="M528 14q3 -14 -8 -14h-58q-14 0 -17 13q-33 104 -62 198q-12 40 -25.5 82t-25.5 81.5t-22.5 74t-17.5 59.5q-6 18 -9 28t-4.5 16t-2.5 10.5t-3 12.5h-3q-2 -6 -4.5 -17t-6 -23t-6.5 -24.5t-6 -21.5q-3 -13 -15.5 -51.5t-28.5 -89.5t-34.5 -107t-34 -104t-26.5 -81.5
t-12 -39.5q-3 -10 -8 -13t-13 -3h-48q-14 0 -8 16l206 631q3 8 7 11.5t15 3.5h48q14 0 17.5 -4t6.5 -12l209 -632v0z" />
    <glyph glyph-name="Xi" unicode="&#x39e;" horiz-adv-x="509" 
d="M479 16q0 -10 -4 -13t-14 -3h-417q-10 0 -14 3t-4 13v38q0 17 17 17h172v238h-137q-17 0 -17 16v39q0 16 17 16h137v211h-166q-18 0 -18 17v39q0 16 17 16h409q17 0 17 -16v-39q0 -17 -18 -17h-164v-211h135q17 0 17 -16v-39q0 -16 -17 -16h-135v-238h170q17 0 17 -17
v-38v0z" />
    <glyph glyph-name="Pi" unicode="&#x3a0;" horiz-adv-x="596" 
d="M524 17q0 -17 -16 -17h-43q-18 0 -18 17v574h-297v-574q0 -17 -16 -17h-43q-18 0 -18 17v628q0 11 4.5 14.5t13.5 3.5h417q8 0 12 -3.5t4 -14.5v-628v0z" />
    <glyph glyph-name="germandbls" unicode="&#xdf;" horiz-adv-x="504" 
d="M456 207q0 -99 -46 -156.5t-139 -57.5q-14 0 -33 1.5t-33 6.5q-15 4 -12 17l5 29q1 7 5 10.5t19 1.5q8 -1 16.5 -1h16.5q67 0 94 40t27 112q0 44 -6.5 73t-22 46.5t-41 26t-62.5 10.5q-12 0 -12 12v30q0 15 16 19q19 4 36 15.5t29 27.5t19 35t7 39q0 48 -28 72.5
t-75 24.5t-77 -30.5t-30 -90.5v-507q0 -18 -18 -18h-42q-16 0 -16 17v500q0 54 17 91.5t44 61.5t59.5 34.5t61.5 10.5q40 0 73.5 -10.5t58 -31.5t38 -52.5t13.5 -73.5q0 -13 -4 -30t-12 -35t-20.5 -34t-30.5 -28q36 -10 57 -30t31.5 -47.5t13.5 -61t3 -69.5z" />
    <glyph glyph-name="registered" unicode="&#xae;" horiz-adv-x="519" 
d="M480 506q0 -46 -17.5 -86t-47.5 -70t-70 -47t-86 -17t-86 17t-70 47t-47.5 70t-17.5 86t17.5 86t47.5 69.5t70 46.5t86 17q47 0 87.5 -17t70 -46.5t46.5 -69.5t17 -86zM442 506q0 38 -14.5 71.5t-39 58t-58 39t-71.5 14.5t-71.5 -14.5t-58.5 -39t-39.5 -58t-14.5 -71.5
t14.5 -71.5t39.5 -58.5t58.5 -39.5t71.5 -14.5t71.5 14.5t58 39.5t39 58.5t14.5 71.5zM358 378q4 -9 -5 -9h-28q-7 0 -11 6l-50 102h-45v-98q0 -10 -9 -10h-20q-8 0 -8 9v251q0 8 10 8h81q31 0 55.5 -18t24.5 -60q0 -23 -11 -44.5t-39 -32.5zM315 559q0 26 -15 35t-35 9h-46
v-92h46q9 0 17.5 1.5t16 6.5t12 14.5t4.5 25.5z" />
    <glyph glyph-name="copyright" unicode="&#xa9;" horiz-adv-x="794" 
d="M749 335q0 -73 -28 -137t-76 -111t-112.5 -74.5t-137.5 -27.5t-137.5 27.5t-112.5 74.5t-75.5 111t-27.5 137t27.5 137t75.5 111t112.5 74.5t137.5 27.5q75 0 140 -27.5t112.5 -74.5t74.5 -111t27 -137zM698 335q0 63 -24 118t-65 96t-96 65t-118 24t-118 -24t-96 -65
t-64.5 -96t-23.5 -118t23.5 -118t64.5 -96t96 -65t118 -24t118 24t96 65t65 96t24 118zM400 534q9 0 22.5 -0.5t29 -2.5t31 -5t27.5 -8q10 -5 8 -13l-4 -18q-1 -2 -3.5 -5t-8.5 -1q-20 3 -47.5 5.5t-54.5 2.5q-36 0 -57 -13.5t-32 -36.5t-14 -53t-3 -64q0 -31 4 -60t15 -51
t32 -35t55 -13q28 0 53.5 2.5t48.5 5.5q6 2 8.5 -1t3.5 -6l3 -16q1 -5 0 -8t-7 -5q-11 -5 -26 -8t-31 -5t-30 -3t-23 -1q-48 0 -78.5 17t-48 45.5t-23.5 65t-6 76.5t5.5 78.5t22.5 68t47.5 47.5t80.5 18z" />
    <glyph glyph-name="Sigma" unicode="&#x3a3;" horiz-adv-x="452" 
d="M440 17q0 -17 -16 -17h-382q-16 0 -16 16v35q0 8 1.5 14.5t6.5 15.5l157 262l-160 240q-8 12 -8 26v40q0 14 16 14h374q16 0 16 -16v-39q0 -17 -17 -17h-300l153 -228q8 -11 8.5 -20t-7.5 -22l-148 -250h305q17 0 17 -16v-38v0z" />
    <glyph glyph-name="section" unicode="&#xa7;" horiz-adv-x="426" 
d="M229 668q18 0 38 -2t40 -5.5t38 -9.5t32 -15q10 -6 6 -19l-8 -22q-3 -8 -7.5 -9.5t-15.5 1.5q-14 3 -30.5 6t-33 4.5t-30.5 2.5t-22 1q-24 0 -45 -5t-37.5 -14.5t-26 -24.5t-9.5 -34q0 -15 7 -28t17.5 -24t23 -19.5t23.5 -14.5q29 -16 60 -29t60 -29q35 -19 58.5 -47.5
t23.5 -71.5q0 -37 -13 -70t-44 -66q55 -48 55 -105q0 -52 -21 -84.5t-51 -51t-64.5 -25t-61.5 -6.5q-18 0 -38.5 2t-40.5 6.5t-38.5 11t-31.5 14.5q-10 6 -6 20l8 21q4 13 23 8q36 -10 69.5 -13.5t58.5 -3.5q19 0 40 4t38.5 14.5t29 30t11.5 49.5q0 23 -16.5 43t-34.5 31
q-31 17 -66 31t-68 32q-15 8 -30 19t-28 26t-21 34t-8 43q0 31 13.5 68.5t42.5 66.5q-32 23 -43 50t-11 58q0 39 16 67t42.5 46.5t59.5 27.5t67 9zM319 243q0 35 -20.5 55t-47.5 34q-24 12 -49.5 22t-51.5 24q-18 -18 -28.5 -40t-10.5 -45q0 -32 20 -52.5t49 -35.5
q24 -13 51 -23t52 -21q17 21 26.5 39.5t9.5 42.5z" />
    <glyph glyph-name="degree" unicode="&#xb0;" horiz-adv-x="350" 
d="M183 670q27 0 51 -11t41.5 -29t27.5 -42t10 -50q0 -27 -10 -51t-27.5 -41.5t-41.5 -27.5t-51 -10q-63 0 -98 37.5t-35 92.5q0 27 10.5 51t28.5 42t42.5 28.5t51.5 10.5zM257 536q0 16 -6 30.5t-16.5 25t-24.5 17t-30 6.5t-29.5 -6.5t-24 -17t-16.5 -25t-6 -30.5
q0 -32 22 -54t54 -22t54.5 22t22.5 54z" />
    <glyph glyph-name="periodcentered" unicode="&#xb7;" horiz-adv-x="195" 
d="M143 253q0 -20 -8.5 -34t-37.5 -14q-30 0 -37.5 14.5t-7.5 33.5q0 20 8.5 33t36.5 13q29 0 37.5 -12.5t8.5 -33.5z" />
    <glyph glyph-name="yen" unicode="&#xa5;" horiz-adv-x="556" 
d="M479 222q11 0 11 -12v-32q0 -9 -9 -9h-165v-152q0 -17 -17 -17h-43q-17 0 -17 17v152h-163q-10 0 -10 10v34q0 3 2.5 6t8.5 3h402zM76 266q-5 0 -7.5 1.5t-2.5 7.5v34q0 9 11 9h150l-186 331q-3 5 -1 9t8 4h60q9 0 12 -3t7 -9l148 -282h6l152 282q4 7 7.5 9.5t12.5 2.5
h53q16 0 8 -15l-186 -329h152q10 0 10 -11v-32q0 -9 -9 -9h-405z" />
    <glyph glyph-name="Phi" unicode="&#x3a6;" horiz-adv-x="737" 
d="M677 336q0 -54 -12.5 -105t-43.5 -92t-83 -68.5t-130 -33.5v-20q0 -17 -17 -17h-43q-17 0 -17 17v20q-85 4 -138 33.5t-82.5 72.5t-40 94t-10.5 99q0 40 11 88.5t41 91.5t82.5 74.5t135.5 37.5v17q0 11 5 14.5t13 3.5h43q9 0 13 -3.5t5 -14.5v-17q87 -6 139.5 -36t81 -73
t38 -91.5t9.5 -91.5zM599 332q0 39 -8 78.5t-29.5 72t-58.5 54t-95 24.5v-457q53 3 89.5 21t59 48t32.5 70.5t10 88.5zM331 562q-54 -4 -91.5 -24t-60 -51t-32.5 -70.5t-10 -83.5q0 -48 10 -88t32.5 -69.5t59.5 -48t92 -23.5v458z" />
    <glyph glyph-name="Psi" unicode="&#x3a8;" horiz-adv-x="692" 
d="M622 404q0 -50 -16.5 -95t-47.5 -79t-76 -55.5t-102 -25.5v-132q0 -17 -16 -17h-43q-18 0 -18 17v132q-62 5 -107 27t-74.5 56t-44 78t-14.5 94v241q0 11 4.5 14.5t12.5 3.5h43q9 0 13 -3.5t4 -14.5v-241q0 -42 12 -74.5t34 -56t52 -36.5t65 -15v423q0 11 4.5 14.5
t13.5 3.5h44q8 0 12 -3.5t4 -14.5v-423q35 3 65.5 16t52.5 36t34.5 55.5t12.5 74.5v241q0 11 4.5 14.5t13.5 3.5h42q8 0 12 -3.5t4 -14.5v-241v0z" />
    <glyph glyph-name="Omega" unicode="&#x3a9;" horiz-adv-x="652" 
d="M606 17q0 -17 -17 -17h-199q-16 0 -16 16v47q0 12 14 17q71 24 99 92t28 167q0 50 -8 97.5t-29 84.5t-57.5 59.5t-93.5 22.5q-53 0 -89.5 -19.5t-58.5 -54.5t-31.5 -83t-9.5 -105q0 -106 28.5 -172.5t91.5 -88.5q9 -3 12 -6.5t3 -10.5v-47q0 -16 -17 -16h-200
q-16 0 -16 17v38q0 16 17 16h86q-26 19 -42 49t-26 67t-13.5 77.5t-3.5 79.5q0 56 11.5 114t41.5 105.5t82 77.5t133 30t133 -28.5t82 -74.5t41 -105t11 -119q0 -40 -4 -79.5t-14 -75.5t-27 -66.5t-42 -51.5h82q18 0 18 -16v-38v0z" />
    <glyph glyph-name="guillemotleft" unicode="&#xab;" horiz-adv-x="421" 
d="M143 324q5 5 10.5 9t13.5 4h60q5 0 6 -3.5t-2 -7.5l-116 -141l110 -139q3 -4 2.5 -9t-7.5 -5h-54q-10 0 -14.5 5t-9.5 10l-98 124q-8 11 -7 17.5t6 11.5zM300 324q4 5 9.5 9t13.5 4h60q5 0 6 -3.5t-2 -7.5l-116 -141l111 -139q2 -4 1.5 -8.5t-8.5 -4.5h-52q-10 0 -15 4.5
t-10 9.5l-98 124q-8 10 -6.5 17t5.5 12z" />
    <glyph glyph-name="guillemotright" unicode="&#xbb;" horiz-adv-x="421" 
d="M281 45q-5 -5 -10.5 -9t-13.5 -4h-60q-5 0 -6 3.5t2 7.5l116 141l-110 139q-3 4 -2.5 9t7.5 5h54q9 0 14 -5l10 -10l98 -124q8 -10 7 -16.5t-6 -11.5zM124 45q-4 -5 -9.5 -9t-13.5 -4h-60q-5 0 -6 3.5t2 7.5l116 141l-111 139q-2 4 -1.5 9t8.5 5h52q10 0 15 -5l10 -10
l98 -124q8 -9 6.5 -16t-5.5 -12z" />
    <glyph glyph-name="ellipsis" unicode="&#x2026;" horiz-adv-x="653" 
d="M608 39q0 -20 -8.5 -34t-37.5 -14q-31 0 -38.5 14t-7.5 34t9 33t37 13q29 0 37.5 -13t8.5 -33zM371 39q0 -20 -8 -34t-37 -14q-31 0 -38.5 14t-7.5 34t8.5 33t37.5 13t37 -13t8 -33zM135 39q0 -20 -8 -34t-37 -14q-31 0 -38.5 14t-7.5 34t8.5 33t37.5 13t37 -13t8 -33z
" />
    <glyph glyph-name="oe" unicode="&#x153;" horiz-adv-x="831" 
d="M379 245q0 46 -5 80.5t-19.5 57t-40 34t-66.5 11.5q-39 0 -63 -11.5t-38 -34.5t-19 -57t-5 -80t5 -80t19 -57t38 -34.5t63 -11.5q41 0 66.5 11t40 33.5t19.5 57t5 81.5zM792 267q2 -24 -6.5 -40t-36.5 -16h-287q1 -46 6.5 -76.5t20 -49t38.5 -26t61 -7.5q15 0 35.5 1.5
l41 3t39.5 3.5t33 4q10 1 15.5 -1t7.5 -12l4 -21q3 -15 -12 -21q-14 -6 -35 -11t-44 -8t-46.5 -5t-41.5 -2q-69 0 -109.5 20.5t-61.5 55.5q-23 -30 -62 -48.5t-104 -18.5q-72 0 -112.5 24t-60.5 61.5t-24.5 84t-4.5 90.5q0 36 6 79t26.5 80t60.5 61.5t109 24.5
q70 0 111.5 -22t63.5 -57q22 31 60.5 50.5t101.5 19.5q64 0 104 -19t62.5 -50t30.5 -71t10 -81zM708 273q-1 26 -5.5 52.5t-17 47.5t-37 34t-64.5 13q-37 0 -60 -10.5t-36 -29.5t-18.5 -46t-7.5 -61h246z" />
    <glyph glyph-name="endash" unicode="&#x2013;" horiz-adv-x="502" 
d="M472 239q0 -14 -14 -14h-414q-14 0 -14 14v28q0 15 15 15h412q15 0 15 -15v-28v0z" />
    <glyph glyph-name="afii00208" unicode="&#x2015;" horiz-adv-x="1016" 
d="M983 239q0 -14 -14 -14h-926q-14 0 -14 14v28q0 15 15 15h924q15 0 15 -15v-28v0z" />
    <glyph glyph-name="quotedblleft" unicode="&#x201c;" horiz-adv-x="312" 
d="M278 665q4 -6 -4 -13q-18 -16 -25.5 -34.5t-7.5 -37.5q0 -17 7 -35.5t18 -32.5q3 -4 3.5 -9t-7.5 -11l-40 -31q-7 -5 -13 -4t-11 6q-16 14 -23 30t-7 31q0 52 25 92t56 60q2 2 7 3.5t8 -0.5zM152 665q4 -6 -4 -13q-18 -16 -25.5 -34.5t-7.5 -37.5q0 -17 7 -35.5t18 -32.5
q3 -4 3.5 -9t-7.5 -11l-40 -31q-7 -5 -13 -4t-11 6q-16 14 -23 30t-7 31q0 52 25 92t56 60q2 2 7 3.5t8 -0.5z" />
    <glyph glyph-name="quotedblright" unicode="&#x201d;" horiz-adv-x="312" 
d="M278 617q0 -53 -25 -93t-55 -60q-3 -2 -8 -3.5t-8 0.5l-14 14q-4 6 4 13q18 16 25.5 34.5t7.5 37.5q0 17 -7 35.5t-18 32.5q-3 4 -3 9.5t7 10.5l40 31q7 5 13.5 4t11.5 -5q15 -14 22 -30.5t7 -30.5zM152 617q0 -53 -25 -93t-55 -60q-3 -2 -8 -3.5t-8 0.5l-14 14
q-4 6 4 13q18 16 25.5 34.5t7.5 37.5q0 17 -7 35.5t-18 32.5q-3 4 -3 9.5t7 10.5l40 31q7 5 13.5 4t11.5 -5q15 -14 22 -30.5t7 -30.5z" />
    <glyph glyph-name="quoteleft" unicode="&#x2018;" horiz-adv-x="210" 
d="M163 665q6 -6 -3 -13q-18 -16 -25.5 -34.5t-7.5 -37.5q0 -17 7 -35.5t18 -32.5q3 -4 3 -9t-8 -11l-39 -31q-13 -9 -25 2q-15 14 -22 30t-7 31q0 52 25 92t55 60q3 2 8 3.5t7 -0.5l14 -14v0z" />
    <glyph glyph-name="quoteright" unicode="&#x2019;" horiz-adv-x="210" 
d="M160 617q0 -53 -25 -93t-55 -60q-3 -2 -8 -3.5t-7 0.5l-14 14q-6 6 3 13q18 16 25.5 34.5t7.5 37.5q0 17 -7 35.5t-18 32.5q-3 4 -3 9.5t8 10.5l39 31q7 5 13.5 4t11.5 -5q15 -14 22 -30.5t7 -30.5z" />
    <glyph glyph-name="divide" unicode="&#xf7;" horiz-adv-x="556" 
d="M322 472q0 -20 -8.5 -34t-37.5 -14q-30 0 -37.5 14t-7.5 34t8.5 32.5t36.5 12.5q29 0 37.5 -12.5t8.5 -32.5zM322 175q0 -20 -8.5 -34t-37.5 -14q-30 0 -37.5 14.5t-7.5 33.5q0 20 8.5 33t36.5 13q29 0 37.5 -12.5t8.5 -33.5zM473 308q0 -12 -14 -12h-362q-6 0 -10 2
t-4 10v36q0 13 14 13h362q14 0 14 -13v-36z" />
    <glyph glyph-name="alpha" unicode="&#x3b1;" horiz-adv-x="517" 
d="M451 98q0 -15 1.5 -23t5.5 -12t11 -5.5t19 -2.5q17 -1 17 -13v-25q0 -7 -4 -11.5t-16 -6.5q-18 -3 -35 -3q-35 0 -52.5 13t-22.5 45h-2q-37 -22 -79 -42.5t-91 -20.5q-47 0 -78.5 16.5t-50.5 48t-26.5 77.5t-7.5 105q0 125 49.5 191.5t149.5 66.5q24 0 61 -8t75 -29l1 1
v10q0 9 3.5 13t14.5 4h40q11 0 14 -3.5t3 -14.5v-371zM375 396q-39 16 -75.5 24t-53.5 8q-31 0 -55 -10t-40 -32.5t-24 -59t-8 -90.5q0 -57 5 -91.5t16.5 -53.5t28.5 -25t41 -6q18 0 41.5 6t46.5 15t43.5 18.5t33.5 16.5v280z" />
    <glyph glyph-name="beta" unicode="&#x3b2;" horiz-adv-x="501" 
d="M459 234q0 -60 -10 -105.5t-33.5 -76t-63 -46t-98.5 -15.5q-27 0 -58 5.5t-69 20.5l-3 -1v-137q0 -11 -4 -14t-13 -3h-42q-16 0 -16 17v620q0 52 15 91.5t40.5 65.5t60.5 39.5t75 13.5q87 0 134 -44t47 -130q0 -14 -4.5 -32t-13.5 -35.5t-22 -32.5t-29 -23
q32 -7 53 -23.5t33 -39.5t16.5 -52.5t4.5 -62.5zM378 228q0 39 -8 64t-23 39.5t-38 19t-53 2.5q-10 0 -19 -0.5t-35 -2.5q-16 -2 -16 11v37q0 7 3 11t12 6q29 4 54.5 12.5t44.5 23t30 37.5t11 58q0 51 -28.5 73t-76.5 22q-57 0 -84 -38.5t-27 -102.5v-418q39 -12 71.5 -17
t64.5 -5q63 0 90 37.5t27 130.5z" />
    <glyph glyph-name="psi" unicode="&#x3c8;" horiz-adv-x="587" 
d="M329 -158q0 -17 -16 -17h-41q-9 0 -13 3t-4 14v147q-107 7 -153 54t-46 130v297q0 11 4.5 14t13.5 3h42q16 0 16 -17v-295q0 -24 5.5 -45t19.5 -36.5t37.5 -25.5t60.5 -12v454q0 17 17 17h41q16 0 16 -17v-454q71 4 98 37t27 82v295q0 11 4.5 14t13.5 3h41q16 0 16 -17
v-297q0 -84 -48.5 -130.5t-151.5 -54.5v-146v0z" />
    <glyph glyph-name="delta" unicode="&#x3b4;" horiz-adv-x="508" 
d="M460 246q0 -43 -5.5 -88t-27 -82t-63.5 -60.5t-115 -23.5q-71 0 -111 23.5t-60.5 60.5t-25.5 82t-5 88q0 27 5 56.5t18 57.5t35 52.5t55 41.5q-36 14 -55 44.5t-19 68.5q0 70 46.5 106.5t128.5 36.5q15 0 33 -1t37.5 -3.5t38 -6.5t34.5 -11q8 -3 10 -9t0 -12l-4 -24
q-2 -8 -8.5 -10t-17.5 -1q-31 4 -61.5 7t-62.5 3q-56 0 -76.5 -17t-20.5 -56q0 -23 17.5 -37.5t43.5 -26t56.5 -22t57.5 -25.5q30 -16 53 -34t38.5 -42.5t23 -57t7.5 -78.5zM383 239q0 28 -3.5 50.5t-9.5 40.5q-11 37 -48 59t-88 36q-26 -13 -46.5 -28.5t-34.5 -37.5
t-21 -51t-7 -69q0 -44 5.5 -77t20 -55.5t38.5 -34t62 -11.5q40 0 65.5 11t40.5 33t20.5 55.5t5.5 78.5z" />
    <glyph glyph-name="epsilon" unicode="&#x3b5;" horiz-adv-x="431" 
d="M409 39q3 -14 -10 -21q-14 -8 -35 -13t-43.5 -8t-42.5 -4t-31 -1q-35 0 -70.5 7.5t-64.5 25t-47.5 46.5t-18.5 73q0 38 21.5 72t62.5 48v2q-35 10 -55 33t-20 58q0 41 17.5 68.5t45 43.5t61 22.5t65.5 6.5q15 0 34.5 -1t40 -3.5t39.5 -7t32 -10.5q6 -3 9 -6.5t2 -11.5
l-4 -24q-2 -9 -7 -12t-17 -1q-32 2 -63.5 5t-59.5 3q-19 0 -39 -2t-36.5 -9.5t-27 -21.5t-10.5 -38q0 -23 11.5 -36t28 -19.5t36 -8t36.5 -1.5h43q10 0 13 -4t3 -12v-32q0 -16 -16 -16h-42q-20 0 -41.5 -2t-39.5 -10t-29.5 -24.5t-11.5 -45.5q0 -28 9 -45t25.5 -26t39.5 -12
t50 -3t62.5 3t68.5 7q8 2 14 0t8 -12l4 -20v0z" />
    <glyph glyph-name="phi" unicode="&#x3c6;" horiz-adv-x="640" 
d="M593 243q0 -112 -59 -179.5t-177 -72.5v-150q0 -17 -17 -17h-40q-18 0 -18 17v149q-72 3 -118 27t-72 60.5t-35.5 81.5t-9.5 90q0 35 7 70t23.5 66.5t42 57.5t63.5 42q9 4 13.5 1t7.5 -8l16 -26q4 -6 1 -11t-7 -7q-26 -15 -43 -36.5t-27 -47t-14.5 -53.5t-4.5 -56
q0 -87 38.5 -134.5t119.5 -49.5v415q0 23 22 23h51q74 0 120 -22t72 -58t35.5 -81t9.5 -91zM516 237q0 37 -7 71.5t-24.5 60.5t-48.5 41.5t-79 15.5v-368q159 9 159 179z" />
    <glyph glyph-name="gamma" unicode="&#x3b3;" horiz-adv-x="453" 
d="M370 474q5 13 16 13h54q12 0 7 -15l-178 -462v-169q0 -17 -17 -17h-42q-17 0 -17 17v169l-140 394q-4 8 -8 18.5t-21 10.5h-11.5t-5.5 7l-6 32q-2 9 10 13q31 11 48 11q28 0 41 -19.5t24 -53.5l82 -246l27 -78h3q3 9 10.5 30t15.5 43q9 26 20 56z" />
    <glyph glyph-name="eta" unicode="&#x3b7;" horiz-adv-x="505" 
d="M452 17q0 -17 -18 -17h-42q-17 0 -17 17v296q0 34 -4 56.5t-13 35.5t-24.5 18t-38.5 5q-18 0 -42 -7t-48 -16t-45 -18.5t-32 -15.5v-354q0 -17 -18 -17h-41q-16 0 -16 17v453q0 17 16 17h41q9 0 13.5 -3t4.5 -14v-36q0 -1 1 -1h2q12 8 31 19t42.5 21t49.5 17t53 7
q49 0 77.5 -14t43.5 -38.5t19.5 -58.5t4.5 -74v-295v0z" />
    <glyph glyph-name="iota" unicode="&#x3b9;" horiz-adv-x="223" 
d="M149 17q0 -17 -16 -17h-41q-18 0 -18 17v453q0 11 4.5 14t13.5 3h41q16 0 16 -17v-453v0z" />
    <glyph glyph-name="xi" unicode="&#x3be;" horiz-adv-x="406" 
d="M140 389q-50 17 -74.5 53t-24.5 80q0 46 14.5 81t41.5 58.5t64 35.5t82 12q15 0 36 -1t43.5 -3.5t43 -7t34.5 -11.5q5 -2 8.5 -5.5t1.5 -11.5l-4 -25q-2 -8 -6.5 -11t-16.5 -2q-31 2 -70 5t-67 3q-60 0 -92 -31t-31 -86q0 -30 14 -49t35.5 -30.5t46.5 -15.5t47 -4h81
q9 0 12.5 -3t3.5 -12v-33q0 -16 -16 -16h-77q-75 0 -117 -39.5t-42 -127.5q0 -46 17 -72.5t46 -40t67.5 -17t81.5 -3.5h36q15 0 20.5 -2.5t10.5 -13.5l10 -22q5 -11 3.5 -18.5t-9.5 -21.5q-6 -11 -14 -28t-16.5 -36t-15.5 -38t-11 -32q-5 -14 -10.5 -17t-16.5 1l-30 9
q-8 3 -11.5 8t0.5 19q3 12 9 29.5t13.5 35.5t15 33.5t13.5 23.5q-62 0 -115 7.5t-91.5 29t-60.5 61t-22 104.5q0 29 5 59t18 56.5t33.5 47.5t52.5 32v3v0z" />
    <glyph glyph-name="lambda" unicode="&#x3bb;" horiz-adv-x="453" 
d="M451 14q1 -8 -10 -13q-5 -2 -17 -3.5t-19 -1.5q-36 0 -51 13.5t-25 48.5l-82 266l-21 65l-38 -99l-104 -276q-4 -14 -15 -14h-53q-13 0 -8 16l186 467l-32 109q-9 31 -19.5 44.5t-34.5 13.5l-19 -1q-14 -1 -16 8l-4 32q-1 5 1 7.5t10 5.5q9 3 21.5 5t23.5 2q23 0 39 -4
t27.5 -14t19.5 -26.5t16 -41.5l171 -543q4 -13 9 -22t20 -9h10q10 0 11 -6l3 -29v0z" />
    <glyph glyph-name="mu" unicode="&#xb5;" horiz-adv-x="512" 
d="M457 17q0 -17 -17 -17h-41q-18 0 -18 17v37q-12 -8 -31.5 -19t-43 -21t-50 -17t-53.5 -7q-23 0 -39.5 4.5t-30.5 15.5l-1 -2v-165q0 -10 -3.5 -14.5t-14.5 -4.5h-41q-11 0 -14 4t-3 15v627q0 17 17 17h43q17 0 17 -17v-319q0 -55 19.5 -73.5t61.5 -18.5q18 0 42 7t48 16
t45 19t33 16v353q0 17 17 17h41q17 0 17 -17v-453v0z" />
    <glyph glyph-name="mu" unicode="&#x3bc;" horiz-adv-x="512" 
d="M457 17q0 -17 -17 -17h-41q-18 0 -18 17v37q-12 -8 -31.5 -19t-43 -21t-50 -17t-53.5 -7q-23 0 -39.5 4.5t-30.5 15.5l-1 -2v-165q0 -10 -3.5 -14.5t-14.5 -4.5h-41q-11 0 -14 4t-3 15v627q0 17 17 17h43q17 0 17 -17v-319q0 -55 19.5 -73.5t61.5 -18.5q18 0 42 7t48 16
t45 19t33 16v353q0 17 17 17h41q17 0 17 -17v-453v0z" />
    <glyph glyph-name="omicron" unicode="&#x3bf;" horiz-adv-x="503" 
d="M457 252q0 -44 -5 -90t-25.5 -84t-62.5 -62t-116 -24q-72 0 -112.5 24t-60.5 61.5t-24.5 84t-4.5 90.5q0 36 6 79t26.5 80t60.5 61.5t109 24.5t110.5 -21.5t63.5 -56t28.5 -78.5t6.5 -89zM379 245q0 46 -5 80.5t-19.5 57t-40 34t-66.5 11.5q-39 0 -63 -11.5t-38 -34.5
t-19 -57t-5 -80t5 -80t19 -57t38 -34.5t63 -11.5q41 0 66.5 11t40 33.5t19.5 57t5 81.5z" />
    <glyph glyph-name="pi" unicode="&#x3c0;" horiz-adv-x="510" 
d="M455 17q0 -17 -18 -17h-42q-16 0 -16 17v402h-249v-402q0 -17 -17 -17h-41q-17 0 -17 17v453q0 17 17 17h366q9 0 13 -3.5t4 -14.5v-452v0z" />
    <glyph glyph-name="rho" unicode="&#x3c1;" horiz-adv-x="508" 
d="M460 249q0 -62 -9 -110t-31.5 -81t-61 -50t-96.5 -17q-27 0 -62.5 7t-74.5 21l-1 -3v-173q0 -10 -3.5 -14.5t-14.5 -4.5h-41q-11 0 -14 4t-3 15v410q0 64 14.5 110t41 76t64.5 44t86 14q110 0 158 -64.5t48 -183.5zM381 252q0 53 -9.5 87t-26 53.5t-39.5 27t-50 7.5
q-51 0 -78 -21t-39 -50t-13.5 -60t-1.5 -51v-164q41 -11 76 -16t67 -5q30 0 51.5 8.5t35.5 30t20.5 58.5t6.5 95z" />
    <glyph glyph-name="sigma" unicode="&#x3c3;" horiz-adv-x="515" 
d="M500 436q0 -17 -17 -17h-79l-2 -2q18 -14 29 -33t16.5 -41.5t7 -47t1.5 -48.5q0 -43 -5 -88t-26 -82t-63 -61t-116 -24q-72 0 -112.5 23.5t-60.5 60.5t-24.5 82t-4.5 89q0 35 6 77t27 78.5t61.5 61t109.5 24.5h235q17 0 17 -17v-35zM246 418q-38 0 -62.5 -11t-38 -33.5
t-18.5 -56t-5 -77.5q0 -45 5 -78.5t18.5 -55.5t37.5 -33t63 -11q41 0 66.5 10.5t40 32.5t20 55.5t5.5 79.5t-5 79.5t-19.5 55.5t-40.5 32.5t-67 10.5z" />
    <glyph glyph-name="tau" unicode="&#x3c4;" horiz-adv-x="348" 
d="M341 32q1 -13 -9 -19q-9 -5 -22 -8.5t-27.5 -6t-28.5 -4t-25 -1.5q-32 0 -53 7.5t-33 21.5t-17 33.5t-5 43.5v320h-90q-17 0 -17 17v33q0 18 17 18h280q11 0 14 -4.5t3 -12.5v-34q0 -9 -3 -13t-14 -4h-115v-297q0 -24 6 -36.5t20 -17.5t36.5 -4t56.5 3q12 1 16 -1.5
t6 -10.5z" />
    <glyph glyph-name="theta" unicode="&#x3b8;" horiz-adv-x="528" 
d="M484 362q0 -66 -6 -132.5t-28.5 -119t-67 -85.5t-121.5 -33q-75 0 -118.5 31t-65.5 82t-27.5 118t-5.5 139q0 37 3 77.5t11 79t23 73t39 60.5t58.5 41.5t82.5 15.5q72 0 115.5 -27t67.5 -74t32 -110.5t8 -135.5zM406 404q-2 61 -10 106t-25 74.5t-44 44t-66 14.5
q-72 0 -103 -60t-35 -179h283zM122 340q0 -70 7 -122.5t23 -87.5t42.5 -52.5t66.5 -17.5q41 0 69 15.5t44.5 49.5t24 87t7.5 128h-284z" />
    <glyph glyph-name="omega" unicode="&#x3c9;" horiz-adv-x="748" 
d="M372 62q-17 -26 -50.5 -48t-89.5 -22q-54 0 -89.5 19.5t-57 53t-30.5 78.5t-9 96q0 38 4.5 76.5t18.5 72.5t40 60.5t70 39.5q14 4 22 -7l14 -22q9 -13 -8 -25q-10 -7 -20.5 -13.5t-20 -15.5t-18 -22t-14.5 -34q-8 -25 -8.5 -52.5t-0.5 -58.5q0 -93 25.5 -135t81.5 -42
q34 0 55 11t31.5 29t14 40t3.5 43v138q0 11 4 14t13 3h41q8 0 12 -3t4 -14v-138q0 -21 4 -43t15 -39.5t32 -29t56 -11.5q56 0 81.5 42t25.5 135q0 31 -2 62t-7 49q-6 21 -14.5 34t-18.5 22t-20 15.5t-20 13.5q-17 12 -8 25l14 22q6 11 21 7q44 -13 70.5 -39.5t40.5 -60.5
t18.5 -72.5t4.5 -76.5q0 -51 -9 -96t-30.5 -78.5t-57 -53t-89.5 -19.5q-56 0 -91 22t-52 48h-2z" />
    <glyph glyph-name="sigma1" unicode="&#x3c2;" horiz-adv-x="436" 
d="M395 140q0 -42 -15.5 -70t-42 -45.5t-60 -25t-69.5 -7.5q-19 0 -40 1t-41.5 4t-39 7.5t-32.5 10.5q-13 6 -11 21l4 21q2 10 7.5 12t14.5 1q15 -2 34.5 -4t39 -3.5t37 -2.5t30.5 -1q56 0 80.5 17.5t24.5 55.5q0 22 -4 36.5t-15 23.5t-30 14t-49 10q-34 5 -65.5 13
t-55.5 23t-38.5 39t-14.5 63q0 70 47 106.5t128 36.5q15 0 34 -1t39.5 -3.5t40.5 -7t36 -10.5q14 -7 10 -21l-4 -24q-2 -8 -8.5 -10t-17.5 -1q-31 3 -65 6.5t-66 3.5q-56 0 -76 -17t-20 -56q0 -19 5 -30t16.5 -18t31.5 -11.5t50 -9.5q33 -5 64 -12.5t54.5 -23.5t37.5 -42
t14 -69z" />
    <glyph glyph-name="upsilon" unicode="&#x3c5;" horiz-adv-x="507" 
d="M434 487q17 0 17 -17v-294q0 -39 -11.5 -72.5t-35.5 -58t-62 -38.5t-91 -14t-90.5 13t-60.5 36.5t-33.5 57.5t-10.5 76v294q0 17 18 17h41q8 0 12 -3t4 -14v-292q0 -25 4.5 -46.5t17 -37t36 -24.5t62.5 -9q36 0 59.5 8.5t38 24.5t20 37t5.5 47v292q0 17 18 17h42v0z" />
    <glyph glyph-name="zeta" unicode="&#x3b6;" horiz-adv-x="458" 
d="M448 434q0 -8 -1 -13.5t-9 -9.5q-50 -27 -105 -55.5t-102 -60t-77.5 -67t-30.5 -75.5q0 -51 60 -73.5t166 -22.5l36 1q15 0 20.5 -3t10.5 -13l10 -21q5 -11 3.5 -18.5t-9.5 -21.5q-6 -11 -14.5 -28t-16.5 -36t-15 -38t-11 -32q-5 -14 -10.5 -17t-16.5 1l-30 9
q-8 3 -11.5 8t0.5 19q3 12 9 29.5t13.5 35.5t15 34t13.5 24q-45 0 -98 5.5t-98.5 22t-76 47.5t-30.5 83q0 49 27 90.5t68.5 75.5t91 60.5t95.5 46.5l-1 1h-251q-18 0 -18 17v33q0 15 17 15h360q16 0 16 -13v-40v0z" />
    <glyph glyph-name="Euro" unicode="&#x20ac;" horiz-adv-x="556" 
d="M35 351q-5 0 -7.5 1.5t-2.5 7.5v34q0 9 11 9h51q5 54 19 102.5t43 85t75 58t114 21.5q15 0 37 -1t47 -4t50 -8t45 -13q11 -5 13 -10t0 -12l-6 -28q-2 -5 -5.5 -9t-13.5 -2q-33 5 -77.5 9.5t-89.5 4.5q-47 0 -78.5 -15t-50.5 -41t-28.5 -61.5t-12.5 -76.5h271q10 0 10 -11
v-32q0 -9 -9 -9h-405zM438 307q11 0 11 -12v-32q0 -8 -9 -8h-271q4 -39 13.5 -74t29 -60.5t50.5 -40.5t76 -15q46 0 88.5 4.5t77.5 9.5q11 2 14.5 -2.5t5.5 -9.5l5 -26q2 -8 0.5 -13t-11.5 -9q-18 -8 -43 -13t-50.5 -8t-48.5 -4.5t-38 -1.5q-68 0 -114 21t-75 56.5
t-43.5 83.5t-18.5 102l-52 -1q-10 0 -10 10v34q0 3 2.5 6t8.5 3h402z" />
    <glyph glyph-name="emdash" unicode="&#x2014;" horiz-adv-x="1000" 
d="M970 239q0 -14 -14 -14h-912q-14 0 -14 14v28q0 15 15 15h910q15 0 15 -15v-28v0z" />
    <glyph glyph-name="AE" unicode="&#xc6;" horiz-adv-x="880" 
d="M835 16q0 -10 -4 -13t-13 -3h-351q-13 0 -15.5 3t-2.5 10v164h-246l-99 -161q-7 -10 -13 -13t-14 -3h-57q-7 0 -10 2.5t2 11.5l389 634q8 15 24 15h387q17 0 17 -16v-39q0 -17 -18 -17h-284v-211h255q17 0 17 -16v-39q0 -16 -17 -16h-255v-238h292q16 0 16 -17v-38z
M449 587h-3l-199 -339h202v339z" />
    <glyph glyph-name="Oslash" unicode="&#xd8;" horiz-adv-x="638" 
d="M576 341q0 -59 -7 -121t-33.5 -113t-78.5 -83.5t-141 -32.5q-60 0 -102.5 15.5t-70.5 42.5l-32 -43q-3 -5 -7 -8.5t-10 1.5l-23 16q-6 4 -6 7t5 9l42 57q-33 53 -41.5 120t-8.5 133q0 31 3 67.5t12 73t26.5 71t45.5 60.5t69.5 42t98.5 16q63 0 106.5 -16t72.5 -43l36 49
q3 5 6.5 8.5t10.5 -1.5l23 -16q10 -6 2 -16l-46 -63q29 -48 38.5 -108.5t9.5 -123.5zM142 331q0 -51 5 -94t18 -77l284 388q-21 27 -53.5 41t-79.5 14q-50 0 -83.5 -19t-53.5 -54.5t-28.5 -85.5t-8.5 -113zM498 331q0 52 -5.5 94.5t-17.5 75.5l-285 -387q20 -26 50.5 -39.5
t75.5 -13.5q54 0 89 18.5t56 53t29 85t8 113.5z" />
    <glyph glyph-name="florin" unicode="&#x192;" horiz-adv-x="556" 
d="M50 -20q3 9 8.5 11.5t15.5 0.5q9 -2 24 -3t26 -1q23 0 37 8.5t22.5 23.5t13.5 37t9 49l37 230h-71q-18 0 -18 17v30q0 10 3 14.5t13 4.5h81l19 112q4 22 10.5 50.5t22.5 53.5t44 42t75 17q22 0 44.5 -4t39.5 -12q9 -6 4 -19l-6 -22q-4 -9 -9.5 -11.5t-15.5 -0.5
q-3 0 -10 1t-14.5 2t-14 1.5t-9.5 0.5q-26 0 -41 -7.5t-24 -22t-13.5 -35t-8.5 -45.5l-16 -101h82q19 0 19 -16v-33q0 -11 -3.5 -14t-13.5 -3h-94l-42 -268q-3 -22 -12 -47t-25 -46.5t-41 -35.5t-61 -14q-22 0 -46 4t-41 12q-11 5 -5 19z" />
    <glyph glyph-name="daggerdbl" unicode="&#x2021;" horiz-adv-x="483" 
d="M24 204q0 17 18 17h164v202h-164q-18 0 -18 17v34q0 16 17 16h165v188q1 14 17 14h37q9 0 13.5 -3t4.5 -14v-185h165q17 0 17 -16v-34q0 -17 -18 -17h-164v-202h164q18 0 18 -17v-34q0 -16 -17 -16h-165v-188q-1 -14 -17 -14h-37q-17 0 -18 14v188h-165q-17 0 -17 16v34
v0z" />
    <glyph glyph-name="ae" unicode="&#xe6;" horiz-adv-x="798" 
d="M781 276q1 -24 -7.5 -40.5t-36.5 -16.5h-287q1 -45 6.5 -75.5t20 -49t38.5 -26t61 -7.5q15 0 35.5 1.5t41.5 3t40 3.5t32 4q10 1 15.5 -1t7.5 -12l4 -22q3 -14 -11 -20t-35.5 -11t-44.5 -8.5t-46.5 -5.5t-41.5 -2q-69 0 -109.5 20.5t-61.5 55.5q-7 -6 -15 -11.5
t-17 -10.5q-37 -21 -83.5 -37t-107.5 -16q-73 0 -104 35t-31 103q0 78 43 115.5t143 37.5h138v49q0 55 -25.5 76t-91.5 21q-14 0 -31.5 -0.5t-36.5 -2l-38 -3t-35 -3.5q-19 -3 -20 9l-6 26q-1 7 2 12t14 10q15 5 36 9t44 6.5t45.5 3.5t40.5 1q65 0 101.5 -15t53.5 -41
q23 25 59.5 40.5t92.5 15.5q64 0 104 -19t62.5 -50t31 -71t10.5 -81zM198 61q18 0 42 6.5t49 16t48.5 20.5t41.5 21q-7 26 -9 45.5t-2 48.5h-147q-46 0 -73 -18t-27 -68q0 -42 16.5 -57t60.5 -15zM697 282q-2 26 -6 52.5t-17 47.5t-37 34t-65 13q-37 0 -60 -10.5t-36 -29.5
t-18.5 -46t-7.5 -61h247z" />
    <glyph glyph-name="oslash" unicode="&#xf8;" horiz-adv-x="503" 
d="M457 252q0 -44 -5 -90t-25.5 -84t-62.5 -62t-116 -24q-41 0 -71 8t-52 22l-23 -31q-3 -5 -6.5 -8.5t-10.5 1.5l-22 15q-6 5 -5.5 8.5t4.5 8.5l28 38q-15 19 -24 43t-13.5 49.5t-5.5 52.5t-1 53q0 36 6 79t26.5 80t60.5 61.5t109 24.5q47 0 80 -10t56 -27l30 41
q3 5 7.5 8.5t9.5 -0.5l22 -16q10 -7 2 -17l-37 -51q24 -35 31.5 -80.5t7.5 -92.5zM123 245q0 -39 3.5 -69.5t12.5 -53.5l201 278q-15 14 -37.5 21t-54.5 7q-39 0 -63 -11.5t-38 -34.5t-19 -57t-5 -80zM379 245q0 34 -2.5 61t-9.5 49l-198 -272q27 -21 79 -21q41 0 66.5 11
t40 33.5t19.5 57t5 81.5z" />
    <glyph glyph-name="Thorn" unicode="&#xde;" horiz-adv-x="508" 
d="M479 338q0 -34 -10.5 -69.5t-34.5 -65t-63 -48t-97 -18.5h-131v-120q0 -17 -17 -17h-43q-18 0 -18 17v629q0 17 17 17h43q18 0 18 -17v-116h130q42 0 79.5 -12t65.5 -36t44.5 -60t16.5 -84zM402 337q0 63 -37 93t-98 30h-124v-254h133q38 0 62.5 11t38.5 29.5t19.5 42
t5.5 48.5z" />
    <glyph glyph-name="thorn" unicode="&#xfe;" horiz-adv-x="505" 
d="M473 248q0 -62 -9 -110t-31.5 -80.5t-60 -49.5t-95.5 -17q-28 0 -63 6t-75 22l-1 -1v-175q0 -10 -3.5 -14.5t-14.5 -4.5h-41q-11 0 -14 4t-3 15v803q0 17 17 17h41q17 0 17 -17v-212l3 -2q11 7 29.5 18t41.5 21t48.5 17.5t50.5 7.5q47 0 78.5 -16.5t50 -48t26.5 -77.5
t8 -106zM394 251q0 57 -5.5 91.5t-17 53.5t-28.5 25t-40 6q-18 0 -41.5 -6t-46.5 -15t-43.5 -19t-33.5 -17v-288q42 -12 77 -17t67 -5t53.5 9.5t34.5 32t18.5 59t5.5 90.5z" />
    <glyph glyph-name="OE" unicode="&#x152;" horiz-adv-x="785" 
d="M740 16q0 -10 -4 -13t-13 -3h-344q-38 -9 -83 -9q-58 0 -100 15t-70 40.5t-44.5 60t-25.5 73.5t-11.5 80t-2.5 81q0 31 3 67.5t12 73t26 71t45.5 60.5t69.5 42t98 16q23 0 42.5 -2t36.5 -6h342q17 0 17 -16v-39q0 -17 -18 -17l-284 1v-212h255q17 0 17 -16v-39
q0 -16 -17 -16h-255v-237l292 -1q16 0 16 -17v-38zM296 61q34 0 58 7v528q-13 3 -27.5 5t-30.5 2q-50 0 -83.5 -19t-53.5 -54.5t-28.5 -85.5t-8.5 -113q0 -61 8 -110.5t28 -85t53.5 -55t84.5 -19.5z" />
    <glyph glyph-name="Eogonek" unicode="&#x118;" horiz-adv-x="505" 
d="M408 -99q0 -20 10.5 -29.5t26 -12t34 0t35.5 6.5q6 2 7.5 0t2.5 -4l8 -24q2 -7 -7 -11q-15 -8 -35 -12.5t-33 -5.5q-54 -3 -82 20.5t-28 63.5q0 23 11.5 50.5t41.5 56.5h-308q-18 0 -18 16v630q0 17 18 17h345q17 0 17 -16v-39q0 -17 -18 -17h-284v-211h255q17 0 17 -16
v-39q0 -16 -17 -16h-255v-238h292q16 0 16 -17v-38q0 -11 -6 -14q-26 -31 -36 -56t-10 -45z" />
    <glyph glyph-name="Dcroat" unicode="&#x110;" horiz-adv-x="617" 
d="M552 333q0 -69 -11.5 -129.5t-41.5 -106t-82 -71.5t-133 -26h-187q-12 0 -16.5 4t-4.5 13v288h-63q-14 0 -14 12v38q0 8 3.5 10.5t10.5 2.5h63v278q0 16 18 16h190q80 0 132 -25.5t82 -70t42 -104.5t12 -129zM279 317q0 -12 -14 -12h-111v-233h123q34 0 68 8.5t62 35
t45.5 76.5t17.5 133q0 84 -15.5 136t-41.5 81t-59.5 39t-69.5 10h-130v-223h111q7 0 10.5 -2.5t3.5 -10.5v-38z" />
    <glyph glyph-name="Lslash" unicode="&#x141;" horiz-adv-x="509" 
d="M469 16q0 -16 -16 -16h-360q-18 0 -18 16v211l-47 -26q-12 -7 -18 3l-15 27q-5 8 -3 11.5t8 6.5l75 42v354q0 11 4.5 14.5t12.5 3.5h44q8 0 12 -3.5t4 -14.5v-311l126 71q6 4 10.5 4t8.5 -8l16 -27q6 -11 -6 -17l-155 -87v-199h300q17 0 17 -17v-38v0z" />
    <glyph glyph-name="Aogonek" unicode="&#x104;" horiz-adv-x="548" 
d="M480 -99q0 -20 10.5 -29.5t26 -12t34 0t35.5 6.5q6 2 7.5 0t2.5 -4l8 -24q2 -7 -7 -11q-15 -8 -35 -12.5t-33 -5.5q-54 -3 -82 20.5t-28 63.5q0 23 11.5 50.5t41.5 56.5h-13q-8 0 -11.5 3t-5.5 10l-49 164h-244l-52 -161q-3 -10 -8 -13t-13 -3h-52q-14 0 -8 16l209 631
q4 15 19 15h56q10 0 13.5 -4t5.5 -11l209 -633q2 -9 -2 -13q-26 -30 -36 -55t-10 -45zM321 415l-48 162h-3l-47 -159l-51 -170h199z" />
    <glyph glyph-name="aogonek" unicode="&#x105;" horiz-adv-x="514" 
d="M367 54q-37 -22 -82.5 -42t-105.5 -20q-73 0 -104 35t-31 103q0 85 43 126.5t143 41.5h138v34q0 55 -25.5 76t-91.5 21q-14 0 -31.5 -0.5t-36.5 -2l-38 -3t-35 -3.5q-17 -3 -20 9l-6 26q-2 7 1.5 12t14.5 10q15 5 36 9t44 6.5t45.5 3.5t40.5 1q60 0 95.5 -13t54 -36
t23.5 -56t5 -73v-221q0 -15 1.5 -23t5 -12t10.5 -5.5t19 -2.5q17 -1 17 -13v-25q0 -7 -4 -11h1v-2q-27 -32 -37.5 -57.5t-10.5 -45.5t10.5 -29.5t26 -12t34 0t35.5 6.5q6 2 7.5 0t2.5 -4l8 -24q2 -7 -7 -11q-15 -8 -35 -12.5t-33 -5.5q-54 -3 -82 20.5t-28 63.5
q0 22 10.5 48.5t38.5 54.5q-30 2 -45 14.5t-20 43.5h-2zM368 235h-147q-46 0 -73 -21t-27 -81q0 -42 16.5 -57t60.5 -15q19 0 41.5 5t45.5 13.5t44.5 18.5t38.5 20v117z" />
    <glyph glyph-name="lslash" unicode="&#x142;" horiz-adv-x="251" 
d="M226 23q1 -12 -10 -17q-12 -5 -26.5 -8t-27.5 -3q-25 0 -41 6t-25 16.5t-12.5 26t-3.5 33.5v212l-53 -29q-12 -7 -18 3l-15 27q-5 8 -3 11.5t8 6.5l81 45v334q0 17 17 17h40q9 0 13.5 -3t4.5 -14v-293l66 37q6 4 10.5 4t8.5 -8l16 -27q6 -11 -6 -17l-95 -53v-228
q0 -26 11 -31.5t39 -5.5q16 0 17 -10z" />
    <glyph glyph-name="eogonek" unicode="&#x119;" horiz-adv-x="489" 
d="M320 -99q0 -20 10.5 -29.5t26 -12t34 0t35.5 6.5q6 2 7.5 0t2.5 -4l8 -24q2 -7 -7 -11q-15 -8 -35 -12.5t-33 -5.5q-54 -3 -82 20.5t-28 63.5q0 21 10.5 47.5t37.5 54.5q-15 -2 -29 -3t-27 -1q-69 0 -109.5 21.5t-61.5 56.5t-27.5 80.5t-6.5 93.5q0 36 6 80.5t27 83
t61 64.5t109 26q64 0 103 -19t60.5 -50t29 -71t9.5 -81q1 -24 -7.5 -40.5t-36.5 -16.5h-282q1 -45 8 -75.5t23 -49t40.5 -26t59.5 -7.5q15 0 34 1.5l38 3t36.5 3.5t30.5 4q10 1 15.5 -1t7.5 -12l4 -22q3 -14 -11 -20q-20 -8 -43 -14q-27 -32 -37.5 -57.5t-10.5 -45.5z
M370 282q0 26 -4.5 52.5t-17.5 47.5t-37 34t-64 13q-33 0 -55.5 -10.5t-36.5 -29.5t-21 -46t-9 -61h245z" />
    <glyph glyph-name="dcroat" unicode="&#x111;" horiz-adv-x="510" 
d="M454 17q0 -17 -16 -17h-42q-8 0 -12.5 3t-4.5 14v37l-3 1q-11 -7 -29.5 -18t-41 -21t-48.5 -17t-51 -7q-47 0 -78.5 16.5t-50.5 48t-26.5 77.5t-7.5 105q0 63 9 111t31.5 80.5t60.5 49.5t96 17q27 0 61.5 -6t75.5 -22l2 1v82h-152q-14 0 -14 12v36q0 8 3.5 10.5t10.5 2.5
h152v73q0 10 3 14.5t14 4.5h42q10 0 13 -4t3 -15v-73h57q7 0 10.5 -2.5t3.5 -10.5v-36q0 -12 -14 -12h-57v-535zM378 406q-41 12 -76.5 17t-67.5 5t-53.5 -9.5t-34.5 -32t-18.5 -59t-5.5 -90.5q0 -57 5.5 -91.5t17 -53.5t28.5 -25t40 -6q18 0 41.5 6.5t46.5 15.5t44 18.5
t33 16.5v288z" />
    <glyph glyph-name="brokenbar" unicode="&#xa6;" horiz-adv-x="237" 
d="M148 -99q0 -17 -16 -17h-27q-9 0 -13.5 3t-4.5 14v367q0 11 4.5 14t13.5 3h27q16 0 16 -17v-367zM148 333q0 -17 -16 -17h-27q-9 0 -13.5 3t-4.5 14v342q0 11 4.5 14t13.5 3h27q16 0 16 -17v-342z" />
    <glyph glyph-name="guilsinglright" unicode="&#x203a;" horiz-adv-x="262" 
d="M124 45q-4 -5 -9.5 -9t-13.5 -4h-60q-5 0 -6 3.5t2 7.5l116 141l-111 139q-2 4 -1.5 9t8.5 5h52q10 0 15 -5l10 -10l98 -124q8 -9 6.5 -16t-5.5 -12z" />
    <glyph glyph-name="guilsinglleft" unicode="&#x2039;" horiz-adv-x="262" 
d="M41 170q-4 5 -5.5 12t6.5 16l98 124l10 10t15 5h52q8 0 8.5 -5t-1.5 -9l-111 -139l116 -141q3 -4 2 -7.5t-6 -3.5h-60q-8 0 -13.5 4t-9.5 9z" />
    <glyph glyph-name="dotaccent" unicode="&#x2d9;" horiz-adv-x="336" 
d="M211 610q0 -18 -7.5 -31t-33.5 -13q-28 0 -35 13.5t-7 30.5t8 29t34 12t33.5 -11.5t7.5 -29.5z" />
    <glyph glyph-name="cent" unicode="&#xa2;" horiz-adv-x="556" 
d="M459 36q3 -14 -11 -21q-23 -11 -56 -15.5t-65 -6.5v-119q0 -17 -12 -17h-23q-7 0 -10.5 3t-3.5 14v118q-61 3 -97 24t-55 55.5t-24.5 79.5t-5.5 96q0 46 5.5 90t24.5 78.5t55 56.5t97 25v126q0 11 3.5 14t10.5 3h23q12 0 12 -17v-127q29 -2 62.5 -6.5t59.5 -15.5
q8 -3 9.5 -9t0.5 -12l-4 -23q-2 -8 -9.5 -10t-16.5 -1q-31 3 -68.5 6.5t-64.5 3.5q-34 0 -57 -9.5t-36.5 -30.5t-19.5 -55.5t-6 -85.5q0 -55 6 -91t20 -57.5t37 -30.5t56 -9q12 0 29.5 1t36 2.5t37.5 3t34 3.5q9 1 14.5 -1t7.5 -12l4 -21v0z" />
    <glyph glyph-name="exclamdown" unicode="&#xa1;" horiz-adv-x="224" 
d="M84 294q1 16 12 16h26q14 0 14 -16l10 -464q0 -17 -16 -17h-44q-14 0 -14 17zM66 439q0 20 8.5 34t37.5 14q30 0 37.5 -14t7.5 -34t-8.5 -32.5t-36.5 -12.5q-29 0 -37.5 12.5t-8.5 32.5z" />
    <glyph glyph-name="questiondown" unicode="&#xbf;" horiz-adv-x="352" 
d="M11 -42q0 26 7 45.5t18.5 35t26 27t28.5 22.5q21 16 38.5 31t30.5 32.5t20 39t7 48.5v27t-1 29q0 17 13 17h38q8 0 11 -3.5t5 -11.5q3 -19 3.5 -37.5t0.5 -30.5q0 -34 -10 -61t-27 -50t-39 -43t-46 -39q-22 -17 -36.5 -32t-14.5 -41q0 -47 27.5 -66t88.5 -19q25 0 54 2.5
t54 4.5q10 1 13.5 -3t5.5 -9l5 -27q2 -8 0 -13t-13 -9q-31 -12 -62 -15.5t-60 -3.5q-94 0 -140 40t-46 113zM167 439q0 20 8.5 34t37.5 14q31 0 38.5 -14t7.5 -34t-9 -33t-37 -13q-29 0 -37.5 13t-8.5 33z" />
    <glyph glyph-name="Uogonek" unicode="&#x172;" horiz-adv-x="607" 
d="M290 -99q0 -20 10.5 -29.5t26 -12t34 0t35.5 6.5q6 2 7.5 0t2.5 -4l8 -24q2 -7 -7 -11q-15 -8 -35 -12.5t-33 -5.5q-54 -3 -82 20.5t-28 63.5q0 21 10.5 47t36.5 54q-146 9 -188 127q-11 27 -15 56.5t-4 62.5v405q0 11 4 14.5t13 3.5h44q8 0 12.5 -3.5t4.5 -14.5v-408
q0 -84 39 -128.5t118 -44.5q77 0 118 42t41 131v408q0 11 4.5 14.5t13.5 3.5h43q8 0 12 -3.5t4 -14.5l-1 -405q0 -32 -3 -60.5t-14 -56.5q-26 -64 -76.5 -94t-116.5 -35q-22 -28 -30.5 -51.5t-8.5 -41.5z" />
    <glyph glyph-name="uogonek" unicode="&#x173;" horiz-adv-x="512" 
d="M405 -99q0 -20 10.5 -29.5t26 -12t34 0t35.5 6.5q6 2 7.5 0t2.5 -4l8 -24q2 -7 -7 -11q-15 -8 -35 -12.5t-33 -5.5q-54 -3 -82 20.5t-28 63.5q0 23 11.5 50.5t41.5 56.5q-16 0 -16 17v35l-2 2q-12 -8 -31.5 -19t-42.5 -21t-49 -17t-53 -7q-49 0 -78 14t-44.5 38.5
t-20 58.5t-4.5 74v295q0 17 17 17h43q16 0 16 -17v-296q0 -35 4 -57t13.5 -35t25.5 -18t39 -5q18 0 42 7t48 16t45 19t33 16v353q0 17 17 17h41q17 0 17 -17v-453q0 -11 -6 -15q-26 -30 -36 -55.5t-10 -45.5z" />
    <glyph glyph-name="quotesinglbase" unicode="&#x201a;" horiz-adv-x="195" 
d="M150 21q0 -52 -25 -92.5t-55 -59.5q-3 -2 -8 -4t-8 1l-14 14q-4 5 4 13q18 16 25.5 34t7.5 37q0 18 -7 36.5t-18 31.5q-3 4 -3 9.5t7 11.5l40 30q7 5 13.5 4.5t11.5 -5.5q15 -14 22 -30.5t7 -30.5z" />
    <glyph glyph-name="quotedblbase" unicode="&#x201e;" horiz-adv-x="312" 
d="M278 22q0 -53 -25 -93t-55 -60q-3 -2 -8 -3.5t-8 0.5l-14 14q-4 6 4 13q18 16 25.5 34.5t7.5 37.5q0 17 -7 35.5t-18 32.5q-3 4 -3 9.5t7 10.5l40 31q7 5 13.5 4t11.5 -5q15 -14 22 -30.5t7 -30.5zM152 22q0 -53 -25 -93t-55 -60q-3 -2 -8 -3.5t-8 0.5l-14 14q-4 6 4 13
q18 16 25.5 34.5t7.5 37.5q0 17 -7 35.5t-18 32.5q-3 4 -3 9.5t7 10.5l40 31q7 5 13.5 4t11.5 -5q15 -14 22 -30.5t7 -30.5z" />
    <glyph glyph-name="tilde" unicode="&#x2dc;" horiz-adv-x="505" 
d="M326 551q-17 0 -37 8.5t-40.5 18t-39.5 18t-34 8.5q-8 0 -22 -6t-30 -32q-2 -5 -5.5 -6.5t-11.5 2.5l-20 8q-6 2 -6 7t2 9q17 46 44.5 64t50.5 18q19 0 39 -8t39.5 -18t37.5 -18t33 -8q17 0 27.5 9t21.5 28q2 4 5.5 7t11.5 0l21 -7q7 -2 6.5 -7.5t-1.5 -8.5
q-27 -86 -92 -86z" />
    <glyph glyph-name="macron" unicode="&#xaf;" horiz-adv-x="498" 
d="M412 585q0 -12 -14 -12h-252q-14 0 -14 12v38q0 8 3.5 10.5t10.5 2.5h252q7 0 10.5 -2.5t3.5 -10.5v-38v0z" />
    <glyph glyph-name="logicalnot" unicode="&#xac;" horiz-adv-x="556" 
d="M430 132q-14 0 -14 14v152h-319q-14 0 -14 14v31q0 15 15 15h360q15 0 15 -14v-197q0 -15 -15 -15h-28v0z" />
    <glyph glyph-name="cedilla" unicode="&#xb8;" horiz-adv-x="425" 
d="M278 -112q0 19 -13.5 25t-50.5 8q-21 2 -13 22l24 67q0 1 2 3.5t6 2.5h25q4 0 4.5 -2.5t-0.5 -4.5l-20 -53q28 -1 45.5 -6.5t27.5 -14.5t14 -20.5t4 -24.5q0 -40 -27.5 -59t-76.5 -19q-13 0 -33.5 2.5t-36.5 7.5q-9 4 -7 11l5 19q1 3 3 4.5t8 0.5q14 -2 30 -3.5t27 -1.5
q21 0 37 6t16 30z" />
    <glyph glyph-name="eth" unicode="&#xf0;" horiz-adv-x="503" 
d="M458 698q9 -7 -1 -17l-50 -50q20 -28 31 -65.5t16.5 -78t6.5 -80.5t1 -74q0 -74 -7.5 -136.5t-31 -108t-66.5 -71t-114 -25.5q-70 0 -109.5 24.5t-59.5 60.5t-25 78t-5 78q0 37 8 78t30.5 76t63 58t104.5 23q44 0 79.5 -15.5t54.5 -40.5l2 1q0 17 -1.5 39t-5 44.5
t-10 43.5t-16.5 37l-51 -51q-9 -9 -17 0l-23 20q-7 6 -6 9.5t5 8.5l51 52q-17 12 -41.5 16t-51.5 4q-18 0 -36.5 -2t-35.5 -4q-12 -1 -14 9l-5 29q-1 6 1 10t10 7q30 13 63 15.5t53 2.5q33 0 62.5 -8.5t49.5 -22.5l49 48q5 4 8 5t10 -5zM377 227q0 36 -4 67.5t-17.5 54.5
t-38.5 36.5t-66 13.5q-39 0 -64 -12t-39.5 -34t-20.5 -54.5t-6 -72.5q0 -33 4 -62.5t17.5 -52t38.5 -35.5t67 -13q41 0 66.5 13.5t39.5 36t18.5 52t4.5 62.5z" />
    <glyph glyph-name="plusminus" unicode="&#xb1;" horiz-adv-x="556" 
d="M473 310q0 -12 -15 -12h-146v-153q0 -14 -12 -14h-41q-8 0 -10.5 3.5t-2.5 10.5v153h-150q-13 0 -13 12v35q0 8 3 10.5t10 2.5h150v145q0 7 2.5 10.5t10.5 3.5h41q12 0 12 -14v-145h146q8 0 11.5 -2.5t3.5 -10.5v-35zM472 47q0 -12 -14 -12h-360q-14 0 -14 12v31
q0 8 3.5 10.5t10.5 2.5h360q7 0 10.5 -2.5t3.5 -10.5v-31z" />
    <glyph glyph-name="multiply" unicode="&#xd7;" horiz-adv-x="556" 
d="M425 155q-9 -9 -19 2l-124 125l-130 -130q-4 -4 -8.5 -5t-9.5 4l-29 29q-6 6 -5 10t6 9l129 129l-127 128q-10 8 -1 17l25 25q6 6 9.5 5.5t8.5 -5.5l127 -127l124 123q5 5 9 6t10 -5l29 -29q9 -8 -1 -18l-124 -124l125 -124q5 -6 6 -10t-5 -10l-25 -25v0z" />
    <glyph glyph-name="paragraph" unicode="&#xb6;" horiz-adv-x="467" 
d="M430 664q17 0 17 -17v-36q0 -18 -17 -18h-25v-671q0 -17 -17 -17h-34q-18 0 -18 17v672h-101v-672q0 -17 -17 -17h-34q-18 0 -18 17v381q-35 0 -62.5 14.5t-46 38t-28.5 52t-10 55.5q0 97 51 149t137 52h223z" />
    <glyph glyph-name="dotlessi" unicode="&#x131;" horiz-adv-x="223" 
d="M149 17q0 -17 -16 -17h-41q-18 0 -18 17v453q0 11 4.5 14t13.5 3h41q16 0 16 -17v-453v0z" />
    <glyph glyph-name="acute" unicode="&#xb4;" horiz-adv-x="497" 
d="M295 546q-5 -7 -15 -3l-29 10q-8 3 -3 14l70 143q4 9 17 3l46 -20q7 -3 6 -7.5t-3 -7.5z" />
    <glyph glyph-name="circumflex" unicode="&#x2c6;" horiz-adv-x="503" 
d="M373 542q-10 -8 -16 -1l-109 107l-105 -105q-5 -6 -9 -6t-9 5l-21 18q-7 5 0 13l94 119q5 7 10.5 9t16.5 2h47q14 0 19.5 -2.5t9.5 -7.5l92 -119q8 -10 1 -16z" />
    <glyph glyph-name="currency" unicode="&#xa4;" horiz-adv-x="503" 
d="M55 281q0 18 6.5 49.5t25.5 63.5l-57 57q-12 12 -2 23l32 31q8 8 12 7t10 -7l55 -56q20 14 47.5 22t63.5 9q36 0 64.5 -8.5t51.5 -24.5l61 62q12 12 23 1l31 -31q8 -8 7 -12.5t-7 -11.5l-64 -63q17 -27 24.5 -55.5t7.5 -51.5q0 -24 -7.5 -57t-27.5 -64l65 -65
q8 -7 9.5 -12t-6.5 -13l-31 -32q-11 -10 -24 4l-65 65q-21 -14 -49 -22t-63 -7q-32 0 -57 6t-45 17l-65 -66q-7 -8 -12 -9t-13 7l-32 31q-11 11 4 24l63 62q-22 32 -29 66.5t-7 60.5zM133 281q0 -60 29.5 -94.5t85.5 -34.5q58 0 90 36.5t32 92.5q0 60 -32 94.5t-90 34.5
q-56 0 -85.5 -34.5t-29.5 -94.5z" />
    <glyph glyph-name="hungarumlaut" unicode="&#x2dd;" horiz-adv-x="503" 
d="M327 546q-4 -7 -14 -3l-29 10q-9 3 -3 14l69 143q5 9 17 3l47 -20q6 -3 5.5 -7.5t-2.5 -7.5zM201 546q-4 -7 -14 -3l-29 10q-9 3 -3 14l69 143q5 9 17 3l47 -20q6 -3 5.5 -7.5t-2.5 -7.5z" />
    <glyph glyph-name="caron" unicode="&#x2c7;" horiz-adv-x="433" 
d="M367 680q7 -6 -1 -16l-92 -119q-4 -5 -9.5 -7.5t-19.5 -2.5h-47q-11 0 -16.5 2t-10.5 9l-94 119q-7 8 0 13l21 18q5 5 9 5t9 -6l105 -105l109 107q6 7 16 -1z" />
    <glyph glyph-name="breve" unicode="&#x2d8;" horiz-adv-x="511" 
d="M271 538q-43 0 -82.5 22t-62.5 70q-2 4 -5 12.5t2 13.5l21 16q5 4 9 2.5t8 -5.5q15 -17 27 -30t25 -21.5t27.5 -12.5t32.5 -4t31 4.5t24.5 13t23.5 21t27 29.5q9 9 17 3l21 -14q6 -4 2.5 -13t-5.5 -13q-23 -48 -62 -71t-81 -23z" />
    <glyph glyph-name="ogonek" unicode="&#x2db;" horiz-adv-x="498" 
d="M254 -99q0 -20 10.5 -29.5t26 -12t34 0t35.5 6.5q6 2 7.5 0t2.5 -4l8 -24q2 -7 -7 -11q-15 -8 -35 -12.5t-33 -5.5q-54 -3 -82 20.5t-28 63.5q0 23 13 52.5t47 60.5h49v-2q-27 -32 -37.5 -57.5t-10.5 -45.5z" />
    <glyph glyph-name="exclam" unicode="!" horiz-adv-x="224" 
d="M138 182q-1 -16 -12 -16h-26q-14 0 -14 16l-10 464q0 17 16 17h44q14 0 14 -17zM156 37q0 -20 -8.5 -34t-37.5 -14q-30 0 -37.5 14t-7.5 34t8.5 32.5t36.5 12.5q29 0 37.5 -12.5t8.5 -32.5z" />
    <glyph glyph-name="afii10026" unicode="&#x418;" horiz-adv-x="629" 
d="M72 645q0 11 4 14.5t12 3.5h41q9 0 13.5 -3.5t4.5 -14.5v-509h3l83 131l241 380q5 7 9.5 11.5t15.5 4.5h41q16 0 16 -15v-631q0 -17 -18 -17h-41q-17 0 -17 17v515h-3l-67 -109l-258 -407q-5 -8 -10 -12t-16 -4h-38q-16 0 -16 16v629z" />
    <glyph glyph-name="afii10049" unicode="&#x42f;" horiz-adv-x="545" 
d="M59 466q0 50 17.5 87t46 61.5t65 36.5t74.5 12h194q17 0 17 -16v-630q0 -17 -17 -17h-43q-17 0 -17 18v270h-119q-18 -1 -35.5 -5.5t-33 -15.5t-29 -30.5t-22.5 -50.5l-46 -167q-4 -11 -9.5 -15t-15.5 -4h-35q-17 0 -19.5 6.5t1.5 18.5l49 174q11 35 28 65t46 47
q-25 8 -43 24t-30 37t-18 45.5t-6 48.5zM140 473q0 -39 13.5 -62t33.5 -35t43.5 -15.5t44.5 -3.5h121v234h-127q-18 0 -40.5 -5.5t-42 -19t-33 -36t-13.5 -57.5z" />
    <glyph glyph-name="afii10045" unicode="&#x42b;" horiz-adv-x="734" 
d="M504 192q0 -48 -16.5 -84t-44.5 -60t-65.5 -36t-79.5 -12h-210q-18 0 -18 16v629q0 17 18 17h43q17 0 17 -17v-256h151q62 0 102 -18t63 -46.5t31.5 -63.5t8.5 -69zM427 193q0 25 -6 48t-20 40.5t-38.5 28t-61.5 10.5h-153v-250h144q61 0 98 30t37 93zM664 17
q0 -17 -17 -17h-44q-18 0 -18 17v628q0 11 4.5 14.5t13.5 3.5h44q8 0 12.5 -3.5t4.5 -14.5v-628z" />
    <glyph glyph-name="afii10018" unicode="&#x411;" horiz-adv-x="531" 
d="M455 607q0 -17 -18 -17h-287v-201h155q61 0 100 -18t61.5 -46.5t31 -63.5t8.5 -69q0 -48 -16.5 -84t-44.5 -60t-65.5 -36t-79.5 -12h-210q-18 0 -18 16v630q0 15 13 16h353q17 0 17 -16v-39zM429 193q0 25 -5.5 48t-19.5 40.5t-38.5 28t-62.5 10.5h-153v-250h144
q61 0 98 30t37 93z" />
    <glyph glyph-name="afii10046" unicode="&#x42c;" horiz-adv-x="534" 
d="M504 192q0 -48 -16.5 -84t-44.5 -60t-65.5 -36t-79.5 -12h-210q-18 0 -18 16v629q0 17 18 17h43q17 0 17 -17v-256h151q62 0 101.5 -18t62.5 -46.5t32 -63.5t9 -69zM427 193q0 25 -5.5 48t-19.5 40.5t-38.5 28t-62.5 10.5h-153v-250h144q61 0 98 30t37 93z" />
    <glyph glyph-name="afii10044" unicode="&#x42a;" horiz-adv-x="693" 
d="M653 192q0 -48 -16.5 -84t-44.5 -60t-65.5 -36t-79.5 -12h-210q-18 0 -18 16v574h-196q-18 0 -18 17v39q0 16 17 16h258q17 0 17 -17v-256h151q63 0 103 -18t62.5 -46.5t31 -63.5t8.5 -69zM576 193q0 25 -6 48t-20.5 40.5t-38.5 28t-61 10.5h-153v-250h144q61 0 98 30
t37 93z" />
    <glyph glyph-name="afii10040" unicode="&#x426;" horiz-adv-x="596" 
d="M497 0h-406q-9 0 -13.5 3.5t-4.5 14.5v628q0 17 18 17h43q16 0 16 -17v-574h297v574q0 17 18 17h43q16 0 16 -17v-572l42 -4q11 -2 12.5 -9.5t1.5 -11.5l-10 -176q-1 -13 -4 -17t-9 -4h-40q-8 0 -10.5 4t-3.5 17z" />
    <glyph glyph-name="afii10025" unicode="&#x417;" horiz-adv-x="484" 
d="M335 351q24 -6 45 -19t36.5 -33t25 -48t9.5 -64q0 -48 -18 -84.5t-50.5 -61.5t-77 -37.5t-97.5 -12.5q-16 0 -41.5 1.5t-53 5t-54 8.5t-44.5 13q-10 4 -11.5 9t0.5 13l5 26q2 5 5.5 9.5t14.5 2.5q36 -5 82 -11t92 -6q89 0 127.5 34t38.5 94q0 67 -41 96t-116 29h-25
q-11 0 -13.5 3t-2.5 12v35q0 9 2.5 13.5t13.5 4.5h25q29 0 54.5 5t45 17.5t30.5 33t11 51.5q0 38 -13 60t-32.5 33t-43 14t-44.5 3q-11 0 -28.5 -1.5t-38 -3.5t-42 -4.5t-39.5 -4.5q-11 -2 -14.5 2.5t-5.5 9.5l-5 25q-2 8 -0.5 13t11.5 9q21 8 45.5 13.5t48.5 8.5t45 4.5
t35 1.5q111 0 158 -44t47 -129q0 -26 -8 -49.5t-22 -42.5t-32.5 -33.5t-39.5 -21.5v-2z" />
    <glyph glyph-name="afii10050" unicode="&#x490;" horiz-adv-x="479" 
d="M462 612q0 -8 -3.5 -14.5t-12.5 -6.5h-292v-574q0 -17 -16 -17h-44q-18 0 -18 17v630q0 16 18 16h298l16 108q2 14 5.5 17.5t9.5 3.5h27q6 0 9 -4t3 -17v-159z" />
    <glyph glyph-name="afii10042" unicode="&#x428;" horiz-adv-x="816" 
d="M743 19q0 -19 -16 -19h-636q-18 0 -18 19v628q0 17 18 17h43q16 0 16 -17v-574h221v572q0 11 4.5 14.5t13.5 3.5h44q8 0 12.5 -3.5t4.5 -14.5v-572h216v574q0 17 18 17h43q16 0 16 -17v-628z" />
    <glyph glyph-name="afii10043" unicode="&#x429;" horiz-adv-x="816" 
d="M716 0h-625q-18 0 -18 19v628q0 17 18 17h43q16 0 16 -17v-574h221v572q0 11 4.5 14.5t13.5 3.5h44q8 0 12.5 -3.5t4.5 -14.5v-573h216v575q0 17 18 17h43q16 0 16 -17v-573l42 -4q11 -2 12.5 -9.5t1.5 -11.5l-10 -176q-1 -13 -4 -17t-9 -4h-40q-8 0 -10.5 4t-3.5 17z
" />
    <glyph glyph-name="afii10047" unicode="&#x42d;" horiz-adv-x="538" 
d="M248 -8q-15 0 -37 1t-47 4t-50 8t-45 13q-11 5 -13 10t0 12l6 28q2 5 5.5 9t13.5 2q33 -5 77.5 -9.5t89.5 -4.5q54 0 89 19.5t55.5 52.5t29 77.5t9.5 94.5h-250q-17 0 -17 16v39q0 16 17 16h249q-2 44 -9 83.5t-24 69t-48.5 47t-82.5 17.5q-46 0 -83.5 -4.5t-73.5 -9.5
q-11 -2 -14.5 2.5t-5.5 9.5l-5 26q-2 8 -0.5 13t11.5 9q18 7 41.5 12.5t47.5 8.5t45.5 4.5t36.5 1.5q82 0 131 -27.5t74.5 -73.5t33.5 -106t8 -125q0 -66 -11 -128.5t-40.5 -110.5t-81 -77.5t-132.5 -29.5z" />
    <glyph glyph-name="afii10053" unicode="&#x404;" horiz-adv-x="526" 
d="M316 -8q-81 0 -131 29.5t-77 77.5t-36.5 110.5t-9.5 128.5q0 65 10 125t38 106t77.5 73.5t128.5 27.5q15 0 38 -1.5t49 -4.5t51 -8.5t43 -12.5q10 -4 11.5 -9t-0.5 -13l-5 -26q-2 -5 -5.5 -9.5t-14.5 -2.5q-36 5 -80 9.5t-90 4.5q-49 0 -80.5 -17.5t-50.5 -47t-27 -69
t-10 -83.5h249q17 0 17 -16v-39q0 -16 -17 -16h-250q1 -50 8 -94.5t25.5 -77.5t51.5 -52.5t87 -19.5q45 0 89.5 4.5t77.5 9.5q10 2 13.5 -2t5.5 -9l5 -28q2 -7 0.5 -12t-12.5 -10q-20 -8 -45 -13t-50 -8t-47 -4t-37 -1z" />
    <glyph glyph-name="afii10145" unicode="&#x40f;" horiz-adv-x="596" 
d="M337 -131q-1 -13 -5.5 -17t-10.5 -4h-41q-8 0 -12 2.5t-5 15.5l-6 134h-166q-9 0 -13.5 3.5t-4.5 14.5v628q0 17 18 17h43q16 0 16 -17v-574h297v574q0 17 18 17h43q16 0 16 -17v-628q0 -11 -4 -14.5t-12 -3.5h-165z" />
    <glyph glyph-name="afii10048" unicode="&#x42e;" horiz-adv-x="787" 
d="M725 341q0 -40 -2 -81t-10 -80t-24 -73.5t-43.5 -60t-69.5 -40.5t-101 -15q-83 0 -131.5 29t-73 75.5t-31.5 104.5t-8 115h-81v-298q0 -17 -16 -17h-43q-18 0 -18 17v628q0 11 4.5 14.5t13.5 3.5h43q8 0 12 -3.5t4 -14.5v-258h82q3 46 12.5 96t35.5 92t72.5 69t122.5 27
q85 0 135 -29t75.5 -75.5t32.5 -105.5t7 -120zM647 331q0 65 -7 116t-26 85.5t-52.5 52.5t-86.5 18q-50 0 -82 -19t-50 -54.5t-25 -85.5t-7 -113q0 -61 6.5 -110.5t24.5 -85t50 -55t83 -19.5t84 18.5t52.5 53t27.5 85t8 113.5z" />
    <glyph glyph-name="afii10029" unicode="&#x41b;" horiz-adv-x="586" 
d="M215 370q-5 -74 -9 -142t-20 -120.5t-52 -83.5t-106 -32q-14 0 -18 4t-4 14l-1 28q0 8 2.5 10.5t11.5 4.5q27 5 45.5 13t31 22t19.5 37t12 59t8 87t8 122l16 252q0 11 4.5 14.5t13.5 3.5h323q8 0 12 -3.5t4 -14.5v-628q0 -17 -16 -17h-43q-18 0 -18 17v574h-210z" />
    <glyph glyph-name="afii10058" unicode="&#x409;" horiz-adv-x="867" 
d="M418 590h-189l-14 -220q-5 -74 -9 -142t-20 -120.5t-52 -83.5t-106 -32q-14 0 -18 4t-4 14l-1 28q0 8 2.5 10.5t11.5 4.5q27 5 45.5 13t31 22t19.5 37t12 59t8 87t8 122l16 252q0 11 4.5 14.5t13.5 3.5l302 -1q17 0 17 -17v-256h156q60 0 99 -18t61.5 -46.5t31 -63.5
t8.5 -69q0 -48 -16.5 -84t-44.5 -60t-65.5 -36t-79.5 -12h-210q-18 0 -18 16v574zM775 193q0 25 -5.5 48t-19.5 40.5t-38.5 28t-62.5 10.5h-153v-250h144q61 0 98 30t37 93z" />
    <glyph glyph-name="afii10037" unicode="&#x423;" horiz-adv-x="535" 
d="M275 232l85 225l74 194q4 7 8 9.5t13 2.5h49q16 0 9 -15l-203 -507q-17 -37 -31.5 -65t-31 -46.5t-37 -28t-48.5 -10.5q-14 0 -29.5 1t-33.5 5q-21 4 -18 22l4 27q2 15 18 14q27 -1 44.5 0.5t29.5 8t21 18t18 31.5l16 32l-205 499q-2 5 0 9t8 4h59q9 0 12.5 -3t6.5 -9
l78 -202l81 -216h3z" />
    <glyph glyph-name="afii10024" unicode="&#x416;" horiz-adv-x="843" 
d="M460 17q0 -17 -16 -17h-43q-18 0 -18 17v285h-92q-19 0 -37 -4t-33.5 -15t-29 -31t-23.5 -53l-53 -180q-4 -11 -9.5 -15t-15.5 -4h-39q-17 0 -19.5 6.5t1.5 18.5l56 187q14 49 36.5 83.5t64.5 47.5q-31 11 -56 43.5t-39 81.5l-52 169q-4 12 -1.5 18.5t19.5 6.5h34
q10 0 15.5 -4t9.5 -15l54 -173q10 -33 24.5 -52t30.5 -29t33.5 -13t33.5 -3h87v272q0 11 4.5 14.5t13.5 3.5h43q8 0 12 -3.5t4 -14.5v-272h87q16 0 33.5 3t33.5 13t30.5 29t24.5 52l54 173q4 11 9.5 15t15.5 4h34q17 0 19.5 -6.5t-1.5 -18.5l-52 -169q-14 -49 -39 -81.5
t-56 -43.5q42 -13 64.5 -47.5t36.5 -83.5l56 -187q4 -12 1.5 -18.5t-19.5 -6.5h-39q-10 0 -15.5 4t-9.5 15l-53 180q-10 33 -23.5 53t-29 31t-33.5 15t-37 4h-92v-285z" />
    <glyph glyph-name="afii10021" unicode="&#x414;" horiz-adv-x="622" 
d="M518 0h-425l-6 -128q-1 -13 -4.5 -17t-12.5 -4h-38q-8 0 -10.5 4t-3.5 17l-7 173q-1 11 3.5 16.5t13.5 7.5l26 5q18 17 31 35.5t22 42t15 54t10 71.5l32 365q1 9 5.5 15t18.5 6h347q8 0 12 -3.5t4 -14.5v-572l36 -4q11 -2 12.5 -9.5t1.5 -11.5l-10 -176q-1 -13 -4 -17
t-9 -4h-40q-8 0 -10.5 4t-3.5 17zM474 72v519h-240l-25 -301q-4 -45 -8.5 -79.5t-11.5 -60t-17 -44.5t-24 -34h326z" />
    <glyph glyph-name="afii10059" unicode="&#x40a;" horiz-adv-x="848" 
d="M823 192q0 -48 -16.5 -84t-44.5 -60t-65.5 -36t-79.5 -12h-210q-18 0 -18 16v299h-240v-298q0 -17 -16 -17h-43q-18 0 -18 17v628q0 11 4.5 14.5t13.5 3.5h43q8 0 12 -3.5t4 -14.5v-258h240v258q0 17 18 17h43q17 0 17 -17v-258h151q63 0 102.5 -17.5t62.5 -45.5
t31.5 -63t8.5 -69zM746 193q0 25 -5.5 47.5t-19.5 39t-38.5 26t-62.5 9.5h-153v-245h144q61 0 98 30t37 93z" />
    <glyph glyph-name="afii10041" unicode="&#x427;" horiz-adv-x="561" 
d="M411 647q0 6 3 11t14 5h43q18 0 18 -16v-630q0 -17 -18 -17h-43q-17 0 -17 17v281q-18 -8 -42.5 -13t-49.5 -9t-48.5 -5.5t-40.5 -1.5q-58 0 -94 16.5t-56.5 42.5t-28 59t-7.5 65v193q0 11 4 14.5t13 3.5h44q8 0 12.5 -3.5t4.5 -14.5v-175q0 -25 4.5 -48t18 -40.5
t37.5 -28t62 -10.5t83 4.5t84 16.5v283z" />
    <glyph glyph-name="afii10067" unicode="&#x432;" horiz-adv-x="486" 
d="M444 140q0 -32 -12.5 -57.5t-34 -44t-50.5 -28.5t-62 -10h-206q-15 0 -20.5 5t-5.5 15v449q0 11 5 14.5t17 3.5h197q84 0 121 -35t37 -93q0 -11 -2.5 -24.5t-8.5 -27.5t-17.5 -27t-29.5 -23q21 -9 35 -23.5t22 -30.5t11.5 -32.5t3.5 -30.5zM367 143q0 30 -19 54t-65 24
h-154v-151h139q30 0 49 7.5t30 18.5t15.5 23.5t4.5 23.5zM129 286h148q35 0 56 20t21 49q0 24 -18.5 44t-68.5 20h-138v-133z" />
    <glyph glyph-name="afii10068" unicode="&#x433;" horiz-adv-x="421" 
d="M406 438q0 -20 -23 -20h-252v-398q0 -11 -4.5 -15.5t-16.5 -4.5h-31q-24 0 -24 20v447q0 20 24 20h305q22 0 22 -20v-29v0z" />
    <glyph glyph-name="afii10069" unicode="&#x434;" horiz-adv-x="560" 
d="M412 417h-189l-21 -158q-7 -51 -12.5 -82.5t-11.5 -51t-12 -31t-15 -24.5h261v347zM487 69l33 -4q10 -2 12.5 -8t1.5 -13l-10 -156q-1 -13 -4 -17t-9 -4h-37q-8 0 -10.5 4t-3.5 17l-4 112h-369l-8 -112q-1 -13 -4 -17t-9 -4h-38q-8 0 -10.5 4t-3.5 17l-3 154
q-1 11 3.5 15t13.5 6l26 4q32 17 45 52t23 92l35 231q4 24 17.5 34.5t40.5 10.5h246q14 0 20 -7t6 -18v-393z" />
    <glyph glyph-name="afii10072" unicode="&#x436;" horiz-adv-x="674" 
d="M375 14q0 -14 -14 -14h-47q-15 0 -15 14v199h-51q-16 0 -32 -2.5t-30 -10.5t-26.5 -24.5t-21.5 -43.5l-38 -116q-3 -10 -8 -13t-13 -3h-41q-14 0 -16 5.5t1 15.5l42 128q7 20 13.5 36.5t16 29.5t22 22.5t31.5 16.5q-26 8 -42.5 36t-30.5 69l-36 107q-4 11 -1.5 16t16.5 5
h37q8 0 13 -3t8 -13l38 -110q9 -27 21 -43.5t25.5 -24.5t27.5 -10.5t28 -2.5h47v192q0 9 3.5 12t11.5 3h47q8 0 11 -3t3 -12v-192h47q13 0 27.5 2.5t28 10.5t25.5 24.5t21 43.5l38 110q3 10 8 13t13 3h37q14 0 16.5 -5t-1.5 -16l-36 -107q-14 -41 -30.5 -69t-42.5 -36
q19 -7 31.5 -16.5t22 -22.5t16 -29.5t13.5 -36.5l42 -128q3 -10 1 -15.5t-16 -5.5h-41q-8 0 -13 3t-8 13l-38 116q-9 27 -21.5 43.5t-26.5 24.5t-30 10.5t-32 2.5h-51v-199z" />
    <glyph glyph-name="afii10073" unicode="&#x437;" horiz-adv-x="411" 
d="M9 59q2 10 8 12t14 0q33 -4 67.5 -7t61.5 -3t50 3t40.5 12t27 26t9.5 45q0 23 -8.5 39t-22.5 25.5t-32.5 14t-38.5 4.5h-33q-9 0 -12.5 2.5t-3.5 11.5v34q0 8 3 10.5t13 2.5h31q16 0 33 3.5t30.5 11t22 20.5t8.5 32q0 22 -8 35.5t-21.5 21.5t-31 11t-36.5 3
q-28 0 -59.5 -3t-63.5 -5q-12 -2 -17 1t-7 12l-4 24q-1 8 2 11.5t9 6.5q13 6 32 10.5t39.5 7t40 3.5t34.5 1q31 0 61.5 -5t55 -19.5t39.5 -40t15 -66.5q0 -32 -19 -60.5t-56 -40.5v-2q44 -14 65.5 -44t21.5 -68q0 -45 -16 -76t-43 -49.5t-62.5 -26.5t-74.5 -8q-16 0 -37.5 1
t-44 4t-43 8t-33.5 13q-13 7 -10 21z" />
    <glyph glyph-name="afii10074" unicode="&#x438;" horiz-adv-x="517" 
d="M55 466q0 12 4.5 16.5t15.5 4.5h33q12 0 17 -4.5t5 -16.5v-335l107 144l152 197q5 6 10 10.5t17 4.5h25q21 0 21 -19v-448q0 -20 -22 -20h-30q-23 0 -23 20v352l-89 -122l-178 -235q-5 -7 -11 -11t-17 -4h-17q-20 0 -20 20v446z" />
    <glyph glyph-name="afii10077" unicode="&#x43b;" horiz-adv-x="508" 
d="M430 487q11 0 17 -4.5t6 -16.5v-446q0 -20 -21 -20h-33q-21 0 -21 20v398h-178l-21 -250q-3 -37 -9 -68.5t-21.5 -55.5t-44 -38t-77.5 -15q-14 0 -18 3.5t-4 12.5v27q0 8 2.5 10t10.5 4q25 5 41.5 12.5t26.5 22.5t15.5 41t9.5 68l24 246q3 28 17 38.5t41 10.5h237z" />
    <glyph glyph-name="afii10078" unicode="&#x43c;" horiz-adv-x="599" 
d="M465 324l-58 -110l-70 -127q-9 -14 -24 -14h-25q-11 0 -16 3t-8 10l-66 120l-65 119h-3v-305q0 -20 -22 -20h-32q-21 0 -21 20v448q0 19 20 19h33q11 0 16.5 -3.5t9.5 -11.5q26 -45 50.5 -90.5t49.5 -91.5q17 -31 34 -63.5t34 -63.5l72 134l96 174q4 7 10.5 11.5
t16.5 4.5h28q19 0 19 -19v-448q0 -20 -21 -20h-32q-22 0 -22 20v304h-4z" />
    <glyph glyph-name="afii10079" unicode="&#x43d;" horiz-adv-x="514" 
d="M459 20q0 -20 -22 -20h-29q-24 0 -24 20v205h-254v-205q0 -20 -22 -20h-31q-22 0 -22 20v446q0 12 5.5 16.5t16.5 4.5h31q11 0 16.5 -4.5t5.5 -16.5v-174h254v174q0 12 6.5 16.5t17.5 4.5h29q11 0 16.5 -4.5t5.5 -16.5v-446v0z" />
    <glyph glyph-name="afii10084" unicode="&#x442;" horiz-adv-x="421" 
d="M410 439q0 -11 -4.5 -16t-18.5 -5h-138v-398q0 -20 -22 -20h-29q-24 0 -24 20v398h-139q-14 0 -19 5t-5 16v28q0 20 23 20h354q13 0 17.5 -5t4.5 -15v-28v0z" />
    <glyph glyph-name="afii10086" unicode="&#x444;" horiz-adv-x="636" 
d="M45 237q0 43 9.5 88.5t35.5 82.5t72 61t120 26v151q0 17 17 17h38q9 0 13.5 -3t4.5 -14v-151q73 -2 119.5 -24.5t72 -57.5t35 -79.5t9.5 -90.5q0 -112 -59 -179.5t-177 -72.5v-152q0 -6 -3 -10.5t-11 -4.5h-42q-17 0 -17 17v150q-119 5 -178 69.5t-59 176.5zM122 237
q0 -170 160 -179v368q-48 0 -79 -15.5t-49 -41.5t-25 -60.5t-7 -71.5zM514 237q0 37 -7 71.5t-24.5 60.5t-48.5 41.5t-79 15.5v-368q159 9 159 179z" />
    <glyph glyph-name="afii10088" unicode="&#x446;" horiz-adv-x="520" 
d="M444 72l36 -3q11 -1 13 -7.5t1 -13.5l-10 -153q-1 -13 -4 -17t-9 -4h-38q-8 0 -10.5 4t-3.5 17l-3 105h-339q-10 0 -16 4.5t-6 16.5v446q0 20 22 20h32q21 0 21 -20v-397h238v397q0 20 23 20h29q23 0 23 -20z" />
    <glyph glyph-name="afii10089" unicode="&#x447;" horiz-adv-x="473" 
d="M30 470q0 17 18 17h42q17 0 17 -17v-119q0 -32 4 -53t13 -33t24.5 -17t38.5 -5q18 0 40.5 5.5t44.5 13t41 15.5t30 14v179q0 17 18 17h41q16 0 16 -17v-452q0 -17 -16 -17h-41q-18 0 -18 17v210l-1 1q-12 -8 -30.5 -17.5t-40.5 -18t-46.5 -14t-49.5 -5.5
q-49 0 -77.5 13.5t-43.5 36t-19.5 51.5t-4.5 61v134v0z" />
    <glyph glyph-name="afii10090" unicode="&#x448;" horiz-adv-x="685" 
d="M630 22q0 -22 -20 -22h-533q-22 0 -22 22v444q0 12 6 16.5t16 4.5h31q11 0 16.5 -4.5t5.5 -16.5v-396h178v396q0 12 5.5 16.5t17.5 4.5h29q11 0 17 -4.5t6 -16.5v-396h172v396q0 12 6.5 16.5t17.5 4.5h31q11 0 15.5 -4.5t4.5 -16.5v-444z" />
    <glyph glyph-name="afii10091" unicode="&#x449;" horiz-adv-x="706" 
d="M602 0h-525q-22 0 -22 22v444q0 12 6 16.5t16 4.5h31q11 0 16.5 -4.5t5.5 -16.5v-396h178v396q0 12 5.5 16.5t17.5 4.5h29q11 0 17 -4.5t6 -16.5v-396h172v396q0 12 6.5 16.5t17.5 4.5h31q11 0 15.5 -4.5t4.5 -16.5v-395l36 -3q11 -1 13 -7.5t1 -13.5l-9 -155
q-1 -13 -4 -17t-9 -4h-38q-8 0 -10.5 4t-3.5 17z" />
    <glyph glyph-name="afii10092" unicode="&#x44a;" horiz-adv-x="568" 
d="M158 418h-131q-14 0 -18.5 4.5t-4.5 15.5v30q0 11 4.5 15t17.5 4h185q22 0 22 -20v-170h143q46 0 77 -12.5t50 -33t27 -47.5t8 -55q0 -36 -13.5 -64t-37 -47t-55 -28.5t-67.5 -9.5h-182q-25 0 -25 20v398zM464 149q0 33 -18.5 55.5t-72.5 22.5h-140v-157h133
q44 0 71 19.5t27 59.5z" />
    <glyph glyph-name="afii10093" unicode="&#x44b;" horiz-adv-x="622" 
d="M567 20q0 -20 -22 -20h-31q-23 0 -23 20v446q0 12 6 16.5t17 4.5h31q11 0 16.5 -4.5t5.5 -16.5v-446zM361 149q0 33 -18.5 55.5t-62.5 22.5h-150v-157h143q38 0 63 19.5t25 59.5zM435 149q0 -36 -13.5 -64t-36 -47t-52 -28.5t-61.5 -9.5h-192q-25 0 -25 20v447
q0 20 25 20h28q22 0 22 -20v-170h153q42 0 71 -12.5t47 -33t26 -47.5t8 -55z" />
    <glyph glyph-name="afii10094" unicode="&#x44c;" horiz-adv-x="465" 
d="M361 149q0 33 -18.5 55.5t-62.5 22.5h-150v-157h143q38 0 63 19.5t25 59.5zM435 149q0 -36 -13.5 -64t-36 -47t-52 -28.5t-61.5 -9.5h-192q-25 0 -25 20v447q0 20 25 20h28q22 0 22 -20v-170h153q42 0 71 -12.5t47 -33t26 -47.5t8 -55z" />
    <glyph glyph-name="afii10095" unicode="&#x44d;" horiz-adv-x="434" 
d="M30 59q2 10 7.5 12t14.5 1q15 -2 34 -3.5t37.5 -3t36 -2.5t29.5 -1q31 0 53 7.5t36 26.5t21 49.5t9 77.5h-197q-12 0 -16.5 3.5t-4.5 15.5v28q0 11 4.5 14.5t16.5 3.5h196q-4 79 -30.5 111t-87.5 32q-27 0 -59 -3.5t-63 -6.5q-9 -1 -16.5 1t-9.5 10l-4 23q-1 6 0.5 12
t9.5 9q16 7 35.5 11.5t39.5 7t39.5 3.5t34.5 1q66 0 104.5 -21t58 -56t25 -80t5.5 -93q0 -57 -8 -103.5t-30 -80.5t-61.5 -52.5t-101.5 -18.5q-38 0 -80.5 5t-70.5 18q-14 7 -11 21z" />
    <glyph glyph-name="afii10096" unicode="&#x44e;" horiz-adv-x="633" 
d="M587 252q0 -41 -3.5 -86.5t-22 -84t-59 -64t-114.5 -25.5q-66 0 -104.5 21.5t-57.5 55t-24.5 75t-5.5 81.5h-66v-205q0 -20 -21 -20h-32q-22 0 -22 20v446q0 12 6 16.5t16 4.5h32q10 0 15.5 -4.5t5.5 -16.5v-174h66q1 31 9 66.5t28.5 66.5t57.5 51.5t97 20.5
q69 0 109 -22.5t60 -58t25 -79t5 -85.5zM509 245q0 42 -3.5 76t-16 57.5t-36.5 36.5t-65 13q-39 0 -61.5 -13t-34.5 -37t-15.5 -58t-3.5 -75q0 -45 3.5 -79t15.5 -57.5t34.5 -35t61.5 -11.5q41 0 65 12.5t36.5 35.5t16 57t3.5 78z" />
    <glyph glyph-name="afii10097" unicode="&#x44f;" horiz-adv-x="494" 
d="M50 339q0 36 13.5 64t36 47t52.5 28.5t63 9.5h199q25 0 25 -20v-447q0 -20 -25 -20h-28q-22 0 -22 20v178h-138q-29 -3 -48 -19t-34 -61l-34 -103q-3 -10 -8 -13t-13 -3h-41q-14 0 -16 5.5t1 15.5l38 115q8 26 19.5 48t33.5 34q-23 7 -37 20t-22.5 29.5t-11.5 35t-3 36.5
zM124 339q0 -33 20.5 -54t74.5 -21h145v154h-138q-44 0 -73 -19.5t-29 -59.5z" />
    <glyph glyph-name="afii10107" unicode="&#x45a;" horiz-adv-x="732" 
d="M707 149q0 -36 -13.5 -64t-37 -47t-55 -28.5t-67.5 -9.5h-182q-25 0 -25 20v208h-197v-208q0 -20 -21 -20h-31q-23 0 -23 20v446q0 12 6 16.5t17 4.5h31q11 0 16 -4.5t5 -16.5v-173h197v174q0 20 25 20h28q22 0 22 -20v-170h143q46 0 77 -12.5t50 -33t27 -47.5t8 -55z
M633 149q0 33 -18.5 55.5t-72.5 22.5h-140v-157h133q44 0 71 19.5t27 59.5z" />
    <glyph glyph-name="afii10106" unicode="&#x459;" horiz-adv-x="762" 
d="M200 418l-21 -250q-3 -37 -9 -68.5t-21.5 -55.5t-44 -38t-77.5 -15q-14 0 -18 3.5t-4 12.5v27q0 8 2.5 10t10.5 4q25 5 41.5 12.5t26.5 22.5t15.5 41t9.5 68l24 246q3 28 17 38.5t41 10.5h213q21 0 21 -20v-170h143q46 0 77 -12.5t50 -33t27 -47.5t8 -55q0 -36 -13.5 -64
t-37 -47t-55 -28.5t-67.5 -9.5h-182q-25 0 -25 20v399zM658 149q0 33 -18.5 55.5t-72.5 22.5h-140v-157h133q44 0 71 19.5t27 59.5z" />
    <glyph glyph-name="afii10193" unicode="&#x45f;" horiz-adv-x="510" 
d="M288 -112q-1 -13 -4 -17t-9 -4h-38q-8 0 -11 4t-3 17l-6 112h-140q-11 0 -16.5 4.5t-5.5 16.5v446q0 20 22 20h31q22 0 22 -20v-397h249v397q0 20 24 20h30q22 0 22 -20v-446q0 -12 -5.5 -16.5t-16.5 -4.5h-139z" />
    <glyph glyph-name="afii10101" unicode="&#x454;" horiz-adv-x="439" 
d="M408 36q3 -14 -11 -21q-28 -13 -70.5 -18t-80.5 -5q-66 0 -105.5 18.5t-61 52.5t-28 80.5t-6.5 103.5q0 48 6.5 93t28 80t61 56t105.5 21q15 0 35 -1t40.5 -3.5t40.5 -7t36 -11.5q8 -3 9.5 -9t0.5 -12l-4 -23q-2 -8 -9.5 -10t-16.5 -1q-31 3 -68.5 6.5t-64.5 3.5
q-31 0 -52.5 -7.5t-35.5 -24.5t-21 -44t-9 -67h196q12 0 16.5 -3.5t4.5 -14.5v-28q0 -12 -4.5 -15.5t-16.5 -3.5h-197q1 -47 8.5 -77.5t21.5 -49.5t36 -26.5t53 -7.5q12 0 29.5 1t36 2.5t37.5 3t34 3.5q9 1 14.5 -1t7.5 -12l4 -21v0z" />
    <glyph glyph-name="afii10098" unicode="&#x491;" horiz-adv-x="420" 
d="M404 443q0 -9 -2 -16.5t-13 -7.5h-245v-399q0 -11 -4.5 -15.5t-16.5 -4.5h-30q-24 0 -24 20v447q0 20 24 20h251l16 99q2 10 4.5 11.5t6.5 1.5h22q11 0 11 -13v-143z" />
    <glyph glyph-name="afii61352" unicode="&#x2116;" horiz-adv-x="915" 
d="M868 242q0 -18 -18 -18h-235q-11 0 -14.5 5t-3.5 13v25q0 19 19 19h233q19 0 19 -19v-25zM524 16q0 -16 -16 -16h-38q-11 0 -16 4t-10 12l-185 315l-110 191h-3v-505q0 -17 -17 -17h-41q-18 0 -18 17v631q0 15 16 15h41q11 0 15.5 -4.5t9.5 -11.5l174 -293l120 -205h3
v496q0 11 4 14.5t13 3.5h42q8 0 12 -3.5t4 -14.5v-629zM875 505q0 -29 -3.5 -60t-18 -56t-44 -41t-81.5 -16q-51 0 -79.5 16t-42.5 41t-17 56t-3 60q0 24 4 52t18.5 52.5t42.5 41t77 16.5q48 0 77 -14t44.5 -37t20.5 -52t5 -59zM812 500q0 28 -3.5 49t-12.5 35t-25.5 21
t-42.5 7q-49 0 -64.5 -27.5t-15.5 -84.5t15.5 -84.5t64.5 -27.5q52 0 68 27.5t16 84.5z" />
    <glyph glyph-name="afii10060" unicode="&#x40b;" horiz-adv-x="688" 
d="M641 17q0 -17 -18 -17h-40q-17 0 -17 17v265q0 32 -7 52t-20.5 31.5t-32.5 16t-42 4.5t-50.5 -7.5t-53.5 -17.5t-47.5 -20.5t-33.5 -16.5v-307q0 -17 -16 -17h-43q-18 0 -18 17v574h-167q-18 0 -18 17v39q0 16 17 16h494q17 0 17 -16v-39q0 -17 -18 -17h-248v-197
q12 8 34 19t48.5 20.5t56 16.5t58.5 7q54 0 86.5 -14t50 -38.5t23 -58.5t5.5 -74v-255v0z" />
    <glyph glyph-name="afii10051" unicode="&#x402;" horiz-adv-x="712" 
d="M279 17q0 -17 -16 -17h-43q-18 0 -18 17v574h-167q-18 0 -18 17v39q0 16 17 16h499q17 0 17 -16v-39q0 -17 -18 -17h-253v-195q108 58 189 58q88 0 137.5 -57t49.5 -163q0 -71 -17.5 -137t-65.5 -125q-8 -10 -20.5 -21.5t-27.5 -23t-32 -22t-33 -16.5q-13 -5 -16 -3
t-8 11l-11 22q-7 13 6 19q83 51 115.5 125.5t32.5 177.5q0 78 -33.5 111.5t-85.5 33.5q-40 0 -87 -16.5t-93 -45.5v-307z" />
    <glyph glyph-name="afii10099" unicode="&#x452;" horiz-adv-x="550" 
d="M84 607v81q0 17 16 17h41q18 0 18 -17v-81h206q11 0 14 -4.5t3 -12.5v-27q0 -9 -3 -13t-14 -4h-206v-128q43 23 84 34t78 12q40 0 74 -13t58.5 -41t38 -71.5t13.5 -103.5q0 -46 -11.5 -92.5t-35.5 -89t-62 -79t-90 -61.5q-13 -6 -18 -3.5t-10 11.5l-11 21q-7 13 6 19
q73 44 112.5 111.5t39.5 172.5q0 42 -9.5 70.5t-26 46.5t-38 25.5t-46.5 7.5q-36 0 -74.5 -12.5t-71.5 -30.5v-335q0 -17 -16 -17h-41q-18 0 -18 17v529h-50q-17 0 -17 17v26q0 18 17 18h50z" />
    <glyph glyph-name="afii10108" unicode="&#x45b;" horiz-adv-x="525" 
d="M467 17q0 -17 -18 -17h-42q-17 0 -17 17l1 285q0 32 -4 52.5t-13.5 32.5t-25 16.5t-38.5 4.5q-18 0 -42 -7t-48 -16t-45 -18.5t-32 -15.5v-334q0 -17 -18 -17h-41q-16 0 -16 17v528h-50q-17 0 -17 17v26q0 18 17 18h50v82q0 17 16 17h41q18 0 18 -17v-82h212
q11 0 14 -4.5t3 -12.5v-27q0 -9 -3 -13t-14 -4h-212v-130v-1q0 -1 1 -1q12 8 31.5 19t43 21t50 17t53.5 7q49 0 77.5 -14t43.5 -38.5t19.5 -58.5t4.5 -74v-275v0z" />
    <glyph glyph-name="afii10066" unicode="&#x431;" horiz-adv-x="503" 
d="M51 220q0 88 5 161t24.5 129.5t58 95.5t105.5 60q39 11 84.5 20.5t79.5 16.5q9 2 12.5 1t5.5 -9l8 -31q6 -19 -11 -23q-38 -8 -67.5 -15t-55.5 -13q-47 -12 -77.5 -28t-50 -40t-29 -57.5t-13.5 -79.5q1 0 2 -1q25 31 63 44.5t84 13.5q51 0 86 -18t56.5 -49.5t30.5 -74.5
t9 -92q0 -42 -7.5 -85t-30 -77t-63.5 -55.5t-109 -21.5q-63 0 -102 20t-61 52.5t-29.5 73.5t-7.5 82zM266 397q-47 0 -74.5 -16.5t-41.5 -42.5t-18.5 -57.5t-4.5 -61.5q0 -29 4 -57t17.5 -50.5t38.5 -36t67 -13.5q43 0 68.5 14t39 36.5t17.5 52t4 61.5q0 33 -4 64t-16.5 55
t-35.5 38t-61 14z" />
    <glyph glyph-name="Hbar" unicode="&#x126;" horiz-adv-x="595" 
d="M523 17q0 -17 -16 -17h-43q-18 0 -18 17v298h-297v-298q0 -17 -16 -17h-43q-18 0 -18 17v471h-55q-14 0 -14 14v28q0 15 15 15h54v100q0 11 4.5 14.5t13.5 3.5h43q8 0 12 -3.5t4 -14.5v-100h297v100q0 11 4.5 14.5t13.5 3.5h43q8 0 12 -3.5t4 -14.5v-100h57q15 0 15 -15
v-28q0 -14 -14 -14h-58v-471zM446 387v101h-297v-101h297z" />
    <glyph glyph-name="hbar" unicode="&#x127;" horiz-adv-x="525" 
d="M467 17q0 -17 -18 -17h-41q-17 0 -17 17v285q0 32 -4 52.5t-13.5 32.5t-25 16.5t-38.5 4.5q-18 0 -42 -7t-48 -16t-45 -18.5t-32 -15.5v-334q0 -17 -18 -17h-41q-16 0 -16 17v528h-50q-17 0 -17 17v26q0 18 17 18h50v82q0 17 16 17h41q18 0 18 -17v-82h212q11 0 14 -4.5
t3 -12.5v-27q0 -9 -3 -13t-14 -4h-212v-130v-1q0 -1 1 -1q12 8 31.5 19t43 21t50 17t53.5 7q49 0 77.5 -14t43.5 -38.5t19.5 -58.5t4.5 -74v-275v0z" />
    <glyph glyph-name="kappa" unicode="&#x3ba;" horiz-adv-x="446" 
d="M257 307l184 -289q4 -6 1 -12t-11 -6h-52q-9 0 -13.5 3.5t-9.5 10.5l-152 241l-67 -65v-173q0 -17 -18 -17h-41q-17 0 -17 17v453q0 17 17 17h41q18 0 18 -17v-185l2 -1l197 191q6 6 11 9.5t13 3.5h54q11 0 13 -6t-4 -13z" />
    <glyph glyph-name="Tbar" unicode="&#x166;" horiz-adv-x="481" 
d="M465 608q0 -17 -18 -17h-168v-192h141q15 0 15 -15v-28q0 -14 -14 -14h-142v-325q0 -17 -16 -17h-43q-18 0 -18 17v325h-139q-14 0 -14 14v28q0 15 15 15h138v192h-167q-18 0 -18 17v39q0 16 17 16h414q17 0 17 -16v-39v0z" />
    <glyph glyph-name="tbar" unicode="&#x167;" horiz-adv-x="323" 
d="M326 31q1 -13 -9 -19q-9 -5 -23.5 -8.5t-31 -6t-32 -4t-26.5 -1.5q-32 0 -53 7.5t-33 21.5t-17 33.5t-5 43.5v162h-53q-14 0 -14 14v28q0 15 15 15h52v107h-55q-17 0 -17 17v28q0 18 17 18h56v108q0 9 4.5 13t12.5 6l40 11q17 5 17 -15v-123h111q11 0 14 -4.5t3 -12.5
v-29q0 -9 -3 -13t-14 -4h-111v-107h97q15 0 15 -15v-28q0 -14 -14 -14h-98v-139q0 -18 2.5 -29t10.5 -18t21.5 -9.5t36.5 -2.5q8 0 27.5 1.5t30.5 2.5q12 1 16 -1.5t6 -10.5z" />
    <glyph glyph-name="Eng" unicode="&#x14a;" horiz-adv-x="629" 
d="M556 -60q0 -24 -6 -45.5t-20.5 -37t-38 -24.5t-58.5 -9q-10 0 -26.5 2.5t-27.5 7.5q-9 4 -6 15l6 36q2 8 5.5 9.5t9.5 0.5q50 -4 68 7t18 47v62l-271 417l-58 95h-3v-506q0 -17 -17 -17h-41q-18 0 -18 17v631q0 15 16 15h41q11 0 15.5 -4.5t9.5 -11.5l271 -418l53 -84h3
v500q0 11 4 14.5t13 3.5h42q8 0 12 -3.5t4 -14.5v-705z" />
    <glyph glyph-name="eng" unicode="&#x14b;" horiz-adv-x="505" 
d="M452 -60q0 -24 -6 -45.5t-20.5 -37t-38 -24.5t-58.5 -9q-10 0 -26.5 2.5t-27.5 7.5q-9 4 -6 15l6 36q2 8 5.5 9.5t9.5 0.5q50 -4 68 7t18 47v364q0 34 -4 56.5t-13.5 35.5t-25 18t-38.5 5q-18 0 -42 -7t-48 -16t-45 -18.5t-32 -15.5v-354q0 -17 -18 -17h-41q-16 0 -16 17
v453q0 17 16 17h41q9 0 13.5 -3t4.5 -14v-36q0 -1 1 -1h2q12 8 31 19t42.5 21t49.5 17t53 7q49 0 77.5 -14t43.5 -38.5t19.5 -58.5t4.5 -74v-372z" />
    <glyph glyph-name="Circumflex" unicode="&#xf6c0;" horiz-adv-x="548" 
d="M406 702q-8 -6 -16 -1l-119 84l-116 -85q-7 -5 -10 -5.5t-8 4.5l-19 20q-6 6 0 13l103 97q8 6 13.5 8.5t13.5 2.5h47q11 0 17 -2.5t12 -7.5l100 -94q10 -9 1 -16z" />
    <glyph glyph-name="commaaccent" unicode="&#xf6c3;" horiz-adv-x="604" 
d="M387 -122q0 -52 -24 -86t-54 -53q-3 -2 -8 -4t-8 1l-14 14q-4 5 4 13q18 16 25.5 34t7.5 37q0 18 -7 31.5t-18 26.5q-3 4 -3 9.5t7 11.5l38 27q7 5 13.5 4.5t11.5 -5.5q15 -14 22 -30.5t7 -30.5z" />
    <glyph glyph-name="Acute" unicode="&#xf6c9;" horiz-adv-x="548" 
d="M419 793q5 -6 1.5 -9.5t-6.5 -5.5l-139 -75q-8 -4 -15 3l-21 23q-6 6 4 13l128 95q7 6 16 -5l32 -39v0z" />
    <glyph glyph-name="Caron" unicode="&#xf6ca;" horiz-adv-x="505" 
d="M239 703q-11 0 -17.5 3t-11.5 7l-103 94q-8 10 -1 16l20 18q8 6 16 1l121 -84l116 82q7 5 10 5.5t8 -4.5l19 -17q6 -6 0 -13l-103 -97q-13 -11 -27 -11h-47v0z" />
    <glyph glyph-name="Dieresis" unicode="&#xf6cb;" horiz-adv-x="598" 
d="M399 758q0 -18 -7.5 -30.5t-33.5 -12.5q-28 0 -34.5 13t-6.5 30t7.5 29t33.5 12t33.5 -11t7.5 -30zM227 758q0 -18 -7.5 -30.5t-33.5 -12.5q-28 0 -34.5 13t-6.5 30t7.5 29t33.5 12t33.5 -11t7.5 -30z" />
    <glyph glyph-name="DieresisAcute" unicode="&#xf6cc;" horiz-adv-x="548" 
d="M434 756q0 -18 -7.5 -31t-33.5 -13q-28 0 -35 13.5t-7 30.5t8 29t34 12t33.5 -11.5t7.5 -29.5zM205 756q0 -18 -7.5 -31t-33.5 -13q-28 0 -35 13.5t-7 30.5t8 29t34 12t33.5 -11.5t7.5 -29.5zM373 832q6 -5 4 -9.5t-5 -6.5l-114 -109q-6 -6 -16 -1l-26 17q-4 2 -3.5 5.5
t4.5 7.5l98 125q4 5 7.5 4.5t9.5 -4.5z" />
    <glyph glyph-name="DieresisGrave" unicode="&#xf6cd;" horiz-adv-x="548" 
d="M122 766q0 18 7.5 29.5t33.5 11.5t34 -12t8 -29t-7 -30.5t-35 -13.5q-26 0 -33.5 13t-7.5 31zM351 766q0 18 7.5 29.5t33.5 11.5t34 -12t8 -29t-7 -30.5t-35 -13.5q-26 0 -33.5 13t-7.5 31zM224 871q6 4 9.5 4.5t7.5 -4.5l98 -125q4 -4 4.5 -7.5t-3.5 -5.5l-26 -17
q-10 -5 -16 1l-114 109q-3 2 -5 6.5t4 9.5z" />
    <glyph glyph-name="Grave" unicode="&#xf6ce;" horiz-adv-x="548" 
d="M149 832q9 11 16 5l128 -95q10 -7 4 -13l-21 -23q-7 -7 -15 -3l-139 75q-3 2 -6.5 5.5t1.5 9.5z" />
    <glyph glyph-name="Hungarumlaut" unicode="&#xf6cf;" horiz-adv-x="607" 
d="M501 793q5 -6 1.5 -9.5t-6.5 -5.5l-139 -75q-8 -4 -15 3l-21 23q-6 6 4 13l128 95q7 6 16 -5zM350 793q5 -6 1.5 -9.5t-6.5 -5.5l-139 -75q-8 -4 -15 3l-21 23q-6 6 4 13l128 95q7 6 16 -5z" />
    <glyph glyph-name="Macron" unicode="&#xf6d0;" horiz-adv-x="548" 
d="M411 737q0 -12 -14 -12h-252q-14 0 -14 12v38q0 8 3.5 10.5t10.5 2.5h252q7 0 10.5 -2.5t3.5 -10.5v-38v0z" />
    <glyph glyph-name="cyrBreve" unicode="&#xf6d1;" horiz-adv-x="548" 
d="M267 700q-43 0 -82.5 22t-62.5 70q-2 4 -5 12.5t2 13.5l21 16q8 6 17 -3q15 -17 27 -30t25 -21.5t27.5 -12.5t32.5 -4q35 0 56 16.5t50 51.5q9 9 17 3l21 -14q5 -5 2 -13.5t-5 -12.5q-23 -48 -62 -71t-81 -23z" />
    <glyph glyph-name="cyrbreve" unicode="&#xf6d4;" horiz-adv-x="498" 
d="M263 554q-43 0 -82.5 22t-62.5 70q-2 4 -5 12.5t2 13.5l21 16q8 6 17 -3q15 -17 27 -30t25 -21.5t27.5 -12.5t32.5 -4q35 0 56 16.5t50 51.5q9 9 17 3l21 -14q5 -5 2 -13.5t-5 -12.5q-23 -48 -62 -71t-81 -23z" />
    <glyph glyph-name="ring" unicode="&#x2da;" horiz-adv-x="498" 
d="M275 713q21 0 38.5 -8t31 -21t21 -31t7.5 -37q0 -20 -7.5 -37.5t-21 -30.5t-31 -21t-38.5 -8q-20 0 -38 7.5t-31.5 20t-22 30.5t-8.5 39t8.5 39t22 30.5t31.5 20t38 7.5zM324 616q0 20 -14 35.5t-35 15.5q-20 0 -34 -15.5t-14 -35.5q0 -22 13 -36.5t35 -14.5
q21 0 35 14.5t14 36.5z" />
    <glyph glyph-name="Scaron" unicode="&#x160;" horiz-adv-x="526" 
d="M480 184q0 -54 -18 -91t-49.5 -59.5t-73 -32.5t-87.5 -10q-21 0 -47 2t-52 5.5t-50.5 8.5t-40.5 12q-11 5 -13 10t0 12l7 28q3 11 17 10q21 -3 46 -5.5t49.5 -4.5t46 -3t36.5 -1q75 0 113.5 28t38.5 79q0 34 -6.5 56.5t-22.5 37t-43 23t-67 15.5q-45 7 -84 17.5t-68 29
t-45.5 49.5t-16.5 81q0 92 55.5 140t158.5 48q15 0 37 -1t47 -4t50 -8t45 -13q11 -4 13 -9.5t0 -12.5l-6 -27q-2 -5 -5.5 -9t-13.5 -3q-33 5 -78 9.5t-89 4.5q-39 0 -65.5 -8t-42 -22.5t-22 -35.5t-6.5 -46q0 -30 7.5 -47.5t24.5 -28.5t44 -17.5t66 -13.5q43 -8 81.5 -18
t67 -30.5t45 -55t16.5 -89.5zM239 703q-11 0 -17.5 3t-11.5 7l-103 94q-8 10 -1 16l20 18q8 6 16 1l121 -84l116 82q7 5 10 5.5t8 -4.5l19 -17q6 -6 0 -13l-103 -97q-13 -11 -27 -11h-47z" />
    <glyph glyph-name="Zcaron" unicode="&#x17d;" horiz-adv-x="488" 
d="M454 17q0 -17 -16 -17h-386q-16 0 -16 16v35q0 17 8 30l318 510h-289q-17 0 -17 17v39q0 16 16 16h363q16 0 16 -14v-40q0 -13 -8 -26l-315 -512h309q17 0 17 -16v-38zM239 703q-11 0 -17.5 3t-11.5 7l-103 94q-8 10 -1 16l20 18q8 6 16 1l121 -84l116 82q7 5 10 5.5
t8 -4.5l19 -17q6 -6 0 -13l-103 -97q-13 -11 -27 -11h-47z" />
    <glyph glyph-name="scaron" unicode="&#x161;" horiz-adv-x="436" 
d="M395 140q0 -42 -15.5 -70t-42 -45.5t-60 -25t-69.5 -7.5q-19 0 -40 1t-41.5 4t-39 7.5t-32.5 10.5q-13 6 -11 21l4 21q2 10 7.5 12t14.5 1q15 -2 34.5 -4t39 -3.5t37 -2.5t30.5 -1q56 0 80.5 17.5t24.5 55.5q0 22 -4 36.5t-15 23.5t-30 14t-49 10q-34 5 -65.5 13
t-55.5 23t-38.5 39t-14.5 63q0 70 47 106.5t128 36.5q15 0 34 -1t39.5 -3.5t40.5 -7t36 -10.5q14 -7 10 -21l-4 -24q-2 -8 -8.5 -10t-17.5 -1q-31 3 -65 6.5t-66 3.5q-56 0 -76 -17t-20 -56q0 -19 5 -30t16.5 -18t31.5 -11.5t50 -9.5q33 -5 64 -12.5t54.5 -23.5t37.5 -42
t14 -69zM367 680q7 -6 -1 -16l-92 -119q-4 -5 -9.5 -7.5t-19.5 -2.5h-47q-11 0 -16.5 2t-10.5 9l-94 119q-7 8 0 13l21 18q5 5 9 5t9 -6l105 -105l109 107q6 7 16 -1z" />
    <glyph glyph-name="zcaron" unicode="&#x17e;" horiz-adv-x="433" 
d="M33 43q0 17 9 29l264 347h-242q-17 0 -17 17v36q0 15 17 15h311q8 0 13 -2t5 -12v-36q0 -16 -10 -28l-255 -338h251q18 0 18 -16v-38q0 -17 -17 -17h-332q-15 0 -15 14v29zM367 680q7 -6 -1 -16l-92 -119q-4 -5 -9.5 -7.5t-19.5 -2.5h-47q-11 0 -16.5 2t-10.5 9l-94 119
q-7 8 0 13l21 18q5 5 9 5t9 -6l105 -105l109 107q6 7 16 -1z" />
    <glyph glyph-name="Ydieresis" unicode="&#x178;" horiz-adv-x="507" 
d="M257 372l59 107l93 171q4 7 8 9.5t13 2.5h52q16 0 9 -15l-199 -351v-279q0 -17 -16 -17h-42q-18 0 -18 17v279l-199 353q-2 5 0 9t8 4h59q9 0 12.5 -3t6.5 -9l93 -175l55 -103h6zM379 758q0 -18 -7.5 -30.5t-33.5 -12.5q-28 0 -34.5 13t-6.5 30t7.5 29t33.5 12t33.5 -11
t7.5 -30zM207 758q0 -18 -7.5 -30.5t-33.5 -12.5q-28 0 -34.5 13t-6.5 30t7.5 29t33.5 12t33.5 -11t7.5 -30z" />
    <glyph glyph-name="Agrave" unicode="&#xc0;" horiz-adv-x="548" 
d="M97 16q-3 -10 -8 -13t-13 -3h-52q-14 0 -8 16l209 631q4 15 19 15h56q10 0 13.5 -4t5.5 -11l209 -633q3 -14 -8 -14h-61q-8 0 -11.5 3t-5.5 10l-49 164h-244zM321 415l-48 162h-3l-47 -159l-51 -170h199zM149 832q9 11 16 5l128 -95q10 -7 4 -13l-21 -23q-7 -7 -15 -3
l-139 75q-3 2 -6.5 5.5t1.5 9.5z" />
    <glyph glyph-name="Aacute" unicode="&#xc1;" horiz-adv-x="548" 
d="M97 16q-3 -10 -8 -13t-13 -3h-52q-14 0 -8 16l209 631q4 15 19 15h56q10 0 13.5 -4t5.5 -11l209 -633q3 -14 -8 -14h-61q-8 0 -11.5 3t-5.5 10l-49 164h-244zM321 415l-48 162h-3l-47 -159l-51 -170h199zM419 793q5 -6 1.5 -9.5t-6.5 -5.5l-139 -75q-8 -4 -15 3l-21 23
q-6 6 4 13l128 95q7 6 16 -5z" />
    <glyph glyph-name="Acircumflex" unicode="&#xc2;" horiz-adv-x="548" 
d="M97 16q-3 -10 -8 -13t-13 -3h-52q-14 0 -8 16l209 631q4 15 19 15h56q10 0 13.5 -4t5.5 -11l209 -633q3 -14 -8 -14h-61q-8 0 -11.5 3t-5.5 10l-49 164h-244zM321 415l-48 162h-3l-47 -159l-51 -170h199zM406 702q-8 -6 -16 -1l-119 84l-116 -85q-7 -5 -10 -5.5t-8 4.5
l-19 20q-6 6 0 13l103 97q8 6 13.5 8.5t13.5 2.5h47q11 0 17 -2.5t12 -7.5l100 -94q10 -9 1 -16z" />
    <glyph glyph-name="Atilde" unicode="&#xc3;" horiz-adv-x="548" 
d="M97 16q-3 -10 -8 -13t-13 -3h-52q-14 0 -8 16l209 631q4 15 19 15h56q10 0 13.5 -4t5.5 -11l209 -633q3 -14 -8 -14h-61q-8 0 -11.5 3t-5.5 10l-49 164h-244zM321 415l-48 162h-3l-47 -159l-51 -170h199zM346 692q-17 0 -37 8.5t-40.5 18t-39.5 18t-34 8.5q-8 0 -22 -6
t-30 -32q-2 -5 -5.5 -6.5t-11.5 2.5l-20 8q-6 2 -6 7t2 9q17 46 44.5 64t50.5 18q19 0 39 -8t39.5 -18t37.5 -18t33 -8q17 0 27.5 9t21.5 28q2 4 5.5 7t11.5 0l21 -7q7 -2 6.5 -7.5t-1.5 -8.5q-27 -86 -92 -86z" />
    <glyph glyph-name="Adieresis" unicode="&#xc4;" horiz-adv-x="548" 
d="M97 16q-3 -10 -8 -13t-13 -3h-52q-14 0 -8 16l209 631q4 15 19 15h56q10 0 13.5 -4t5.5 -11l209 -633q3 -14 -8 -14h-61q-8 0 -11.5 3t-5.5 10l-49 164h-244zM321 415l-48 162h-3l-47 -159l-51 -170h199zM398 758q0 -18 -7.5 -30.5t-33.5 -12.5q-28 0 -34.5 13t-6.5 30
t7.5 29t33.5 12t33.5 -11t7.5 -30zM226 758q0 -18 -7.5 -30.5t-33.5 -12.5q-28 0 -34.5 13t-6.5 30t7.5 29t33.5 12t33.5 -11t7.5 -30z" />
    <glyph glyph-name="Aring" unicode="&#xc5;" horiz-adv-x="548" 
d="M97 16q-3 -10 -8 -13t-13 -3h-52q-14 0 -8 16l209 631q4 15 19 15h56q10 0 13.5 -4t5.5 -11l209 -633q3 -14 -8 -14h-61q-8 0 -11.5 3t-5.5 10l-49 164h-244zM321 415l-48 162h-3l-47 -159l-51 -170h199zM270 870q21 0 38.5 -8t31 -21t21 -31t7.5 -37q0 -20 -7.5 -37.5
t-21 -30.5t-31 -21t-38.5 -8q-20 0 -38 7.5t-31.5 20t-22 30.5t-8.5 39t8.5 39t22 30.5t31.5 20t38 7.5zM319 773q0 20 -14 35.5t-35 15.5q-20 0 -34 -15.5t-14 -35.5q0 -22 13 -36.5t35 -14.5q21 0 35 14.5t14 36.5z" />
    <glyph glyph-name="Ccedilla" unicode="&#xc7;" horiz-adv-x="538" 
d="M329 -112q0 19 -13.5 25t-50.5 8q-21 2 -13 22l18 52q-63 9 -103 39t-62.5 74.5t-31 100t-8.5 115.5q0 66 9.5 128.5t36.5 110.5t77 77.5t131 29.5q15 0 37 -1t47 -4t50 -8t45 -13q11 -5 13 -10t0 -12l-6 -28q-2 -5 -5.5 -9t-13.5 -2q-33 5 -77.5 9.5t-89.5 4.5
q-58 0 -92 -22t-52 -59.5t-23 -87t-5 -104.5q0 -50 6 -97t24.5 -83t52.5 -57.5t89 -21.5q46 0 88 4.5t78 9.5q11 2 14.5 -2.5t5.5 -9.5l5 -26q2 -8 0.5 -13t-11.5 -9q-18 -8 -43 -13t-50.5 -8t-48.5 -4.5t-38 -1.5q-3 0 -6.5 0.5t-6.5 0.5l-13 -37q28 -1 45.5 -6.5
t27.5 -14.5t14 -20.5t4 -24.5q0 -40 -27.5 -59t-76.5 -19q-13 0 -33.5 2.5t-36.5 7.5q-9 4 -7 11l5 19q1 3 3 4.5t8 0.5q14 -2 30 -3.5t27 -1.5q21 0 37 6t16 30z" />
    <glyph glyph-name="Egrave" unicode="&#xc8;" horiz-adv-x="505" 
d="M460 16q0 -10 -4 -13t-13 -3h-351q-18 0 -18 16v630q0 17 18 17h345q17 0 17 -16v-39q0 -17 -18 -17h-284v-211h255q17 0 17 -16v-39q0 -16 -17 -16h-255v-238h292q16 0 16 -17v-38zM149 832q9 11 16 5l128 -95q10 -7 4 -13l-21 -23q-7 -7 -15 -3l-139 75q-3 2 -6.5 5.5
t1.5 9.5z" />
    <glyph glyph-name="Eacute" unicode="&#xc9;" horiz-adv-x="505" 
d="M460 16q0 -10 -4 -13t-13 -3h-351q-18 0 -18 16v630q0 17 18 17h345q17 0 17 -16v-39q0 -17 -18 -17h-284v-211h255q17 0 17 -16v-39q0 -16 -17 -16h-255v-238h292q16 0 16 -17v-38zM399 793q5 -6 1.5 -9.5t-6.5 -5.5l-139 -75q-8 -4 -15 3l-21 23q-6 6 4 13l128 95
q7 6 16 -5z" />
    <glyph glyph-name="Ecircumflex" unicode="&#xca;" horiz-adv-x="505" 
d="M460 16q0 -10 -4 -13t-13 -3h-351q-18 0 -18 16v630q0 17 18 17h345q17 0 17 -16v-39q0 -17 -18 -17h-284v-211h255q17 0 17 -16v-39q0 -16 -17 -16h-255v-238h292q16 0 16 -17v-38zM399 702q-8 -6 -16 -1l-119 84l-116 -85q-7 -5 -10 -5.5t-8 4.5l-19 20q-6 6 0 13
l103 97q8 6 13.5 8.5t13.5 2.5h47q11 0 17 -2.5t12 -7.5l100 -94q10 -9 1 -16z" />
    <glyph glyph-name="Edieresis" unicode="&#xcb;" horiz-adv-x="505" 
d="M460 16q0 -10 -4 -13t-13 -3h-351q-18 0 -18 16v630q0 17 18 17h345q17 0 17 -16v-39q0 -17 -18 -17h-284v-211h255q17 0 17 -16v-39q0 -16 -17 -16h-255v-238h292q16 0 16 -17v-38zM391 758q0 -18 -7.5 -30.5t-33.5 -12.5q-28 0 -34.5 13t-6.5 30t7.5 29t33.5 12
t33.5 -11t7.5 -30zM219 758q0 -18 -7.5 -30.5t-33.5 -12.5q-28 0 -34.5 13t-6.5 30t7.5 29t33.5 12t33.5 -11t7.5 -30z" />
    <glyph glyph-name="Igrave" unicode="&#xcc;" horiz-adv-x="254" 
d="M165 17q0 -17 -17 -17h-44q-18 0 -18 17v628q0 11 4.5 14.5t13.5 3.5h44q8 0 12.5 -3.5t4.5 -14.5v-628zM4 832q9 11 16 5l128 -95q10 -7 4 -13l-21 -23q-7 -7 -15 -3l-139 75q-3 2 -6.5 5.5t1.5 9.5z" />
    <glyph glyph-name="Iacute" unicode="&#xcd;" horiz-adv-x="254" 
d="M165 17q0 -17 -17 -17h-44q-18 0 -18 17v628q0 11 4.5 14.5t13.5 3.5h44q8 0 12.5 -3.5t4.5 -14.5v-628zM276 793q5 -6 1.5 -9.5t-6.5 -5.5l-139 -75q-8 -4 -15 3l-21 23q-6 6 4 13l128 95q7 6 16 -5z" />
    <glyph glyph-name="Icircumflex" unicode="&#xce;" horiz-adv-x="254" 
d="M165 17q0 -17 -17 -17h-44q-18 0 -18 17v628q0 11 4.5 14.5t13.5 3.5h44q8 0 12.5 -3.5t4.5 -14.5v-628zM263 702q-8 -6 -16 -1l-119 84l-116 -85q-7 -5 -10 -5.5t-8 4.5l-19 20q-6 6 0 13l103 97q8 6 13.5 8.5t13.5 2.5h47q11 0 17 -2.5t12 -7.5l100 -94q10 -9 1 -16z
" />
    <glyph glyph-name="Idieresis" unicode="&#xcf;" horiz-adv-x="254" 
d="M165 17q0 -17 -17 -17h-44q-18 0 -18 17v628q0 11 4.5 14.5t13.5 3.5h44q8 0 12.5 -3.5t4.5 -14.5v-628zM251 758q0 -18 -7.5 -30.5t-33.5 -12.5q-28 0 -34.5 13t-6.5 30t7.5 29t33.5 12t33.5 -11t7.5 -30zM79 758q0 -18 -7.5 -30.5t-33.5 -12.5q-28 0 -34.5 13t-6.5 30
t7.5 29t33.5 12t33.5 -11t7.5 -30z" />
    <glyph glyph-name="Eth" unicode="&#xd0;" horiz-adv-x="617" 
d="M552 333q0 -69 -11.5 -129.5t-41.5 -106t-82 -71.5t-133 -26h-187q-12 0 -16.5 4t-4.5 13v288h-63q-14 0 -14 12v38q0 8 3.5 10.5t10.5 2.5h63v278q0 16 18 16h190q80 0 132 -25.5t82 -70t42 -104.5t12 -129zM279 317q0 -12 -14 -12h-111v-233h123q34 0 68 8.5t62 35
t45.5 76.5t17.5 133q0 84 -15.5 136t-41.5 81t-59.5 39t-69.5 10h-130v-223h111q7 0 10.5 -2.5t3.5 -10.5v-38z" />
    <glyph glyph-name="Ntilde" unicode="&#xd1;" horiz-adv-x="629" 
d="M151 523h-3v-506q0 -17 -17 -17h-41q-18 0 -18 17v631q0 15 16 15h41q11 0 15.5 -4.5t9.5 -11.5l271 -418l53 -84h3v500q0 11 4 14.5t13 3.5h42q8 0 12 -3.5t4 -14.5v-629q0 -16 -16 -16h-38q-11 0 -16 4t-10 12l-267 412zM389 691q-17 0 -37 8.5t-40.5 18t-39.5 18
t-34 8.5q-8 0 -22 -6t-30 -32q-2 -5 -5.5 -6.5t-11.5 2.5l-20 8q-6 2 -6 7t2 9q17 46 44.5 64t50.5 18q19 0 39 -8t39.5 -18t37.5 -18t33 -8q17 0 27.5 9t21.5 28q2 4 5.5 7t11.5 0l21 -7q7 -2 6.5 -7.5t-1.5 -8.5q-27 -86 -92 -86z" />
    <glyph glyph-name="Ograve" unicode="&#xd2;" horiz-adv-x="638" 
d="M576 341q0 -59 -7 -121t-33.5 -113t-78.5 -83.5t-141 -32.5q-59 0 -100.5 15t-69.5 40.5t-44.5 60t-25.5 73.5t-11.5 80t-2.5 81q0 31 3 67.5t12 73t26.5 71t45.5 60.5t69.5 42t98.5 16q85 0 136.5 -29t78.5 -75.5t35.5 -105.5t8.5 -120zM498 331q0 65 -8.5 116
t-29.5 85.5t-56 52.5t-88 18q-50 0 -83.5 -19t-53.5 -54.5t-28.5 -85.5t-8.5 -113q0 -61 7.5 -110.5t27 -85t53 -55t86.5 -19.5q54 0 89 18.5t56 53t29 85t8 113.5zM257 832q9 11 16 5l128 -95q10 -7 4 -13l-21 -23q-7 -7 -15 -3l-139 75q-3 2 -6.5 5.5t1.5 9.5z" />
    <glyph glyph-name="Oacute" unicode="&#xd3;" horiz-adv-x="638" 
d="M576 341q0 -59 -7 -121t-33.5 -113t-78.5 -83.5t-141 -32.5q-59 0 -100.5 15t-69.5 40.5t-44.5 60t-25.5 73.5t-11.5 80t-2.5 81q0 31 3 67.5t12 73t26.5 71t45.5 60.5t69.5 42t98.5 16q85 0 136.5 -29t78.5 -75.5t35.5 -105.5t8.5 -120zM498 331q0 65 -8.5 116
t-29.5 85.5t-56 52.5t-88 18q-50 0 -83.5 -19t-53.5 -54.5t-28.5 -85.5t-8.5 -113q0 -61 7.5 -110.5t27 -85t53 -55t86.5 -19.5q54 0 89 18.5t56 53t29 85t8 113.5zM439 793q5 -6 1.5 -9.5t-6.5 -5.5l-139 -75q-8 -4 -15 3l-21 23q-6 6 4 13l128 95q7 6 16 -5z" />
    <glyph glyph-name="Ocircumflex" unicode="&#xd4;" horiz-adv-x="638" 
d="M576 341q0 -59 -7 -121t-33.5 -113t-78.5 -83.5t-141 -32.5q-59 0 -100.5 15t-69.5 40.5t-44.5 60t-25.5 73.5t-11.5 80t-2.5 81q0 31 3 67.5t12 73t26.5 71t45.5 60.5t69.5 42t98.5 16q85 0 136.5 -29t78.5 -75.5t35.5 -105.5t8.5 -120zM498 331q0 65 -8.5 116
t-29.5 85.5t-56 52.5t-88 18q-50 0 -83.5 -19t-53.5 -54.5t-28.5 -85.5t-8.5 -113q0 -61 7.5 -110.5t27 -85t53 -55t86.5 -19.5q54 0 89 18.5t56 53t29 85t8 113.5zM455 702q-8 -6 -16 -1l-119 84l-116 -85q-7 -5 -10 -5.5t-8 4.5l-19 20q-6 6 0 13l103 97q8 6 13.5 8.5
t13.5 2.5h47q11 0 17 -2.5t12 -7.5l100 -94q10 -9 1 -16z" />
    <glyph glyph-name="Otilde" unicode="&#xd5;" horiz-adv-x="638" 
d="M576 341q0 -59 -7 -121t-33.5 -113t-78.5 -83.5t-141 -32.5q-59 0 -100.5 15t-69.5 40.5t-44.5 60t-25.5 73.5t-11.5 80t-2.5 81q0 31 3 67.5t12 73t26.5 71t45.5 60.5t69.5 42t98.5 16q85 0 136.5 -29t78.5 -75.5t35.5 -105.5t8.5 -120zM498 331q0 65 -8.5 116
t-29.5 85.5t-56 52.5t-88 18q-50 0 -83.5 -19t-53.5 -54.5t-28.5 -85.5t-8.5 -113q0 -61 7.5 -110.5t27 -85t53 -55t86.5 -19.5q54 0 89 18.5t56 53t29 85t8 113.5zM396 701q-17 0 -37 8.5t-40.5 18t-39.5 18t-34 8.5q-8 0 -22 -6t-30 -32q-2 -5 -5.5 -6.5t-11.5 2.5l-20 8
q-6 2 -6 7t2 9q17 46 44.5 64t50.5 18q19 0 39 -8t39.5 -18t37.5 -18t33 -8q17 0 27.5 9t21.5 28q2 4 5.5 7t11.5 0l21 -7q7 -2 6.5 -7.5t-1.5 -8.5q-27 -86 -92 -86z" />
    <glyph glyph-name="Odieresis" unicode="&#xd6;" horiz-adv-x="638" 
d="M576 341q0 -59 -7 -121t-33.5 -113t-78.5 -83.5t-141 -32.5q-59 0 -100.5 15t-69.5 40.5t-44.5 60t-25.5 73.5t-11.5 80t-2.5 81q0 31 3 67.5t12 73t26.5 71t45.5 60.5t69.5 42t98.5 16q85 0 136.5 -29t78.5 -75.5t35.5 -105.5t8.5 -120zM498 331q0 65 -8.5 116
t-29.5 85.5t-56 52.5t-88 18q-50 0 -83.5 -19t-53.5 -54.5t-28.5 -85.5t-8.5 -113q0 -61 7.5 -110.5t27 -85t53 -55t86.5 -19.5q54 0 89 18.5t56 53t29 85t8 113.5zM450 758q0 -18 -7.5 -30.5t-33.5 -12.5q-28 0 -34.5 13t-6.5 30t7.5 29t33.5 12t33.5 -11t7.5 -30zM278 758
q0 -18 -7.5 -30.5t-33.5 -12.5q-28 0 -34.5 13t-6.5 30t7.5 29t33.5 12t33.5 -11t7.5 -30z" />
    <glyph glyph-name="Ugrave" unicode="&#xd9;" horiz-adv-x="607" 
d="M304 64q77 0 118 42t41 131v408q0 11 4.5 14.5t13.5 3.5h43q8 0 12 -3.5t4 -14.5l-1 -405q0 -32 -3 -60.5t-14 -56.5q-29 -70 -86.5 -100t-131.5 -30q-169 0 -216 128q-11 27 -15 56.5t-4 62.5v405q0 11 4 14.5t13 3.5h44q8 0 12.5 -3.5t4.5 -14.5v-408q0 -84 39 -128.5
t118 -44.5zM209 832q9 11 16 5l128 -95q10 -7 4 -13l-21 -23q-7 -7 -15 -3l-139 75q-3 2 -6.5 5.5t1.5 9.5z" />
    <glyph glyph-name="Uacute" unicode="&#xda;" horiz-adv-x="607" 
d="M304 64q77 0 118 42t41 131v408q0 11 4.5 14.5t13.5 3.5h43q8 0 12 -3.5t4 -14.5l-1 -405q0 -32 -3 -60.5t-14 -56.5q-29 -70 -86.5 -100t-131.5 -30q-169 0 -216 128q-11 27 -15 56.5t-4 62.5v405q0 11 4 14.5t13 3.5h44q8 0 12.5 -3.5t4.5 -14.5v-408q0 -84 39 -128.5
t118 -44.5zM430 793q5 -6 1.5 -9.5t-6.5 -5.5l-139 -75q-8 -4 -15 3l-21 23q-6 6 4 13l128 95q7 6 16 -5z" />
    <glyph glyph-name="Ucircumflex" unicode="&#xdb;" horiz-adv-x="607" 
d="M304 64q77 0 118 42t41 131v408q0 11 4.5 14.5t13.5 3.5h43q8 0 12 -3.5t4 -14.5l-1 -405q0 -32 -3 -60.5t-14 -56.5q-29 -70 -86.5 -100t-131.5 -30q-169 0 -216 128q-11 27 -15 56.5t-4 62.5v405q0 11 4 14.5t13 3.5h44q8 0 12.5 -3.5t4.5 -14.5v-408q0 -84 39 -128.5
t118 -44.5zM442 702q-8 -6 -16 -1l-119 84l-116 -85q-7 -5 -10 -5.5t-8 4.5l-19 20q-6 6 0 13l103 97q8 6 13.5 8.5t13.5 2.5h47q11 0 17 -2.5t12 -7.5l100 -94q10 -9 1 -16z" />
    <glyph glyph-name="Udieresis" unicode="&#xdc;" horiz-adv-x="607" 
d="M304 64q77 0 118 42t41 131v408q0 11 4.5 14.5t13.5 3.5h43q8 0 12 -3.5t4 -14.5l-1 -405q0 -32 -3 -60.5t-14 -56.5q-29 -70 -86.5 -100t-131.5 -30q-169 0 -216 128q-11 27 -15 56.5t-4 62.5v405q0 11 4 14.5t13 3.5h44q8 0 12.5 -3.5t4.5 -14.5v-408q0 -84 39 -128.5
t118 -44.5zM429 758q0 -18 -7.5 -30.5t-33.5 -12.5q-28 0 -34.5 13t-6.5 30t7.5 29t33.5 12t33.5 -11t7.5 -30zM257 758q0 -18 -7.5 -30.5t-33.5 -12.5q-28 0 -34.5 13t-6.5 30t7.5 29t33.5 12t33.5 -11t7.5 -30z" />
    <glyph glyph-name="Yacute" unicode="&#xdd;" horiz-adv-x="507" 
d="M257 372l59 107l93 171q4 7 8 9.5t13 2.5h52q16 0 9 -15l-199 -351v-279q0 -17 -16 -17h-42q-18 0 -18 17v279l-199 353q-2 5 0 9t8 4h59q9 0 12.5 -3t6.5 -9l93 -175l55 -103h6zM392 793q5 -6 1.5 -9.5t-6.5 -5.5l-139 -75q-8 -4 -15 3l-21 23q-6 6 4 13l128 95
q7 6 16 -5z" />
    <glyph glyph-name="agrave" unicode="&#xe0;" horiz-adv-x="514" 
d="M367 54q-37 -22 -82.5 -42t-105.5 -20q-73 0 -104 35t-31 103q0 85 43 126.5t143 41.5h138v34q0 55 -25.5 76t-91.5 21q-14 0 -31.5 -0.5t-36.5 -2l-38 -3t-35 -3.5q-17 -3 -20 9l-6 26q-2 7 1.5 12t14.5 10q15 5 36 9t44 6.5t45.5 3.5t40.5 1q60 0 95.5 -13t54 -36
t23.5 -56t5 -73v-221q0 -15 1.5 -23t5 -12t10.5 -5.5t19 -2.5q17 -1 17 -13v-25q0 -7 -4 -11.5t-16 -6.5q-18 -3 -35 -3q-35 0 -51.5 13t-21.5 45h-2zM368 235h-147q-46 0 -73 -21t-27 -81q0 -42 16.5 -57t60.5 -15q19 0 41.5 5t45.5 13.5t44.5 18.5t38.5 20v117zM305 567
q5 -11 -3 -14l-29 -13q-10 -4 -15 3l-89 135q-2 3 -3 7.5t6 7.5l46 20q13 6 17 -3z" />
    <glyph glyph-name="aacute" unicode="&#xe1;" horiz-adv-x="514" 
d="M367 54q-37 -22 -82.5 -42t-105.5 -20q-73 0 -104 35t-31 103q0 85 43 126.5t143 41.5h138v34q0 55 -25.5 76t-91.5 21q-14 0 -31.5 -0.5t-36.5 -2l-38 -3t-35 -3.5q-17 -3 -20 9l-6 26q-2 7 1.5 12t14.5 10q15 5 36 9t44 6.5t45.5 3.5t40.5 1q60 0 95.5 -13t54 -36
t23.5 -56t5 -73v-221q0 -15 1.5 -23t5 -12t10.5 -5.5t19 -2.5q17 -1 17 -13v-25q0 -7 -4 -11.5t-16 -6.5q-18 -3 -35 -3q-35 0 -51.5 13t-21.5 45h-2zM368 235h-147q-46 0 -73 -21t-27 -81q0 -42 16.5 -57t60.5 -15q19 0 41.5 5t45.5 13.5t44.5 18.5t38.5 20v117zM295 546
q-5 -7 -15 -3l-29 10q-8 3 -3 14l70 143q4 9 17 3l46 -20q7 -3 6 -7.5t-3 -7.5z" />
    <glyph glyph-name="acircumflex" unicode="&#xe2;" horiz-adv-x="514" 
d="M367 54q-37 -22 -82.5 -42t-105.5 -20q-73 0 -104 35t-31 103q0 85 43 126.5t143 41.5h138v34q0 55 -25.5 76t-91.5 21q-14 0 -31.5 -0.5t-36.5 -2l-38 -3t-35 -3.5q-17 -3 -20 9l-6 26q-2 7 1.5 12t14.5 10q15 5 36 9t44 6.5t45.5 3.5t40.5 1q60 0 95.5 -13t54 -36
t23.5 -56t5 -73v-221q0 -15 1.5 -23t5 -12t10.5 -5.5t19 -2.5q17 -1 17 -13v-25q0 -7 -4 -11.5t-16 -6.5q-18 -3 -35 -3q-35 0 -51.5 13t-21.5 45h-2zM368 235h-147q-46 0 -73 -21t-27 -81q0 -42 16.5 -57t60.5 -15q19 0 41.5 5t45.5 13.5t44.5 18.5t38.5 20v117zM384 542
q-10 -8 -16 -1l-109 107l-105 -105q-5 -6 -9 -6t-9 5l-21 18q-7 5 0 13l94 119q5 7 10.5 9t16.5 2h47q14 0 19.5 -2.5t9.5 -7.5l92 -119q8 -10 1 -16z" />
    <glyph glyph-name="atilde" unicode="&#xe3;" horiz-adv-x="514" 
d="M367 54q-37 -22 -82.5 -42t-105.5 -20q-73 0 -104 35t-31 103q0 85 43 126.5t143 41.5h138v34q0 55 -25.5 76t-91.5 21q-14 0 -31.5 -0.5t-36.5 -2l-38 -3t-35 -3.5q-17 -3 -20 9l-6 26q-2 7 1.5 12t14.5 10q15 5 36 9t44 6.5t45.5 3.5t40.5 1q60 0 95.5 -13t54 -36
t23.5 -56t5 -73v-221q0 -15 1.5 -23t5 -12t10.5 -5.5t19 -2.5q17 -1 17 -13v-25q0 -7 -4 -11.5t-16 -6.5q-18 -3 -35 -3q-35 0 -51.5 13t-21.5 45h-2zM368 235h-147q-46 0 -73 -21t-27 -81q0 -42 16.5 -57t60.5 -15q19 0 41.5 5t45.5 13.5t44.5 18.5t38.5 20v117zM337 551
q-17 0 -37 8.5t-40.5 18t-39.5 18t-34 8.5q-8 0 -22 -6t-30 -32q-2 -5 -5.5 -6.5t-11.5 2.5l-20 8q-6 2 -6 7t2 9q17 46 44.5 64t50.5 18q19 0 39 -8t39.5 -18t37.5 -18t33 -8q17 0 27.5 9t21.5 28q2 4 5.5 7t11.5 0l21 -7q7 -2 6.5 -7.5t-1.5 -8.5q-27 -86 -92 -86z" />
    <glyph glyph-name="adieresis" unicode="&#xe4;" horiz-adv-x="514" 
d="M367 54q-37 -22 -82.5 -42t-105.5 -20q-73 0 -104 35t-31 103q0 85 43 126.5t143 41.5h138v34q0 55 -25.5 76t-91.5 21q-14 0 -31.5 -0.5t-36.5 -2l-38 -3t-35 -3.5q-17 -3 -20 9l-6 26q-2 7 1.5 12t14.5 10q15 5 36 9t44 6.5t45.5 3.5t40.5 1q60 0 95.5 -13t54 -36
t23.5 -56t5 -73v-221q0 -15 1.5 -23t5 -12t10.5 -5.5t19 -2.5q17 -1 17 -13v-25q0 -7 -4 -11.5t-16 -6.5q-18 -3 -35 -3q-35 0 -51.5 13t-21.5 45h-2zM368 235h-147q-46 0 -73 -21t-27 -81q0 -42 16.5 -57t60.5 -15q19 0 41.5 5t45.5 13.5t44.5 18.5t38.5 20v117zM405 610
q0 -18 -8 -31t-34 -13q-27 0 -34 13.5t-7 30.5t8 29t33 12q26 0 34 -11.5t8 -29.5zM221 610q0 -18 -7.5 -31t-33.5 -13q-28 0 -35 13.5t-7 30.5t8 29t34 12t33.5 -11.5t7.5 -29.5z" />
    <glyph glyph-name="aring" unicode="&#xe5;" horiz-adv-x="514" 
d="M367 54q-37 -22 -82.5 -42t-105.5 -20q-73 0 -104 35t-31 103q0 85 43 126.5t143 41.5h138v34q0 55 -25.5 76t-91.5 21q-14 0 -31.5 -0.5t-36.5 -2l-38 -3t-35 -3.5q-17 -3 -20 9l-6 26q-2 7 1.5 12t14.5 10q15 5 36 9t44 6.5t45.5 3.5t40.5 1q60 0 95.5 -13t54 -36
t23.5 -56t5 -73v-221q0 -15 1.5 -23t5 -12t10.5 -5.5t19 -2.5q17 -1 17 -13v-25q0 -7 -4 -11.5t-16 -6.5q-18 -3 -35 -3q-35 0 -51.5 13t-21.5 45h-2zM368 235h-147q-46 0 -73 -21t-27 -81q0 -42 16.5 -57t60.5 -15q19 0 41.5 5t45.5 13.5t44.5 18.5t38.5 20v117zM265 713
q21 0 38.5 -8t31 -21t21 -31t7.5 -37q0 -20 -7.5 -37.5t-21 -30.5t-31 -21t-38.5 -8q-20 0 -38 7.5t-31.5 20t-22 30.5t-8.5 39t8.5 39t22 30.5t31.5 20t38 7.5zM314 616q0 20 -14 35.5t-35 15.5q-20 0 -34 -15.5t-14 -35.5q0 -22 13 -36.5t35 -14.5q21 0 35 14.5t14 36.5z
" />
    <glyph glyph-name="ccedilla" unicode="&#xe7;" horiz-adv-x="425" 
d="M278 -112q0 19 -13.5 25t-50.5 8q-21 2 -13 22l18 50q-57 4 -91.5 25.5t-52.5 55.5t-24 78.5t-6 94.5q0 48 6.5 93t28 80t61 56t105.5 21q15 0 35 -1t40.5 -3.5t40.5 -7t36 -11.5q8 -3 9.5 -9t0.5 -12l-4 -23q-2 -8 -9.5 -10t-16.5 -1q-31 3 -68.5 6.5t-64.5 3.5
q-34 0 -57 -9.5t-36.5 -30.5t-19.5 -55.5t-6 -85.5q0 -55 6 -91t20 -57.5t37 -30.5t56 -9q12 0 29.5 1t36 2.5t37.5 3t34 3.5q9 1 14.5 -1t7.5 -12l4 -21q3 -14 -11 -21q-26 -12 -65.5 -17t-76.5 -6l-13 -36q28 -1 45.5 -6.5t27.5 -14.5t14 -20.5t4 -24.5q0 -40 -27.5 -59
t-76.5 -19q-13 0 -33.5 2.5t-36.5 7.5q-9 4 -7 11l5 19q1 3 3 4.5t8 0.5q14 -2 30 -3.5t27 -1.5q21 0 37 6t16 30z" />
    <glyph glyph-name="egrave" unicode="&#xe8;" horiz-adv-x="489" 
d="M451 276q1 -24 -7.5 -40.5t-36.5 -16.5h-282q1 -45 8 -75.5t23 -49t40.5 -26t59.5 -7.5q15 0 34 1.5l38 3t36.5 3.5t30.5 4q10 1 15.5 -1t7.5 -12l4 -22q3 -14 -11 -20t-34 -11t-42 -8.5t-44 -5.5t-40 -2q-69 0 -109.5 21.5t-61.5 56.5t-27.5 80.5t-6.5 93.5q0 36 6 80.5
t27 83t61 64.5t109 26q64 0 103 -19t60.5 -50t29 -71t9.5 -81zM370 282q0 26 -4.5 52.5t-17.5 47.5t-37 34t-64 13q-33 0 -55.5 -10.5t-36.5 -29.5t-21 -46t-9 -61h245zM283 567q5 -11 -3 -14l-29 -13q-10 -4 -15 3l-89 135q-2 3 -3 7.5t6 7.5l46 20q13 6 17 -3z" />
    <glyph glyph-name="eacute" unicode="&#xe9;" horiz-adv-x="489" 
d="M451 276q1 -24 -7.5 -40.5t-36.5 -16.5h-282q1 -45 8 -75.5t23 -49t40.5 -26t59.5 -7.5q15 0 34 1.5l38 3t36.5 3.5t30.5 4q10 1 15.5 -1t7.5 -12l4 -22q3 -14 -11 -20t-34 -11t-42 -8.5t-44 -5.5t-40 -2q-69 0 -109.5 21.5t-61.5 56.5t-27.5 80.5t-6.5 93.5q0 36 6 80.5
t27 83t61 64.5t109 26q64 0 103 -19t60.5 -50t29 -71t9.5 -81zM370 282q0 26 -4.5 52.5t-17.5 47.5t-37 34t-64 13q-33 0 -55.5 -10.5t-36.5 -29.5t-21 -46t-9 -61h245zM284 546q-5 -7 -15 -3l-29 10q-8 3 -3 14l70 143q4 9 17 3l46 -20q7 -3 6 -7.5t-3 -7.5z" />
    <glyph glyph-name="ecircumflex" unicode="&#xea;" horiz-adv-x="489" 
d="M451 276q1 -24 -7.5 -40.5t-36.5 -16.5h-282q1 -45 8 -75.5t23 -49t40.5 -26t59.5 -7.5q15 0 34 1.5l38 3t36.5 3.5t30.5 4q10 1 15.5 -1t7.5 -12l4 -22q3 -14 -11 -20t-34 -11t-42 -8.5t-44 -5.5t-40 -2q-69 0 -109.5 21.5t-61.5 56.5t-27.5 80.5t-6.5 93.5q0 36 6 80.5
t27 83t61 64.5t109 26q64 0 103 -19t60.5 -50t29 -71t9.5 -81zM370 282q0 26 -4.5 52.5t-17.5 47.5t-37 34t-64 13q-33 0 -55.5 -10.5t-36.5 -29.5t-21 -46t-9 -61h245zM377 542q-10 -8 -16 -1l-109 107l-105 -105q-5 -6 -9 -6t-9 5l-21 18q-7 5 0 13l94 119q5 7 10.5 9
t16.5 2h47q14 0 19.5 -2.5t9.5 -7.5l92 -119q8 -10 1 -16z" />
    <glyph glyph-name="edieresis" unicode="&#xeb;" horiz-adv-x="489" 
d="M451 276q1 -24 -7.5 -40.5t-36.5 -16.5h-282q1 -45 8 -75.5t23 -49t40.5 -26t59.5 -7.5q15 0 34 1.5l38 3t36.5 3.5t30.5 4q10 1 15.5 -1t7.5 -12l4 -22q3 -14 -11 -20t-34 -11t-42 -8.5t-44 -5.5t-40 -2q-69 0 -109.5 21.5t-61.5 56.5t-27.5 80.5t-6.5 93.5q0 36 6 80.5
t27 83t61 64.5t109 26q64 0 103 -19t60.5 -50t29 -71t9.5 -81zM370 282q0 26 -4.5 52.5t-17.5 47.5t-37 34t-64 13q-33 0 -55.5 -10.5t-36.5 -29.5t-21 -46t-9 -61h245zM387 610q0 -18 -8 -31t-34 -13q-27 0 -34 13.5t-7 30.5t8 29t33 12q26 0 34 -11.5t8 -29.5zM203 610
q0 -18 -7.5 -31t-33.5 -13q-28 0 -35 13.5t-7 30.5t8 29t34 12t33.5 -11.5t7.5 -29.5z" />
    <glyph glyph-name="igrave" unicode="&#xec;" horiz-adv-x="223" 
d="M149 17q0 -17 -16 -17h-41q-18 0 -18 17v453q0 11 4.5 14t13.5 3h41q16 0 16 -17v-453zM129 567q5 -11 -3 -14l-29 -13q-10 -4 -15 3l-89 135q-2 3 -3 7.5t6 7.5l46 20q13 6 17 -3z" />
    <glyph glyph-name="iacute" unicode="&#xed;" horiz-adv-x="200" 
d="M149 17q0 -17 -16 -17h-41q-18 0 -18 17v453q0 11 4.5 14t13.5 3h41q16 0 16 -17v-453zM140 546q-5 -7 -15 -3l-29 10q-8 3 -3 14l70 143q4 9 17 3l46 -20q7 -3 6 -7.5t-3 -7.5z" />
    <glyph glyph-name="icircumflex" unicode="&#xee;" horiz-adv-x="289" 
d="M183 17q0 -17 -16 -17h-41q-18 0 -18 17v453q0 11 4.5 14t13.5 3h41q16 0 16 -17v-453zM269 542q-10 -8 -16 -1l-109 107l-105 -105q-5 -6 -9 -6t-9 5l-21 18q-7 5 0 13l94 119q5 7 10.5 9t16.5 2h47q14 0 19.5 -2.5t9.5 -7.5l92 -119q8 -10 1 -16z" />
    <glyph glyph-name="idieresis" unicode="&#xef;" horiz-adv-x="257" 
d="M166 17q0 -17 -16 -17h-41q-18 0 -18 17v453q0 11 4.5 14t13.5 3h41q16 0 16 -17v-453zM262 610q0 -18 -8 -31t-34 -13q-27 0 -34 13.5t-7 30.5t8 29t33 12q26 0 34 -11.5t8 -29.5zM78 610q0 -18 -7.5 -31t-33.5 -13q-28 0 -35 13.5t-7 30.5t8 29t34 12t33.5 -11.5
t7.5 -29.5z" />
    <glyph glyph-name="ntilde" unicode="&#xf1;" horiz-adv-x="505" 
d="M452 17q0 -17 -18 -17h-42q-17 0 -17 17l1 296q0 34 -4 56.5t-13.5 35.5t-25 18t-38.5 5q-18 0 -42 -7t-48 -16t-45 -18.5t-32 -15.5v-354q0 -17 -18 -17h-41q-16 0 -16 17v453q0 17 16 17h41q9 0 13.5 -3t4.5 -14v-36l3 -1q12 8 31 19t42.5 21t49.5 17t53 7
q49 0 77.5 -14t43.5 -38.5t19.5 -58.5t4.5 -74v-295zM329 551q-17 0 -37 8.5t-40.5 18t-39.5 18t-34 8.5q-8 0 -22 -6t-30 -32q-2 -5 -5.5 -6.5t-11.5 2.5l-20 8q-6 2 -6 7t2 9q17 46 44.5 64t50.5 18q19 0 39 -8t39.5 -18t37.5 -18t33 -8q17 0 27.5 9t21.5 28q2 4 5.5 7
t11.5 0l21 -7q7 -2 6.5 -7.5t-1.5 -8.5q-27 -86 -92 -86z" />
    <glyph glyph-name="ograve" unicode="&#xf2;" horiz-adv-x="503" 
d="M457 252q0 -44 -5 -90t-25.5 -84t-62.5 -62t-116 -24q-72 0 -112.5 24t-60.5 61.5t-24.5 84t-4.5 90.5q0 36 6 79t26.5 80t60.5 61.5t109 24.5t110.5 -21.5t63.5 -56t28.5 -78.5t6.5 -89zM379 245q0 46 -5 80.5t-19.5 57t-40 34t-66.5 11.5q-39 0 -63 -11.5t-38 -34.5
t-19 -57t-5 -80t5 -80t19 -57t38 -34.5t63 -11.5q41 0 66.5 11t40 33.5t19.5 57t5 81.5zM283 567q5 -11 -3 -14l-29 -13q-10 -4 -15 3l-89 135q-2 3 -3 7.5t6 7.5l46 20q13 6 17 -3z" />
    <glyph glyph-name="oacute" unicode="&#xf3;" horiz-adv-x="503" 
d="M457 252q0 -44 -5 -90t-25.5 -84t-62.5 -62t-116 -24q-72 0 -112.5 24t-60.5 61.5t-24.5 84t-4.5 90.5q0 36 6 79t26.5 80t60.5 61.5t109 24.5t110.5 -21.5t63.5 -56t28.5 -78.5t6.5 -89zM379 245q0 46 -5 80.5t-19.5 57t-40 34t-66.5 11.5q-39 0 -63 -11.5t-38 -34.5
t-19 -57t-5 -80t5 -80t19 -57t38 -34.5t63 -11.5q41 0 66.5 11t40 33.5t19.5 57t5 81.5zM275 546q-5 -7 -15 -3l-29 10q-8 3 -3 14l70 143q4 9 17 3l46 -20q7 -3 6 -7.5t-3 -7.5z" />
    <glyph glyph-name="ocircumflex" unicode="&#xf4;" horiz-adv-x="503" 
d="M457 252q0 -44 -5 -90t-25.5 -84t-62.5 -62t-116 -24q-72 0 -112.5 24t-60.5 61.5t-24.5 84t-4.5 90.5q0 36 6 79t26.5 80t60.5 61.5t109 24.5t110.5 -21.5t63.5 -56t28.5 -78.5t6.5 -89zM379 245q0 46 -5 80.5t-19.5 57t-40 34t-66.5 11.5q-39 0 -63 -11.5t-38 -34.5
t-19 -57t-5 -80t5 -80t19 -57t38 -34.5t63 -11.5q41 0 66.5 11t40 33.5t19.5 57t5 81.5zM378 542q-10 -8 -16 -1l-109 107l-105 -105q-5 -6 -9 -6t-9 5l-21 18q-7 5 0 13l94 119q5 7 10.5 9t16.5 2h47q14 0 19.5 -2.5t9.5 -7.5l92 -119q8 -10 1 -16z" />
    <glyph glyph-name="otilde" unicode="&#xf5;" horiz-adv-x="503" 
d="M457 252q0 -44 -5 -90t-25.5 -84t-62.5 -62t-116 -24q-72 0 -112.5 24t-60.5 61.5t-24.5 84t-4.5 90.5q0 36 6 79t26.5 80t60.5 61.5t109 24.5t110.5 -21.5t63.5 -56t28.5 -78.5t6.5 -89zM379 245q0 46 -5 80.5t-19.5 57t-40 34t-66.5 11.5q-39 0 -63 -11.5t-38 -34.5
t-19 -57t-5 -80t5 -80t19 -57t38 -34.5t63 -11.5q41 0 66.5 11t40 33.5t19.5 57t5 81.5zM333 551q-17 0 -37 8.5t-40.5 18t-39.5 18t-34 8.5q-8 0 -22 -6t-30 -32q-2 -5 -5.5 -6.5t-11.5 2.5l-20 8q-6 2 -6 7t2 9q17 46 44.5 64t50.5 18q19 0 39 -8t39.5 -18t37.5 -18t33 -8
q17 0 27.5 9t21.5 28q2 4 5.5 7t11.5 0l21 -7q7 -2 6.5 -7.5t-1.5 -8.5q-27 -86 -92 -86z" />
    <glyph glyph-name="odieresis" unicode="&#xf6;" horiz-adv-x="503" 
d="M457 252q0 -44 -5 -90t-25.5 -84t-62.5 -62t-116 -24q-72 0 -112.5 24t-60.5 61.5t-24.5 84t-4.5 90.5q0 36 6 79t26.5 80t60.5 61.5t109 24.5t110.5 -21.5t63.5 -56t28.5 -78.5t6.5 -89zM379 245q0 46 -5 80.5t-19.5 57t-40 34t-66.5 11.5q-39 0 -63 -11.5t-38 -34.5
t-19 -57t-5 -80t5 -80t19 -57t38 -34.5t63 -11.5q41 0 66.5 11t40 33.5t19.5 57t5 81.5zM387 610q0 -18 -8 -31t-34 -13q-27 0 -34 13.5t-7 30.5t8 29t33 12q26 0 34 -11.5t8 -29.5zM203 610q0 -18 -7.5 -31t-33.5 -13q-28 0 -35 13.5t-7 30.5t8 29t34 12t33.5 -11.5
t7.5 -29.5z" />
    <glyph glyph-name="ugrave" unicode="&#xf9;" horiz-adv-x="512" 
d="M457 17q0 -17 -17 -17h-41q-18 0 -18 17v35l-2 2q-12 -8 -31.5 -19t-42.5 -21t-49 -17t-53 -7q-49 0 -78 14t-44.5 38.5t-20 58.5t-4.5 74v295q0 17 17 17h43q16 0 16 -17v-296q0 -35 4 -57t13.5 -35t25.5 -18t39 -5q18 0 42 7t48 16t45 19t33 16v353q0 17 17 17h41
q17 0 17 -17v-453zM303 567q5 -11 -3 -14l-29 -13q-10 -4 -15 3l-89 135q-2 3 -3 7.5t6 7.5l46 20q13 6 17 -3z" />
    <glyph glyph-name="uacute" unicode="&#xfa;" horiz-adv-x="512" 
d="M457 17q0 -17 -17 -17h-41q-18 0 -18 17v35l-2 2q-12 -8 -31.5 -19t-42.5 -21t-49 -17t-53 -7q-49 0 -78 14t-44.5 38.5t-20 58.5t-4.5 74v295q0 17 17 17h43q16 0 16 -17v-296q0 -35 4 -57t13.5 -35t25.5 -18t39 -5q18 0 42 7t48 16t45 19t33 16v353q0 17 17 17h41
q17 0 17 -17v-453zM282 546q-5 -7 -15 -3l-29 10q-8 3 -3 14l70 143q4 9 17 3l46 -20q7 -3 6 -7.5t-3 -7.5z" />
    <glyph glyph-name="ucircumflex" unicode="&#xfb;" horiz-adv-x="512" 
d="M457 17q0 -17 -17 -17h-41q-18 0 -18 17v35l-2 2q-12 -8 -31.5 -19t-42.5 -21t-49 -17t-53 -7q-49 0 -78 14t-44.5 38.5t-20 58.5t-4.5 74v295q0 17 17 17h43q16 0 16 -17v-296q0 -35 4 -57t13.5 -35t25.5 -18t39 -5q18 0 42 7t48 16t45 19t33 16v353q0 17 17 17h41
q17 0 17 -17v-453zM382 542q-10 -8 -16 -1l-109 107l-105 -105q-5 -6 -9 -6t-9 5l-21 18q-7 5 0 13l94 119q5 7 10.5 9t16.5 2h47q14 0 19.5 -2.5t9.5 -7.5l92 -119q8 -10 1 -16z" />
    <glyph glyph-name="udieresis" unicode="&#xfc;" horiz-adv-x="512" 
d="M457 17q0 -17 -17 -17h-41q-18 0 -18 17v35l-2 2q-12 -8 -31.5 -19t-42.5 -21t-49 -17t-53 -7q-49 0 -78 14t-44.5 38.5t-20 58.5t-4.5 74v295q0 17 17 17h43q16 0 16 -17v-296q0 -35 4 -57t13.5 -35t25.5 -18t39 -5q18 0 42 7t48 16t45 19t33 16v353q0 17 17 17h41
q17 0 17 -17v-453zM398 610q0 -18 -8 -31t-34 -13q-27 0 -34 13.5t-7 30.5t8 29t33 12q26 0 34 -11.5t8 -29.5zM214 610q0 -18 -7.5 -31t-33.5 -13q-28 0 -35 13.5t-7 30.5t8 29t34 12t33.5 -11.5t7.5 -29.5z" />
    <glyph glyph-name="yacute" unicode="&#xfd;" horiz-adv-x="466" 
d="M218 -162q-2 -7 -6 -10.5t-14 -3.5h-46q-14 0 -9 16l58 160l-176 471q-2 6 -0.5 11t8.5 5h53q8 0 11 -3.5t5 -10.5l82 -229l54 -153q2 6 11.5 31.5t19.5 54.5q11 33 25 74l76 223q4 13 16 13h54q12 0 7 -15zM254 546q-5 -7 -15 -3l-29 10q-8 3 -3 14l70 143q4 9 17 3
l46 -20q7 -3 6 -7.5t-3 -7.5z" />
    <glyph glyph-name="ydieresis" unicode="&#xff;" horiz-adv-x="466" 
d="M218 -162q-2 -7 -6 -10.5t-14 -3.5h-46q-14 0 -9 16l58 160l-176 471q-2 6 -0.5 11t8.5 5h53q8 0 11 -3.5t5 -10.5l82 -229l54 -153q2 6 11.5 31.5t19.5 54.5q11 33 25 74l76 223q4 13 16 13h54q12 0 7 -15zM372 610q0 -18 -8 -31t-34 -13q-27 0 -34 13.5t-7 30.5t8 29
t33 12q26 0 34 -11.5t8 -29.5zM188 610q0 -18 -7.5 -31t-33.5 -13q-28 0 -35 13.5t-7 30.5t8 29t34 12t33.5 -11.5t7.5 -29.5z" />
    <glyph glyph-name="Amacron" unicode="&#x100;" horiz-adv-x="548" 
d="M97 16q-3 -10 -8 -13t-13 -3h-52q-14 0 -8 16l209 631q4 15 19 15h56q10 0 13.5 -4t5.5 -11l209 -633q3 -14 -8 -14h-61q-8 0 -11.5 3t-5.5 10l-49 164h-244zM321 415l-48 162h-3l-47 -159l-51 -170h199zM413 737q0 -12 -14 -12h-252q-14 0 -14 12v38q0 8 3.5 10.5
t10.5 2.5h252q7 0 10.5 -2.5t3.5 -10.5v-38z" />
    <glyph glyph-name="amacron" unicode="&#x101;" horiz-adv-x="514" 
d="M367 54q-37 -22 -82.5 -42t-105.5 -20q-73 0 -104 35t-31 103q0 85 43 126.5t143 41.5h138v34q0 55 -25.5 76t-91.5 21q-14 0 -31.5 -0.5t-36.5 -2l-38 -3t-35 -3.5q-17 -3 -20 9l-6 26q-2 7 1.5 12t14.5 10q15 5 36 9t44 6.5t45.5 3.5t40.5 1q60 0 95.5 -13t54 -36
t23.5 -56t5 -73v-221q0 -15 1.5 -23t5 -12t10.5 -5.5t19 -2.5q17 -1 17 -13v-25q0 -7 -4 -11.5t-16 -6.5q-18 -3 -35 -3q-35 0 -51.5 13t-21.5 45h-2zM368 235h-147q-46 0 -73 -21t-27 -81q0 -42 16.5 -57t60.5 -15q19 0 41.5 5t45.5 13.5t44.5 18.5t38.5 20v117zM412 585
q0 -12 -14 -12h-252q-14 0 -14 12v38q0 8 3.5 10.5t10.5 2.5h252q7 0 10.5 -2.5t3.5 -10.5v-38z" />
    <glyph glyph-name="Abreve" unicode="&#x102;" horiz-adv-x="548" 
d="M97 16q-3 -10 -8 -13t-13 -3h-52q-14 0 -8 16l209 631q4 15 19 15h56q10 0 13.5 -4t5.5 -11l209 -633q3 -14 -8 -14h-61q-8 0 -11.5 3t-5.5 10l-49 164h-244zM321 415l-48 162h-3l-47 -159l-51 -170h199zM267 700q-43 0 -82.5 22t-62.5 70q-2 4 -5 12.5t2 13.5l21 16
q8 6 17 -3q15 -17 27 -30t25 -21.5t27.5 -12.5t32.5 -4q35 0 56 16.5t50 51.5q9 9 17 3l21 -14q5 -5 2 -13.5t-5 -12.5q-23 -48 -62 -71t-81 -23z" />
    <glyph glyph-name="abreve" unicode="&#x103;" horiz-adv-x="514" 
d="M367 54q-37 -22 -82.5 -42t-105.5 -20q-73 0 -104 35t-31 103q0 85 43 126.5t143 41.5h138v34q0 55 -25.5 76t-91.5 21q-14 0 -31.5 -0.5t-36.5 -2l-38 -3t-35 -3.5q-17 -3 -20 9l-6 26q-2 7 1.5 12t14.5 10q15 5 36 9t44 6.5t45.5 3.5t40.5 1q60 0 95.5 -13t54 -36
t23.5 -56t5 -73v-221q0 -15 1.5 -23t5 -12t10.5 -5.5t19 -2.5q17 -1 17 -13v-25q0 -7 -4 -11.5t-16 -6.5q-18 -3 -35 -3q-35 0 -51.5 13t-21.5 45h-2zM368 235h-147q-46 0 -73 -21t-27 -81q0 -42 16.5 -57t60.5 -15q19 0 41.5 5t45.5 13.5t44.5 18.5t38.5 20v117zM271 538
q-43 0 -82.5 22t-62.5 70q-2 4 -5 12.5t2 13.5l21 16q5 4 9 2.5t8 -5.5q15 -17 27 -30t25 -21.5t27.5 -12.5t32.5 -4t31 4.5t24.5 13t23.5 21t27 29.5q9 9 17 3l21 -14q6 -4 2.5 -13t-5.5 -13q-23 -48 -62 -71t-81 -23z" />
    <glyph glyph-name="Cacute" unicode="&#x106;" horiz-adv-x="538" 
d="M319 670q15 0 37 -1t47 -4t50 -8t45 -13q11 -5 13 -10t0 -12l-6 -28q-2 -5 -5.5 -9t-13.5 -2q-33 5 -77.5 9.5t-89.5 4.5q-58 0 -92 -22t-52 -59.5t-23 -87t-5 -104.5q0 -50 6 -97t24.5 -83t52.5 -57.5t89 -21.5q46 0 88 4.5t78 9.5q11 2 14.5 -2.5t5.5 -9.5l5 -26
q2 -8 0.5 -13t-11.5 -9q-18 -8 -43 -13t-50.5 -8t-48.5 -4.5t-38 -1.5q-79 0 -128.5 27.5t-77.5 73.5t-38 106t-10 125q0 66 9.5 128.5t36.5 110.5t77 77.5t131 29.5zM455 793q5 -6 1.5 -9.5t-6.5 -5.5l-139 -75q-8 -4 -15 3l-21 23q-6 6 4 13l128 95q7 6 16 -5z" />
    <glyph glyph-name="cacute" unicode="&#x107;" horiz-adv-x="425" 
d="M408 36q3 -14 -11 -21q-28 -13 -70.5 -18t-80.5 -5q-66 0 -105.5 20t-61 55t-28 81t-6.5 99q0 48 6.5 93t28 80t61 56t105.5 21q15 0 35 -1t40.5 -3.5t40.5 -7t36 -11.5q8 -3 9.5 -9t0.5 -12l-4 -23q-2 -8 -9.5 -10t-16.5 -1q-31 3 -68.5 6.5t-64.5 3.5q-34 0 -57 -9.5
t-36.5 -30.5t-19.5 -55.5t-6 -85.5q0 -55 6 -91t20 -57.5t37 -30.5t56 -9q12 0 29.5 1t36 2.5t37.5 3t34 3.5q9 1 14.5 -1t7.5 -12zM261 546q-5 -7 -15 -3l-29 10q-8 3 -3 14l70 143q4 9 17 3l46 -20q7 -3 6 -7.5t-3 -7.5z" />
    <glyph glyph-name="Ccircumflex" unicode="&#x108;" horiz-adv-x="538" 
d="M319 670q15 0 37 -1t47 -4t50 -8t45 -13q11 -5 13 -10t0 -12l-6 -28q-2 -5 -5.5 -9t-13.5 -2q-33 5 -77.5 9.5t-89.5 4.5q-58 0 -92 -22t-52 -59.5t-23 -87t-5 -104.5q0 -50 6 -97t24.5 -83t52.5 -57.5t89 -21.5q46 0 88 4.5t78 9.5q11 2 14.5 -2.5t5.5 -9.5l5 -26
q2 -8 0.5 -13t-11.5 -9q-18 -8 -43 -13t-50.5 -8t-48.5 -4.5t-38 -1.5q-79 0 -128.5 27.5t-77.5 73.5t-38 106t-10 125q0 66 9.5 128.5t36.5 110.5t77 77.5t131 29.5zM451 702q-8 -6 -16 -1l-119 84l-116 -85q-7 -5 -10 -5.5t-8 4.5l-19 20q-6 6 0 13l103 97q8 6 13.5 8.5
t13.5 2.5h47q11 0 17 -2.5t12 -7.5l100 -94q10 -9 1 -16z" />
    <glyph glyph-name="ccircumflex" unicode="&#x109;" horiz-adv-x="425" 
d="M408 36q3 -14 -11 -21q-28 -13 -70.5 -18t-80.5 -5q-66 0 -105.5 20t-61 55t-28 81t-6.5 99q0 48 6.5 93t28 80t61 56t105.5 21q15 0 35 -1t40.5 -3.5t40.5 -7t36 -11.5q8 -3 9.5 -9t0.5 -12l-4 -23q-2 -8 -9.5 -10t-16.5 -1q-31 3 -68.5 6.5t-64.5 3.5q-34 0 -57 -9.5
t-36.5 -30.5t-19.5 -55.5t-6 -85.5q0 -55 6 -91t20 -57.5t37 -30.5t56 -9q12 0 29.5 1t36 2.5t37.5 3t34 3.5q9 1 14.5 -1t7.5 -12zM365 542q-10 -8 -16 -1l-109 107l-105 -105q-5 -6 -9 -6t-9 5l-21 18q-7 5 0 13l94 119q5 7 10.5 9t16.5 2h47q14 0 19.5 -2.5t9.5 -7.5
l92 -119q8 -10 1 -16z" />
    <glyph glyph-name="Cdotaccent" unicode="&#x10a;" horiz-adv-x="538" 
d="M319 670q15 0 37 -1t47 -4t50 -8t45 -13q11 -5 13 -10t0 -12l-6 -28q-2 -5 -5.5 -9t-13.5 -2q-33 5 -77.5 9.5t-89.5 4.5q-58 0 -92 -22t-52 -59.5t-23 -87t-5 -104.5q0 -50 6 -97t24.5 -83t52.5 -57.5t89 -21.5q46 0 88 4.5t78 9.5q11 2 14.5 -2.5t5.5 -9.5l5 -26
q2 -8 0.5 -13t-11.5 -9q-18 -8 -43 -13t-50.5 -8t-48.5 -4.5t-38 -1.5q-79 0 -128.5 27.5t-77.5 73.5t-38 106t-10 125q0 66 9.5 128.5t36.5 110.5t77 77.5t131 29.5zM373 780q0 -18 -7.5 -31t-33.5 -13q-28 0 -35 13.5t-7 30.5t8 29t34 12t33.5 -11.5t7.5 -29.5z" />
    <glyph glyph-name="cdotaccent" unicode="&#x10b;" horiz-adv-x="425" 
d="M408 36q3 -14 -11 -21q-28 -13 -70.5 -18t-80.5 -5q-66 0 -105.5 20t-61 55t-28 81t-6.5 99q0 48 6.5 93t28 80t61 56t105.5 21q15 0 35 -1t40.5 -3.5t40.5 -7t36 -11.5q8 -3 9.5 -9t0.5 -12l-4 -23q-2 -8 -9.5 -10t-16.5 -1q-31 3 -68.5 6.5t-64.5 3.5q-34 0 -57 -9.5
t-36.5 -30.5t-19.5 -55.5t-6 -85.5q0 -55 6 -91t20 -57.5t37 -30.5t56 -9q12 0 29.5 1t36 2.5t37.5 3t34 3.5q9 1 14.5 -1t7.5 -12zM294 610q0 -18 -7.5 -31t-33.5 -13q-28 0 -35 13.5t-7 30.5t8 29t34 12t33.5 -11.5t7.5 -29.5z" />
    <glyph glyph-name="Ccaron" unicode="&#x10c;" horiz-adv-x="538" 
d="M319 670q15 0 37 -1t47 -4t50 -8t45 -13q11 -5 13 -10t0 -12l-6 -28q-2 -5 -5.5 -9t-13.5 -2q-33 5 -77.5 9.5t-89.5 4.5q-58 0 -92 -22t-52 -59.5t-23 -87t-5 -104.5q0 -50 6 -97t24.5 -83t52.5 -57.5t89 -21.5q46 0 88 4.5t78 9.5q11 2 14.5 -2.5t5.5 -9.5l5 -26
q2 -8 0.5 -13t-11.5 -9q-18 -8 -43 -13t-50.5 -8t-48.5 -4.5t-38 -1.5q-79 0 -128.5 27.5t-77.5 73.5t-38 106t-10 125q0 66 9.5 128.5t36.5 110.5t77 77.5t131 29.5zM299 703q-11 0 -17.5 3t-11.5 7l-103 94q-8 10 -1 16l20 18q8 6 16 1l121 -84l116 82q7 5 10 5.5t8 -4.5
l19 -17q6 -6 0 -13l-103 -97q-13 -11 -27 -11h-47z" />
    <glyph glyph-name="ccaron" unicode="&#x10d;" horiz-adv-x="425" 
d="M408 36q3 -14 -11 -21q-28 -13 -70.5 -18t-80.5 -5q-66 0 -105.5 20t-61 55t-28 81t-6.5 99q0 48 6.5 93t28 80t61 56t105.5 21q15 0 35 -1t40.5 -3.5t40.5 -7t36 -11.5q8 -3 9.5 -9t0.5 -12l-4 -23q-2 -8 -9.5 -10t-16.5 -1q-31 3 -68.5 6.5t-64.5 3.5q-34 0 -57 -9.5
t-36.5 -30.5t-19.5 -55.5t-6 -85.5q0 -55 6 -91t20 -57.5t37 -30.5t56 -9q12 0 29.5 1t36 2.5t37.5 3t34 3.5q9 1 14.5 -1t7.5 -12zM388 680q7 -6 -1 -16l-92 -119q-4 -5 -9.5 -7.5t-19.5 -2.5h-47q-11 0 -16.5 2t-10.5 9l-94 119q-7 8 0 13l21 18q5 5 9 5t9 -6l105 -105
l109 107q6 7 16 -1z" />
    <glyph glyph-name="Dcaron" unicode="&#x10e;" horiz-adv-x="617" 
d="M552 333q0 -69 -11.5 -129.5t-41.5 -106t-82 -71.5t-133 -26h-187q-12 0 -16.5 4t-4.5 13v629q0 16 18 16h190q80 0 132 -25.5t82 -70t42 -104.5t12 -129zM470 325q0 84 -15.5 136t-41.5 81t-59.5 39t-69.5 10h-130v-519h123q34 0 68 8.5t62 35t45.5 76.5t17.5 133z
M268 703q-11 0 -17.5 3t-11.5 7l-103 94q-8 10 -1 16l20 18q8 6 16 1l121 -84l116 82q7 5 10 5.5t8 -4.5l19 -17q6 -6 0 -13l-103 -97q-13 -11 -27 -11h-47z" />
    <glyph glyph-name="dcaron" unicode="&#x10f;" horiz-adv-x="613" 
d="M616 660q0 -52 -24 -86t-54 -53q-3 -2 -8 -4t-8 1l-14 14q-4 5 4 13q18 16 25.5 34t7.5 37q0 18 -7 31.5t-18 26.5q-3 4 -3 9.5t7 11.5l38 27q7 5 13.5 4.5t11.5 -5.5q15 -14 22 -30.5t7 -30.5zM454 17q0 -17 -16 -17h-42q-8 0 -12.5 3t-4.5 14v37l-3 1q-11 -7 -29.5 -18
t-41 -21t-48.5 -17t-51 -7q-47 0 -78.5 16.5t-50.5 48t-26.5 77.5t-7.5 105q0 63 9 111t31.5 80.5t60.5 49.5t96 17q27 0 61.5 -6t75.5 -22l2 1v216q0 10 3 14.5t14 4.5h42q10 0 13 -4t3 -15v-669zM378 406q-41 12 -76.5 17t-67.5 5t-53.5 -9.5t-34.5 -32t-18.5 -59
t-5.5 -90.5q0 -57 5.5 -91.5t17 -53.5t28.5 -25t40 -6q18 0 41.5 6.5t46.5 15.5t44 18.5t33 16.5v288z" />
    <glyph glyph-name="Emacron" unicode="&#x112;" horiz-adv-x="505" 
d="M460 16q0 -10 -4 -13t-13 -3h-351q-18 0 -18 16v630q0 17 18 17h345q17 0 17 -16v-39q0 -17 -18 -17h-284v-211h255q17 0 17 -16v-39q0 -16 -17 -16h-255v-238h292q16 0 16 -17v-38zM408 737q0 -12 -14 -12h-252q-14 0 -14 12v38q0 8 3.5 10.5t10.5 2.5h252
q7 0 10.5 -2.5t3.5 -10.5v-38z" />
    <glyph glyph-name="emacron" unicode="&#x113;" horiz-adv-x="489" 
d="M451 276q1 -24 -7.5 -40.5t-36.5 -16.5h-282q1 -45 8 -75.5t23 -49t40.5 -26t59.5 -7.5q15 0 34 1.5l38 3t36.5 3.5t30.5 4q10 1 15.5 -1t7.5 -12l4 -22q3 -14 -11 -20t-34 -11t-42 -8.5t-44 -5.5t-40 -2q-69 0 -109.5 21.5t-61.5 56.5t-27.5 80.5t-6.5 93.5q0 36 6 80.5
t27 83t61 64.5t109 26q64 0 103 -19t60.5 -50t29 -71t9.5 -81zM370 282q0 26 -4.5 52.5t-17.5 47.5t-37 34t-64 13q-33 0 -55.5 -10.5t-36.5 -29.5t-21 -46t-9 -61h245zM395 585q0 -12 -14 -12h-252q-14 0 -14 12v38q0 8 3.5 10.5t10.5 2.5h252q7 0 10.5 -2.5t3.5 -10.5v-38
z" />
    <glyph glyph-name="Ebreve" unicode="&#x114;" horiz-adv-x="505" 
d="M460 16q0 -10 -4 -13t-13 -3h-351q-18 0 -18 16v630q0 17 18 17h345q17 0 17 -16v-39q0 -17 -18 -17h-284v-211h255q17 0 17 -16v-39q0 -16 -17 -16h-255v-238h292q16 0 16 -17v-38zM256 700q-43 0 -82.5 22t-62.5 70q-2 4 -5 12.5t2 13.5l21 16q8 6 17 -3q15 -17 27 -30
t25 -21.5t27.5 -12.5t32.5 -4q35 0 56 16.5t50 51.5q9 9 17 3l21 -14q5 -5 2 -13.5t-5 -12.5q-23 -48 -62 -71t-81 -23z" />
    <glyph glyph-name="ebreve" unicode="&#x115;" horiz-adv-x="489" 
d="M451 276q1 -24 -7.5 -40.5t-36.5 -16.5h-282q1 -45 8 -75.5t23 -49t40.5 -26t59.5 -7.5q15 0 34 1.5l38 3t36.5 3.5t30.5 4q10 1 15.5 -1t7.5 -12l4 -22q3 -14 -11 -20t-34 -11t-42 -8.5t-44 -5.5t-40 -2q-69 0 -109.5 21.5t-61.5 56.5t-27.5 80.5t-6.5 93.5q0 36 6 80.5
t27 83t61 64.5t109 26q64 0 103 -19t60.5 -50t29 -71t9.5 -81zM370 282q0 26 -4.5 52.5t-17.5 47.5t-37 34t-64 13q-33 0 -55.5 -10.5t-36.5 -29.5t-21 -46t-9 -61h245zM251 538q-43 0 -82.5 22t-62.5 70q-2 4 -5 12.5t2 13.5l21 16q5 4 9 2.5t8 -5.5q15 -17 27 -30
t25 -21.5t27.5 -12.5t32.5 -4t31 4.5t24.5 13t23.5 21t27 29.5q9 9 17 3l21 -14q6 -4 2.5 -13t-5.5 -13q-23 -48 -62 -71t-81 -23z" />
    <glyph glyph-name="Edotaccent" unicode="&#x116;" horiz-adv-x="505" 
d="M460 16q0 -10 -4 -13t-13 -3h-351q-18 0 -18 16v630q0 17 18 17h345q17 0 17 -16v-39q0 -17 -18 -17h-284v-211h255q17 0 17 -16v-39q0 -16 -17 -16h-255v-238h292q16 0 16 -17v-38zM319 760q0 -18 -7.5 -31t-33.5 -13q-28 0 -35 13.5t-7 30.5t8 29t34 12t33.5 -11.5
t7.5 -29.5z" />
    <glyph glyph-name="edotaccent" unicode="&#x117;" horiz-adv-x="489" 
d="M451 276q1 -24 -7.5 -40.5t-36.5 -16.5h-282q1 -45 8 -75.5t23 -49t40.5 -26t59.5 -7.5q15 0 34 1.5l38 3t36.5 3.5t30.5 4q10 1 15.5 -1t7.5 -12l4 -22q3 -14 -11 -20t-34 -11t-42 -8.5t-44 -5.5t-40 -2q-69 0 -109.5 21.5t-61.5 56.5t-27.5 80.5t-6.5 93.5q0 36 6 80.5
t27 83t61 64.5t109 26q64 0 103 -19t60.5 -50t29 -71t9.5 -81zM370 282q0 26 -4.5 52.5t-17.5 47.5t-37 34t-64 13q-33 0 -55.5 -10.5t-36.5 -29.5t-21 -46t-9 -61h245zM299 610q0 -18 -7.5 -31t-33.5 -13q-28 0 -35 13.5t-7 30.5t8 29t34 12t33.5 -11.5t7.5 -29.5z" />
    <glyph glyph-name="Ecaron" unicode="&#x11a;" horiz-adv-x="505" 
d="M460 16q0 -10 -4 -13t-13 -3h-351q-18 0 -18 16v630q0 17 18 17h345q17 0 17 -16v-39q0 -17 -18 -17h-284v-211h255q17 0 17 -16v-39q0 -16 -17 -16h-255v-238h292q16 0 16 -17v-38zM237 703q-11 0 -17.5 3t-11.5 7l-103 94q-8 10 -1 16l20 18q8 6 16 1l121 -84l116 82
q7 5 10 5.5t8 -4.5l19 -17q6 -6 0 -13l-103 -97q-13 -11 -27 -11h-47z" />
    <glyph glyph-name="ecaron" unicode="&#x11b;" horiz-adv-x="489" 
d="M451 276q1 -24 -7.5 -40.5t-36.5 -16.5h-282q1 -45 8 -75.5t23 -49t40.5 -26t59.5 -7.5q15 0 34 1.5l38 3t36.5 3.5t30.5 4q10 1 15.5 -1t7.5 -12l4 -22q3 -14 -11 -20t-34 -11t-42 -8.5t-44 -5.5t-40 -2q-69 0 -109.5 21.5t-61.5 56.5t-27.5 80.5t-6.5 93.5q0 36 6 80.5
t27 83t61 64.5t109 26q64 0 103 -19t60.5 -50t29 -71t9.5 -81zM370 282q0 26 -4.5 52.5t-17.5 47.5t-37 34t-64 13q-33 0 -55.5 -10.5t-36.5 -29.5t-21 -46t-9 -61h245zM395 680q7 -6 -1 -16l-92 -119q-4 -5 -9.5 -7.5t-19.5 -2.5h-47q-11 0 -16.5 2t-10.5 9l-94 119
q-7 8 0 13l21 18q5 5 9 5t9 -6l105 -105l109 107q6 7 16 -1z" />
    <glyph glyph-name="Gcircumflex" unicode="&#x11c;" horiz-adv-x="604" 
d="M321 670q14 0 36.5 -1t47 -4t50 -8t45.5 -13q10 -4 12.5 -9t0.5 -13l-7 -28q-1 -5 -4.5 -9t-13.5 -2q-34 5 -78.5 9.5t-88.5 4.5q-57 0 -91 -22t-52 -59.5t-23.5 -87t-5.5 -104.5q0 -51 7 -98t26.5 -83t54 -58t90.5 -22q13 0 30 1t35 3t34 5t28 7v204h-91q-18 0 -18 17
v39q0 16 17 16h153q11 0 15 -6t4 -11v-286q0 -14 -6 -22t-21 -13q-41 -12 -86.5 -18.5t-88.5 -6.5q-74 0 -125 23.5t-82.5 67t-45 105t-13.5 137.5q0 66 10 128t37.5 110t77.5 77.5t130 29.5zM469 702q-8 -6 -16 -1l-119 84l-116 -85q-7 -5 -10 -5.5t-8 4.5l-19 20
q-6 6 0 13l103 97q8 6 13.5 8.5t13.5 2.5h47q11 0 17 -2.5t12 -7.5l100 -94q10 -9 1 -16z" />
    <glyph glyph-name="gcircumflex" unicode="&#x11d;" horiz-adv-x="511" 
d="M254 497q23 0 48 -2t49 -5t46 -7.5t40 -9.5q17 -5 21 -17t4 -23v-435q0 -40 -6 -73.5t-26 -58t-58 -38t-102 -13.5q-19 0 -41 1t-43.5 3.5t-42 7t-36.5 11.5q-10 4 -11.5 9.5t0.5 11.5l4 22q2 9 8 11t17 0q32 -5 71 -7t70 -2q35 0 57.5 5.5t36 17.5t19 30.5t5.5 44.5v40
q-46 -17 -80.5 -23.5t-61.5 -6.5q-58 0 -95.5 17.5t-59.5 50.5t-30.5 79t-8.5 103q0 61 10 108.5t34 80.5t63.5 50t98.5 17zM128 250q0 -53 6 -89t19.5 -59t34.5 -33t52 -10q28 0 67 6t77 17v333q-29 4 -62.5 7.5t-65.5 3.5q-27 0 -50.5 -6t-41 -24.5t-27 -53t-9.5 -92.5z
M395 542q-10 -8 -16 -1l-109 107l-105 -105q-5 -6 -9 -6t-9 5l-21 18q-7 5 0 13l94 119q5 7 10.5 9t16.5 2h47q14 0 19.5 -2.5t9.5 -7.5l92 -119q8 -10 1 -16z" />
    <glyph glyph-name="Gbreve" unicode="&#x11e;" horiz-adv-x="604" 
d="M321 670q14 0 36.5 -1t47 -4t50 -8t45.5 -13q10 -4 12.5 -9t0.5 -13l-7 -28q-1 -5 -4.5 -9t-13.5 -2q-34 5 -78.5 9.5t-88.5 4.5q-57 0 -91 -22t-52 -59.5t-23.5 -87t-5.5 -104.5q0 -51 7 -98t26.5 -83t54 -58t90.5 -22q13 0 30 1t35 3t34 5t28 7v204h-91q-18 0 -18 17
v39q0 16 17 16h153q11 0 15 -6t4 -11v-286q0 -14 -6 -22t-21 -13q-41 -12 -86.5 -18.5t-88.5 -6.5q-74 0 -125 23.5t-82.5 67t-45 105t-13.5 137.5q0 66 10 128t37.5 110t77.5 77.5t130 29.5zM335 700q-43 0 -82.5 22t-62.5 70q-2 4 -5 12.5t2 13.5l21 16q8 6 17 -3
q15 -17 27 -30t25 -21.5t27.5 -12.5t32.5 -4q35 0 56 16.5t50 51.5q9 9 17 3l21 -14q5 -5 2 -13.5t-5 -12.5q-23 -48 -62 -71t-81 -23z" />
    <glyph glyph-name="gbreve" unicode="&#x11f;" horiz-adv-x="511" 
d="M254 497q23 0 48 -2t49 -5t46 -7.5t40 -9.5q17 -5 21 -17t4 -23v-435q0 -40 -6 -73.5t-26 -58t-58 -38t-102 -13.5q-19 0 -41 1t-43.5 3.5t-42 7t-36.5 11.5q-10 4 -11.5 9.5t0.5 11.5l4 22q2 9 8 11t17 0q32 -5 71 -7t70 -2q35 0 57.5 5.5t36 17.5t19 30.5t5.5 44.5v40
q-46 -17 -80.5 -23.5t-61.5 -6.5q-58 0 -95.5 17.5t-59.5 50.5t-30.5 79t-8.5 103q0 61 10 108.5t34 80.5t63.5 50t98.5 17zM128 250q0 -53 6 -89t19.5 -59t34.5 -33t52 -10q28 0 67 6t77 17v333q-29 4 -62.5 7.5t-65.5 3.5q-27 0 -50.5 -6t-41 -24.5t-27 -53t-9.5 -92.5z
M271 538q-43 0 -82.5 22t-62.5 70q-2 4 -5 12.5t2 13.5l21 16q5 4 9 2.5t8 -5.5q15 -17 27 -30t25 -21.5t27.5 -12.5t32.5 -4t31 4.5t24.5 13t23.5 21t27 29.5q9 9 17 3l21 -14q6 -4 2.5 -13t-5.5 -13q-23 -48 -62 -71t-81 -23z" />
    <glyph glyph-name="Gdotaccent" unicode="&#x120;" horiz-adv-x="604" 
d="M321 670q14 0 36.5 -1t47 -4t50 -8t45.5 -13q10 -4 12.5 -9t0.5 -13l-7 -28q-1 -5 -4.5 -9t-13.5 -2q-34 5 -78.5 9.5t-88.5 4.5q-57 0 -91 -22t-52 -59.5t-23.5 -87t-5.5 -104.5q0 -51 7 -98t26.5 -83t54 -58t90.5 -22q13 0 30 1t35 3t34 5t28 7v204h-91q-18 0 -18 17
v39q0 16 17 16h153q11 0 15 -6t4 -11v-286q0 -14 -6 -22t-21 -13q-41 -12 -86.5 -18.5t-88.5 -6.5q-74 0 -125 23.5t-82.5 67t-45 105t-13.5 137.5q0 66 10 128t37.5 110t77.5 77.5t130 29.5zM372 760q0 -18 -7.5 -31t-33.5 -13q-28 0 -35 13.5t-7 30.5t8 29t34 12
t33.5 -11.5t7.5 -29.5z" />
    <glyph glyph-name="gdotaccent" unicode="&#x121;" horiz-adv-x="511" 
d="M254 497q23 0 48 -2t49 -5t46 -7.5t40 -9.5q17 -5 21 -17t4 -23v-435q0 -40 -6 -73.5t-26 -58t-58 -38t-102 -13.5q-19 0 -41 1t-43.5 3.5t-42 7t-36.5 11.5q-10 4 -11.5 9.5t0.5 11.5l4 22q2 9 8 11t17 0q32 -5 71 -7t70 -2q35 0 57.5 5.5t36 17.5t19 30.5t5.5 44.5v40
q-46 -17 -80.5 -23.5t-61.5 -6.5q-58 0 -95.5 17.5t-59.5 50.5t-30.5 79t-8.5 103q0 61 10 108.5t34 80.5t63.5 50t98.5 17zM128 250q0 -53 6 -89t19.5 -59t34.5 -33t52 -10q28 0 67 6t77 17v333q-29 4 -62.5 7.5t-65.5 3.5q-27 0 -50.5 -6t-41 -24.5t-27 -53t-9.5 -92.5z
M317 610q0 -18 -7.5 -31t-33.5 -13q-28 0 -35 13.5t-7 30.5t8 29t34 12t33.5 -11.5t7.5 -29.5z" />
    <glyph glyph-name="Gcommaaccent" unicode="&#x122;" horiz-adv-x="604" 
d="M321 670q14 0 36.5 -1t47 -4t50 -8t45.5 -13q10 -4 12.5 -9t0.5 -13l-7 -28q-1 -5 -4.5 -9t-13.5 -2q-34 5 -78.5 9.5t-88.5 4.5q-57 0 -91 -22t-52 -59.5t-23.5 -87t-5.5 -104.5q0 -51 7 -98t26.5 -83t54 -58t90.5 -22q13 0 30 1t35 3t34 5t28 7v204h-91q-18 0 -18 17
v39q0 16 17 16h153q11 0 15 -6t4 -11v-286q0 -14 -6 -22t-21 -13q-41 -12 -86.5 -18.5t-88.5 -6.5q-74 0 -125 23.5t-82.5 67t-45 105t-13.5 137.5q0 66 10 128t37.5 110t77.5 77.5t130 29.5zM387 -122q0 -52 -24 -86t-54 -53q-3 -2 -8 -4t-8 1l-14 14q-4 5 4 13
q18 16 25.5 34t7.5 37q0 18 -7 31.5t-18 26.5q-3 4 -3 9.5t7 11.5l38 27q7 5 13.5 4.5t11.5 -5.5q15 -14 22 -30.5t7 -30.5z" />
    <glyph glyph-name="gcommaaccent" unicode="&#x123;" horiz-adv-x="511" 
d="M246 611q0 52 24 86t54 53q3 2 8 4t8 -1l14 -14q4 -5 -4 -13q-18 -16 -25.5 -34t-7.5 -37q0 -18 7 -31.5t18 -26.5q3 -4 3 -9.5t-7 -11.5l-38 -27q-7 -5 -13.5 -4.5t-11.5 5.5q-15 14 -22 30.5t-7 30.5zM254 497q23 0 48 -2t49 -5t46 -7.5t40 -9.5q17 -5 21 -17t4 -23
v-435q0 -40 -6 -73.5t-26 -58t-58 -38t-102 -13.5q-19 0 -41 1t-43.5 3.5t-42 7t-36.5 11.5q-10 4 -11.5 9.5t0.5 11.5l4 22q2 9 8 11t17 0q32 -5 71 -7t70 -2q35 0 57.5 5.5t36 17.5t19 30.5t5.5 44.5v40q-46 -17 -80.5 -23.5t-61.5 -6.5q-58 0 -95.5 17.5t-59.5 50.5
t-30.5 79t-8.5 103q0 61 10 108.5t34 80.5t63.5 50t98.5 17zM128 250q0 -53 6 -89t19.5 -59t34.5 -33t52 -10q28 0 67 6t77 17v333q-29 4 -62.5 7.5t-65.5 3.5q-27 0 -50.5 -6t-41 -24.5t-27 -53t-9.5 -92.5z" />
    <glyph glyph-name="Hcircumflex" unicode="&#x124;" horiz-adv-x="595" 
d="M523 17q0 -17 -16 -17h-43q-18 0 -18 17v298h-297v-298q0 -17 -16 -17h-43q-18 0 -18 17v628q0 11 4.5 14.5t13.5 3.5h43q8 0 12 -3.5t4 -14.5v-258h297v258q0 11 4.5 14.5t13.5 3.5h43q8 0 12 -3.5t4 -14.5v-628zM430 702q-8 -6 -16 -1l-119 84l-116 -85q-7 -5 -10 -5.5
t-8 4.5l-19 20q-6 6 0 13l103 97q8 6 13.5 8.5t13.5 2.5h47q11 0 17 -2.5t12 -7.5l100 -94q10 -9 1 -16z" />
    <glyph glyph-name="hcircumflex" unicode="&#x125;" horiz-adv-x="512" 
d="M454 17q0 -17 -18 -17h-42q-17 0 -17 17l1 305q0 32 -4 52.5t-13.5 32.5t-25 16.5t-38.5 4.5q-18 0 -42 -7t-48 -16t-45 -18.5t-32 -15.5v-354q0 -17 -18 -17h-41q-16 0 -16 17v671q0 17 16 17h41q18 0 18 -17v-254l1 -1q12 8 31.5 19t43 21t50 17t53.5 7q49 0 77.5 -14
t43.5 -38.5t19.5 -58.5t4.5 -74v-295zM231 702q-8 -6 -16 -1l-119 84l-116 -85q-7 -5 -10 -5.5t-8 4.5l-19 20q-6 6 0 13l103 97q8 6 13.5 8.5t13.5 2.5h47q11 0 17 -2.5t12 -7.5l100 -94q10 -9 1 -16z" />
    <glyph glyph-name="IJ" unicode="&#x132;" horiz-adv-x="614" 
d="M163 17q0 -17 -17 -17h-44q-18 0 -18 17v628q0 11 4.5 14.5t13.5 3.5h44q8 0 12.5 -3.5t4.5 -14.5v-628zM539 160q0 -80 -42.5 -124.5t-144.5 -44.5q-32 0 -62 4.5t-60 16.5q-12 5 -14.5 10.5t-0.5 13.5l7 28q2 7 5.5 9.5t12.5 0.5q22 -3 52.5 -6t51.5 -3q35 0 57.5 6.5
t35.5 19.5t18 32t5 44v478q0 11 4.5 14.5t13.5 3.5h43q9 0 13.5 -3.5t4.5 -14.5v-485z" />
    <glyph glyph-name="ij" unicode="&#x133;" horiz-adv-x="422" 
d="M155 617q0 -19 -7.5 -32t-35.5 -13q-29 0 -36 13.5t-7 31.5q0 19 8.5 31t34.5 12q27 0 35 -11.5t8 -31.5zM149 17q0 -17 -16 -17h-41q-18 0 -18 17v453q0 11 4.5 14t13.5 3h41q16 0 16 -17v-453zM343 -34q0 -35 -6 -66.5t-26 -55.5t-57.5 -37t-100.5 -11q-5 0 -12 3
t-8 14l-2 23q-1 10 3 13.5t11 5.5q35 7 58.5 13.5t37.5 17.5t20 29.5t6 48.5v506q0 11 4.5 14t13.5 3h40q18 0 18 -17v-504zM348 617q0 -19 -7.5 -32t-35.5 -13q-29 0 -36 13.5t-7 31.5q0 19 8.5 31t34.5 12q27 0 35 -11.5t8 -31.5z" />
    <glyph glyph-name="Jcircumflex" unicode="&#x134;" horiz-adv-x="429" 
d="M333 161q0 -80 -42.5 -124.5t-144.5 -44.5q-32 0 -62 4.5t-60 16.5q-12 5 -14.5 10.5t-0.5 13.5l7 28q2 7 5.5 9.5t12.5 0.5q22 -3 52.5 -6t51.5 -3q35 0 57.5 6.5t35.5 19.5t18 32t5 44v478q0 11 4.5 14.5t13.5 3.5h43q9 0 13.5 -3.5t4.5 -14.5v-485zM431 704
q-8 -6 -16 -1l-119 84l-116 -85q-7 -5 -10 -5.5t-8 4.5l-19 20q-6 6 0 13l103 97q8 6 13.5 8.5t13.5 2.5h47q11 0 17 -2.5t12 -7.5l100 -94q10 -9 1 -16z" />
    <glyph glyph-name="jcircumflex" unicode="&#x135;" horiz-adv-x="294" 
d="M198 -34q0 -35 -6 -66.5t-26 -55.5t-57.5 -37t-100.5 -11q-5 0 -12 3t-8 14l-2 23q-1 10 3 13.5t11 5.5q35 7 58.5 13.5t37.5 17.5t20 29.5t6 48.5v506q0 11 4.5 14t13.5 3h40q18 0 18 -17v-504zM284 542q-10 -8 -16 -1l-109 107l-105 -105q-5 -6 -9 -6t-9 5l-21 18
q-7 5 0 13l94 119q5 7 10.5 9t16.5 2h47q14 0 19.5 -2.5t9.5 -7.5l92 -119q8 -10 1 -16z" />
    <glyph glyph-name="Kcommaaccent" unicode="&#x136;" horiz-adv-x="550" 
d="M533 14q3 -5 1 -9.5t-9 -4.5h-61q-9 0 -13.5 3t-9.5 11l-183 306l-111 -136v-167q0 -17 -16 -17h-43q-18 0 -18 17v628q0 11 4.5 14.5t13.5 3.5h43q8 0 12 -3.5t4 -14.5v-349l2 -1l79 101l208 256q5 6 9.5 8.5t13.5 2.5h61q7 0 9.5 -4.5t-2.5 -9.5l-218 -267zM329 -102
q0 -52 -24 -86t-54 -53q-3 -2 -8 -4t-8 1l-14 14q-4 5 4 13q18 16 25.5 34t7.5 37q0 18 -7 31.5t-18 26.5q-3 4 -3 9.5t7 11.5l38 27q7 5 13.5 4.5t11.5 -5.5q15 -14 22 -30.5t7 -30.5z" />
    <glyph glyph-name="kcommaaccent" unicode="&#x137;" horiz-adv-x="446" 
d="M332 475q5 7 9 10t13 3h52q8 0 11.5 -6t-2.5 -13l-149 -179l169 -272q4 -6 1 -12t-11 -6h-52q-9 0 -13.5 3.5t-9.5 10.5l-133 218l-80 -97v-118q0 -17 -18 -17h-41q-17 0 -17 17v671q0 17 17 17h41q18 0 18 -17v-448l2 -1l52 67zM290 -122q0 -52 -24 -86t-54 -53
q-3 -2 -8 -4t-8 1l-14 14q-4 5 4 13q18 16 25.5 34t7.5 37q0 18 -7 31.5t-18 26.5q-3 4 -3 9.5t7 11.5l38 27q7 5 13.5 4.5t11.5 -5.5q15 -14 22 -30.5t7 -30.5z" />
    <glyph glyph-name="kgreenlandic" unicode="&#x138;" horiz-adv-x="446" 
d="M257 307l184 -289q4 -6 1 -12t-11 -6h-52q-9 0 -13.5 3.5t-9.5 10.5l-152 241l-67 -65v-173q0 -17 -18 -17h-41q-17 0 -17 17v453q0 17 17 17h41q18 0 18 -17v-185l2 -1l197 191q6 6 11 9.5t13 3.5h54q11 0 13 -6t-4 -13z" />
    <glyph glyph-name="Lacute" unicode="&#x139;" horiz-adv-x="484" 
d="M469 16q0 -16 -16 -16h-360q-18 0 -18 16v629q0 11 4.5 14.5t12.5 3.5h44q8 0 12 -3.5t4 -14.5v-574h300q17 0 17 -17v-38zM269 793q5 -6 1.5 -9.5t-6.5 -5.5l-139 -75q-8 -4 -15 3l-21 23q-6 6 4 13l128 95q7 6 16 -5z" />
    <glyph glyph-name="lacute" unicode="&#x13a;" horiz-adv-x="237" 
d="M217 23q1 -12 -10 -17q-12 -5 -26.5 -8t-27.5 -3q-25 0 -41 6t-25 16.5t-12.5 26t-3.5 33.5v610q0 17 17 17h40q9 0 13.5 -3t4.5 -14v-585q0 -26 11 -31.5t39 -5.5q16 0 17 -10zM267 829q5 -6 1.5 -9.5t-6.5 -5.5l-139 -75q-8 -4 -15 3l-21 23q-6 6 4 13l128 95
q7 6 16 -5z" />
    <glyph glyph-name="Lcommaaccent" unicode="&#x13b;" horiz-adv-x="484" 
d="M469 16q0 -16 -16 -16h-360q-18 0 -18 16v629q0 11 4.5 14.5t12.5 3.5h44q8 0 12 -3.5t4 -14.5v-574h300q17 0 17 -17v-38zM327 -122q0 -52 -24 -86t-54 -53q-3 -2 -8 -4t-8 1l-14 14q-4 5 4 13q18 16 25.5 34t7.5 37q0 18 -7 31.5t-18 26.5q-3 4 -3 9.5t7 11.5l38 27
q7 5 13.5 4.5t11.5 -5.5q15 -14 22 -30.5t7 -30.5z" />
    <glyph glyph-name="lcommaaccent" unicode="&#x13c;" horiz-adv-x="237" 
d="M217 23q1 -12 -10 -17q-12 -5 -26.5 -8t-27.5 -3q-25 0 -41 6t-25 16.5t-12.5 26t-3.5 33.5v610q0 17 17 17h40q9 0 13.5 -3t4.5 -14v-585q0 -26 11 -31.5t39 -5.5q16 0 17 -10zM175 -122q0 -52 -24 -86t-54 -53q-3 -2 -8 -4t-8 1l-14 14q-4 5 4 13q18 16 25.5 34t7.5 37
q0 18 -7 31.5t-18 26.5q-3 4 -3 9.5t7 11.5l38 27q7 5 13.5 4.5t11.5 -5.5q15 -14 22 -30.5t7 -30.5z" />
    <glyph glyph-name="Lcaron" unicode="&#x13d;" horiz-adv-x="484" 
d="M469 16q0 -16 -16 -16h-360q-18 0 -18 16v629q0 11 4.5 14.5t12.5 3.5h44q8 0 12 -3.5t4 -14.5v-574h300q17 0 17 -17v-38zM363 591q0 -52 -24 -86t-54 -53q-3 -2 -8 -4t-8 1l-14 14q-4 5 4 13q18 16 25.5 34t7.5 37q0 18 -7 31.5t-18 26.5q-3 4 -3 9.5t7 11.5l38 27
q7 5 13.5 4.5t11.5 -5.5q15 -14 22 -30.5t7 -30.5z" />
    <glyph glyph-name="lcaron" unicode="&#x13e;" horiz-adv-x="290" 
d="M300 640q0 -52 -24 -86t-54 -53q-3 -2 -8 -4t-8 1l-14 14q-4 5 4 13q18 16 25.5 34t7.5 37q0 18 -7 31.5t-18 26.5q-3 4 -3 9.5t7 11.5l38 27q7 5 13.5 4.5t11.5 -5.5q15 -14 22 -30.5t7 -30.5zM217 23q1 -12 -10 -17q-12 -5 -26.5 -8t-27.5 -3q-25 0 -41 6t-25 16.5
t-12.5 26t-3.5 33.5v610q0 17 17 17h40q9 0 13.5 -3t4.5 -14v-585q0 -26 11 -31.5t39 -5.5q16 0 17 -10z" />
    <glyph glyph-name="Ldot" unicode="&#x13f;" horiz-adv-x="484" 
d="M469 16q0 -16 -16 -16h-360q-18 0 -18 16v629q0 11 4.5 14.5t12.5 3.5h44q8 0 12 -3.5t4 -14.5v-574h300q17 0 17 -17v-38zM351 334q0 -18 -7.5 -31t-33.5 -13q-28 0 -35 13.5t-7 30.5t8 29t34 12t33.5 -11.5t7.5 -29.5z" />
    <glyph glyph-name="ldot" unicode="&#x140;" horiz-adv-x="275" 
d="M280 351q0 -18 -7.5 -31t-33.5 -13q-28 0 -35 13.5t-7 30.5t8 29t34 12t33.5 -11.5t7.5 -29.5zM217 23q1 -12 -10 -17q-12 -5 -26.5 -8t-27.5 -3q-25 0 -41 6t-25 16.5t-12.5 26t-3.5 33.5v610q0 17 17 17h40q9 0 13.5 -3t4.5 -14v-585q0 -26 11 -31.5t39 -5.5
q16 0 17 -10z" />
    <glyph glyph-name="Nacute" unicode="&#x143;" horiz-adv-x="629" 
d="M151 523h-3v-506q0 -17 -17 -17h-41q-18 0 -18 17v631q0 15 16 15h41q11 0 15.5 -4.5t9.5 -11.5l271 -418l53 -84h3v500q0 11 4 14.5t13 3.5h42q8 0 12 -3.5t4 -14.5v-629q0 -16 -16 -16h-38q-11 0 -16 4t-10 12l-267 412zM449 793q5 -6 1.5 -9.5t-6.5 -5.5l-139 -75
q-8 -4 -15 3l-21 23q-6 6 4 13l128 95q7 6 16 -5z" />
    <glyph glyph-name="nacute" unicode="&#x144;" horiz-adv-x="505" 
d="M452 17q0 -17 -18 -17h-42q-17 0 -17 17l1 296q0 34 -4 56.5t-13.5 35.5t-25 18t-38.5 5q-18 0 -42 -7t-48 -16t-45 -18.5t-32 -15.5v-354q0 -17 -18 -17h-41q-16 0 -16 17v453q0 17 16 17h41q9 0 13.5 -3t4.5 -14v-36l3 -1q12 8 31 19t42.5 21t49.5 17t53 7
q49 0 77.5 -14t43.5 -38.5t19.5 -58.5t4.5 -74v-295zM249 546q-5 -7 -15 -3l-29 10q-8 3 -3 14l70 143q4 9 17 3l46 -20q7 -3 6 -7.5t-3 -7.5z" />
    <glyph glyph-name="Ncommaaccent" unicode="&#x145;" horiz-adv-x="629" 
d="M151 523h-3v-506q0 -17 -17 -17h-41q-18 0 -18 17v631q0 15 16 15h41q11 0 15.5 -4.5t9.5 -11.5l271 -418l53 -84h3v500q0 11 4 14.5t13 3.5h42q8 0 12 -3.5t4 -14.5v-629q0 -16 -16 -16h-38q-11 0 -16 4t-10 12l-267 412zM368 -102q0 -52 -24 -86t-54 -53q-3 -2 -8 -4
t-8 1l-14 14q-4 5 4 13q18 16 25.5 34t7.5 37q0 18 -7 31.5t-18 26.5q-3 4 -3 9.5t7 11.5l38 27q7 5 13.5 4.5t11.5 -5.5q15 -14 22 -30.5t7 -30.5z" />
    <glyph glyph-name="ncommaaccent" unicode="&#x146;" horiz-adv-x="505" 
d="M452 17q0 -17 -18 -17h-42q-17 0 -17 17l1 296q0 34 -4 56.5t-13.5 35.5t-25 18t-38.5 5q-18 0 -42 -7t-48 -16t-45 -18.5t-32 -15.5v-354q0 -17 -18 -17h-41q-16 0 -16 17v453q0 17 16 17h41q9 0 13.5 -3t4.5 -14v-36l3 -1q12 8 31 19t42.5 21t49.5 17t53 7
q49 0 77.5 -14t43.5 -38.5t19.5 -58.5t4.5 -74v-295zM306 -122q0 -52 -24 -86t-54 -53q-3 -2 -8 -4t-8 1l-14 14q-4 5 4 13q18 16 25.5 34t7.5 37q0 18 -7 31.5t-18 26.5q-3 4 -3 9.5t7 11.5l38 27q7 5 13.5 4.5t11.5 -5.5q15 -14 22 -30.5t7 -30.5z" />
    <glyph glyph-name="Ncaron" unicode="&#x147;" horiz-adv-x="629" 
d="M151 523h-3v-506q0 -17 -17 -17h-41q-18 0 -18 17v631q0 15 16 15h41q11 0 15.5 -4.5t9.5 -11.5l271 -418l53 -84h3v500q0 11 4 14.5t13 3.5h42q8 0 12 -3.5t4 -14.5v-629q0 -16 -16 -16h-38q-11 0 -16 4t-10 12l-267 412zM294 703q-11 0 -17.5 3t-11.5 7l-103 94
q-8 10 -1 16l20 18q8 6 16 1l121 -84l116 82q7 5 10 5.5t8 -4.5l19 -17q6 -6 0 -13l-103 -97q-13 -11 -27 -11h-47z" />
    <glyph glyph-name="ncaron" unicode="&#x148;" horiz-adv-x="505" 
d="M452 17q0 -17 -18 -17h-42q-17 0 -17 17l1 296q0 34 -4 56.5t-13.5 35.5t-25 18t-38.5 5q-18 0 -42 -7t-48 -16t-45 -18.5t-32 -15.5v-354q0 -17 -18 -17h-41q-16 0 -16 17v453q0 17 16 17h41q9 0 13.5 -3t4.5 -14v-36l3 -1q12 8 31 19t42.5 21t49.5 17t53 7
q49 0 77.5 -14t43.5 -38.5t19.5 -58.5t4.5 -74v-295zM390 680q7 -6 -1 -16l-92 -119q-4 -5 -9.5 -7.5t-19.5 -2.5h-47q-11 0 -16.5 2t-10.5 9l-94 119q-7 8 0 13l21 18q5 5 9 5t9 -6l105 -105l109 107q6 7 16 -1z" />
    <glyph glyph-name="napostrophe" unicode="&#x149;" horiz-adv-x="544" 
d="M491 17q0 -17 -18 -17h-42q-17 0 -17 17l1 296q0 34 -4 56.5t-13.5 35.5t-25 18t-38.5 5q-18 0 -42 -7t-48 -16t-45 -18.5t-32 -15.5v-354q0 -17 -18 -17h-41q-16 0 -16 17v453q0 17 16 17h41q9 0 13.5 -3t4.5 -14v-36l3 -1q12 8 31 19t42.5 21t49.5 17t53 7
q49 0 77.5 -14t43.5 -38.5t19.5 -58.5t4.5 -74v-295zM86 605q0 -52 -24 -86t-54 -53q-3 -2 -8 -4t-8 1l-14 14q-4 5 4 13q18 16 25.5 34t7.5 37q0 18 -7 31.5t-18 26.5q-3 4 -3 9.5t7 11.5l38 27q7 5 13.5 4.5t11.5 -5.5q15 -14 22 -30.5t7 -30.5z" />
    <glyph glyph-name="Omacron" unicode="&#x14c;" horiz-adv-x="638" 
d="M576 341q0 -59 -7 -121t-33.5 -113t-78.5 -83.5t-141 -32.5q-59 0 -100.5 15t-69.5 40.5t-44.5 60t-25.5 73.5t-11.5 80t-2.5 81q0 31 3 67.5t12 73t26.5 71t45.5 60.5t69.5 42t98.5 16q85 0 136.5 -29t78.5 -75.5t35.5 -105.5t8.5 -120zM498 331q0 65 -8.5 116
t-29.5 85.5t-56 52.5t-88 18q-50 0 -83.5 -19t-53.5 -54.5t-28.5 -85.5t-8.5 -113q0 -61 7.5 -110.5t27 -85t53 -55t86.5 -19.5q54 0 89 18.5t56 53t29 85t8 113.5zM464 737q0 -12 -14 -12h-252q-14 0 -14 12v38q0 8 3.5 10.5t10.5 2.5h252q7 0 10.5 -2.5t3.5 -10.5v-38z
" />
    <glyph glyph-name="omacron" unicode="&#x14d;" horiz-adv-x="503" 
d="M457 252q0 -44 -5 -90t-25.5 -84t-62.5 -62t-116 -24q-72 0 -112.5 24t-60.5 61.5t-24.5 84t-4.5 90.5q0 36 6 79t26.5 80t60.5 61.5t109 24.5t110.5 -21.5t63.5 -56t28.5 -78.5t6.5 -89zM379 245q0 46 -5 80.5t-19.5 57t-40 34t-66.5 11.5q-39 0 -63 -11.5t-38 -34.5
t-19 -57t-5 -80t5 -80t19 -57t38 -34.5t63 -11.5q41 0 66.5 11t40 33.5t19.5 57t5 81.5zM392 585q0 -12 -14 -12h-252q-14 0 -14 12v38q0 8 3.5 10.5t10.5 2.5h252q7 0 10.5 -2.5t3.5 -10.5v-38z" />
    <glyph glyph-name="Obreve" unicode="&#x14e;" horiz-adv-x="638" 
d="M576 341q0 -59 -7 -121t-33.5 -113t-78.5 -83.5t-141 -32.5q-59 0 -100.5 15t-69.5 40.5t-44.5 60t-25.5 73.5t-11.5 80t-2.5 81q0 31 3 67.5t12 73t26.5 71t45.5 60.5t69.5 42t98.5 16q85 0 136.5 -29t78.5 -75.5t35.5 -105.5t8.5 -120zM498 331q0 65 -8.5 116
t-29.5 85.5t-56 52.5t-88 18q-50 0 -83.5 -19t-53.5 -54.5t-28.5 -85.5t-8.5 -113q0 -61 7.5 -110.5t27 -85t53 -55t86.5 -19.5q54 0 89 18.5t56 53t29 85t8 113.5zM323 700q-43 0 -82.5 22t-62.5 70q-2 4 -5 12.5t2 13.5l21 16q8 6 17 -3q15 -17 27 -30t25 -21.5
t27.5 -12.5t32.5 -4q35 0 56 16.5t50 51.5q9 9 17 3l21 -14q5 -5 2 -13.5t-5 -12.5q-23 -48 -62 -71t-81 -23z" />
    <glyph glyph-name="obreve" unicode="&#x14f;" horiz-adv-x="503" 
d="M457 252q0 -44 -5 -90t-25.5 -84t-62.5 -62t-116 -24q-72 0 -112.5 24t-60.5 61.5t-24.5 84t-4.5 90.5q0 36 6 79t26.5 80t60.5 61.5t109 24.5t110.5 -21.5t63.5 -56t28.5 -78.5t6.5 -89zM379 245q0 46 -5 80.5t-19.5 57t-40 34t-66.5 11.5q-39 0 -63 -11.5t-38 -34.5
t-19 -57t-5 -80t5 -80t19 -57t38 -34.5t63 -11.5q41 0 66.5 11t40 33.5t19.5 57t5 81.5zM248 538q-43 0 -82.5 22t-62.5 70q-2 4 -5 12.5t2 13.5l21 16q5 4 9 2.5t8 -5.5q15 -17 27 -30t25 -21.5t27.5 -12.5t32.5 -4t31 4.5t24.5 13t23.5 21t27 29.5q9 9 17 3l21 -14
q6 -4 2.5 -13t-5.5 -13q-23 -48 -62 -71t-81 -23z" />
    <glyph glyph-name="Ohungarumlaut" unicode="&#x150;" horiz-adv-x="638" 
d="M576 341q0 -59 -7 -121t-33.5 -113t-78.5 -83.5t-141 -32.5q-59 0 -100.5 15t-69.5 40.5t-44.5 60t-25.5 73.5t-11.5 80t-2.5 81q0 31 3 67.5t12 73t26.5 71t45.5 60.5t69.5 42t98.5 16q85 0 136.5 -29t78.5 -75.5t35.5 -105.5t8.5 -120zM498 331q0 65 -8.5 116
t-29.5 85.5t-56 52.5t-88 18q-50 0 -83.5 -19t-53.5 -54.5t-28.5 -85.5t-8.5 -113q0 -61 7.5 -110.5t27 -85t53 -55t86.5 -19.5q54 0 89 18.5t56 53t29 85t8 113.5zM511 793q5 -6 1.5 -9.5t-6.5 -5.5l-139 -75q-8 -4 -15 3l-21 23q-6 6 4 13l128 95q7 6 16 -5zM360 793
q5 -6 1.5 -9.5t-6.5 -5.5l-139 -75q-8 -4 -15 3l-21 23q-6 6 4 13l128 95q7 6 16 -5z" />
    <glyph glyph-name="ohungarumlaut" unicode="&#x151;" horiz-adv-x="503" 
d="M457 252q0 -44 -5 -90t-25.5 -84t-62.5 -62t-116 -24q-72 0 -112.5 24t-60.5 61.5t-24.5 84t-4.5 90.5q0 36 6 79t26.5 80t60.5 61.5t109 24.5t110.5 -21.5t63.5 -56t28.5 -78.5t6.5 -89zM379 245q0 46 -5 80.5t-19.5 57t-40 34t-66.5 11.5q-39 0 -63 -11.5t-38 -34.5
t-19 -57t-5 -80t5 -80t19 -57t38 -34.5t63 -11.5q41 0 66.5 11t40 33.5t19.5 57t5 81.5zM326 546q-4 -7 -14 -3l-29 10q-9 3 -3 14l69 143q5 9 17 3l47 -20q6 -3 5.5 -7.5t-2.5 -7.5zM200 546q-4 -7 -14 -3l-29 10q-9 3 -3 14l69 143q5 9 17 3l47 -20q6 -3 5.5 -7.5
t-2.5 -7.5z" />
    <glyph glyph-name="Racute" unicode="&#x154;" horiz-adv-x="526" 
d="M491 17q3 -7 0.5 -12t-9.5 -5h-57q-8 0 -13 2.5t-9 10.5l-128 266h-131v-261q0 -18 -17 -18h-43q-17 0 -17 17v630q0 16 17 16h204q37 0 72 -10.5t62 -33t43 -58.5t16 -86q0 -28 -7 -56.5t-22 -53.5t-39.5 -44.5t-58.5 -30.5zM400 476q0 35 -11 57.5t-29.5 35t-42 17.5
t-48.5 5h-125v-243h123q22 0 45.5 4.5t43 18t32 39t12.5 66.5zM389 793q5 -6 1.5 -9.5t-6.5 -5.5l-139 -75q-8 -4 -15 3l-21 23q-6 6 4 13l128 95q7 6 16 -5z" />
    <glyph glyph-name="racute" unicode="&#x155;" horiz-adv-x="321" 
d="M329 438q3 -18 -13 -20q-20 -4 -44 -10.5t-46.5 -13t-41.5 -13t-28 -11.5v-353q0 -17 -17 -17h-43q-16 0 -16 17v453q0 17 16 17h42q18 0 18 -17v-41l2 -2q10 8 27.5 17.5t38.5 19t43 17t41 11.5q9 2 12 -0.5t5 -11.5zM200 546q-5 -7 -15 -3l-29 10q-8 3 -3 14l70 143
q4 9 17 3l46 -20q7 -3 6 -7.5t-3 -7.5z" />
    <glyph glyph-name="Rcommaaccent" unicode="&#x156;" horiz-adv-x="526" 
d="M491 17q3 -7 0.5 -12t-9.5 -5h-57q-8 0 -13 2.5t-9 10.5l-128 266h-131v-261q0 -18 -17 -18h-43q-17 0 -17 17v630q0 16 17 16h204q37 0 72 -10.5t62 -33t43 -58.5t16 -86q0 -28 -7 -56.5t-22 -53.5t-39.5 -44.5t-58.5 -30.5zM400 476q0 35 -11 57.5t-29.5 35t-42 17.5
t-48.5 5h-125v-243h123q22 0 45.5 4.5t43 18t32 39t12.5 66.5zM313 -102q0 -52 -24 -86t-54 -53q-3 -2 -8 -4t-8 1l-14 14q-4 5 4 13q18 16 25.5 34t7.5 37q0 18 -7 31.5t-18 26.5q-3 4 -3 9.5t7 11.5l38 27q7 5 13.5 4.5t11.5 -5.5q15 -14 22 -30.5t7 -30.5z" />
    <glyph glyph-name="rcommaaccent" unicode="&#x157;" horiz-adv-x="321" 
d="M329 438q3 -18 -13 -20q-20 -4 -44 -10.5t-46.5 -13t-41.5 -13t-28 -11.5v-353q0 -17 -17 -17h-43q-16 0 -16 17v453q0 17 16 17h42q18 0 18 -17v-41l2 -2q10 8 27.5 17.5t38.5 19t43 17t41 11.5q9 2 12 -0.5t5 -11.5zM170 -122q0 -52 -24 -86t-54 -53q-3 -2 -8 -4t-8 1
l-14 14q-4 5 4 13q18 16 25.5 34t7.5 37q0 18 -7 31.5t-18 26.5q-3 4 -3 9.5t7 11.5l38 27q7 5 13.5 4.5t11.5 -5.5q15 -14 22 -30.5t7 -30.5z" />
    <glyph glyph-name="Rcaron" unicode="&#x158;" horiz-adv-x="526" 
d="M491 17q3 -7 0.5 -12t-9.5 -5h-57q-8 0 -13 2.5t-9 10.5l-128 266h-131v-261q0 -18 -17 -18h-43q-17 0 -17 17v630q0 16 17 16h204q37 0 72 -10.5t62 -33t43 -58.5t16 -86q0 -28 -7 -56.5t-22 -53.5t-39.5 -44.5t-58.5 -30.5zM400 476q0 35 -11 57.5t-29.5 35t-42 17.5
t-48.5 5h-125v-243h123q22 0 45.5 4.5t43 18t32 39t12.5 66.5zM229 703q-11 0 -17.5 3t-11.5 7l-103 94q-8 10 -1 16l20 18q8 6 16 1l121 -84l116 82q7 5 10 5.5t8 -4.5l19 -17q6 -6 0 -13l-103 -97q-13 -11 -27 -11h-47z" />
    <glyph glyph-name="rcaron" unicode="&#x159;" horiz-adv-x="321" 
d="M329 438q3 -18 -13 -20q-20 -4 -44 -10.5t-46.5 -13t-41.5 -13t-28 -11.5v-353q0 -17 -17 -17h-43q-16 0 -16 17v453q0 17 16 17h42q18 0 18 -17v-41l2 -2q10 8 27.5 17.5t38.5 19t43 17t41 11.5q9 2 12 -0.5t5 -11.5zM309 680q7 -6 -1 -16l-92 -119q-4 -5 -9.5 -7.5
t-19.5 -2.5h-47q-11 0 -16.5 2t-10.5 9l-94 119q-7 8 0 13l21 18q5 5 9 5t9 -6l105 -105l109 107q6 7 16 -1z" />
    <glyph glyph-name="Sacute" unicode="&#x15a;" horiz-adv-x="526" 
d="M480 184q0 -54 -18 -91t-49.5 -59.5t-73 -32.5t-87.5 -10q-21 0 -47 2t-52 5.5t-50.5 8.5t-40.5 12q-11 5 -13 10t0 12l7 28q3 11 17 10q21 -3 46 -5.5t49.5 -4.5t46 -3t36.5 -1q75 0 113.5 28t38.5 79q0 34 -6.5 56.5t-22.5 37t-43 23t-67 15.5q-45 7 -84 17.5t-68 29
t-45.5 49.5t-16.5 81q0 92 55.5 140t158.5 48q15 0 37 -1t47 -4t50 -8t45 -13q11 -4 13 -9.5t0 -12.5l-6 -27q-2 -5 -5.5 -9t-13.5 -3q-33 5 -78 9.5t-89 4.5q-39 0 -65.5 -8t-42 -22.5t-22 -35.5t-6.5 -46q0 -30 7.5 -47.5t24.5 -28.5t44 -17.5t66 -13.5q43 -8 81.5 -18
t67 -30.5t45 -55t16.5 -89.5zM379 793q5 -6 1.5 -9.5t-6.5 -5.5l-139 -75q-8 -4 -15 3l-21 23q-6 6 4 13l128 95q7 6 16 -5z" />
    <glyph glyph-name="sacute" unicode="&#x15b;" horiz-adv-x="436" 
d="M395 140q0 -42 -15.5 -70t-42 -45.5t-60 -25t-69.5 -7.5q-19 0 -40 1t-41.5 4t-39 7.5t-32.5 10.5q-13 6 -11 21l4 21q2 10 7.5 12t14.5 1q15 -2 34.5 -4t39 -3.5t37 -2.5t30.5 -1q56 0 80.5 17.5t24.5 55.5q0 22 -4 36.5t-15 23.5t-30 14t-49 10q-34 5 -65.5 13
t-55.5 23t-38.5 39t-14.5 63q0 70 47 106.5t128 36.5q15 0 34 -1t39.5 -3.5t40.5 -7t36 -10.5q14 -7 10 -21l-4 -24q-2 -8 -8.5 -10t-17.5 -1q-31 3 -65 6.5t-66 3.5q-56 0 -76 -17t-20 -56q0 -19 5 -30t16.5 -18t31.5 -11.5t50 -9.5q33 -5 64 -12.5t54.5 -23.5t37.5 -42
t14 -69zM238 546q-5 -7 -15 -3l-29 10q-8 3 -3 14l70 143q4 9 17 3l46 -20q7 -3 6 -7.5t-3 -7.5z" />
    <glyph glyph-name="Scircumflex" unicode="&#x15c;" horiz-adv-x="526" 
d="M480 184q0 -54 -18 -91t-49.5 -59.5t-73 -32.5t-87.5 -10q-21 0 -47 2t-52 5.5t-50.5 8.5t-40.5 12q-11 5 -13 10t0 12l7 28q3 11 17 10q21 -3 46 -5.5t49.5 -4.5t46 -3t36.5 -1q75 0 113.5 28t38.5 79q0 34 -6.5 56.5t-22.5 37t-43 23t-67 15.5q-45 7 -84 17.5t-68 29
t-45.5 49.5t-16.5 81q0 92 55.5 140t158.5 48q15 0 37 -1t47 -4t50 -8t45 -13q11 -4 13 -9.5t0 -12.5l-6 -27q-2 -5 -5.5 -9t-13.5 -3q-33 5 -78 9.5t-89 4.5q-39 0 -65.5 -8t-42 -22.5t-22 -35.5t-6.5 -46q0 -30 7.5 -47.5t24.5 -28.5t44 -17.5t66 -13.5q43 -8 81.5 -18
t67 -30.5t45 -55t16.5 -89.5zM388 702q-8 -6 -16 -1l-119 84l-116 -85q-7 -5 -10 -5.5t-8 4.5l-19 20q-6 6 0 13l103 97q8 6 13.5 8.5t13.5 2.5h47q11 0 17 -2.5t12 -7.5l100 -94q10 -9 1 -16z" />
    <glyph glyph-name="scircumflex" unicode="&#x15d;" horiz-adv-x="436" 
d="M395 140q0 -42 -15.5 -70t-42 -45.5t-60 -25t-69.5 -7.5q-19 0 -40 1t-41.5 4t-39 7.5t-32.5 10.5q-13 6 -11 21l4 21q2 10 7.5 12t14.5 1q15 -2 34.5 -4t39 -3.5t37 -2.5t30.5 -1q56 0 80.5 17.5t24.5 55.5q0 22 -4 36.5t-15 23.5t-30 14t-49 10q-34 5 -65.5 13
t-55.5 23t-38.5 39t-14.5 63q0 70 47 106.5t128 36.5q15 0 34 -1t39.5 -3.5t40.5 -7t36 -10.5q14 -7 10 -21l-4 -24q-2 -8 -8.5 -10t-17.5 -1q-31 3 -65 6.5t-66 3.5q-56 0 -76 -17t-20 -56q0 -19 5 -30t16.5 -18t31.5 -11.5t50 -9.5q33 -5 64 -12.5t54.5 -23.5t37.5 -42
t14 -69zM343 542q-10 -8 -16 -1l-109 107l-105 -105q-5 -6 -9 -6t-9 5l-21 18q-7 5 0 13l94 119q5 7 10.5 9t16.5 2h47q14 0 19.5 -2.5t9.5 -7.5l92 -119q8 -10 1 -16z" />
    <glyph glyph-name="Scedilla" unicode="&#x15e;" horiz-adv-x="526" 
d="M282 -112q0 19 -13.5 25t-50.5 8q-21 2 -13 22l17 49q-20 1 -42.5 3t-44 5.5t-40.5 8t-33 10.5q-11 5 -13 10t0 12l7 28q3 11 17 10q21 -3 46 -5.5t49.5 -4.5t46 -3t36.5 -1q75 0 113.5 28t38.5 79q0 34 -6.5 56.5t-22.5 37t-43 23t-67 15.5q-45 7 -84 17.5t-68 29
t-45.5 49.5t-16.5 81q0 92 55.5 140t158.5 48q15 0 37 -1t47 -4t50 -8t45 -13q11 -4 13 -9.5t0 -12.5l-6 -27q-2 -5 -5.5 -9t-13.5 -3q-33 5 -78 9.5t-89 4.5q-39 0 -65.5 -8t-42 -22.5t-22 -35.5t-6.5 -46q0 -30 7.5 -47.5t24.5 -28.5t44 -17.5t66 -13.5q43 -8 81.5 -18
t67 -30.5t45 -55t16.5 -89.5q0 -54 -17.5 -90.5t-47.5 -59t-70.5 -32.5t-85.5 -11l-13 -35q28 -1 45.5 -6.5t27.5 -14.5t14 -20.5t4 -24.5q0 -40 -27.5 -59t-76.5 -19q-13 0 -33.5 2.5t-36.5 7.5q-9 4 -7 11l5 19q1 3 3 4.5t8 0.5q14 -2 30 -3.5t27 -1.5q21 0 37 6t16 30z
" />
    <glyph glyph-name="scedilla" unicode="&#x15f;" horiz-adv-x="436" 
d="M246 -112q0 19 -13.5 25t-50.5 8q-21 2 -13 22l17 49q-35 2 -71 7t-60 16q-13 6 -11 21l4 21q2 10 7.5 12t14.5 1q15 -2 34.5 -4t39 -3.5t37 -2.5t30.5 -1q56 0 80.5 17.5t24.5 55.5q0 22 -4 36.5t-15 23.5t-30 14t-49 10q-34 5 -65.5 13t-55.5 23t-38.5 39t-14.5 63
q0 70 47 106.5t128 36.5q15 0 34 -1t39.5 -3.5t40.5 -7t36 -10.5q14 -7 10 -21l-4 -24q-2 -8 -8.5 -10t-17.5 -1q-31 3 -65 6.5t-66 3.5q-56 0 -76 -17t-20 -56q0 -19 5 -30t16.5 -18t31.5 -11.5t50 -9.5q33 -5 64 -12.5t54.5 -23.5t37.5 -42t14 -69q0 -39 -14 -66.5
t-38 -45t-55 -26t-65 -9.5l-13 -37q28 -1 45.5 -6.5t27.5 -14.5t14 -20.5t4 -24.5q0 -40 -27.5 -59t-76.5 -19q-13 0 -33.5 2.5t-36.5 7.5q-9 4 -7 11l5 19q1 3 3 4.5t8 0.5q14 -2 30 -3.5t27 -1.5q21 0 37 6t16 30z" />
    <glyph glyph-name="Tcommaaccent" unicode="&#x162;" horiz-adv-x="481" 
d="M465 608q0 -17 -18 -17h-168v-574q0 -17 -16 -17h-43q-18 0 -18 17v574h-167q-18 0 -18 17v39q0 16 17 16h414q17 0 17 -16v-39zM290 -122q0 -52 -24 -86t-54 -53q-3 -2 -8 -4t-8 1l-14 14q-4 5 4 13q18 16 25.5 34t7.5 37q0 18 -7 31.5t-18 26.5q-3 4 -3 9.5t7 11.5
l38 27q7 5 13.5 4.5t11.5 -5.5q15 -14 22 -30.5t7 -30.5z" />
    <glyph glyph-name="tcommaaccent" unicode="&#x163;" horiz-adv-x="323" 
d="M326 31q1 -13 -9 -19q-9 -5 -23.5 -8.5t-31 -6t-32 -4t-26.5 -1.5q-32 0 -53 7.5t-33 21.5t-17 33.5t-5 43.5v326h-55q-17 0 -17 17v28q0 18 17 18h56v108q0 9 4.5 13t12.5 6l40 11q17 5 17 -15v-123h111q11 0 14 -4.5t3 -12.5v-29q0 -9 -3 -13t-14 -4h-111v-303
q0 -18 2.5 -29t10.5 -18t21.5 -9.5t36.5 -2.5q8 0 27.5 1.5t30.5 2.5q12 1 16 -1.5t6 -10.5zM220 -122q0 -52 -24 -86t-54 -53q-3 -2 -8 -4t-8 1l-14 14q-4 5 4 13q18 16 25.5 34t7.5 37q0 18 -7 31.5t-18 26.5q-3 4 -3 9.5t7 11.5l38 27q7 5 13.5 4.5t11.5 -5.5
q15 -14 22 -30.5t7 -30.5z" />
    <glyph glyph-name="Tcaron" unicode="&#x164;" horiz-adv-x="481" 
d="M465 608q0 -17 -18 -17h-168v-574q0 -17 -16 -17h-43q-18 0 -18 17v574h-167q-18 0 -18 17v39q0 16 17 16h414q17 0 17 -16v-39zM217 703q-11 0 -17.5 3t-11.5 7l-103 94q-8 10 -1 16l20 18q8 6 16 1l121 -84l116 82q7 5 10 5.5t8 -4.5l19 -17q6 -6 0 -13l-103 -97
q-13 -11 -27 -11h-47z" />
    <glyph glyph-name="tcaron" unicode="&#x165;" horiz-adv-x="326" 
d="M324 687q0 -52 -24 -86t-54 -53q-3 -2 -8 -4t-8 1l-14 14q-4 5 4 13q18 16 25.5 34t7.5 37q0 18 -7 31.5t-18 26.5q-3 4 -3 9.5t7 11.5l38 27q7 5 13.5 4.5t11.5 -5.5q15 -14 22 -30.5t7 -30.5zM326 31q1 -13 -9 -19q-9 -5 -23.5 -8.5t-31 -6t-32 -4t-26.5 -1.5
q-32 0 -53 7.5t-33 21.5t-17 33.5t-5 43.5v326h-55q-17 0 -17 17v28q0 18 17 18h56v108q0 9 4.5 13t12.5 6l40 11q17 5 17 -15v-123h111q11 0 14 -4.5t3 -12.5v-29q0 -9 -3 -13t-14 -4h-111v-303q0 -18 2.5 -29t10.5 -18t21.5 -9.5t36.5 -2.5q8 0 27.5 1.5t30.5 2.5
q12 1 16 -1.5t6 -10.5z" />
    <glyph glyph-name="Utilde" unicode="&#x168;" horiz-adv-x="607" 
d="M304 64q77 0 118 42t41 131v408q0 11 4.5 14.5t13.5 3.5h43q8 0 12 -3.5t4 -14.5l-1 -405q0 -32 -3 -60.5t-14 -56.5q-29 -70 -86.5 -100t-131.5 -30q-169 0 -216 128q-11 27 -15 56.5t-4 62.5v405q0 11 4 14.5t13 3.5h44q8 0 12.5 -3.5t4.5 -14.5v-408q0 -84 39 -128.5
t118 -44.5zM386 701q-17 0 -37 8.5t-40.5 18t-39.5 18t-34 8.5q-8 0 -22 -6t-30 -32q-2 -5 -5.5 -6.5t-11.5 2.5l-20 8q-6 2 -6 7t2 9q17 46 44.5 64t50.5 18q19 0 39 -8t39.5 -18t37.5 -18t33 -8q17 0 27.5 9t21.5 28q2 4 5.5 7t11.5 0l21 -7q7 -2 6.5 -7.5t-1.5 -8.5
q-27 -86 -92 -86z" />
    <glyph glyph-name="utilde" unicode="&#x169;" horiz-adv-x="512" 
d="M457 17q0 -17 -17 -17h-41q-18 0 -18 17v35l-2 2q-12 -8 -31.5 -19t-42.5 -21t-49 -17t-53 -7q-49 0 -78 14t-44.5 38.5t-20 58.5t-4.5 74v295q0 17 17 17h43q16 0 16 -17v-296q0 -35 4 -57t13.5 -35t25.5 -18t39 -5q18 0 42 7t48 16t45 19t33 16v353q0 17 17 17h41
q17 0 17 -17v-453zM336 551q-17 0 -37 8.5t-40.5 18t-39.5 18t-34 8.5q-8 0 -22 -6t-30 -32q-2 -5 -5.5 -6.5t-11.5 2.5l-20 8q-6 2 -6 7t2 9q17 46 44.5 64t50.5 18q19 0 39 -8t39.5 -18t37.5 -18t33 -8q17 0 27.5 9t21.5 28q2 4 5.5 7t11.5 0l21 -7q7 -2 6.5 -7.5
t-1.5 -8.5q-27 -86 -92 -86z" />
    <glyph glyph-name="Umacron" unicode="&#x16a;" horiz-adv-x="607" 
d="M304 64q77 0 118 42t41 131v408q0 11 4.5 14.5t13.5 3.5h43q8 0 12 -3.5t4 -14.5l-1 -405q0 -32 -3 -60.5t-14 -56.5q-29 -70 -86.5 -100t-131.5 -30q-169 0 -216 128q-11 27 -15 56.5t-4 62.5v405q0 11 4 14.5t13 3.5h44q8 0 12.5 -3.5t4.5 -14.5v-408q0 -84 39 -128.5
t118 -44.5zM449 737q0 -12 -14 -12h-252q-14 0 -14 12v38q0 8 3.5 10.5t10.5 2.5h252q7 0 10.5 -2.5t3.5 -10.5v-38z" />
    <glyph glyph-name="umacron" unicode="&#x16b;" horiz-adv-x="512" 
d="M457 17q0 -17 -17 -17h-41q-18 0 -18 17v35l-2 2q-12 -8 -31.5 -19t-42.5 -21t-49 -17t-53 -7q-49 0 -78 14t-44.5 38.5t-20 58.5t-4.5 74v295q0 17 17 17h43q16 0 16 -17v-296q0 -35 4 -57t13.5 -35t25.5 -18t39 -5q18 0 42 7t48 16t45 19t33 16v353q0 17 17 17h41
q17 0 17 -17v-453zM398 585q0 -12 -14 -12h-252q-14 0 -14 12v38q0 8 3.5 10.5t10.5 2.5h252q7 0 10.5 -2.5t3.5 -10.5v-38z" />
    <glyph glyph-name="Ubreve" unicode="&#x16c;" horiz-adv-x="607" 
d="M304 64q77 0 118 42t41 131v408q0 11 4.5 14.5t13.5 3.5h43q8 0 12 -3.5t4 -14.5l-1 -405q0 -32 -3 -60.5t-14 -56.5q-29 -70 -86.5 -100t-131.5 -30q-169 0 -216 128q-11 27 -15 56.5t-4 62.5v405q0 11 4 14.5t13 3.5h44q8 0 12.5 -3.5t4.5 -14.5v-408q0 -84 39 -128.5
t118 -44.5zM312 688q-43 0 -82.5 22t-62.5 70q-2 4 -5 12.5t2 13.5l21 16q5 4 9 2.5t8 -5.5q15 -17 27 -30t25 -21.5t27.5 -12.5t32.5 -4t31 4.5t24.5 13t23.5 21t27 29.5q9 9 17 3l21 -14q6 -4 2.5 -13t-5.5 -13q-23 -48 -62 -71t-81 -23z" />
    <glyph glyph-name="ubreve" unicode="&#x16d;" horiz-adv-x="512" 
d="M457 17q0 -17 -17 -17h-41q-18 0 -18 17v35l-2 2q-12 -8 -31.5 -19t-42.5 -21t-49 -17t-53 -7q-49 0 -78 14t-44.5 38.5t-20 58.5t-4.5 74v295q0 17 17 17h43q16 0 16 -17v-296q0 -35 4 -57t13.5 -35t25.5 -18t39 -5q18 0 42 7t48 16t45 19t33 16v353q0 17 17 17h41
q17 0 17 -17v-453zM257 538q-43 0 -82.5 22t-62.5 70q-2 4 -5 12.5t2 13.5l21 16q5 4 9 2.5t8 -5.5q15 -17 27 -30t25 -21.5t27.5 -12.5t32.5 -4t31 4.5t24.5 13t23.5 21t27 29.5q9 9 17 3l21 -14q6 -4 2.5 -13t-5.5 -13q-23 -48 -62 -71t-81 -23z" />
    <glyph glyph-name="Uring" unicode="&#x16e;" horiz-adv-x="607" 
d="M304 64q77 0 118 42t41 131v408q0 11 4.5 14.5t13.5 3.5h43q8 0 12 -3.5t4 -14.5l-1 -405q0 -32 -3 -60.5t-14 -56.5q-29 -70 -86.5 -100t-131.5 -30q-169 0 -216 128q-11 27 -15 56.5t-4 62.5v405q0 11 4 14.5t13 3.5h44q8 0 12.5 -3.5t4.5 -14.5v-408q0 -84 39 -128.5
t118 -44.5zM314 875q21 0 38.5 -8t31 -21t21 -31t7.5 -37q0 -20 -7.5 -37.5t-21 -30.5t-31 -21t-38.5 -8q-20 0 -38 7.5t-31.5 20t-22 30.5t-8.5 39t8.5 39t22 30.5t31.5 20t38 7.5zM363 778q0 20 -14 35.5t-35 15.5q-20 0 -34 -15.5t-14 -35.5q0 -22 13 -36.5t35 -14.5
q21 0 35 14.5t14 36.5z" />
    <glyph glyph-name="uring" unicode="&#x16f;" horiz-adv-x="512" 
d="M457 17q0 -17 -17 -17h-41q-18 0 -18 17v35l-2 2q-12 -8 -31.5 -19t-42.5 -21t-49 -17t-53 -7q-49 0 -78 14t-44.5 38.5t-20 58.5t-4.5 74v295q0 17 17 17h43q16 0 16 -17v-296q0 -35 4 -57t13.5 -35t25.5 -18t39 -5q18 0 42 7t48 16t45 19t33 16v353q0 17 17 17h41
q17 0 17 -17v-453zM259 713q21 0 38.5 -8t31 -21t21 -31t7.5 -37q0 -20 -7.5 -37.5t-21 -30.5t-31 -21t-38.5 -8q-20 0 -38 7.5t-31.5 20t-22 30.5t-8.5 39t8.5 39t22 30.5t31.5 20t38 7.5zM308 616q0 20 -14 35.5t-35 15.5q-20 0 -34 -15.5t-14 -35.5q0 -22 13 -36.5
t35 -14.5q21 0 35 14.5t14 36.5z" />
    <glyph glyph-name="Uhungarumlaut" unicode="&#x170;" horiz-adv-x="607" 
d="M304 64q77 0 118 42t41 131v408q0 11 4.5 14.5t13.5 3.5h43q8 0 12 -3.5t4 -14.5l-1 -405q0 -32 -3 -60.5t-14 -56.5q-29 -70 -86.5 -100t-131.5 -30q-169 0 -216 128q-11 27 -15 56.5t-4 62.5v405q0 11 4 14.5t13 3.5h44q8 0 12.5 -3.5t4.5 -14.5v-408q0 -84 39 -128.5
t118 -44.5zM500 793q5 -6 1.5 -9.5t-6.5 -5.5l-139 -75q-8 -4 -15 3l-21 23q-6 6 4 13l128 95q7 6 16 -5zM349 793q5 -6 1.5 -9.5t-6.5 -5.5l-139 -75q-8 -4 -15 3l-21 23q-6 6 4 13l128 95q7 6 16 -5z" />
    <glyph glyph-name="uhungarumlaut" unicode="&#x171;" horiz-adv-x="512" 
d="M457 17q0 -17 -17 -17h-41q-18 0 -18 17v35l-2 2q-12 -8 -31.5 -19t-42.5 -21t-49 -17t-53 -7q-49 0 -78 14t-44.5 38.5t-20 58.5t-4.5 74v295q0 17 17 17h43q16 0 16 -17v-296q0 -35 4 -57t13.5 -35t25.5 -18t39 -5q18 0 42 7t48 16t45 19t33 16v353q0 17 17 17h41
q17 0 17 -17v-453zM340 546q-4 -7 -14 -3l-29 10q-9 3 -3 14l69 143q5 9 17 3l47 -20q6 -3 5.5 -7.5t-2.5 -7.5zM214 546q-4 -7 -14 -3l-29 10q-9 3 -3 14l69 143q5 9 17 3l47 -20q6 -3 5.5 -7.5t-2.5 -7.5z" />
    <glyph glyph-name="Wcircumflex" unicode="&#x174;" horiz-adv-x="815" 
d="M608 15q-4 -15 -19 -15h-52q-10 0 -14 3t-6 11l-94 322l-16 57l-2 -1l-16 -59l-93 -319q-4 -14 -18 -14h-55q-14 0 -17 14l-186 634q-3 15 10 15h52q9 0 12.5 -3t5.5 -11q30 -106 56 -195q11 -38 22 -75.5t20 -69.5t15.5 -55t9.5 -32l29 -102h2l28 98q1 6 7.5 29
t15.5 54.5t19 67.5t19.5 67.5t16 55t8.5 30.5l-36 125q-5 16 9 16h52q15 0 19 -14q30 -106 56 -195q11 -38 22 -75.5t20 -69.5t15.5 -55t9.5 -32l28 -102h3l26 98q3 9 9.5 32.5t15.5 55.5t19.5 70t21.5 76q26 89 56 197q2 8 6 11t13 3h50q13 0 8 -18zM532 702q-8 -6 -16 -1
l-119 84l-116 -85q-7 -5 -10 -5.5t-8 4.5l-19 20q-6 6 0 13l103 97q8 6 13.5 8.5t13.5 2.5h47q11 0 17 -2.5t12 -7.5l100 -94q10 -9 1 -16z" />
    <glyph glyph-name="wcircumflex" unicode="&#x175;" horiz-adv-x="688" 
d="M429 249q11 -37 23 -74.5t23 -75.5h1h1l49 162l66 213q4 13 15 13h55q12 0 7 -15l-153 -459q-4 -13 -17 -13h-44q-8 0 -11.5 3t-5.5 9q-13 38 -26 76.5t-26 78.5q-9 29 -19.5 59t-20.5 61h-2l-39 -119l-51 -155q-4 -13 -16 -13h-44q-8 0 -11.5 3t-5.5 9l-158 459
q-2 6 -0.5 11t8.5 5h54q8 0 11.5 -3.5t5.5 -10.5q18 -58 36.5 -115t36.5 -116l44 -141h2l45 138q11 33 23 67.5t23 69.5l-28 95q-2 6 -0.5 11t8.5 5h53q8 0 11 -3.5t5 -10.5zM458 542q-10 -8 -16 -1l-109 107l-105 -105q-5 -6 -9 -6t-9 5l-21 18q-7 5 0 13l94 119
q5 7 10.5 9t16.5 2h47q14 0 19.5 -2.5t9.5 -7.5l92 -119q8 -10 1 -16z" />
    <glyph glyph-name="Ycircumflex" unicode="&#x176;" horiz-adv-x="507" 
d="M257 372l59 107l93 171q4 7 8 9.5t13 2.5h52q16 0 9 -15l-199 -351v-279q0 -17 -16 -17h-42q-18 0 -18 17v279l-199 353q-2 5 0 9t8 4h59q9 0 12.5 -3t6.5 -9l93 -175l55 -103h6zM390 702q-8 -6 -16 -1l-119 84l-116 -85q-7 -5 -10 -5.5t-8 4.5l-19 20q-6 6 0 13l103 97
q8 6 13.5 8.5t13.5 2.5h47q11 0 17 -2.5t12 -7.5l100 -94q10 -9 1 -16z" />
    <glyph glyph-name="ycircumflex" unicode="&#x177;" horiz-adv-x="466" 
d="M218 -162q-2 -7 -6 -10.5t-14 -3.5h-46q-14 0 -9 16l58 160l-176 471q-2 6 -0.5 11t8.5 5h53q8 0 11 -3.5t5 -10.5l82 -229l54 -153q2 6 11.5 31.5t19.5 54.5q11 33 25 74l76 223q4 13 16 13h54q12 0 7 -15zM361 542q-10 -8 -16 -1l-109 107l-105 -105q-5 -6 -9 -6t-9 5
l-21 18q-7 5 0 13l94 119q5 7 10.5 9t16.5 2h47q14 0 19.5 -2.5t9.5 -7.5l92 -119q8 -10 1 -16z" />
    <glyph glyph-name="Zacute" unicode="&#x179;" horiz-adv-x="488" 
d="M454 17q0 -17 -16 -17h-386q-16 0 -16 16v35q0 17 8 30l318 510h-289q-17 0 -17 17v39q0 16 16 16h363q16 0 16 -14v-40q0 -13 -8 -26l-315 -512h309q17 0 17 -16v-38zM361 793q5 -6 1.5 -9.5t-6.5 -5.5l-139 -75q-8 -4 -15 3l-21 23q-6 6 4 13l128 95q7 6 16 -5z" />
    <glyph glyph-name="zacute" unicode="&#x17a;" horiz-adv-x="433" 
d="M33 43q0 17 9 29l264 347h-242q-17 0 -17 17v36q0 15 17 15h311q8 0 13 -2t5 -12v-36q0 -16 -10 -28l-255 -338h251q18 0 18 -16v-38q0 -17 -17 -17h-332q-15 0 -15 14v29zM227 546q-5 -7 -15 -3l-29 10q-8 3 -3 14l70 143q4 9 17 3l46 -20q7 -3 6 -7.5t-3 -7.5z" />
    <glyph glyph-name="Zdotaccent" unicode="&#x17b;" horiz-adv-x="488" 
d="M454 17q0 -17 -16 -17h-386q-16 0 -16 16v35q0 17 8 30l318 510h-289q-17 0 -17 17v39q0 16 16 16h363q16 0 16 -14v-40q0 -13 -8 -26l-315 -512h309q17 0 17 -16v-38zM308 766q0 -18 -7.5 -31t-33.5 -13q-28 0 -35 13.5t-7 30.5t8 29t34 12t33.5 -11.5t7.5 -29.5z" />
    <glyph glyph-name="zdotaccent" unicode="&#x17c;" horiz-adv-x="433" 
d="M33 43q0 17 9 29l264 347h-242q-17 0 -17 17v36q0 15 17 15h311q8 0 13 -2t5 -12v-36q0 -16 -10 -28l-255 -338h251q18 0 18 -16v-38q0 -17 -17 -17h-332q-15 0 -15 14v29zM272 610q0 -18 -7.5 -31t-33.5 -13q-28 0 -35 13.5t-7 30.5t8 29t34 12t33.5 -11.5t7.5 -29.5z
" />
    <glyph glyph-name="AEacute" unicode="&#x1fc;" horiz-adv-x="880" 
d="M835 16q0 -10 -4 -13t-13 -3h-351q-13 0 -15.5 3t-2.5 10v164h-246l-99 -161q-7 -10 -13 -13t-14 -3h-57q-7 0 -10 2.5t2 11.5l389 634q8 15 24 15h387q17 0 17 -16v-39q0 -17 -18 -17h-284v-211h255q17 0 17 -16v-39q0 -16 -17 -16h-255v-238h292q16 0 16 -17v-38z
M449 587h-3l-199 -339h202v339zM712 793q5 -6 1.5 -9.5t-6.5 -5.5l-139 -75q-8 -4 -15 3l-21 23q-6 6 4 13l128 95q7 6 16 -5z" />
    <glyph glyph-name="aeacute" unicode="&#x1fd;" horiz-adv-x="798" 
d="M781 276q1 -24 -7.5 -40.5t-36.5 -16.5h-287q1 -45 6.5 -75.5t20 -49t38.5 -26t61 -7.5q15 0 35.5 1.5t41.5 3t40 3.5t32 4q10 1 15.5 -1t7.5 -12l4 -22q3 -14 -11 -20t-35.5 -11t-44.5 -8.5t-46.5 -5.5t-41.5 -2q-69 0 -109.5 20.5t-61.5 55.5q-7 -6 -15 -11.5
t-17 -10.5q-37 -21 -83.5 -37t-107.5 -16q-73 0 -104 35t-31 103q0 78 43 115.5t143 37.5h138v49q0 55 -25.5 76t-91.5 21q-14 0 -31.5 -0.5t-36.5 -2l-38 -3t-35 -3.5q-19 -3 -20 9l-6 26q-1 7 2 12t14 10q15 5 36 9t44 6.5t45.5 3.5t40.5 1q65 0 101.5 -15t53.5 -41
q23 25 59.5 40.5t92.5 15.5q64 0 104 -19t62.5 -50t31 -71t10.5 -81zM198 61q18 0 42 6.5t49 16t48.5 20.5t41.5 21q-7 26 -9 45.5t-2 48.5h-147q-46 0 -73 -18t-27 -68q0 -42 16.5 -57t60.5 -15zM697 282q-2 26 -6 52.5t-17 47.5t-37 34t-65 13q-37 0 -60 -10.5t-36 -29.5
t-18.5 -46t-7.5 -61h247zM461 546q-5 -7 -15 -3l-29 10q-8 3 -3 14l70 143q4 9 17 3l46 -20q7 -3 6 -7.5t-3 -7.5z" />
    <glyph glyph-name="Oslashacute" unicode="&#x1fe;" horiz-adv-x="638" 
d="M576 341q0 -59 -7 -121t-33.5 -113t-78.5 -83.5t-141 -32.5q-60 0 -102.5 15.5t-70.5 42.5l-32 -43q-3 -5 -7 -8.5t-10 1.5l-23 16q-6 4 -6 7t5 9l42 57q-33 53 -41.5 120t-8.5 133q0 31 3 67.5t12 73t26.5 71t45.5 60.5t69.5 42t98.5 16q63 0 106.5 -16t72.5 -43l36 49
q3 5 6.5 8.5t10.5 -1.5l23 -16q10 -6 2 -16l-46 -63q29 -48 38.5 -108.5t9.5 -123.5zM142 331q0 -51 5 -94t18 -77l284 388q-21 27 -53.5 41t-79.5 14q-50 0 -83.5 -19t-53.5 -54.5t-28.5 -85.5t-8.5 -113zM498 331q0 52 -5.5 94.5t-17.5 75.5l-285 -387q20 -26 50.5 -39.5
t75.5 -13.5q54 0 89 18.5t56 53t29 85t8 113.5zM442 793q5 -6 1.5 -9.5t-6.5 -5.5l-139 -75q-8 -4 -15 3l-21 23q-6 6 4 13l128 95q7 6 16 -5z" />
    <glyph glyph-name="oslashacute" unicode="&#x1ff;" horiz-adv-x="503" 
d="M457 252q0 -44 -5 -90t-25.5 -84t-62.5 -62t-116 -24q-41 0 -71 8t-52 22l-23 -31q-3 -5 -6.5 -8.5t-10.5 1.5l-22 15q-6 5 -5.5 8.5t4.5 8.5l28 38q-15 19 -24 43t-13.5 49.5t-5.5 52.5t-1 53q0 36 6 79t26.5 80t60.5 61.5t109 24.5q47 0 80 -10t56 -27l30 41
q3 5 7.5 8.5t9.5 -0.5l22 -16q10 -7 2 -17l-37 -51q24 -35 31.5 -80.5t7.5 -92.5zM123 245q0 -39 3.5 -69.5t12.5 -53.5l201 278q-15 14 -37.5 21t-54.5 7q-39 0 -63 -11.5t-38 -34.5t-19 -57t-5 -80zM379 245q0 34 -2.5 61t-9.5 49l-198 -272q27 -21 79 -21q41 0 66.5 11
t40 33.5t19.5 57t5 81.5zM275 546q-5 -7 -15 -3l-29 10q-8 3 -3 14l70 143q4 9 17 3l46 -20q7 -3 6 -7.5t-3 -7.5z" />
    <glyph glyph-name="Itilde" unicode="&#x128;" horiz-adv-x="254" 
d="M165 17q0 -17 -17 -17h-44q-18 0 -18 17v628q0 11 4.5 14.5t13.5 3.5h44q8 0 12.5 -3.5t4.5 -14.5v-628zM200 721q-17 0 -37 8.5t-40.5 18t-39.5 18t-34 8.5q-8 0 -22 -6t-30 -32q-2 -5 -5.5 -6.5t-11.5 2.5l-20 8q-6 2 -6 7t2 9q17 46 44.5 64t50.5 18q19 0 39 -8
t39.5 -18t37.5 -18t33 -8q17 0 27.5 9t21.5 28q2 4 5.5 7t11.5 0l21 -7q7 -2 6.5 -7.5t-1.5 -8.5q-27 -86 -92 -86z" />
    <glyph glyph-name="itilde" unicode="&#x129;" horiz-adv-x="320" 
d="M197 17q0 -17 -16 -17h-41q-18 0 -18 17v453q0 11 4.5 14t13.5 3h41q16 0 16 -17v-453zM236 551q-17 0 -37 8.5t-40.5 18t-39.5 18t-34 8.5q-8 0 -22 -6t-30 -32q-2 -5 -5.5 -6.5t-11.5 2.5l-20 8q-6 2 -6 7t2 9q17 46 44.5 64t50.5 18q19 0 39 -8t39.5 -18t37.5 -18
t33 -8q17 0 27.5 9t21.5 28q2 4 5.5 7t11.5 0l21 -7q7 -2 6.5 -7.5t-1.5 -8.5q-27 -86 -92 -86z" />
    <glyph glyph-name="Imacron" unicode="&#x12a;" horiz-adv-x="254" 
d="M165 17q0 -17 -17 -17h-44q-18 0 -18 17v628q0 11 4.5 14.5t13.5 3.5h44q8 0 12.5 -3.5t4.5 -14.5v-628zM265 737q0 -12 -14 -12h-252q-14 0 -14 12v38q0 8 3.5 10.5t10.5 2.5h252q7 0 10.5 -2.5t3.5 -10.5v-38z" />
    <glyph glyph-name="imacron" unicode="&#x12b;" horiz-adv-x="260" 
d="M168 17q0 -17 -16 -17h-41q-18 0 -18 17v453q0 11 4.5 14t13.5 3h41q16 0 16 -17v-453zM270 585q0 -12 -14 -12h-252q-14 0 -14 12v38q0 8 3.5 10.5t10.5 2.5h252q7 0 10.5 -2.5t3.5 -10.5v-38z" />
    <glyph glyph-name="Ibreve" unicode="&#x12c;" horiz-adv-x="271" 
d="M142 700q-43 0 -82.5 22t-62.5 70q-2 4 -5 12.5t2 13.5l21 16q8 6 17 -3q15 -17 27 -30t25 -21.5t27.5 -12.5t32.5 -4q35 0 56 16.5t50 51.5q9 9 17 3l21 -14q5 -5 2 -13.5t-5 -12.5q-23 -48 -62 -71t-81 -23zM181 17q0 -17 -17 -17h-44q-18 0 -18 17v628q0 11 4.5 14.5
t13.5 3.5h44q8 0 12.5 -3.5t4.5 -14.5v-628z" />
    <glyph glyph-name="ibreve" unicode="&#x12d;" horiz-adv-x="281" 
d="M179 17q0 -17 -16 -17h-41q-18 0 -18 17v453q0 11 4.5 14t13.5 3h41q16 0 16 -17v-453zM141 544q-43 0 -82.5 22t-62.5 70q-2 4 -5 12.5t2 13.5l21 16q5 4 9 2.5t8 -5.5q15 -17 27 -30t25 -21.5t27.5 -12.5t32.5 -4t31 4.5t24.5 13t23.5 21t27 29.5q9 9 17 3l21 -14
q6 -4 2.5 -13t-5.5 -13q-23 -48 -62 -71t-81 -23z" />
    <glyph glyph-name="Iogonek" unicode="&#x12e;" horiz-adv-x="254" 
d="M108 -99q0 -20 10.5 -29.5t26 -12t34 0t35.5 6.5q6 2 7.5 0t2.5 -4l8 -24q2 -7 -7 -11q-15 -8 -35 -12.5t-33 -5.5q-54 -3 -82 20.5t-28 63.5q0 23 11.5 50.5t41.5 56.5q-7 1 -10.5 4.5t-3.5 12.5v628q0 11 4.5 14.5t13.5 3.5h44q8 0 12.5 -3.5t4.5 -14.5v-628
q0 -16 -12 -17q-26 -30 -35.5 -55t-9.5 -44z" />
    <glyph glyph-name="iogonek" unicode="&#x12f;" horiz-adv-x="223" 
d="M95 -99q0 -20 10.5 -29.5t26 -12t34 0t35.5 6.5q6 2 7.5 0t2.5 -4l8 -24q2 -7 -7 -11q-15 -8 -35 -12.5t-33 -5.5q-54 -3 -82 20.5t-28 63.5q0 23 11.5 50.5t41.5 56.5q-13 1 -13 17v453q0 11 4.5 14t13.5 3h41q16 0 16 -17v-453q0 -13 -9 -16q-26 -30 -35.5 -55
t-9.5 -45zM155 617q0 -19 -7.5 -32t-35.5 -13q-29 0 -36 13.5t-7 31.5q0 19 8.5 31t34.5 12q27 0 35 -11.5t8 -31.5z" />
    <glyph glyph-name="Idotaccent" unicode="&#x130;" horiz-adv-x="254" 
d="M165 17q0 -17 -17 -17h-44q-18 0 -18 17v628q0 11 4.5 14.5t13.5 3.5h44q8 0 12.5 -3.5t4.5 -14.5v-628zM168 780q0 -18 -7.5 -31t-33.5 -13q-28 0 -35 13.5t-7 30.5t8 29t34 12t33.5 -11.5t7.5 -29.5z" />
    <glyph glyph-name="afii10023" unicode="&#x401;" horiz-adv-x="505" 
d="M460 16q0 -10 -4 -13t-13 -3h-351q-18 0 -18 16v630q0 17 18 17h345q17 0 17 -16v-39q0 -17 -18 -17h-284v-211h255q17 0 17 -16v-39q0 -16 -17 -16h-255v-238h292q16 0 16 -17v-38zM389 758q0 -18 -7.5 -30.5t-33.5 -12.5q-28 0 -34.5 13t-6.5 30t7.5 29t33.5 12
t33.5 -11t7.5 -30zM217 758q0 -18 -7.5 -30.5t-33.5 -12.5q-28 0 -34.5 13t-6.5 30t7.5 29t33.5 12t33.5 -11t7.5 -30z" />
    <glyph glyph-name="afii10052" unicode="&#x403;" horiz-adv-x="454" 
d="M451 608q0 -17 -18 -17h-279v-574q0 -17 -16 -17h-44q-18 0 -18 17v630q0 16 18 16h340q17 0 17 -16v-39zM364 793q5 -6 1.5 -9.5t-6.5 -5.5l-139 -75q-8 -4 -15 3l-21 23q-6 6 4 13l128 95q7 6 16 -5z" />
    <glyph glyph-name="afii10054" unicode="&#x405;" horiz-adv-x="526" 
d="M480 184q0 -54 -18 -91t-49.5 -59.5t-73 -32.5t-87.5 -10q-21 0 -47 2t-52 5.5t-50.5 8.5t-40.5 12q-11 5 -13 10t0 12l7 28q3 11 17 10q21 -3 46 -5.5t49.5 -4.5t46 -3t36.5 -1q75 0 113.5 28t38.5 79q0 34 -6.5 56.5t-22.5 37t-43 23t-67 15.5q-45 7 -84 17.5t-68 29
t-45.5 49.5t-16.5 81q0 92 55.5 140t158.5 48q15 0 37 -1t47 -4t50 -8t45 -13q11 -4 13 -9.5t0 -12.5l-6 -27q-2 -5 -5.5 -9t-13.5 -3q-33 5 -78 9.5t-89 4.5q-39 0 -65.5 -8t-42 -22.5t-22 -35.5t-6.5 -46q0 -30 7.5 -47.5t24.5 -28.5t44 -17.5t66 -13.5q43 -8 81.5 -18
t67 -30.5t45 -55t16.5 -89.5z" />
    <glyph glyph-name="afii10055" unicode="&#x406;" horiz-adv-x="254" 
d="M165 17q0 -17 -17 -17h-44q-18 0 -18 17v628q0 11 4.5 14.5t13.5 3.5h44q8 0 12.5 -3.5t4.5 -14.5v-628v0z" />
    <glyph glyph-name="afii10056" unicode="&#x407;" horiz-adv-x="254" 
d="M165 17q0 -17 -17 -17h-44q-18 0 -18 17v628q0 11 4.5 14.5t13.5 3.5h44q8 0 12.5 -3.5t4.5 -14.5v-628zM253 758q0 -18 -7.5 -30.5t-33.5 -12.5q-28 0 -34.5 13t-6.5 30t7.5 29t33.5 12t33.5 -11t7.5 -30zM81 758q0 -18 -7.5 -30.5t-33.5 -12.5q-28 0 -34.5 13t-6.5 30
t7.5 29t33.5 12t33.5 -11t7.5 -30z" />
    <glyph glyph-name="afii10057" unicode="&#x408;" horiz-adv-x="418" 
d="M333 160q0 -80 -42.5 -124.5t-144.5 -44.5q-32 0 -62 4.5t-60 16.5q-12 5 -14.5 10.5t-0.5 13.5l7 28q2 7 5.5 9.5t12.5 0.5q22 -3 52.5 -6t51.5 -3q35 0 57.5 6.5t35.5 19.5t18 32t5 44v478q0 11 4.5 14.5t13.5 3.5h43q9 0 13.5 -3.5t4.5 -14.5v-485v0z" />
    <glyph glyph-name="afii10017" unicode="&#x410;" horiz-adv-x="548" 
d="M97 16q-3 -10 -8 -13t-13 -3h-52q-14 0 -8 16l209 631q4 15 19 15h56q10 0 13.5 -4t5.5 -11l209 -633q3 -14 -8 -14h-61q-8 0 -11.5 3t-5.5 10l-49 164h-244zM321 415l-48 162h-3l-47 -159l-51 -170h199z" />
    <glyph glyph-name="afii10019" unicode="&#x412;" horiz-adv-x="557" 
d="M515 182q0 -42 -14.5 -75.5t-39.5 -57t-57.5 -36.5t-69.5 -13h-241q-12 0 -16.5 4t-4.5 13v629q0 16 18 16h211q97 0 145.5 -47t48.5 -123q0 -16 -3.5 -36t-13 -40t-26 -38t-42.5 -30l1 -1q30 -9 50 -28.5t32 -42.5t17 -48t5 -46zM413 486q0 46 -29 76t-93 30h-142v-213
h157q22 0 41.5 8.5t34 22.5t23 33.5t8.5 42.5zM433 189q0 23 -7 45t-22 38.5t-38.5 26.5t-56.5 10h-160v-238h160q37 0 61 9.5t38 26t19.5 37.5t5.5 45z" />
    <glyph glyph-name="afii10020" unicode="&#x413;" horiz-adv-x="454" 
d="M451 608q0 -17 -18 -17h-279v-574q0 -17 -16 -17h-44q-18 0 -18 17v630q0 16 18 16h340q17 0 17 -16v-39v0z" />
    <glyph glyph-name="afii10022" unicode="&#x415;" horiz-adv-x="505" 
d="M460 16q0 -10 -4 -13t-13 -3h-351q-18 0 -18 16v630q0 17 18 17h345q17 0 17 -16v-39q0 -17 -18 -17h-284v-211h255q17 0 17 -16v-39q0 -16 -17 -16h-255v-238h292q16 0 16 -17v-38v0z" />
    <glyph glyph-name="afii10028" unicode="&#x41a;" horiz-adv-x="550" 
d="M147 17q0 -17 -16 -17h-43q-18 0 -18 17v628q0 11 4.5 14.5t13.5 3.5h43q8 0 12 -3.5t4 -14.5v-272h108q16 0 33.5 3t33.5 13t30.5 29t24.5 52l54 173q4 11 9.5 15t15.5 4h33q17 0 19.5 -6.5t-1.5 -18.5l-52 -169q-14 -49 -39 -81.5t-56 -43.5q42 -13 64.5 -47.5
t36.5 -83.5l56 -187q4 -12 1.5 -18.5t-19.5 -6.5h-38q-10 0 -15.5 4t-9.5 15l-53 180q-10 33 -23.5 53t-29 31t-33.5 15t-37 4h-113v-285z" />
    <glyph glyph-name="afii10030" unicode="&#x41c;" horiz-adv-x="739" 
d="M666 17q0 -17 -17 -17h-43q-18 0 -18 17v474h-3l-35 -77l-146 -298q-6 -13 -20 -13h-29q-9 0 -13.5 3t-7.5 9l-152 310l-31 66h-2v-474q0 -17 -16 -17h-42q-17 0 -17 17v631q0 15 15 15h44q10 0 14 -3.5t8 -11.5l166 -345l48 -104h2l49 108l166 340q5 8 9.5 12t15.5 4h40
q15 0 15 -15v-631v0z" />
    <glyph glyph-name="afii10031" unicode="&#x41d;" horiz-adv-x="595" 
d="M523 17q0 -17 -16 -17h-43q-18 0 -18 17v298h-297v-298q0 -17 -16 -17h-43q-18 0 -18 17v628q0 11 4.5 14.5t13.5 3.5h43q8 0 12 -3.5t4 -14.5v-258h297v258q0 11 4.5 14.5t13.5 3.5h43q8 0 12 -3.5t4 -14.5v-628v0z" />
    <glyph glyph-name="afii10032" unicode="&#x41e;" horiz-adv-x="638" 
d="M576 341q0 -59 -7 -121t-33.5 -113t-78.5 -83.5t-141 -32.5q-59 0 -100.5 15t-69.5 40.5t-44.5 60t-25.5 73.5t-11.5 80t-2.5 81q0 31 3 67.5t12 73t26.5 71t45.5 60.5t69.5 42t98.5 16q85 0 136.5 -29t78.5 -75.5t35.5 -105.5t8.5 -120zM498 331q0 65 -8.5 116
t-29.5 85.5t-56 52.5t-88 18q-50 0 -83.5 -19t-53.5 -54.5t-28.5 -85.5t-8.5 -113q0 -61 7.5 -110.5t27 -85t53 -55t86.5 -19.5q54 0 89 18.5t56 53t29 85t8 113.5z" />
    <glyph glyph-name="afii10033" unicode="&#x41f;" horiz-adv-x="596" 
d="M524 17q0 -17 -16 -17h-43q-18 0 -18 17v574h-297v-574q0 -17 -16 -17h-43q-18 0 -18 17v628q0 11 4.5 14.5t13.5 3.5h417q8 0 12 -3.5t4 -14.5v-628v0z" />
    </font>
</defs>
</svg>
